<svg width="320" height="160" viewBox="0 0 320 160" fill="none" xmlns="http://www.w3.org/2000/svg">
<rect width="320" height="160" rx="10" fill="#F3F8FF"/>
<path d="M26 30.4516C26 26.8885 28.8885 24 32.4516 24H219.548C223.112 24 226 26.8885 226 30.4516V129.806C226 133.37 223.112 136.258 219.548 136.258H32.4516C28.8885 136.258 26 133.37 26 129.806V30.4516Z" fill="white"/>
<path d="M219.548 135.29V136.258H32.4516V135.29H219.548ZM225.032 129.806V30.4516C225.032 27.423 222.577 24.9677 219.548 24.9677H32.4516C29.423 24.9677 26.9677 27.423 26.9677 30.4516V129.806C26.9677 132.835 29.423 135.29 32.4516 135.29V136.258C28.8885 136.258 26 133.37 26 129.806V30.4516C26 26.9998 28.7108 24.181 32.1196 24.0082L32.4516 24H219.548L219.88 24.0082C223.289 24.181 226 26.9998 226 30.4516V129.806L225.992 130.138C225.819 133.547 223 136.258 219.548 136.258V135.29C222.577 135.29 225.032 132.835 225.032 129.806Z" fill="#67788E"/>
<path d="M53.7417 107.871C53.7417 106.089 55.186 104.645 56.9675 104.645H72.4514C74.233 104.645 75.6772 106.089 75.6772 107.871V129.806C75.6772 131.588 74.233 133.032 72.4514 133.032H56.9675C55.186 133.032 53.7417 131.588 53.7417 129.806V107.871Z" fill="#F1F2F4"/>
<path d="M29.2256 107.871C29.2256 106.089 30.6698 104.645 32.4514 104.645H47.9353C49.7168 104.645 51.1611 106.089 51.1611 107.871V129.806C51.1611 131.588 49.7168 133.032 47.9353 133.032H32.4514C30.6698 133.032 29.2256 131.588 29.2256 129.806V107.871Z" fill="#F1F2F4"/>
<path fill-rule="evenodd" clip-rule="evenodd" d="M60.5151 115.259C59.7623 116.191 59.4841 117.315 59.4841 118.032V119.645H58.2583V118.032C58.2583 117.07 58.6134 115.673 59.5564 114.505C60.5201 113.312 62.0753 112.387 64.3873 112.387C66.6994 112.387 68.2546 113.312 69.2183 114.505C70.1612 115.673 70.5164 117.07 70.5164 118.032V119.645H69.2906V118.032C69.2906 117.315 69.0124 116.191 68.2596 115.259C67.5276 114.352 66.3248 113.597 64.3873 113.597C62.4499 113.597 61.2471 114.352 60.5151 115.259Z" fill="#67788E"/>
<path d="M58.2583 119.645H62.3443V125.29H59.8927C59.3479 125.29 58.2583 124.968 58.2583 123.677V119.645Z" fill="#67788E"/>
<path d="M70.5164 119.645H66.4303V125.29H68.882C69.4268 125.29 70.5164 124.968 70.5164 123.677V119.645Z" fill="#67788E"/>
<path d="M39.8709 112.387C43.6122 112.387 46.6451 115.42 46.6451 119.161C46.6451 122.903 43.6122 125.935 39.8709 125.935C36.1296 125.935 33.0967 122.903 33.0967 119.161C33.0967 117.093 34.0237 115.242 35.4833 114H34.0644V112.71H37.6128V116.258H36.3225V114.98C35.1379 115.987 34.387 117.487 34.387 119.161C34.387 122.19 36.8422 124.645 39.8709 124.645C42.8995 124.645 45.3547 122.19 45.3547 119.161C45.3547 116.133 42.8995 113.677 39.8709 113.677V112.387Z" fill="#67788E"/>
<path d="M219.548 71.4194V72.3871H32.4514V71.4194H219.548ZM221.806 69.1613V30.4516C221.806 29.2045 220.795 28.1936 219.548 28.1936H32.4514C31.2043 28.1936 30.1933 29.2045 30.1933 30.4516V69.1613C30.1933 70.4084 31.2043 71.4194 32.4514 71.4194V72.3871L32.2857 72.3827C30.636 72.2992 29.3135 70.9767 29.23 69.327L29.2256 69.1613V30.4516C29.2256 28.6701 30.6698 27.2258 32.4514 27.2258H219.548C221.33 27.2258 222.774 28.6701 222.774 30.4516V69.1613L222.77 69.327C222.686 70.9767 221.364 72.2992 219.714 72.3827L219.548 72.3871V71.4194C220.795 71.4194 221.806 70.4084 221.806 69.1613Z" fill="#67788E"/>
<path opacity="0.25" d="M54.7172 45.9355C99.1912 46.4526 157.881 60.1488 181.661 66.9278C182.003 67.0255 182.202 67.3828 182.104 67.7254C182.007 68.068 181.649 68.2666 181.307 68.169C157.56 61.3995 99.0023 47.7409 54.7021 47.2258C54.3458 47.2216 54.0604 46.9293 54.0645 46.5731C54.0687 46.2168 54.361 45.9313 54.7172 45.9355Z" fill="#49966C"/>
<path opacity="0.25" d="M49.2321 42.0646C101.485 42.5735 170.457 56.0539 198.408 62.7274C198.754 62.8102 198.968 63.1583 198.886 63.5049C198.803 63.8514 198.455 64.0652 198.108 63.9824C170.187 57.316 101.327 43.8624 49.2195 43.3549C48.8632 43.3514 48.5771 43.0598 48.5806 42.7035C48.5841 42.3472 48.8758 42.0611 49.2321 42.0646Z" fill="#495F96"/>
<path opacity="0.25" d="M160.823 29.8065C143.774 30.206 124.036 35.6945 106.321 42.3663C88.5958 49.0417 72.8416 56.9229 63.743 62.1502C63.4341 62.3277 63.3274 62.7221 63.5049 63.031C63.6824 63.3399 64.0767 63.4466 64.3857 63.2692C73.4271 58.0746 89.1189 50.2238 106.775 43.5741C124.441 36.9209 144.02 31.4913 160.854 31.0968C161.21 31.0884 161.492 30.7927 161.484 30.4365C161.475 30.0803 161.18 29.7981 160.823 29.8065Z" fill="#96494B"/>
<path opacity="0.25" d="M178.242 38.1936C164.691 38.5218 149.013 43.03 134.953 48.5029C120.884 53.9797 108.379 60.4458 101.154 64.7359C100.848 64.9179 100.747 65.3135 100.929 65.6198C101.111 65.926 101.507 66.0267 101.813 65.8448C108.98 61.5889 121.422 55.1547 135.422 49.705C149.431 44.2515 164.945 39.8067 178.274 39.4839C178.63 39.4752 178.912 39.1791 178.903 38.823C178.894 38.4668 178.598 38.1849 178.242 38.1936Z" fill="#965B49"/>
<path opacity="0.25" d="M200.178 46.5806C189.224 46.8454 176.56 50.4796 165.214 54.8865C153.857 59.2972 143.763 64.5048 137.929 67.9611C137.623 68.1427 137.521 68.5385 137.703 68.845C137.885 69.1515 138.28 69.2528 138.587 69.0712C144.363 65.649 154.394 60.473 165.681 56.0892C176.978 51.7016 189.478 48.1303 200.209 47.871C200.565 47.8623 200.847 47.5662 200.839 47.21C200.83 46.8539 200.534 46.572 200.178 46.5806Z" fill="#7B9649"/>
<path opacity="0.25" d="M42.7798 38.1936C103.381 38.7024 183.383 52.1793 215.807 58.852C216.156 58.9238 216.381 59.2648 216.309 59.6137C216.237 59.9626 215.896 60.1875 215.548 60.1159C183.151 53.4487 103.244 39.9916 42.7684 39.4839C42.4122 39.4808 42.1259 39.1893 42.1289 38.8331C42.1321 38.4769 42.4235 38.1906 42.7798 38.1936Z" fill="#754996"/>
<path d="M89.0442 59.7703C89.4413 59.791 89.7465 60.1297 89.7259 60.5268L89.7003 61.0214C89.6797 61.4187 89.3409 61.724 88.9436 61.7033C88.5465 61.6826 88.2413 61.3439 88.2619 60.9468L88.2875 60.4523C88.3081 60.055 88.6469 59.7496 89.0442 59.7703ZM84.4819 59.5332C85.0155 59.561 85.4256 60.0161 85.398 60.5497C85.3703 61.0836 84.915 61.4939 84.3811 61.4661L83.437 61.4169C82.9032 61.3891 82.493 60.9338 82.5209 60.4C82.5487 59.8663 83.004 59.4561 83.5377 59.4839L84.4819 59.5332ZM78.7276 59.2341C79.2613 59.2618 79.6715 59.7169 79.6438 60.2506C79.6161 60.7844 79.1609 61.1947 78.6271 61.1668L77.6829 61.1176C77.1494 61.0898 76.7394 60.6348 76.767 60.1013C76.7947 59.5676 77.2498 59.1574 77.7834 59.1851L78.7276 59.2341ZM73.2576 58.6422C73.3469 58.6422 73.4193 58.7146 73.4193 58.8039C73.4193 58.8899 73.4866 58.9608 73.5724 58.9654L73.673 58.9708C73.8207 58.9786 73.9341 59.1046 73.9264 59.2523L73.89 59.951C73.8621 60.485 73.4066 60.8954 72.8726 60.8675L72.4012 60.843C71.887 60.8162 71.4838 60.3914 71.4838 59.8765V59.61C71.4838 59.0755 71.9171 58.6422 72.4516 58.6422H73.2576ZM72.4516 53.7059C72.986 53.7059 73.4193 54.1392 73.4193 54.6736V55.206C73.4193 55.7405 72.986 56.1737 72.4516 56.1737C71.9171 56.1737 71.4838 55.7405 71.4838 55.206V54.6736C71.4838 54.1392 71.9171 53.7059 72.4516 53.7059ZM72.4516 48.7689C72.986 48.7689 73.4193 49.2022 73.4193 49.7366V50.2696C73.4193 50.8041 72.986 51.2374 72.4516 51.2374C71.9171 51.2374 71.4838 50.8041 71.4838 50.2696V49.7366C71.4838 49.2022 71.9171 48.7689 72.4516 48.7689ZM72.4516 43.8319C72.986 43.8319 73.4193 44.2652 73.4193 44.7996V45.3326C73.4193 45.8671 72.986 46.3004 72.4516 46.3004C71.9171 46.3004 71.4838 45.8671 71.4838 45.3326V44.7996C71.4838 44.2652 71.9171 43.8319 72.4516 43.8319ZM89.9995 40.0324C90.3113 40.0479 90.5514 40.3132 90.536 40.6249L90.4962 41.4288C90.4807 41.7406 90.2154 41.9809 89.9036 41.9654C89.5919 41.9499 89.3517 41.6847 89.3671 41.3729L89.407 40.569C89.4224 40.2572 89.6877 40.0169 89.9995 40.0324ZM86.2102 39.8436C86.7441 39.8701 87.1554 40.3244 87.129 40.8583C87.1025 41.3923 86.6482 41.8037 86.1142 41.7772L85.7897 41.7611C85.2558 41.7346 84.8445 41.2803 84.8709 40.7464C84.8974 40.2124 85.3517 39.801 85.8857 39.8275L86.2102 39.8436ZM81.6944 39.6193C82.2281 39.6458 82.6393 40.1 82.6129 40.6337C82.5864 41.1675 82.1322 41.5788 81.5984 41.5523L81.2733 41.5361C80.7395 41.5096 80.3283 41.0555 80.3548 40.5218C80.3812 39.988 80.8355 39.5767 81.3693 39.6032L81.6944 39.6193ZM77.1783 39.395C77.712 39.4215 78.1232 39.8757 78.0967 40.4094C78.0703 40.9432 77.6161 41.3545 77.0823 41.328L76.7571 41.3118C76.2234 41.2853 75.8122 40.8312 75.8387 40.2975C75.8651 39.7637 76.3193 39.3524 76.8531 39.3789L77.1783 39.395ZM72.4994 39.1627L72.6623 39.1707C73.1959 39.1972 73.6071 39.6513 73.5806 40.1849L73.5355 41.0964C73.5339 41.1269 73.508 41.1505 73.4774 41.1489C73.4458 41.1474 73.4193 41.1726 73.4193 41.2042V41.2574C73.4193 41.3159 73.3719 41.3634 73.3133 41.3634H72.4516C71.9171 41.3634 71.4838 40.9301 71.4838 40.3956V40.1291C71.4838 39.8641 71.5924 39.6106 71.7844 39.4279C71.9763 39.2453 72.2348 39.1495 72.4994 39.1627Z" fill="#67788E"/>
<path d="M119.197 59.4644C119.27 59.5559 119.377 59.6123 119.494 59.6198L119.536 59.6225C119.814 59.6403 120.025 59.8805 120.008 60.159L119.965 60.8354C119.939 61.2353 119.671 61.5783 119.288 61.6979C118.906 61.8175 118.489 61.6889 118.24 61.3747L117.788 60.803C117.587 60.5485 117.63 60.1789 117.885 59.9776L118.021 59.8696C118.065 59.8351 118.092 59.7837 118.095 59.7281C118.102 59.62 118.196 59.5379 118.304 59.5446L118.336 59.5466C118.392 59.5501 118.448 59.5327 118.492 59.4978L118.62 59.3967C118.798 59.256 119.056 59.2863 119.197 59.4644ZM101.921 58.2709C102.254 58.2916 102.508 58.5788 102.487 58.9124C102.466 59.2459 102.179 59.4994 101.846 59.4789L101.122 59.4343C100.788 59.4137 100.535 59.1266 100.555 58.793C100.576 58.4592 100.863 58.2054 101.197 58.2261L101.921 58.2709ZM116.71 56.3179C117.042 56.7373 116.97 57.346 116.551 57.6775C116.132 58.0089 115.523 57.9377 115.192 57.5186L114.76 56.9726C114.428 56.5533 114.5 55.9446 114.919 55.613C115.338 55.2814 115.947 55.3526 116.278 55.7719L116.71 56.3179ZM119.372 54.8717C119.906 54.9053 120.311 55.3652 120.277 55.8987L120.25 56.3281C120.216 56.8615 119.757 57.2666 119.223 57.2328C118.69 57.1991 118.285 56.7393 118.318 56.2059L118.346 55.7765C118.379 55.2432 118.839 54.8382 119.372 54.8717ZM101.857 53.4167C102.39 53.4498 102.796 53.9089 102.763 54.4422L102.733 54.9264C102.7 55.4598 102.241 55.8655 101.708 55.8326C101.174 55.7997 100.768 55.3405 100.801 54.807L100.831 54.3229C100.864 53.7894 101.323 53.3836 101.857 53.4167ZM113.446 52.1894C113.777 52.6086 113.706 53.2173 113.287 53.5488C112.868 53.8802 112.259 53.809 111.928 53.3898L111.496 52.8434C111.164 52.4241 111.235 51.8154 111.655 51.484C112.074 51.1526 112.682 51.2237 113.014 51.643L113.446 52.1894ZM119.671 50.1499C120.205 50.1837 120.61 50.6435 120.576 51.1769L120.549 51.6059C120.515 52.1394 120.055 52.5444 119.522 52.5107C118.988 52.4769 118.583 52.0172 118.617 51.4837L118.644 51.0547C118.678 50.5213 119.138 50.1162 119.671 50.1499ZM102.156 48.5849C102.689 48.618 103.095 49.0771 103.062 49.6105L103.032 50.0947C102.999 50.628 102.54 51.0337 102.006 51.0008C101.473 50.9679 101.067 50.5087 101.1 49.9753L101.13 49.4911C101.163 48.9576 101.622 48.5519 102.156 48.5849ZM110.182 48.0601C110.513 48.4794 110.442 49.088 110.023 49.4195C109.603 49.7509 108.995 49.6797 108.663 49.2605L108.231 48.7141C107.9 48.2948 107.971 47.6861 108.39 47.3547C108.81 47.0233 109.418 47.0945 109.75 47.5137L110.182 48.0601ZM119.97 45.4278C120.503 45.4615 120.908 45.9213 120.875 46.4547L120.847 46.8838C120.814 47.4172 120.354 47.8223 119.82 47.7885C119.287 47.7548 118.882 47.295 118.916 46.7616L118.943 46.3325C118.977 45.7991 119.436 45.394 119.97 45.4278ZM102.454 43.7531C102.988 43.7862 103.393 44.2453 103.36 44.7787L103.33 45.2629C103.297 45.7962 102.838 46.2019 102.305 46.169C101.771 46.1361 101.366 45.677 101.399 45.1435L101.429 44.6593C101.462 44.1258 101.921 43.7201 102.454 43.7531ZM106.917 43.9309C107.249 44.3501 107.178 44.9588 106.759 45.2904C106.339 45.622 105.731 45.5509 105.399 45.1315L104.967 44.5855C104.636 44.1662 104.707 43.5575 105.126 43.226C105.545 42.8946 106.154 42.9657 106.485 43.3849L106.917 43.9309ZM120.569 41.9101C120.895 41.9307 121.143 42.2117 121.122 42.5377C121.101 42.8635 120.82 43.1109 120.495 43.0904L119.744 43.0431C119.418 43.0225 119.17 42.7416 119.19 42.4156C119.211 42.0896 119.492 41.8419 119.818 41.8626L120.569 41.9101ZM102.389 39.2055C102.771 39.0856 103.188 39.2143 103.437 39.5287L103.89 40.1021C104.091 40.3556 104.048 40.7238 103.794 40.924L103.664 41.0267C103.616 41.0645 103.586 41.1211 103.582 41.1821C103.575 41.3005 103.473 41.3906 103.355 41.3831L103.319 41.3808C103.258 41.3769 103.197 41.396 103.148 41.4343L103.038 41.5218C102.871 41.6542 102.628 41.626 102.496 41.4588C102.427 41.3728 102.326 41.3199 102.217 41.3132L102.157 41.3095C101.87 41.2919 101.652 41.0452 101.669 40.7585L101.712 40.0693L101.719 39.9949C101.771 39.627 102.03 39.3179 102.389 39.2055Z" fill="#67788E"/>
<path d="M177.907 59.4644C177.979 59.5559 178.087 59.6123 178.203 59.6198L178.245 59.6225C178.524 59.6403 178.735 59.8805 178.717 60.159L178.674 60.8354C178.649 61.2353 178.38 61.5783 177.998 61.6979C177.615 61.8175 177.199 61.6889 176.95 61.3747L176.498 60.803C176.297 60.5485 176.34 60.1789 176.594 59.9776L176.731 59.8696C176.775 59.8351 176.802 59.7837 176.805 59.7281C176.812 59.62 176.905 59.5379 177.013 59.5446L177.045 59.5466C177.102 59.5501 177.157 59.5327 177.201 59.4978L177.329 59.3967C177.507 59.256 177.766 59.2863 177.907 59.4644ZM160.63 58.2709C160.964 58.2916 161.218 58.5788 161.197 58.9124C161.176 59.2459 160.889 59.4994 160.556 59.4789L159.832 59.4343C159.498 59.4137 159.244 59.1266 159.265 58.793C159.285 58.4592 159.573 58.2054 159.906 58.2261L160.63 58.2709ZM175.42 56.3179C175.751 56.7373 175.68 57.346 175.261 57.6775C174.842 58.0089 174.233 57.9377 173.902 57.5186L173.47 56.9726C173.138 56.5533 173.209 55.9446 173.628 55.613C174.048 55.2814 174.656 55.3526 174.988 55.7719L175.42 56.3179ZM178.082 54.8717C178.615 54.9053 179.021 55.3652 178.987 55.8987L178.96 56.3281C178.926 56.8615 178.466 57.2666 177.933 57.2328C177.399 57.1991 176.994 56.7393 177.028 56.2059L177.055 55.7765C177.089 55.2432 177.549 54.8382 178.082 54.8717ZM160.567 53.4167C161.1 53.4498 161.506 53.9089 161.473 54.4422L161.443 54.9264C161.41 55.4598 160.951 55.8655 160.417 55.8326C159.884 55.7997 159.478 55.3405 159.511 54.807L159.541 54.3229C159.574 53.7894 160.033 53.3836 160.567 53.4167ZM172.156 52.1894C172.487 52.6086 172.416 53.2173 171.997 53.5488C171.577 53.8802 170.969 53.809 170.637 53.3898L170.205 52.8434C169.874 52.4241 169.945 51.8154 170.364 51.484C170.784 51.1526 171.392 51.2237 171.724 51.643L172.156 52.1894ZM178.381 50.1499C178.914 50.1837 179.319 50.6435 179.286 51.1769L179.259 51.6059C179.225 52.1394 178.765 52.5444 178.232 52.5107C177.698 52.4769 177.293 52.0172 177.327 51.4837L177.354 51.0547C177.388 50.5213 177.847 50.1162 178.381 50.1499ZM160.865 48.5849C161.399 48.618 161.804 49.0771 161.771 49.6105L161.741 50.0947C161.708 50.628 161.249 51.0337 160.716 51.0008C160.182 50.9679 159.777 50.5087 159.81 49.9753L159.84 49.4911C159.873 48.9576 160.332 48.5519 160.865 48.5849ZM168.891 48.0601C169.223 48.4794 169.152 49.088 168.732 49.4195C168.313 49.7509 167.705 49.6797 167.373 49.2605L166.941 48.7141C166.61 48.2948 166.681 47.6861 167.1 47.3547C167.519 47.0233 168.128 47.0945 168.459 47.5137L168.891 48.0601ZM178.68 45.4278C179.213 45.4615 179.618 45.9213 179.584 46.4547L179.557 46.8838C179.523 47.4172 179.064 47.8223 178.53 47.7885C177.997 47.7548 177.592 47.295 177.625 46.7616L177.653 46.3325C177.686 45.7991 178.146 45.394 178.68 45.4278ZM161.164 43.7531C161.697 43.7862 162.103 44.2453 162.07 44.7787L162.04 45.2629C162.007 45.7962 161.548 46.2019 161.015 46.169C160.481 46.1361 160.075 45.677 160.108 45.1435L160.138 44.6593C160.171 44.1258 160.63 43.7201 161.164 43.7531ZM165.627 43.9309C165.959 44.3501 165.888 44.9588 165.468 45.2904C165.049 45.622 164.44 45.5509 164.109 45.1315L163.677 44.5855C163.345 44.1662 163.417 43.5575 163.836 43.226C164.255 42.8946 164.864 42.9657 165.195 43.3849L165.627 43.9309ZM179.279 41.9101C179.605 41.9307 179.852 42.2117 179.832 42.5377C179.811 42.8635 179.53 43.1109 179.204 43.0904L178.453 43.0431C178.127 43.0225 177.88 42.7416 177.9 42.4156C177.921 42.0896 178.202 41.8419 178.528 41.8626L179.279 41.9101ZM161.098 39.2055C161.481 39.0856 161.898 39.2143 162.147 39.5287L162.6 40.1021C162.801 40.3556 162.757 40.7238 162.503 40.924L162.373 41.0267C162.325 41.0645 162.296 41.1211 162.292 41.1821C162.285 41.3005 162.183 41.3906 162.064 41.3831L162.029 41.3808C161.967 41.3769 161.906 41.396 161.858 41.4343L161.747 41.5218C161.58 41.6542 161.337 41.626 161.205 41.4588C161.137 41.3728 161.036 41.3199 160.926 41.3132L160.866 41.3095C160.58 41.2919 160.362 41.0452 160.379 40.7585L160.422 40.0693L160.429 39.9949C160.481 39.627 160.74 39.3179 161.098 39.2055Z" fill="#67788E"/>
<path d="M133.132 60.6855C133.174 60.7116 133.225 60.722 133.274 60.715L133.326 60.7077C133.415 60.6951 133.498 60.7573 133.51 60.8466C133.517 60.8949 133.545 60.9377 133.587 60.9632L133.759 61.0682C134.036 61.2378 134.124 61.6006 133.955 61.8784L133.533 62.5693C133.32 62.9176 132.911 63.0946 132.511 63.0122C132.112 62.9297 131.806 62.6055 131.748 62.2013L131.643 61.4618C131.604 61.1833 131.797 60.9254 132.076 60.8857L132.133 60.8775C132.247 60.8612 132.348 60.7948 132.408 60.6964C132.519 60.5143 132.757 60.4569 132.94 60.5682L133.132 60.6855ZM136.353 56.097C136.809 56.3757 136.952 56.9711 136.674 57.4272L136.225 58.1626C135.946 58.6188 135.35 58.7628 134.894 58.484C134.438 58.2054 134.294 57.6097 134.573 57.1535L135.022 56.4182C135.301 55.962 135.897 55.8182 136.353 56.097ZM132.997 57.2399C133.072 57.7691 132.704 58.2593 132.175 58.3348C131.646 58.4103 131.156 58.0423 131.08 57.513L130.999 56.9428C130.924 56.4137 131.292 55.9236 131.821 55.8483C132.35 55.773 132.84 56.1407 132.915 56.6697L132.997 57.2399ZM139.269 51.3226C139.725 51.6012 139.869 52.197 139.591 52.6531L139.141 53.3884C138.863 53.8445 138.267 53.9883 137.811 53.7095C137.355 53.4309 137.211 52.8354 137.49 52.3794L137.939 51.6441C138.217 51.188 138.813 51.0441 139.269 51.3226ZM132.287 52.267C132.363 52.7962 131.995 53.2862 131.466 53.3616C130.937 53.4369 130.447 53.0692 130.371 52.5402L130.29 51.97C130.214 51.4408 130.582 50.9506 131.111 50.8751C131.641 50.7996 132.131 51.1675 132.206 51.6968L132.287 52.267ZM142.186 46.5487C142.642 46.8274 142.786 47.4229 142.507 47.8789L142.058 48.6142C141.78 49.0702 141.184 49.2141 140.728 48.9356C140.272 48.6571 140.128 48.0613 140.406 47.6051L140.856 46.8699C141.134 46.4138 141.73 46.27 142.186 46.5487ZM131.579 47.2941C131.654 47.8233 131.286 48.3133 130.757 48.3887C130.228 48.464 129.738 48.0963 129.662 47.5672L129.581 46.9967C129.506 46.4674 129.874 45.9772 130.403 45.9019C130.932 45.8265 131.422 46.1944 131.497 46.7236L131.579 47.2941ZM145.103 41.7742C145.559 42.0529 145.703 42.6486 145.424 43.1048L144.975 43.8401C144.696 44.2962 144.1 44.4401 143.644 44.1614C143.188 43.8827 143.044 43.2869 143.323 42.8307L143.772 42.0955C144.051 41.6393 144.647 41.4955 145.103 41.7742ZM130.918 42.6572C130.967 43.0005 130.728 43.3184 130.385 43.3674L129.712 43.4634C129.369 43.5124 129.051 43.2738 129.001 42.9305C128.952 42.587 129.191 42.2688 129.535 42.2199L130.208 42.1241C130.551 42.0752 130.869 42.3139 130.918 42.6572ZM147.519 38.3336C147.849 38.535 147.953 38.9656 147.751 39.2952C147.55 39.6246 147.12 39.7285 146.79 39.5272L146.332 39.2474C146.002 39.0461 145.898 38.6157 146.1 38.2861C146.301 37.9564 146.732 37.8523 147.061 38.0537L147.519 38.3336Z" fill="#67788E"/>
<path d="M149.871 57.5993C150.205 57.8666 150.259 58.3542 149.991 58.6883L149.75 58.9898C149.483 59.3237 148.995 59.3777 148.661 59.1106C148.327 58.8432 148.273 58.3556 148.541 58.0216L148.782 57.72C149.049 57.3862 149.537 57.3322 149.871 57.5993ZM146.091 54.5754C146.508 54.9094 146.576 55.5186 146.242 55.9359C145.908 56.353 145.299 56.4205 144.882 56.0867L143.974 55.3603C143.556 55.0263 143.489 54.4171 143.823 53.9998C144.157 53.5827 144.766 53.5152 145.183 53.849L146.091 54.5754ZM141.403 50.8251C141.737 51.0924 141.791 51.5801 141.524 51.9141L141.282 52.2156C141.015 52.5495 140.528 52.6035 140.194 52.3364C139.86 52.069 139.806 51.5814 140.073 51.2474L140.314 50.9459C140.582 50.612 141.069 50.558 141.403 50.8251Z" fill="#67788E"/>
<path d="M57.3482 53.0012C57.7454 53.0219 58.0505 53.3606 58.03 53.7577L58.0043 54.2523C57.9837 54.6496 57.6449 54.9549 57.2476 54.9342C56.8505 54.9135 56.5453 54.5748 56.5659 54.1777L56.5916 53.6832C56.6121 53.2859 56.951 52.9805 57.3482 53.0012ZM117.534 32.7599C118.067 32.7877 118.477 33.2428 118.45 33.7765C118.422 34.3103 117.967 34.7207 117.433 34.6928L116.489 34.6436C115.955 34.6158 115.545 34.1605 115.573 33.6268C115.6 33.093 116.056 32.6829 116.589 32.7107L117.534 32.7599ZM87.6383 49.088C88.1719 49.1157 88.5821 49.5707 88.5545 50.1044C88.5268 50.6382 88.0715 51.0485 87.5377 51.0207L86.5936 50.9715C86.0601 50.9437 85.65 50.4887 85.6777 49.9551C85.7054 49.4214 86.1604 49.0112 86.6941 49.0389L87.6383 49.088ZM144.364 61.7788C144.453 61.7788 144.525 61.8512 144.525 61.9405C144.525 62.0264 144.593 62.0974 144.679 62.1019L144.779 62.1073C144.927 62.1151 145.04 62.2411 145.033 62.3888L144.996 63.0875C144.968 63.6215 144.513 64.0319 143.979 64.0041L143.507 63.9795C142.993 63.9527 142.59 63.5279 142.59 63.013V62.7465C142.59 62.212 143.023 61.7788 143.558 61.7788H144.364ZM66.968 32.7599C67.5025 32.7599 67.9358 33.1932 67.9358 33.7276V34.26C67.9358 34.7945 67.5025 35.2278 66.968 35.2278C66.4335 35.2278 66.0003 34.7945 66.0003 34.26V33.7276C66.0003 33.1932 66.4335 32.7599 66.968 32.7599ZM170.194 36.0478C170.728 36.0478 171.161 36.481 171.161 37.0155V37.5485C171.161 38.083 170.728 38.5163 170.194 38.5163C169.659 38.5163 169.226 38.083 169.226 37.5485V37.0155C169.226 36.481 169.659 36.0478 170.194 36.0478ZM195.482 63.0363C196.017 63.0363 196.45 63.4696 196.45 64.0041V64.5371C196.45 65.0715 196.017 65.5048 195.482 65.5048C194.948 65.5048 194.515 65.0715 194.515 64.5371V64.0041C194.515 63.4696 194.948 63.0363 195.482 63.0363ZM215.167 29.2621C215.478 29.2775 215.719 29.5428 215.703 29.8545L215.663 30.6585C215.648 30.9703 215.383 31.2105 215.071 31.195C214.759 31.1795 214.519 30.9143 214.534 30.6025L214.574 29.7986C214.59 29.4868 214.855 29.2466 215.167 29.2621ZM108.286 59.8452C108.82 59.8717 109.231 60.326 109.205 60.8599C109.178 61.3938 108.724 61.8053 108.19 61.7788L107.865 61.7626C107.331 61.7361 106.92 61.2819 106.946 60.748C106.973 60.214 107.427 59.8025 107.961 59.8291L108.286 59.8452ZM153.097 44.3181C153.631 44.3446 154.042 44.7987 154.016 45.3325C153.989 45.8663 153.535 46.2776 153.001 46.251L152.676 46.2349C152.142 46.2084 151.731 45.7543 151.757 45.2205C151.784 44.6867 152.238 44.2754 152.772 44.302L153.097 44.3181ZM183.838 53.4921C184.372 53.5186 184.783 53.9728 184.757 54.5065C184.73 55.0403 184.276 55.4516 183.742 55.4251L183.417 55.4089C182.883 55.3824 182.472 54.9283 182.499 54.3946C182.525 53.8608 182.979 53.4495 183.513 53.476L183.838 53.4921ZM80.8865 65.5048L81.0494 65.5129C81.583 65.5394 81.9941 65.9935 81.9677 66.5271L81.9226 67.4386C81.921 67.4691 81.8951 67.4926 81.8645 67.4911C81.8329 67.4895 81.8064 67.5147 81.8064 67.5464V67.5996C81.8064 67.6581 81.759 67.7055 81.7004 67.7055H80.8387C80.3042 67.7055 79.8709 67.2723 79.8709 66.7378V66.4713C79.8709 66.2063 79.9795 65.9527 80.1715 65.7701C80.3634 65.5874 80.6219 65.4917 80.8865 65.5048Z" fill="#67788E"/>
<path d="M156.323 107.871C156.323 106.089 157.767 104.645 159.549 104.645H219.549C221.33 104.645 222.774 106.089 222.774 107.871V129.806C222.774 131.588 221.33 133.032 219.549 133.032H159.549C157.767 133.032 156.323 131.588 156.323 129.806V107.871Z" fill="#5153D6"/>
<path d="M176.599 123.355L173.8 114.994H174.874L177.307 122.257L179.763 114.994H180.837L178.039 123.355H176.599Z" fill="white"/>
<path d="M183.736 123.529C183.121 123.529 182.583 123.394 182.122 123.123C181.665 122.848 181.309 122.466 181.054 121.979C180.798 121.487 180.67 120.914 180.67 120.26C180.67 119.575 180.796 118.983 181.048 118.483C181.3 117.98 181.65 117.593 182.099 117.322C182.552 117.047 183.082 116.91 183.69 116.91C184.321 116.91 184.857 117.055 185.298 117.345C185.743 117.635 186.076 118.05 186.297 118.588C186.521 119.126 186.618 119.766 186.587 120.51H185.542V120.138C185.53 119.368 185.374 118.793 185.072 118.414C184.77 118.03 184.321 117.839 183.725 117.839C183.086 117.839 182.6 118.044 182.267 118.454C181.934 118.864 181.768 119.453 181.768 120.219C181.768 120.959 181.934 121.532 182.267 121.938C182.6 122.344 183.074 122.548 183.69 122.548C184.104 122.548 184.464 122.453 184.77 122.263C185.076 122.074 185.316 121.801 185.49 121.444L186.483 121.787C186.239 122.341 185.871 122.77 185.38 123.076C184.892 123.378 184.344 123.529 183.736 123.529ZM181.42 120.51V119.679H186.053V120.51H181.42Z" fill="white"/>
<path d="M187.88 123.355V117.084H188.803V118.599L188.652 118.402C188.726 118.208 188.821 118.03 188.937 117.868C189.057 117.705 189.19 117.572 189.337 117.467C189.5 117.335 189.684 117.235 189.889 117.165C190.094 117.095 190.303 117.055 190.516 117.043C190.729 117.028 190.928 117.041 191.114 117.084V118.054C190.897 117.995 190.659 117.98 190.4 118.007C190.141 118.034 189.901 118.129 189.68 118.292C189.479 118.435 189.322 118.609 189.21 118.814C189.101 119.019 189.026 119.242 188.983 119.482C188.941 119.718 188.919 119.96 188.919 120.208V123.355H187.88Z" fill="white"/>
<path d="M192.328 115.975V114.906H193.362V115.975H192.328ZM192.328 123.355V117.084H193.362V123.355H192.328Z" fill="white"/>
<path d="M195.702 123.355V116.741C195.702 116.579 195.71 116.414 195.725 116.248C195.741 116.077 195.776 115.913 195.83 115.754C195.884 115.592 195.973 115.443 196.097 115.307C196.24 115.148 196.397 115.036 196.567 114.97C196.738 114.901 196.91 114.858 197.084 114.843C197.262 114.827 197.43 114.819 197.589 114.819H198.385V115.679H197.647C197.341 115.679 197.113 115.754 196.962 115.905C196.811 116.052 196.736 116.277 196.736 116.579V123.355H195.702ZM194.64 117.937V117.084H198.385V117.937H194.64Z" fill="white"/>
<path d="M200.182 126.142L201.396 122.844L201.413 123.819L198.673 117.084H199.759L201.907 122.501H201.535L203.55 117.084H204.601L201.187 126.142H200.182Z" fill="white"/>
<path d="M219.548 101.742V102.71H32.4514V101.742H219.548ZM221.806 99.4839V77.5484C221.806 76.3013 220.795 75.2904 219.548 75.2904H32.4514C31.2043 75.2904 30.1933 76.3013 30.1933 77.5484V99.4839C30.1933 100.731 31.2043 101.742 32.4514 101.742V102.71L32.2857 102.705C30.5811 102.619 29.2256 101.21 29.2256 99.4839V77.5484C29.2256 75.7669 30.6698 74.3226 32.4514 74.3226H219.548C221.33 74.3226 222.774 75.7669 222.774 77.5484V99.4839C222.774 101.265 221.33 102.71 219.548 102.71V101.742C220.795 101.742 221.806 100.731 221.806 99.4839Z" fill="#67788E"/>
<path d="M37.1353 93.0323V84.671H42.4191V85.6523H38.1688V88.271H41.7224V89.2523H38.1688V92.051H42.4191V93.0323H37.1353Z" fill="#989898"/>
<path d="M48.2801 93.0323V89.891C48.2801 89.593 48.253 89.3065 48.1988 89.0317C48.1485 88.7568 48.0575 88.511 47.9259 88.2942C47.7982 88.0736 47.624 87.8994 47.4033 87.7717C47.1866 87.6439 46.9117 87.5801 46.5788 87.5801C46.3195 87.5801 46.0833 87.6246 45.8704 87.7136C45.6614 87.7988 45.4814 87.9304 45.3304 88.1084C45.1795 88.2865 45.0614 88.511 44.9762 88.782C44.8949 89.0491 44.8543 89.3646 44.8543 89.7284L44.1749 89.5194C44.1749 88.9117 44.2833 88.391 44.5001 87.9575C44.7207 87.5201 45.0285 87.1852 45.4233 86.953C45.822 86.7168 46.2904 86.5988 46.8285 86.5988C47.2349 86.5988 47.5814 86.6626 47.8678 86.7904C48.1543 86.9181 48.3924 87.0884 48.582 87.3013C48.7717 87.5104 48.9207 87.7465 49.0291 88.0097C49.1375 88.2691 49.213 88.5342 49.2556 88.8052C49.302 89.0723 49.3253 89.3259 49.3253 89.5659V93.0323H48.2801ZM43.8091 93.0323V86.7613H44.7382V88.4394H44.8543V93.0323H43.8091Z" fill="#989898"/>
<path d="M54.3361 93.0323C53.9645 93.1059 53.5968 93.1349 53.2329 93.1194C52.8729 93.1078 52.5516 93.0362 52.269 92.9046C51.9865 92.7691 51.7716 92.5601 51.6245 92.2775C51.5007 92.0297 51.4329 91.7801 51.4213 91.5284C51.4136 91.273 51.4097 90.9846 51.4097 90.6633V85.0194H52.4432V90.6168C52.4432 90.8723 52.4452 91.091 52.449 91.273C52.4568 91.4549 52.4974 91.6117 52.571 91.7433C52.7103 91.991 52.931 92.1362 53.2329 92.1788C53.5387 92.2213 53.9065 92.2097 54.3361 92.1439V93.0323ZM50.1381 87.6149V86.7613H54.3361V87.6149H50.1381Z" fill="#989898"/>
<path d="M58.0659 93.2065C57.4504 93.2065 56.9123 93.071 56.4517 92.8001C55.9949 92.5252 55.6388 92.1439 55.3833 91.6562C55.1278 91.1646 55.0001 90.5917 55.0001 89.9375C55.0001 89.2523 55.1259 88.6601 55.3775 88.1607C55.6291 87.6575 55.9794 87.2704 56.4285 86.9994C56.8814 86.7246 57.4117 86.5871 58.0194 86.5871C58.6504 86.5871 59.1865 86.7323 59.6278 87.0226C60.073 87.313 60.4059 87.7271 60.6265 88.2652C60.851 88.8033 60.9478 89.4439 60.9168 90.1871H59.8717V89.8155C59.8601 89.0452 59.7033 88.4704 59.4014 88.091C59.0994 87.7078 58.6504 87.5162 58.0543 87.5162C57.4156 87.5162 56.9297 87.7213 56.5968 88.1317C56.2639 88.542 56.0975 89.1304 56.0975 89.8968C56.0975 90.6362 56.2639 91.2091 56.5968 91.6155C56.9297 92.022 57.4039 92.2252 58.0194 92.2252C58.4336 92.2252 58.7936 92.1304 59.0994 91.9407C59.4052 91.751 59.6452 91.4781 59.8194 91.122L60.8123 91.4646C60.5685 92.0181 60.2007 92.4478 59.7091 92.7536C59.2214 93.0555 58.6736 93.2065 58.0659 93.2065ZM55.7491 90.1871V89.3568H60.3827V90.1871H55.7491Z" fill="#989898"/>
<path d="M62.2096 93.0323V86.7613H63.1328V88.2768L62.9819 88.0794C63.0554 87.8859 63.1502 87.7078 63.2664 87.5452C63.3864 87.3826 63.5199 87.2491 63.667 87.1446C63.8296 87.013 64.0135 86.9123 64.2186 86.8426C64.4238 86.773 64.6328 86.7323 64.8457 86.7207C65.0586 86.7052 65.258 86.7188 65.4438 86.7613V87.731C65.227 87.673 64.989 87.6575 64.7296 87.6846C64.4702 87.7117 64.2302 87.8065 64.0096 87.9691C63.8083 88.1123 63.6515 88.2865 63.5393 88.4917C63.4309 88.6968 63.3554 88.9194 63.3128 89.1594C63.2702 89.3955 63.249 89.6375 63.249 89.8852V93.0323H62.2096Z" fill="#989898"/>
<path d="M71.5085 93.2065C70.8737 93.2065 70.3337 93.0652 69.8885 92.7826C69.4473 92.4962 69.1105 92.1033 68.8782 91.6039C68.646 91.1046 68.526 90.5355 68.5182 89.8968C68.526 89.2426 68.6479 88.6678 68.884 88.1723C69.124 87.673 69.4666 87.2839 69.9118 87.0052C70.3569 86.7265 70.8931 86.5871 71.5202 86.5871C72.1821 86.5871 72.7511 86.7497 73.2272 87.0749C73.7072 87.4001 74.0285 87.8452 74.1911 88.4104L73.1692 88.7181C73.0376 88.3542 72.8227 88.0717 72.5247 87.8704C72.2305 87.6691 71.8918 87.5684 71.5085 87.5684C71.0789 87.5684 70.7247 87.6691 70.446 87.8704C70.1673 88.0678 69.9602 88.3426 69.8247 88.6949C69.6892 89.0433 69.6195 89.4439 69.6156 89.8968C69.6234 90.5936 69.784 91.1568 70.0976 91.5865C70.415 92.0123 70.8853 92.2252 71.5085 92.2252C71.9189 92.2252 72.2595 92.1323 72.5305 91.9465C72.8014 91.7568 73.0066 91.4839 73.146 91.1278L74.1911 91.4007C73.9743 91.9852 73.6356 92.4323 73.175 92.742C72.7143 93.0517 72.1589 93.2065 71.5085 93.2065Z" fill="#989898"/>
<path d="M77.877 93.2065C77.2538 93.2065 76.7157 93.0652 76.2628 92.7826C75.8138 92.5001 75.4674 92.1091 75.2235 91.6097C74.9796 91.1104 74.8577 90.5375 74.8577 89.891C74.8577 89.233 74.9816 88.6562 75.2293 88.1607C75.477 87.6652 75.8274 87.2801 76.2803 87.0052C76.7332 86.7265 77.2654 86.5871 77.877 86.5871C78.5041 86.5871 79.0441 86.7284 79.497 87.011C79.9499 87.2897 80.2964 87.6788 80.5364 88.1781C80.7803 88.6736 80.9022 89.2446 80.9022 89.891C80.9022 90.5452 80.7803 91.122 80.5364 91.6213C80.2925 92.1168 79.9441 92.5059 79.4912 92.7884C79.0383 93.0672 78.5003 93.2065 77.877 93.2065ZM77.877 92.2252C78.5274 92.2252 79.0112 92.0084 79.3286 91.5749C79.6461 91.1413 79.8048 90.5801 79.8048 89.891C79.8048 89.1826 79.6441 88.6194 79.3228 88.2013C79.0016 87.7794 78.5196 87.5684 77.877 87.5684C77.4396 87.5684 77.0796 87.6671 76.797 87.8646C76.5145 88.062 76.3035 88.3349 76.1641 88.6833C76.0248 89.0317 75.9551 89.4342 75.9551 89.891C75.9551 90.5955 76.1177 91.1607 76.4428 91.5865C76.768 92.0123 77.2461 92.2252 77.877 92.2252Z" fill="#989898"/>
<path d="M84.6426 93.2065C84.058 93.2065 83.5567 93.0613 83.1387 92.771C82.7206 92.4768 82.3974 92.0801 82.169 91.5807C81.9445 91.0813 81.8322 90.5181 81.8322 89.891C81.8322 89.2639 81.9445 88.7007 82.169 88.2013C82.3974 87.702 82.7206 87.3091 83.1387 87.0226C83.5567 86.7323 84.0561 86.5871 84.6367 86.5871C85.229 86.5871 85.7264 86.7304 86.129 87.0168C86.5316 87.3033 86.8355 87.6962 87.0406 88.1955C87.2496 88.6949 87.3542 89.2601 87.3542 89.891C87.3542 90.5142 87.2496 91.0775 87.0406 91.5807C86.8355 92.0801 86.5316 92.4768 86.129 92.771C85.7264 93.0613 85.2309 93.2065 84.6426 93.2065ZM84.7703 92.2601C85.1922 92.2601 85.5387 92.1594 85.8096 91.9581C86.0806 91.753 86.28 91.4723 86.4077 91.1162C86.5393 90.7562 86.6051 90.3478 86.6051 89.891C86.6051 89.4265 86.5393 89.0181 86.4077 88.6659C86.28 88.3097 86.0826 88.033 85.8155 87.8355C85.5484 87.6342 85.2096 87.5336 84.7993 87.5336C84.3735 87.5336 84.0213 87.6381 83.7425 87.8471C83.4677 88.0562 83.2626 88.3388 83.1271 88.6949C82.9955 89.051 82.9296 89.4497 82.9296 89.891C82.9296 90.3362 82.9974 90.7388 83.1329 91.0988C83.2684 91.4549 83.4716 91.7375 83.7425 91.9465C84.0174 92.1555 84.36 92.2601 84.7703 92.2601ZM86.6051 93.0323V88.4162H86.489V84.671H87.5284V93.0323H86.6051Z" fill="#989898"/>
<path d="M91.8726 93.2065C91.2571 93.2065 90.719 93.071 90.2584 92.8001C89.8016 92.5252 89.4455 92.1439 89.19 91.6562C88.9345 91.1646 88.8068 90.5917 88.8068 89.9375C88.8068 89.2523 88.9326 88.6601 89.1842 88.1607C89.4358 87.6575 89.7861 87.2704 90.2352 86.9994C90.6881 86.7246 91.2184 86.5871 91.8261 86.5871C92.4571 86.5871 92.9932 86.7323 93.4345 87.0226C93.8797 87.313 94.2126 87.7271 94.4332 88.2652C94.6577 88.8033 94.7545 89.4439 94.7236 90.1871H93.6784V89.8155C93.6668 89.0452 93.51 88.4704 93.2081 88.091C92.9061 87.7078 92.4571 87.5162 91.861 87.5162C91.2223 87.5162 90.7365 87.7213 90.4035 88.1317C90.0706 88.542 89.9042 89.1304 89.9042 89.8968C89.9042 90.6362 90.0706 91.2091 90.4035 91.6155C90.7365 92.022 91.2106 92.2252 91.8261 92.2252C92.2403 92.2252 92.6003 92.1304 92.9061 91.9407C93.2119 91.751 93.4519 91.4781 93.6261 91.122L94.619 91.4646C94.3752 92.0181 94.0074 92.4478 93.5158 92.7536C93.0281 93.0555 92.4803 93.2065 91.8726 93.2065ZM89.5558 90.1871V89.3568H94.1894V90.1871H89.5558Z" fill="#989898"/>
<path d="M270.343 60.0025C271.946 60.0276 273.544 60.2437 275.099 60.6475C276.576 61.0311 278.015 61.5842 279.383 62.3038C281.617 63.4779 283.663 65.0956 285.386 67.1448C285.799 67.6359 286.184 68.141 286.541 68.6582C287.316 69.7783 287.961 70.9552 288.479 72.1697C289.316 74.1312 289.821 76.1907 290 78.2675L277.711 73.5724L282.316 69.7158L282.182 69.5582C279.032 65.9068 274.579 64.0172 270.089 64.0003C267.873 63.992 265.647 64.4402 263.565 65.3581C261.757 66.1555 260.1 67.2933 258.7 68.688C257.81 69.5748 257.044 70.5455 256.404 71.5764C255.201 73.5158 254.445 75.6686 254.149 77.8789C253.574 82.1799 254.743 86.6984 257.758 90.2843C263.449 97.0535 273.559 97.9362 280.34 92.2565C283.88 89.2917 285.813 85.1249 286.043 80.8559L289.944 82.273C289.382 87.1821 287.008 91.8938 282.916 95.3204C274.439 102.42 261.801 101.317 254.688 92.8555C250.794 88.2233 249.363 82.3463 250.257 76.8107C250.521 75.1709 250.99 73.5611 251.659 72.0225C251.968 71.3127 252.319 70.6181 252.712 69.9427C253.117 69.2476 253.567 68.5729 254.061 67.9229C254.616 67.1934 255.226 66.4951 255.892 65.8342C256.294 65.4353 256.716 65.0499 257.158 64.6796C260.999 61.4624 265.694 59.9296 270.343 60.0025Z" fill="#8989EF"/>
<path d="M264.026 80.0002C264.026 83.3139 266.717 85.9998 270.037 85.9998C273.357 85.9998 276.048 83.3139 276.048 80.0002H280.055C280.055 85.5228 275.57 89.9999 270.037 89.9999C264.504 89.9999 260.019 85.5229 260.019 80.0002H264.026Z" fill="#8989EF"/>
</svg>
