<svg width="320" height="160" fill="none" xmlns="http://www.w3.org/2000/svg"><rect width="320" height="160" rx="10" fill="url(#a)"/><path d="m269.965 68.451-18.617-10.735A5.363 5.363 0 0 0 248.77 57a4.847 4.847 0 0 0-2.577.716l-18.615 10.735A5.14 5.14 0 0 0 225 72.885v21.557a5.237 5.237 0 0 0 2.578 4.433l1.288.716 5.942 3.437v-9.946l13.962-8.018 13.962 8.018v9.881l5.942-3.436 1.288-.788a5.14 5.14 0 0 0 2.578-4.433V72.82a5.183 5.183 0 0 0-2.575-4.369zm-7.375 13.312-11.308-6.583a5.358 5.358 0 0 0-2.576-.716 4.848 4.848 0 0 0-2.584.716l-11.384 6.583V75.54l11.672-6.73a4.597 4.597 0 0 1 4.511 0l11.671 6.73-.002 6.223zM48 21.341A6.342 6.342 0 0 1 54.342 15h117.146a6.341 6.341 0 0 1 6.341 6.341V138.66a6.341 6.341 0 0 1-6.341 6.341H54.341A6.341 6.341 0 0 1 48 138.659V21.342z" fill="#fff"/><path fill-rule="evenodd" clip-rule="evenodd" d="M171.488 15.975H54.341a5.366 5.366 0 0 0-5.366 5.367v117.317a5.367 5.367 0 0 0 5.367 5.366h117.146a5.366 5.366 0 0 0 5.366-5.366V21.342a5.366 5.366 0 0 0-5.366-5.367zM54.341 15A6.342 6.342 0 0 0 48 21.341V138.66a6.341 6.341 0 0 0 6.342 6.34h117.146a6.341 6.341 0 0 0 6.341-6.341V21.342A6.341 6.341 0 0 0 171.488 15H54.341z" fill="#E0E6EF"/><path fill-rule="evenodd" clip-rule="evenodd" d="M113.465 135.139a2.613 2.613 0 0 0-2.617 2.61 2.614 2.614 0 0 0 2.617 2.61c1.023 0 1.91-.586 2.34-1.44l.54.27a3.223 3.223 0 0 1-2.88 1.772 3.216 3.216 0 0 1-3.221-3.212 3.216 3.216 0 0 1 3.221-3.212 3.22 3.22 0 0 1 2.88 1.772l-.54.27a2.616 2.616 0 0 0-2.34-1.44z" fill="#BCC6C8"/><path d="M116.586 136.946v-2.309l-2.215 2.309h2.215z" fill="#BCC6C8"/><path fill="#241716" d="M56.341 39.732H99.78v65H56.341z"/><path fill="#858688" d="M105.488 39.732h65v65h-65z"/><path fill="#98A3C4" d="M56.341 115.195h114.146v14.268H56.341z"/><path d="M67.122 80.634c.507-.507 4.122-3.593 5.866-5.073 0-.951.222-3.107 1.11-4.122 1.11-1.268 2.22-2.378 3.329-3.488.888-.888 1.532-.898 1.744-.792 1.955-1.692 6.024-5.232 6.658-5.866.793-.793 1.744-.635 2.22-.159.38.38.475 1.004.475 1.268.053-.052.35-.317 1.11-.95.951-.794 1.744-.16 1.903 0 .317.316.634 1.267 0 1.902-.508.507-4.122 4.016-5.866 5.707.634.423 2.029 1.363 2.536 1.744.635.475.635 1.11.317 2.853-.317 1.744-1.11 2.379-2.536 3.647-1.142 1.014-1.956.74-2.22.475a64.13 64.13 0 0 1-2.853 1.744c-1.522.888-2.643.899-3.013.793a1162.926 1162.926 0 0 0-5.707 5.549c-.793.793-1.427.793-1.902.475-.476-.317-2.537-1.743-3.171-2.22-.507-.38-.634-.792-.634-.95v-.952c0-.475 0-.95.634-1.585z" fill="#DDB58C"/><path d="M145.281 86.976c1.585-.951 1.427-1.269 2.536-2.378 1.11-1.11 3.488-4.598 2.695-5.232-.792-.634-5.231.793-8.878 2.061-3.646 1.268-3.012 1.268-3.804 1.902-.793.635-2.537.952-4.44 2.379-1.902 1.426-6.5 3.329-7.609 4.28-1.11.951-1.586 1.585-1.269 2.061.318.476.952 0 1.586 0 .634 0 .792 1.268-.159 1.902-.951.635-1.268.952-.951 1.11.317.159 1.11 0 2.22-.634 1.109-.634 1.585-.793 2.219-.317.634.476-.476 1.268.476 1.585.951.317 5.073-.792 6.817-3.012 1.744-2.22 3.329-2.22 4.914-3.17 1.586-.952 2.061-1.586 3.647-2.537z" fill="#41444E"/><path fill-rule="evenodd" clip-rule="evenodd" d="M124.771 74.321c-.021 1.687-.036 2.866-.735 4.728-.896 2.39-1.651 3.513-2.001 4.033a4.744 4.744 0 0 1-.06.089c-.317.475-.475 1.268 0 1.585.381.254 1.11-.211 1.427-.475.317.74 1.078 2.44 1.586 3.329.073.128.138.245.197.353.456.828.601 1.092 1.864 1.232 1.141.127 2.272-.264 2.695-.475.158.475.57 1.648.951 2.536.476 1.11 1.268 1.744 3.329 2.061 2.061.317 2.378-.158 2.378-.634s-.158-1.427-1.585-1.744c-1.427-.317-2.378-1.585-2.22-3.646.159-2.061.476-2.854 1.744-4.915 1.269-2.06 1.744-3.012 2.061-6.024l.082-.784c.241-2.341.295-2.863.87-2.863.634 0 .951.634 1.109 2.695.043.55.04 1.111.037 1.671-.008 1.54-.016 3.075.914 4.354 1.015 1.395 3.171 1.532 4.122 1.427.053.528.381 1.617 1.269 1.743 1.109.16 3.17.318 3.17-.475 0-.793-.317-.951-1.426-1.427-1.11-.475-1.427-.793-1.427-2.06 0-1.27.792-6.818 1.268-8.403.141-.47.337-.94.544-1.433.492-1.175 1.041-2.489 1.041-4.275 0-2.536 0-3.646.476-6.341.476-2.695.951-3.17 1.585-3.17.635 0 2.061-.16 2.378-1.745.318-1.585 0-1.902-.634-2.378-.373-.28-.417-.67-.454-1.01-.026-.235-.05-.445-.18-.575-.253-.254-.317-.529-.317-.634.159-1.004.381-3.076 0-3.33-.38-.253-1.321 1.903-1.744 3.013a23.05 23.05 0 0 0-1.585-.317c-.154-.026-.291-.043-.416-.06-.646-.08-.955-.12-1.487-1.05-.167-.293-.323-.62-.478-.941-.429-.896-.841-1.754-1.424-1.754-.793 0-.634 2.06-.317 3.646.074.37.165.704.253 1.028.291 1.069.551 2.025.064 3.728-.634 2.22-2.22 4.598-3.012 5.707-.793 1.11-1.744 2.061-3.171 2.22-.323.036-.777.04-1.321.043-1.854.014-4.752.035-7.081 1.384-3.013 1.744-4.14 4.122-4.281 8.244a48.8 48.8 0 0 0-.058 2.09zm18.765 6.472-.634-7.769c-.687-.158-2.061-.063-2.061 1.586 0 2.06 0 4.122.793 5.231.695.974 1.85 1.057 1.902.952zm-14.585 6.183c.423-.793 1.268-2.886 1.268-4.915 0-2.537 0-4.915-.634-5.073-.634-.159-1.585 1.11-2.378 4.756-.793 3.646-.475 4.28.317 4.756.634.38 1.216.476 1.427.476z" fill="#DAA4BB"/><circle cx="163.512" cy="97.756" r="5.707" fill="#444"/><circle cx="163.512" cy="97.756" fill="#FDFDFD" r="5.073"/><path fill-rule="evenodd" clip-rule="evenodd" d="M160.341 97.756c0-.175.142-.317.317-.317h5.074a.317.317 0 0 1 0 .634h-5.074a.317.317 0 0 1-.317-.317z" fill="#444"/><path fill-rule="evenodd" clip-rule="evenodd" d="M164.873 96.264a.318.318 0 0 1 .449 0l1.268 1.268a.317.317 0 0 1 0 .449l-1.268 1.268a.318.318 0 0 1-.449-.449l1.044-1.044-1.044-1.044a.317.317 0 0 1 0-.448z" fill="#444"/><circle cx="112.464" cy="97.756" r="5.707" transform="rotate(-180 112.464 97.756)" fill="#444"/><circle cx="112.463" cy="97.756" transform="rotate(-180 112.463 97.756)" fill="#FDFDFD" r="5.073"/><path fill-rule="evenodd" clip-rule="evenodd" d="M115.634 97.756a.317.317 0 0 1-.317.317h-5.073a.317.317 0 0 1 0-.634h5.073c.175 0 .317.142.317.317z" fill="#444"/><path fill-rule="evenodd" clip-rule="evenodd" d="M111.102 99.249a.317.317 0 0 1-.448 0l-1.268-1.268a.317.317 0 0 1 0-.449l1.268-1.268a.316.316 0 1 1 .448.448l-1.044 1.044 1.044 1.044a.317.317 0 0 1 0 .449z" fill="#444"/><circle cx="129.903" cy="108.219" fill="#BCC6C8" r="1.268"/><circle cx="129.902" cy="108.219" r=".951" fill="#fff"/><circle cx="133.073" cy="108.219" fill="#BCC6C8" r="1.268"/><circle cx="133.073" cy="108.219" r=".951" fill="#50BA5C"/><circle cx="136.244" cy="108.219" fill="#BCC6C8" r="1.268"/><circle cx="136.244" cy="108.219" r=".951" fill="#fff"/><circle cx="139.415" cy="108.219" fill="#BCC6C8" r="1.268"/><circle cx="139.415" cy="108.219" r=".951" fill="#fff"/><circle cx="142.585" cy="108.219" fill="#BCC6C8" r="1.268"/><circle cx="142.585" cy="108.219" r=".951" fill="#fff"/><circle cx="145.756" cy="108.219" fill="#BCC6C8" r="1.268"/><circle cx="145.756" cy="108.219" r=".951" fill="#fff"/><path d="M96.61 122.488a2.22 2.22 0 0 1 2.22-2.22h29.487a2.22 2.22 0 0 1 0 4.439H98.829a2.219 2.219 0 0 1-2.22-2.219z" fill="#fff"/><path d="M56.341 30.853a2.22 2.22 0 0 1 2.22-2.22h54.853a2.22 2.22 0 1 1 0 4.44H58.561a2.22 2.22 0 0 1-2.22-2.22zm0-7.609a2.22 2.22 0 0 1 2.22-2.22h109.707a2.22 2.22 0 1 1 0 4.44H58.561a2.22 2.22 0 0 1-2.22-2.22z" fill="#98A3C3"/><defs><linearGradient id="a" x1="160" y1="0" x2="160" y2="160" gradientUnits="userSpaceOnUse"><stop stop-color="#D8CFED"/><stop offset="1" stop-color="#D3EDD7"/></linearGradient></defs></svg>