<svg width="310" height="200" fill="none" xmlns="http://www.w3.org/2000/svg"><rect width="310" height="200" rx="10" fill="#F3F8FF"/><path d="M216.266 98.472c-.317-.253-.887-.094-.634.286.254.38.887 0 .634-.285zm-.887-1.583c-.19-.285-.634-.032-.412.317.222.348.602-.064.412-.317zm9.914 12.86c-.38-.412.317-.697.602-.475.285.222-.095.95-.602.475zm1.869.538c.317.254-.095.824-.602.507-.507-.316.222-.792.602-.507zm1.109.982c-.381-.411-.887.19-.602.444.285.253.823-.222.602-.444zm.886.761c-.348-.317-.855.19-.601.411.253.222.887-.126.601-.411zm.697.792c-.285-.317-.792.095-.601.285.19.19.823 0 .601-.285zm.412.665c.222.221-.222.57-.443.348-.222-.222.316-.475.443-.348zm.317.633c.127.159-.19.444-.349.317-.158-.127.19-.475.349-.317zm.19.57c.063.095-.222.317-.317.19-.095-.126.254-.38.317-.19zm-5.987-6.525c-.475-.38-1.077.19-.728.539.348.348 1.108-.19.728-.539zm-1.298-1.267c-.412-.348-1.077.19-.729.57.349.38 1.14-.19.729-.57zm-1.362-1.298c-.317-.349-1.014.158-.729.538.285.38 1.077-.063.729-.538zm-1.299-1.363c-.38-.411-.982.032-.729.476.254.443 1.109-.064.729-.476zm-1.235-1.457c-.317-.38-1.046-.063-.729.476.317.538 1.014-.127.729-.476zm-1.267-1.393c-.222-.285-.792-.127-.571.316.222.444.792 0 .571-.316zm9.09 6.62c-.348-.285-1.267.127-.823.57.443.443 1.235-.19.823-.57zm1.236 1.077c-.412-.349-1.267.095-.824.602.444.506 1.109-.349.824-.602zm1.013 1.013c-.316-.348-1.108.159-.792.571.317.411 1.014-.254.792-.571zm.856.824c-.254-.253-.982.19-.697.538.285.349.982-.285.697-.538zm.728.824c-.222-.286-.823.221-.633.506.19.285.855-.221.633-.506zm.475.76c-.158-.254-.697.063-.538.348.158.285.697-.095.538-.348zm.285.792c-.095-.19-.507 0-.443.253.063.253.538-.063.443-.253zm0 .728c-.095-.158-.411.064-.348.222s.412-.095.348-.222zm-5.923-7.095c-.507-.349-1.14.063-.729.507.412.443 1.141-.159.729-.507zm-5.892-4.942c-.253-.316 0-.76.507-.538.507.222-.063.824-.507.538zm-1.172-1.425c-.38-.412.159-1.014.539-.665.38.348-.19 1.045-.539.665zm-.475-1.996c-.317-.38-1.14 0-.792.444.349.444 1.109-.063.792-.444zm-.855-1.457c-.19-.348-.919-.031-.729.349.191.38.919.032.729-.349zm6.462 9.218c-.285-.222.317-.792.665-.507.348.285-.127.855-.665.507zm8.901 7.032c-.032-.095-.317 0-.317.19s.348-.063.317-.19zm-16.028-21.476c-.095-.158-.634-.063-.475.158.158.222.601.064.475-.158zm.602 1.426c-.159-.254-.761-.159-.602.094.158.254.728.064.602-.095zm1.33 2.597c-.222-.349-.887.063-.602.507.285.443.824-.127.602-.507zm.919 1.393c-.222-.316-.919.127-.666.539.254.412.919-.063.666-.538zm8.964 9.472c-.317-.381-1.204.221-.824.633.38.412 1.141-.285.824-.633zm1.172.95c-.349-.38-1.267.348-.792.728.475.38 1.109-.348.792-.728zm1.108.982c-.348-.349-1.235.316-.823.697.412.38 1.203-.317.823-.697zm.919.982c-.253-.349-1.172.253-.855.665.316.412 1.077-.38.855-.665zm.697.76c-.222-.254-.982.38-.792.697.19.316 1.014-.349.792-.697zm.443.823c-.19-.316-.855.317-.728.602.126.285.918-.348.728-.602zm.285.856c-.095-.254-.633.095-.57.411.064.317.634-.253.57-.411zm-.063.76c0 .222-.443.443-.443.222 0-.222.443-.381.443-.222zm-12.227-16.788c-.221-.254-.887.063-.57.57.317.507.792-.253.57-.57zm-.918-1.426c-.222-.348-.919.032-.634.57.285.54.855-.19.634-.57zm-.824-1.298c-.158-.254-.823.031-.57.507.186.348.76-.203.57-.507zm-.57-1.203c-.158-.35-.729 0-.57.347.158.349.697-.063.57-.348zm-.443-1.3c-.127-.316-.507.064-.444.285.082.286.507-.063.444-.285zm-.317-1.077c-.064-.253-.412-.063-.38.159.031.222.443.127.38-.159zm6.715 10.295c-.475-.665-1.077.348-.665.76.412.412 1.013-.253.665-.76zm1.362 1.267c-.602-.634-1.362.412-.792.887.57.475 1.14-.38.792-.887zm1.394 1.33c-.475-.601-1.362.159-.887.761.475.601 1.203-.317.887-.761zm2.692 2.503c-.38-.38-1.045.348-.665.76.38.412 1.077-.285.665-.76zm1.204 1.172c-.444-.475-1.426.285-.982.76.443.475 1.394-.349.982-.76zm.982.982c-.349-.475-1.172.316-.824.855.349.538 1.141-.539.824-.855zm.855 1.045c-.285-.38-1.045.348-.792.697.254.348 1.109-.285.792-.697zm.76.887c-.222-.317-1.013.285-.76.633.253.349.982-.348.76-.633zm.444.855c-.222-.348-.792.19-.634.507.159.317.76-.222.634-.507zm.221.824c-.095-.317-.601.158-.538.443.063.285.602-.19.538-.443zm.064.887c-.064-.222-.507.063-.475.285.031.221.538-.127.475-.285zm-.349.601c-.063-.126-.38.064-.38.222 0 .159.38-.063.38-.222zm-9.281-15.616c-.38-.475.412-.982.856-.633.443.348-.444 1.045-.856.633zm2.123.444c-.507-.602-1.267.19-.824.728.444.539 1.267-.285.824-.728zm1.362 1.171c-.602-.538-1.331.254-.824.856s1.331-.253.824-.855zm1.33 1.236c-.602-.633-1.267.507-.76.919.507.412 1.299-.285.76-.919zm1.489 1.236c-.507-.666-1.426.253-.95.886.475.634 1.393-.253.95-.886zm1.267 1.108c-.475-.222-1.457.285-.729 1.045.729.761 1.236-.696.729-1.045zm3.769 4.435c-.158-.38-.95.063-.792.538.159.475.951-.158.792-.538zm.38 1.013c-.095-.411-.76.095-.602.539.159.443.666-.254.602-.539zm.254.919c-.095-.317-.634-.032-.539.285.095.317.634.032.539-.285zm-.064.95c-.095-.285-.38-.126-.38.159 0 .285.444.095.38-.159zm-.316.729c-.064-.222-.317.031-.317.19 0 .158.38-.032.317-.19zm-9.123-13.399c-.412-.538.285-.919.729-.602.443.317-.222 1.109-.729.602zm2.154.253c-.475-.633-1.362.349-.855.982.507.634 1.204-.411.855-.982zm1.362 1.33c-.633-.601-1.394.286-.855.856.538.57 1.235-.412.855-.855zm1.457 1.11c-.38-.412-1.615.253-.728 1.013.887.76.95-.76.728-1.014zm5.733 7.316c-.126-.285-.633-.063-.57.222.064.285.634.127.57-.222zm-.095.887c-.063-.411-.57-.031-.475.254.095.285.539 0 .475-.254zm-.253.824c-.032-.222-.348.032-.348.253 0 .222.348 0 .348-.253zm-22.838-7.095c-.222-.285.348-.634.602-.38.253.253-.254.76-.602.38zm1.9 1.235c-.316-.317-.886-.032-.601.38.285.412.823-.127.601-.38zm1.267 1.489c-.253-.222-.855-.032-.633.316.222.349.887-.063.633-.316zm1.236 1.457c-.285-.317-.95.095-.665.412.285.316 1.013-.032.665-.412zm1.299 1.394c-.317-.286-1.077.063-.697.506.38.444.982-.253.697-.506zm1.298 1.267c-.285-.317-1.013.126-.633.506.38.38.887-.253.633-.506zm1.331 1.172c-.349-.254-1.077.095-.697.475s1.013-.222.697-.475zm1.267 1.077c-.317-.317-1.109.126-.634.506s.855-.253.634-.506zm1.108.95c-.285-.222-1.045.126-.633.475.412.348.918-.158.633-.475zm1.014.887c-.254-.254-.95.158-.697.411.253.254.982-.126.697-.411zm.855.728c-.222-.317-.633.159-.475.412.158.253.602-.158.475-.412zm.729.665c-.159-.253-.602.064-.444.349.159.285.57-.095.444-.349zm.506.729c-.063-.158-.443 0-.38.19.064.19.444.032.38-.19zm.286.538c-.095-.158-.349-.031-.317.127.031.159.38.032.317-.127zm-10.992-8.108c-.158-.222-.76.031-.507.411.254.38.729-.158.507-.411zm1.362 1.235c-.253-.222-.875.057-.602.38.349.412.887-.127.602-.38zm1.267 1.204c-.253-.254-.792.095-.475.38.317.285.729-.064.475-.38zm1.331 1.14c-.286-.222-.729.032-.476.348.254.317.729-.095.476-.348zm1.298 1.077c-.221-.19-.76 0-.538.317.222.316.76-.095.538-.317zm1.046.95c-.159-.253-.792 0-.539.349.253.348.665-.159.539-.349zm1.045.792c-.159-.19-.729.095-.475.38.253.285.602-.158.475-.38zm.823.76c-.19-.222-.601.095-.411.317s.57-.095.411-.317zm.761.634c-.159-.19-.602-.032-.38.221.221.254.506-.063.38-.221zm.411.602c-.031-.096-.348-.032-.316.158.031.19.348-.032.316-.158zm-11.846-8.806c-.254-.159-.792-.064-.475.158.316.222.76.063.475-.158zm1.393 1.362c-.348-.285-.633.158-.475.317.159.158.666-.127.475-.317zm1.363 1.298c-.286-.253-.666.159-.444.476.155.221.634-.222.444-.476zm1.298 1.204c-.19-.19-.728.19-.475.412.223.195.729-.158.475-.412zm1.267 1.077c-.19-.222-.697.127-.443.317.253.19.633-.095.443-.317zm1.236 1.109c-.222-.222-.729 0-.476.221.254.222.697-.031.476-.221zm1.172.823c-.159-.126-.697.032-.476.222.222.19.634-.095.476-.222zm.95.792c-.19-.127-.602.127-.412.254.19.126.602-.095.412-.254zm.855.634c-.095-.095-.538.031-.412.158.127.127.57 0 .412-.158zm-2.851-19.924c-.19-.222-.95.222-.665.697.285.475.919-.317.665-.697zm-.887-1.235c-.285-.476-1.013.126-.728.633.285.507.95-.222.728-.633zm-.823-1.236c-.19-.348-.919-.031-.665.539.253.57.855-.159.665-.539zm-.602-1.204c-.095-.253-.697-.126-.57.317.127.444.712.064.57-.317zm-.475-1.203c-.095-.254-.602 0-.475.317.126.316.602-.032.475-.317zm-.317-1.077c-.063-.159-.443-.095-.412.19.032.285.475.031.412-.19zm-.063-.95c-.032-.19-.317-.032-.285.158.031.19.285 0 .285-.159zm4.281 5.663c-.188-.21-.942.21-.66.659.283.45.912-.3.66-.66zm-.88-1.169c-.282-.45-1.005.12-.722.6.282.479.942-.21.722-.6zm-.817-1.169c-.188-.33-.911-.03-.659.51.251.54.848-.15.659-.51zm-.723-1.135c-.094-.24-.628-.06-.502.36.125.42.7.142.502-.36zm-.345-1.078c-.094-.24-.597 0-.471.3.126.299.597-.03.471-.3zm-.314-.956c-.063-.15-.44-.09-.409.18.032.27.472.03.409-.18zm-.063-1.026c-.031-.18-.314-.03-.283.15.032.18.283 0 .283-.15zm4.219 5.44c-.354-.476-.921.043-.639.466.283.422.891-.128.639-.466zm-.943-1.099c-.283-.422-.929.006-.646.456.219.349.866-.09.646-.456zm-.817-1.161c-.188-.31-.747 0-.557.382.221.447.79 0 .557-.383zm-.716-1.043c-.094-.226-.632-.078-.507.316.126.395.666.062.507-.316zm-.446-1.014c-.095-.225-.503-.021-.377.26.125.282.502-.007.377-.26zm-.157-.979c-.063-.141-.44-.085-.409.169.032.253.472.028.409-.17zm-.063-.845c-.031-.17-.314-.028-.283.14.032.17.283 0 .283-.14zm3.966 4.978c-.354-.497-.858.153-.576.552.337.475.856-.158.576-.552zm-.956-1.127c-.283-.4-.884.144-.602.57.283.426.887-.063.602-.57zm-.741-.95c-.189-.293-.841-.131-.589.348.251.48.777-.028.589-.348zm-.748-1.045c-.094-.213-.6-.025-.475.348.126.373.57-.055.475-.348zm-.447-.853c-.094-.213-.534-.063-.408.203.126.267.534.037.408-.203zm-.188-.969c-.062-.133-.376-.08-.345.16.032.24.408.027.345-.16zm-.062-.862c-.032-.16-.315-.027-.283.133.031.16.283 0 .283-.133zm4.34 6.865c-.38-.507-.982.031-.728.507.253.475 1.077.063.728-.507zm-1.9 5.068c-.381-.412-1.046.19-.697.665.348.475 1.235-.063.697-.665zm1.33 1.266c-.38-.443-1.362.064-.792.825.57.76 1.172-.38.792-.824zm1.362 1.236c-.57-.538-1.394.38-.855.919.538.538 1.489-.285.855-.919zm1.394 1.299c-.57-.57-1.331.285-.855.919.475.633 1.393-.317.855-.919zm1.393 1.235c-.38-.475-1.457.159-.918.951.538.791 1.362-.412.918-.951zm1.331 1.236c-.349-.412-1.426.126-.887.887.538.76 1.204-.381.887-.887zm1.14 1.267c-.412-.539-1.33.253-.855.792.475.538 1.172-.286.855-.792zm1.014 1.045c-.317-.412-1.172.222-.824.824.349.601 1.141-.444.824-.824zm.95.982c-.317-.444-1.077.412-.792.823.285.412 1.014-.411.792-.823zm.602.982c-.254-.444-.887.317-.729.697.159.38.887-.254.729-.697zm.443.95c-.126-.38-.697.222-.601.539.095.316.665-.127.601-.539zm.19.824c-.095-.285-.506.158-.475.348.032.19.539 0 .475-.348zm0 .76c-.063-.222-.443.063-.411.253.031.19.475.032.411-.253zm-.19.697c-.031-.159-.348.063-.316.253.031.19.38-.127.316-.253zm2.629-7.602c-.285-.381-.95 0-.665.443.285.444.855-.158.665-.443zm-.76-1.362c-.317-.507-.887.538-.633.95.253.412.918-.444.633-.95zm-.887-1.204c-.348-.57-.918.538-.57 1.077.348.538.76-.729.57-1.077zm-1.013-1.077c-.285-.412-.856.697-.571 1.077.286.38.982-.507.571-1.077zm-3.833-3.199c-.444-.475-1.077.253-.57.918s.982-.443.57-.918zm-1.362-1.141c-.475-.506-1.014.38-.57.856.443.475 1.045-.285.57-.856zm8.964 7.317c-.127-.506-.57-.031-.443.381.126.411.506-.032.443-.381zm-.538-1.203c-.222-.539-.697.221-.571.602.127.38.761-.19.571-.602zm-.666-1.141c-.285-.601-.823.254-.57.792.254.539.792-.19.57-.792zm-.855-1.108c-.38-.665-1.013.348-.633.95.38.602.918-.317.633-.95zm-1.014-.983c-.475-.633-.95.254-.601.793.348.538.982-.159.601-.792zm-3.737-3.357c-.349-.348-1.077.349-.57.982.506.634 1.14-.253.57-.982zm-1.426-.918c-.506-.507-1.14.285-.57.823.57.539 1.077-.19.57-.823zm-1.362-1.109c-.601-.507-1.045.507-.76.919.285.411 1.521-.285.76-.919zm-1.33-.919c-.539-.633-.982.064-.57.539.412.475 1.14.032.57-.539zm-1.235-1.013c-.444-.444-.982 0-.571.507.412.506.982-.127.571-.507zm-1.141-1.109c-.412-.475-.887.032-.507.539.381.507.856-.095.507-.539zm-.982-.982c-.316-.412-.76.095-.443.507.317.412.728-.158.443-.507zm-.823-.918c-.285-.38-.665.126-.412.443.253.317.634-.095.412-.443zm-.697-.887c-.19-.349-.507.126-.317.38.19.253.475-.032.317-.38zm-.475-.888c-.095-.316-.317.032-.285.222.031.19.38.159.285-.221zm0-.886c-.032-.222-.254-.032-.222.127.032.158.222 0 .222-.127zm17.105 16.44c-.159-.254-.412.253-.254.538.159.285.349-.38.254-.538zm-.38-.919c-.127-.38-.539.095-.412.475.127.38.507-.158.412-.475zm-.476-.982c-.221-.538-.696.158-.506.57.19.412.633-.19.506-.57zm-.728-1.109c-.317-.57-.76.222-.475.76.285.539.728-.063.475-.76zm-.855-.95c-.254-.633-.824.127-.539.76.285.634.824-.095.539-.76zm-1.014-1.077c-.443-.665-.855.317-.57.729.285.411 1.014.158.57-.729zm-1.109-.95c-.348-.475-.95.38-.696.697.253.316 1.267.316.696-.697zm-3.896-2.977c-.538-.634-1.14-.096-.665.474.475.57 1.109.096.665-.475zm-1.425-1.078c-.539-.475-1.14.19-.539.634.602.443.982-.222.539-.634zm-1.331-.95c-.601-.602-1.076.095-.538.602s1.014-.127.538-.602zm-1.235-1.014c-.38-.411-1.045.064-.538.602.506.539.95-.221.538-.602zm-1.172-.918c-.475-.475-.855.032-.507.475.349.444.887-.032.507-.475zm-1.014-.95c-.285-.349-.665.031-.411.443.253.412.665-.063.411-.443zm-.823-.856c-.254-.285-.57.064-.412.412.158.349.665-.031.412-.412zm-.665-.76c-.159-.253-.38 0-.285.254.095.253.38.031.285-.254zm-.285-.728c-.095-.317-.317-.19-.285 0 .031.19.348.221.285 0zm16.471 13.842c-.222-.317-.538 0-.348.38.19.38.57.063.348-.38zm-.76-1.078c-.222-.443-.539-.03-.348.318.19.348.443.126.348-.317zm-.602-.918c-.222-.57-.665-.063-.443.38.221.444.602.095.443-.38zm-.855-1.172c-.444-.665-.792.032-.539.475.254.444.856.222.539-.475zm-1.109-1.045c-.443-.475-.76.222-.475.633.285.412.887.064.475-.633zm-1.204-.95c-.348-.444-.696.158-.348.602.348.443.697.031.348-.602zm-2.47-1.805c-.412-.444-.824-.064-.507.411.317.475.95.253.507-.412zm-1.267-.983c-.475-.475-1.014.095-.507.507.507.412 1.013.095.507-.507zm-1.394-.95c-.57-.57-.95.095-.507.475.444.38.919 0 .507-.475zm-1.33-.919c-.507-.506-.824.095-.412.539.412.443.823-.095.412-.539zm-1.236-.918c-.38-.38-.918.158-.412.538.507.38.824-.126.412-.538zm-1.14-.855c-.38-.412-.824.158-.412.475.412.316.665-.095.412-.475zm-1.014-.792c-.285-.412-.57.158-.285.507.285.348.444-.254.285-.507zm-.792-.793c-.158-.22-.443 0-.285.286.159.285.444 0 .285-.285zm-.538-.601c-.127-.253-.285-.127-.222.063.063.19.253.159.222-.063zm-.38-.665c-.095-.19-.159-.127-.159.032 0 .158.222.095.159-.032zm16.028 12.606c-.222-.253-.507.064-.254.476.254.412.507-.222.254-.475zm-.602-.76c-.285-.475-.539-.158-.349.159.19.317.539.158.349-.159zm-.665-.981c-.285-.507-.697-.064-.38.38.316.443.602.063.38-.38zm-.887-1.046c-.412-.665-.792-.031-.475.412.316.443.887.348.475-.412zm-1.046-.982c-.348-.507-.823-.031-.475.412.349.444.792.032.475-.412zm-1.077-.855c-.38-.348-.791.095-.506.412.285.316.855-.032.506-.412zm-1.33-.95c-.475-.602-.887-.064-.475.38.412.443 1.077.38.475-.38zm-1.267-.95c-.475-.539-.823.158-.475.475.348.316.95.19.475-.475zm-1.33-.824c-.507-.475-.824.127-.412.475.412.349.919.095.412-.475zm-1.299-.824c-.475-.411-.887.064-.412.444.475.38.824.032.412-.444zm-1.362-.855c-.443-.412-.729.095-.348.444.38.348.76 0 .348-.444zm-1.267-.855c-.348-.317-.665.095-.285.412.38.316.665-.032.285-.412zm-1.045-.728c-.412-.38-.571.031-.285.348.285.316.633 0 .285-.349zm-1.077-.792c-.349-.349-.507-.032-.254.221.254.254.507.064.254-.221zm-.761-.698c-.126-.221-.316-.158-.19.064.127.222.317.158.19-.063zm14.983 10.96c-.222-.253-.254.095-.127.317s.254-.063.127-.317zm-.444-.728c-.19-.38-.38 0-.221.253.158.254.316-.031.221-.253zm-.411-.792c-.222-.38-.507.032-.254.412.254.38.349-.222.254-.412zm-.729-.95c-.285-.349-.507 0-.253.411.253.412.507-.031.253-.411zm-.823-.824c-.222-.348-.539.127-.317.444.222.316.507 0 .317-.444zm-.887-.792c-.349-.348-.951-.095-.475.349.475.443.855.285.475-.349zm-1.236-.855c-.443-.475-.76.032-.38.348.38.317.824.19.38-.348zm-1.172-.855c-.506-.444-.823.063-.443.412.38.348.887 0 .443-.412zm-1.235-.76c-.538-.539-.792.126-.443.38.348.253.886.126.443-.38zm-1.394-.856c-.443-.38-.887.032-.38.444.507.412.76-.064.38-.444zm-1.33-.792c-.412-.38-.697.127-.349.349.349.221.697.126.349-.349zm-1.235-.728c-.349-.285-.697 0-.381.317.317.316.761.031.381-.317zm-1.204-.665c-.412-.275-.665-.095-.285.19.233.175.57 0 .285-.19zm11.245 7.127c-.127-.254-.317-.032-.19.221.126.254.285 0 .19-.221zm-.507-.729c-.222-.348-.349-.158-.222.19.127.349.349.095.222-.19zm-.634-.791c-.316-.35-.506-.096-.253.253.253.348.38 0 .253-.254zm-.823-.73c-.285-.316-.507 0-.285.317.221.317.475-.031.285-.316zm-.95-.728c-.381-.38-.539.127-.222.38.317.254.633.064.222-.38zm-1.046-.728c-.412-.38-.697.158-.348.38.348.221.602-.127.348-.38zm-1.33-.887c-.349-.349-.697.221-.222.507.475.285.539-.159.222-.507zm-1.235-.697c-.476-.444-.634.126-.317.412.317.285.855.095.317-.412zm-1.299-.665c-.317-.254-.57.063-.285.316.285.254.665.032.285-.316zm-1.267-.729c-.38-.285-.697.063-.38.254.316.19.697-.064.38-.254zm-1.426-.792c-.316-.221-.411.095-.158.285.253.19.412-.063.158-.285zm9.471 5.416c-.158-.221-.253 0-.063.19s.19 0 .063-.19zm-.538-.76c-.253-.316-.443-.126-.222.159.222.285.349.031.222-.159zm-.665-.696c-.285-.285-.507.031-.285.253.221.222.475 0 .285-.253zm-.919-.602c-.317-.317-.728-.159-.443.095.285.253.697.253.443-.095zm-1.077-.824c-.443-.317-.855-.063-.38.254.475.316.602-.064.38-.254zm-1.33-.728c-.349-.222-.76-.159-.38.221s.76.127.38-.221zm-1.489-.602c-.475-.349-.633.127-.253.285.38.158.602.032.253-.285zm.76-.444c-.38-.19-.697 0-.348.222.348.222.602-.031.348-.222zm.349-.443c-.222-.222-.412-.032-.159.158.254.19.317.064.159-.158zm.823 1.014c-.253-.19-.665-.096-.285.19.38.285.507 0 .285-.19zm.159-.444c-.285-.222-.317-.127-.159.064.159.19.317.126.159-.064zm.918 1.109c-.253-.222-.538-.19-.221.063.316.253.38.158.221-.063zm.95.792c-.19-.222-.38-.095-.126.126.253.222.253.032.126-.126zm.887.76c-.126-.127-.253-.127-.126.032.126.158.19.063.126-.032zm-1.868-2.027c-.19-.19-.222-.127-.095.063.126.19.204.032.095-.063zm-5.702-1.679c-.349-.19-.57-.127-.349.095.222.222.571.126.349-.095zm.602-.222c-.317-.253-.57-.095-.349.063.222.159.539.096.349-.063zm.38-.475c-.253-.19-.349.032-.127.158.138.079.338 0 .127-.158zm.285-.349c-.158-.126-.285-.094-.127.064.159.158.254.009.127-.063zm-3.896.76c-.285-.19-.539-.221-.317.096.222.317.507.023.317-.095zm.697-.221c-.222-.19-.412-.127-.285.063.126.19.443.127.285-.063zm.728-.253c-.221-.222-.38 0-.221.158.158.158.443.063.221-.158zm.666-.412c-.222-.095-.349.063-.191.19.159.127.38-.063.191-.19zm.538-.349c-.158-.095-.38-.031-.19.064s.317-.02.19-.064zm-3.833.697c-.126-.126.032-.285.285-.126.254.158-.126.253-.285.126zm1.141-.348c-.222-.158-.571-.075-.317.063.348.19.412-.008.317-.063zm.665-.19c-.222-.159-.405-.094-.222.063.222.19.285-.025.222-.063zm.412-.349c-.191-.095-.317.032-.159.127.159.095.317 0 .159-.127zm-3.073.254c-.095-.127-.253-.127-.158.063s.253.095.158-.063zm.665-.095c-.158-.159-.348-.064-.222.063.127.127.444.159.222-.063zm.634-.19c-.222-.127-.349 0-.222.095.127.095.38.031.222-.095zm.506-.254c-.158-.095-.411-.063-.19.064.222.126.286-.023.19-.064zm.254-.285c-.158-.095-.254 0-.127.064.127.063.285.031.127-.064zm3.674 3.136c-.412-.285.032-.412.254-.253.221.158.158.507-.254.253zm.887-.475c-.253-.19-.507-.063-.253.127.253.19.412.063.253-.127zm.412-.38c-.348-.222-.38-.064-.19.095.19.158.38.031.19-.095zm.19-.412c-.19-.19-.253-.063-.127.063.127.127.317.095.127-.063zm-3.928-1.584c-.253-.095-.095.095 0 .159.095.063.127-.095 0-.159zm-24.243 8.521c1.744 0 3.369.66 3.964.991l-1.387 2.577c-.199-.264-.833-.793-1.784-.793-1.189 0-1.784.595-1.784 1.19 0 .594.396.99 1.982 1.386 1.586.397 3.568 1.19 3.568 4.163 0 2.973-2.379 4.36-5.154 4.36-2.219 0-3.964-1.057-4.558-1.586l1.585-2.576c.331.396 1.309 1.189 2.577 1.189 1.586 0 1.982-.595 1.982-1.189 0-.595-.396-1.189-2.18-1.586-1.784-.396-3.37-1.387-3.37-4.162s2.379-3.964 4.559-3.964z" fill="#2E2E2E"/><path fill-rule="evenodd" clip-rule="evenodd" d="M183.153 93.358 178 106.439h3.766l.793-2.379h4.756l.793 2.379h3.766l-5.153-13.081h-3.568zm1.784 3.963-1.586 4.361h3.172l-1.586-4.36z" fill="#2E2E2E"/><path d="M193.459 93.358v13.081h3.172V93.358h-3.172zm68.577 13.081h-3.171V93.358h3.171v13.081z" fill="#2E2E2E"/><path fill-rule="evenodd" clip-rule="evenodd" d="M251.928 93.358h-5.55v13.081h3.37v-4.757l3.171 4.757h4.162l-3.964-5.352c1.388-.198 2.775-1.506 2.775-3.567 0-2.577-1.586-4.162-3.964-4.162zm-2.18 2.576v3.171h1.387c.595 0 1.388-.594 1.388-1.585s-.595-1.586-1.388-1.586h-1.387z" fill="#2E2E2E"/><path d="M287.405 93.952c-.594-.33-2.219-.99-3.964-.99-2.18 0-4.558 1.188-4.558 3.963 0 2.775 1.585 3.766 3.369 4.162 1.784.397 2.18.991 2.18 1.586 0 .594-.396 1.189-1.982 1.189-1.268 0-2.246-.793-2.576-1.189l-1.586 2.576c.595.529 2.339 1.586 4.559 1.586 2.775 0 5.153-1.387 5.153-4.36 0-2.973-1.982-3.766-3.568-4.162-1.585-.397-1.982-.793-1.982-1.388 0-.594.595-1.189 1.784-1.189.952 0 1.586.528 1.784.793l1.387-2.577zm-76.504-.594h7.135v2.774h-3.964v2.379h3.568v2.775h-3.568v2.378h3.964v2.775h-7.135V93.358zm15.856-.397c1.146 0 2.226.295 3.171.815v3.376a3.766 3.766 0 1 0 0 5.492v3.376a6.556 6.556 0 0 1-3.171.815c-3.722 0-6.739-3.106-6.739-6.937 0-3.831 3.017-6.937 6.739-6.937zm5.549 9.514v-9.117h3.171v8.324c0 .793.595 2.18 2.379 2.18s2.378-1.387 2.378-2.18v-8.324h3.171v9.117c0 1.189-1.189 4.36-5.549 4.36-4.361 0-5.55-3.171-5.55-4.36zm32.505-9.117v9.117c0 1.189 1.189 4.36 5.549 4.36 4.361 0 5.55-3.171 5.55-4.36v-9.117h-3.171v8.324c0 .793-.595 2.18-2.379 2.18-1.783 0-2.378-1.387-2.378-2.18v-8.324h-3.171z" fill="#2E2E2E"/><rect x="18" y="20" width="139" height="160" rx="8" fill="#E8F2FF"/><rect x="19" y="21" width="137" height="158" rx="7" fill="#DBEBFF"/><rect x="21" y="23" width="134" height="154" rx="6" fill="#CBE2FF"/><rect x="22" y="24" width="132" height="152" rx="5" fill="#fff"/><rect x="28" y="151" width="120" height="17" rx="5" fill="#F3F8FF"/><rect x="28" y="151" width="48" height="17" rx="5" fill="#BDD2F5"/><rect x="61" y="149" width="32" height="21" rx="5" fill="#347EFF"/><path fill-rule="evenodd" clip-rule="evenodd" d="M71 159.5a1 1 0 0 1 1-1h12a1 1 0 0 1 0 2H72a1 1 0 0 1-1-1z" fill="#fff"/><path fill-rule="evenodd" clip-rule="evenodd" d="M79.293 154.793a1 1 0 0 1 1.414 0l4 4v1.414l-4 4a1 1 0 1 1-1.414-1.414l3.293-3.293-3.293-3.293a1 1 0 0 1 0-1.414z" fill="#fff"/><path d="M28.158 53.016a6.35 6.35 0 0 1 6.35-6.35h106.984a6.35 6.35 0 0 1 6.349 6.35v83.809a6.35 6.35 0 0 1-6.349 6.35H34.507a6.35 6.35 0 0 1-6.349-6.35V53.016z" fill="#F3F8FF"/><path d="M28.158 35.238a5.08 5.08 0 0 1 5.08-5.08h82.539a5.08 5.08 0 1 1 0 10.16h-82.54a5.08 5.08 0 0 1-5.079-5.08z" fill="#94B5E9"/><path d="M148 109.592V56.944L127.111 46.5h-47.91L28 72.788v61.767L44.889 143h38.039L148 109.592z" fill="url(#a)"/><path d="M34.676 115.023c-2.235-1.117-2.235-2.929 0-4.046l24.278-12.139c2.234-1.117 5.858-1.117 8.092 0l24.278 12.139c2.235 1.117 2.235 2.929 0 4.046l-24.278 12.139c-2.234 1.117-5.858 1.117-8.092 0l-24.278-12.139z" fill="#C5E3F0"/><path d="M39.397 108.186c-1.863-.931-1.863-2.441 0-3.372l20.231-10.116c1.862-.93 4.882-.93 6.744 0l20.231 10.116c1.863.931 1.863 2.441 0 3.372l-20.231 10.116c-1.862.931-4.882.931-6.744 0l-20.231-10.116z" fill="#A3E0FA"/><path d="M39.397 104.186c-1.863-.931-1.863-2.441 0-3.372l20.231-10.116c1.862-.93 4.882-.93 6.744 0l20.231 10.116c1.863.931 1.863 2.441 0 3.372l-20.231 10.116c-1.862.931-4.882.931-6.744 0l-20.231-10.116z" fill="#6BB8FF"/><path d="M84.676 90.023c-2.235-1.117-2.235-2.929 0-4.046l24.278-12.139c2.234-1.117 5.858-1.117 8.092 0l24.278 12.139c2.235 1.117 2.235 2.929 0 4.046l-24.278 12.139c-2.234 1.117-5.858 1.117-8.092 0L84.676 90.023z" fill="#C5D0F0"/><path d="M89.397 83.186c-1.863-.931-1.863-2.44 0-3.372l20.231-10.116c1.862-.93 4.882-.93 6.744 0l20.231 10.116c1.863.931 1.863 2.44 0 3.372l-20.231 10.116c-1.862.93-4.882.93-6.744 0L89.397 83.186z" fill="#A3BAFA"/><path d="M89.397 79.186c-1.863-.931-1.863-2.44 0-3.372l20.231-10.116c1.862-.93 4.882-.93 6.744 0l20.231 10.116c1.863.931 1.863 2.44 0 3.372l-20.231 10.116c-1.862.93-4.882.93-6.744 0L89.397 79.186z" fill="#6B9EFF"/><path opacity=".25" d="M89 70v13h5c2 0 6 1.2 6 6s-4 6-6 6h-5v13c0 1 .6 3 3 3h13v-5c0-2 1.2-6 6-6s6 4 6 6v5h12c1 0 3-.6 3-3V95h5c2 0 6-1.2 6-6s-4-6-6-6h-5V70c0-1-.6-3-3-3h-12v-5c0-2-1.2-6-6-6s-6 4-6 6v5H92c-1 0-3 .6-3 3z" fill="#2D395B"/><path d="M40 70v13h5c2 0 6 1.2 6 6s-4 6-6 6h-5v13c0 1 .6 3 3 3h13v-5c0-2 1.2-6 6-6s6 4 6 6v5h12c1 0 3-.6 3-3V95h5c2 0 6-1.2 6-6s-4-6-6-6h-5V70c0-1-.6-3-3-3H68v-5c0-2-1.2-6-6-6s-6 4-6 6v5H43c-1 0-3 .6-3 3z" fill="url(#b)"/><path fill-rule="evenodd" clip-rule="evenodd" d="M38 85V70c0-1.852.816-3.202 1.956-4.023C40.994 65.23 42.18 65 43 65h11v-3c0-1.32.38-3.256 1.577-4.919C56.847 55.316 58.948 54 62 54s5.152 1.316 6.423 3.081C69.62 58.744 70 60.68 70 62v3h10c1.852 0 3.202.816 4.023 1.956C84.77 67.994 85 69.18 85 70v11h3c1.32 0 3.256.38 4.919 1.577C94.684 83.847 96 85.948 96 89s-1.316 5.152-3.081 6.423C91.256 96.62 89.32 97 88 97h-3v11c0 1.852-.816 3.202-1.956 4.023-1.038.747-2.224.977-3.044.977H66v-7c0-.68-.22-1.744-.823-2.581-.53-.735-1.429-1.419-3.177-1.419s-2.648.684-3.177 1.419C58.22 104.256 58 105.32 58 106v7H43c-1.852 0-3.202-.816-4.023-1.956C38.23 110.006 38 108.82 38 108V93h7c.68 0 1.744-.22 2.581-.823C48.316 91.647 49 90.748 49 89s-.684-2.648-1.419-3.177C46.744 85.22 45.68 85 45 85h-7zm45 10h5c2 0 6-1.2 6-6s-4-6-6-6h-5V70c0-1-.6-3-3-3H68v-5c0-2-1.2-6-6-6s-6 4-6 6v5H43c-1 0-3 .6-3 3v13h5c2 0 6 1.2 6 6s-4 6-6 6h-5v13c0 1 .6 3 3 3h13v-5c0-2 1.2-6 6-6s6 4 6 6v5h12c1 0 3-.6 3-3V95z" fill="#637BC1"/><path d="M45.57 94.97C47.672 94.76 51 93.377 51 89c0-4.8-4-6-6-6h-3.371l18.324-9.162c2.235-1.117 5.858-1.117 8.092 0L83 81.315V83h3.37l5.954 2.977c.725.362 1.215.798 1.47 1.26.083.328.143.68.176 1.058-.13.63-.679 1.245-1.646 1.728l-24.278 12.139a6.78 6.78 0 0 1-1.03.409C66.146 101.176 64.603 100 62 100c-1.71 0-2.963.508-3.867 1.251l-12.562-6.28z" fill="#C5D0F0"/><path d="M50.984 88.48C50.705 84.112 46.926 83 45 83h-4.939a3.59 3.59 0 0 1-.061-.039V80.04c.121-.078.253-.153.397-.225l20.231-10.116c1.862-.93 4.882-.93 6.744 0L83 77.512V83h4.939a4.349 4.349 0 0 1-.336.186L67.372 93.302c-1.862.93-4.882.93-6.744 0l-9.644-4.823z" fill="#A3BAFA"/><path d="M83 73.512v7.976l-15.628 7.814c-1.862.93-4.882.93-6.744 0L40.397 79.186a4.232 4.232 0 0 1-.397-.225V76.04c.121-.078.253-.153.397-.225l20.231-10.116c1.862-.93 4.882-.93 6.744 0l.628.314V67h1.975L83 73.512z" fill="#6B9EFF"/><defs><linearGradient id="a" x1="83" y1="47" x2="83" y2="142" gradientUnits="userSpaceOnUse"><stop stop-color="#C5D0F0"/><stop offset="1" stop-color="#F3F8FF"/></linearGradient><linearGradient id="b" x1="67" y1="56" x2="67" y2="111" gradientUnits="userSpaceOnUse"><stop stop-color="#CAD4F2"/><stop offset="1" stop-color="#E4EBFA"/></linearGradient></defs></svg>