<svg width="320" height="160" fill="none" xmlns="http://www.w3.org/2000/svg"><rect width="320" height="160" rx="10" fill="#F3F8FF"/><path d="M68.31 51.925c0-.994.883-1.8 1.972-1.8s1.972.806 1.972 1.8v30.15c0 .994-.883 1.8-1.972 1.8-1.09 0-1.972-.806-1.972-1.8v-30.15z" fill="url(#a)"/><path d="M75.211 63.175c0-.994.883-1.8 1.972-1.8 1.09 0 1.972.806 1.972 1.8v7.65c0 .994-.883 1.8-1.972 1.8s-1.972-.806-1.972-1.8v-7.65z" fill="url(#b)"/><path d="M82.113 63.175c0-.994.883-1.8 1.972-1.8s1.971.806 1.971 1.8v7.65c0 .994-.882 1.8-1.971 1.8-1.09 0-1.972-.806-1.972-1.8v-7.65z" fill="url(#c)"/><path d="M89.014 57.55c0-.994.883-1.8 1.972-1.8s1.972.806 1.972 1.8v18.9c0 .994-.883 1.8-1.972 1.8-1.09 0-1.972-.806-1.972-1.8v-18.9z" fill="url(#d)"/><path d="M95.915 63.175c0-.994.883-1.8 1.972-1.8 1.09 0 1.972.806 1.972 1.8v7.65c0 .994-.883 1.8-1.972 1.8s-1.972-.806-1.972-1.8v-7.65z" fill="url(#e)"/><path d="M102.817 46.3c0-.994.883-1.8 1.972-1.8s1.972.806 1.972 1.8v41.4c0 .994-.883 1.8-1.972 1.8s-1.972-.806-1.972-1.8V46.3z" fill="url(#f)"/><path d="M109.718 40.675c0-.994.883-1.8 1.972-1.8s1.972.806 1.972 1.8v52.65c0 .994-.883 1.8-1.972 1.8s-1.972-.806-1.972-1.8v-52.65z" fill="url(#g)"/><path d="M116.62 23.8c0-.994.883-1.8 1.972-1.8s1.971.806 1.971 1.8v86.4c0 .994-.882 1.8-1.971 1.8s-1.972-.806-1.972-1.8V23.8z" fill="url(#h)"/><path d="M123.521 35.05c0-.994.883-1.8 1.972-1.8s1.972.806 1.972 1.8v63.9c0 .994-.883 1.8-1.972 1.8s-1.972-.806-1.972-1.8v-63.9z" fill="url(#i)"/><path d="M130.423 23.8c0-.994.882-1.8 1.971-1.8s1.972.806 1.972 1.8v86.4c0 .994-.883 1.8-1.972 1.8s-1.971-.806-1.971-1.8V23.8z" fill="url(#j)"/><path d="M137.324 35.05c0-.994.883-1.8 1.972-1.8s1.972.806 1.972 1.8v63.9c0 .994-.883 1.8-1.972 1.8s-1.972-.806-1.972-1.8v-63.9z" fill="url(#k)"/><path d="M144.225 57.55c0-.994.883-1.8 1.972-1.8s1.972.806 1.972 1.8v18.9c0 .994-.883 1.8-1.972 1.8s-1.972-.806-1.972-1.8v-18.9z" fill="url(#l)"/><path d="M151.127 63.175c0-.994.883-1.8 1.972-1.8s1.971.806 1.971 1.8v7.65c0 .994-.882 1.8-1.971 1.8s-1.972-.806-1.972-1.8v-7.65z" fill="url(#m)"/><path d="M61.408 35.05c0-.994.883-1.8 1.972-1.8 1.09 0 1.972.806 1.972 1.8v63.9c0 .994-.883 1.8-1.972 1.8s-1.972-.806-1.972-1.8v-63.9z" fill="url(#n)"/><path d="M54.507 23.8c0-.994.883-1.8 1.972-1.8s1.972.806 1.972 1.8v86.4c0 .994-.883 1.8-1.972 1.8-1.09 0-1.972-.806-1.972-1.8V23.8z" fill="url(#o)"/><path d="M47.606 29.425c0-.994.883-1.8 1.971-1.8 1.09 0 1.972.806 1.972 1.8v75.15c0 .994-.883 1.8-1.971 1.8-1.09 0-1.972-.806-1.972-1.8v-75.15z" fill="url(#p)"/><path d="M40.704 40.675c0-.994.883-1.8 1.972-1.8 1.09 0 1.972.806 1.972 1.8v52.65c0 .994-.883 1.8-1.972 1.8s-1.972-.806-1.972-1.8v-52.65z" fill="url(#q)"/><path d="M33.803 57.55c0-.994.883-1.8 1.972-1.8s1.971.806 1.971 1.8v18.9c0 .994-.882 1.8-1.971 1.8-1.09 0-1.972-.806-1.972-1.8v-18.9z" fill="url(#r)"/><path d="M26.901 63.175c0-.994.883-1.8 1.972-1.8 1.09 0 1.972.806 1.972 1.8v7.65c0 .994-.883 1.8-1.972 1.8s-1.972-.806-1.972-1.8v-7.65z" fill="url(#s)"/><path d="M20 63.175c0-.994.883-1.8 1.972-1.8s1.972.806 1.972 1.8v7.65c0 .994-.883 1.8-1.972 1.8-1.09 0-1.972-.806-1.972-1.8v-7.65z" fill="url(#t)"/><path d="M206.338 51.925c0-.994.883-1.8 1.972-1.8s1.972.806 1.972 1.8v30.15c0 .994-.883 1.8-1.972 1.8s-1.972-.806-1.972-1.8v-30.15z" fill="url(#u)"/><path d="M213.239 63.175c0-.994.883-1.8 1.972-1.8s1.972.806 1.972 1.8v7.65c0 .994-.883 1.8-1.972 1.8s-1.972-.806-1.972-1.8v-7.65z" fill="url(#v)"/><path d="M220.141 63.175c0-.994.883-1.8 1.972-1.8s1.972.806 1.972 1.8v7.65c0 .994-.883 1.8-1.972 1.8s-1.972-.806-1.972-1.8v-7.65z" fill="url(#w)"/><path d="M227.042 57.55c0-.994.883-1.8 1.972-1.8s1.972.806 1.972 1.8v18.9c0 .994-.883 1.8-1.972 1.8s-1.972-.806-1.972-1.8v-18.9z" fill="url(#x)"/><path d="M233.944 63.175c0-.994.882-1.8 1.971-1.8 1.09 0 1.972.806 1.972 1.8v7.65c0 .994-.882 1.8-1.972 1.8-1.089 0-1.971-.806-1.971-1.8v-7.65z" fill="url(#y)"/><path d="M240.845 46.3c0-.994.883-1.8 1.972-1.8s1.972.806 1.972 1.8v41.4c0 .994-.883 1.8-1.972 1.8s-1.972-.806-1.972-1.8V46.3z" fill="url(#z)"/><path d="M247.746 40.675c0-.994.883-1.8 1.972-1.8s1.972.806 1.972 1.8v52.65c0 .994-.883 1.8-1.972 1.8s-1.972-.806-1.972-1.8v-52.65z" fill="url(#A)"/><path d="M254.648 32.8c0-.994.883-1.8 1.972-1.8s1.972.806 1.972 1.8v68.4c0 .994-.883 1.8-1.972 1.8s-1.972-.806-1.972-1.8V32.8z" fill="url(#B)"/><path d="M261.549 35.05c0-.994.883-1.8 1.972-1.8s1.972.806 1.972 1.8v63.9c0 .994-.883 1.8-1.972 1.8s-1.972-.806-1.972-1.8v-63.9z" fill="url(#C)"/><path d="M268.451 23.8c0-.994.883-1.8 1.972-1.8s1.971.806 1.971 1.8v86.4c0 .994-.882 1.8-1.971 1.8s-1.972-.806-1.972-1.8V23.8z" fill="url(#D)"/><path d="M275.352 41.8c0-.994.883-1.8 1.972-1.8s1.972.806 1.972 1.8v50.4c0 .994-.883 1.8-1.972 1.8s-1.972-.806-1.972-1.8V41.8z" fill="url(#E)"/><path d="M282.254 57.55c0-.994.882-1.8 1.971-1.8s1.972.806 1.972 1.8v18.9c0 .994-.883 1.8-1.972 1.8s-1.971-.806-1.971-1.8v-18.9z" fill="url(#F)"/><path d="M289.155 63.175c0-.994.883-1.8 1.972-1.8s1.972.806 1.972 1.8v7.65c0 .994-.883 1.8-1.972 1.8s-1.972-.806-1.972-1.8v-7.65z" fill="url(#G)"/><path d="M296.056 63.175c0-.994.883-1.8 1.972-1.8s1.972.806 1.972 1.8v7.65c0 .994-.883 1.8-1.972 1.8s-1.972-.806-1.972-1.8v-7.65z" fill="url(#H)"/><path d="M199.437 35.05c0-.994.882-1.8 1.971-1.8s1.972.806 1.972 1.8v63.9c0 .994-.883 1.8-1.972 1.8s-1.971-.806-1.971-1.8v-63.9z" fill="url(#I)"/><path d="M192.535 23.8c0-.994.883-1.8 1.972-1.8s1.972.806 1.972 1.8v86.4c0 .994-.883 1.8-1.972 1.8s-1.972-.806-1.972-1.8V23.8z" fill="url(#J)"/><path d="M185.634 29.425c0-.994.883-1.8 1.972-1.8s1.971.806 1.971 1.8v75.15c0 .994-.882 1.8-1.971 1.8s-1.972-.806-1.972-1.8v-75.15z" fill="url(#K)"/><path d="M178.732 30.1c0-.994.883-1.8 1.972-1.8s1.972.806 1.972 1.8V103c0 .994-.883 1.8-1.972 1.8s-1.972-.806-1.972-1.8V30.1z" fill="url(#L)"/><path d="M171.831 57.55c0-.994.883-1.8 1.972-1.8s1.972.806 1.972 1.8v18.9c0 .994-.883 1.8-1.972 1.8s-1.972-.806-1.972-1.8v-18.9z" fill="url(#M)"/><path d="M164.93 63.175c0-.994.882-1.8 1.971-1.8s1.972.806 1.972 1.8v7.65c0 .994-.883 1.8-1.972 1.8s-1.971-.806-1.971-1.8v-7.65z" fill="url(#N)"/><path d="M158.028 63.175c0-.994.883-1.8 1.972-1.8s1.972.806 1.972 1.8v7.65c0 .994-.883 1.8-1.972 1.8s-1.972-.806-1.972-1.8v-7.65z" fill="url(#O)"/><path d="M82 102a5 5 0 0 1 5-5h190a5 5 0 0 1 5 5v30a5 5 0 0 1-5 5H87a5 5 0 0 1-5-5v-30z" fill="#fff"/><path fill-rule="evenodd" clip-rule="evenodd" d="M277 99H87a3 3 0 0 0-3 3v30a3 3 0 0 0 3 3h190a3 3 0 0 0 3-3v-30a3 3 0 0 0-3-3zM87 97a5 5 0 0 0-5 5v30a5 5 0 0 0 5 5h190a5 5 0 0 0 5-5v-30a5 5 0 0 0-5-5H87z" fill="#BDD2F5"/><rect x="37" y="97" width="40" height="40" rx="5" fill="#377DFF"/><path d="M59.609 111.189a1.197 1.197 0 0 1 1.676-.239 7.187 7.187 0 0 1 2.115 8.961 7.187 7.187 0 0 1-2.115 2.534 1.197 1.197 0 1 1-1.437-1.916 4.78 4.78 0 0 0 1.916-3.831 4.789 4.789 0 0 0-1.916-3.832 1.198 1.198 0 0 1-.24-1.677z" fill="#fff"/><path d="M62.868 107.563a1.198 1.198 0 0 1 1.684-.179A11.983 11.983 0 0 1 69 116.698a11.975 11.975 0 0 1-4.448 9.313 1.198 1.198 0 0 1-1.505-1.863 9.581 9.581 0 0 0 0-14.901 1.197 1.197 0 0 1-.179-1.684zm-8.288 1.334-3.845 4.943a1.197 1.197 0 0 1-.945.463h-2.395v4.789h2.395c.37 0 .718.171.945.463l3.844 4.943v-15.601zm-.56-2.738a2.154 2.154 0 0 1 2.954 2.237v16.603a2.157 2.157 0 0 1-3.993 1.344l-3.777-4.856h-1.81A2.395 2.395 0 0 1 45 119.092v-4.789a2.396 2.396 0 0 1 2.395-2.395h1.81l3.776-4.856c.24-.402.603-.716 1.038-.893z" fill="#fff"/><path d="M94 117a5 5 0 0 1 5-5h32a5 5 0 0 1 0 10H99a5 5 0 0 1-5-5zm48 0a5 5 0 0 1 5-5h9a5 5 0 0 1 0 10h-9a5 5 0 0 1-5-5zm25 0a5 5 0 0 1 5-5h43a5 5 0 0 1 0 10h-43a5 5 0 0 1-5-5z" fill="#BDD2F5"/><path d="M226 108a1 1 0 0 1 2 0v18a1 1 0 0 1-2 0v-18z" fill="#94B5E9"/><defs><linearGradient id="a" x1="160" y1="22" x2="160" y2="112" gradientUnits="userSpaceOnUse"><stop stop-color="#C3CADF"/><stop offset=".505" stop-color="#377DFF"/><stop offset="1" stop-color="#C3CADF"/></linearGradient><linearGradient id="b" x1="160" y1="22" x2="160" y2="112" gradientUnits="userSpaceOnUse"><stop stop-color="#C3CADF"/><stop offset=".505" stop-color="#377DFF"/><stop offset="1" stop-color="#C3CADF"/></linearGradient><linearGradient id="c" x1="160" y1="22" x2="160" y2="112" gradientUnits="userSpaceOnUse"><stop stop-color="#C3CADF"/><stop offset=".505" stop-color="#377DFF"/><stop offset="1" stop-color="#C3CADF"/></linearGradient><linearGradient id="d" x1="160" y1="22" x2="160" y2="112" gradientUnits="userSpaceOnUse"><stop stop-color="#C3CADF"/><stop offset=".505" stop-color="#377DFF"/><stop offset="1" stop-color="#C3CADF"/></linearGradient><linearGradient id="e" x1="160" y1="22" x2="160" y2="112" gradientUnits="userSpaceOnUse"><stop stop-color="#C3CADF"/><stop offset=".505" stop-color="#377DFF"/><stop offset="1" stop-color="#C3CADF"/></linearGradient><linearGradient id="f" x1="160" y1="22" x2="160" y2="112" gradientUnits="userSpaceOnUse"><stop stop-color="#C3CADF"/><stop offset=".505" stop-color="#377DFF"/><stop offset="1" stop-color="#C3CADF"/></linearGradient><linearGradient id="g" x1="160" y1="22" x2="160" y2="112" gradientUnits="userSpaceOnUse"><stop stop-color="#C3CADF"/><stop offset=".505" stop-color="#377DFF"/><stop offset="1" stop-color="#C3CADF"/></linearGradient><linearGradient id="h" x1="160" y1="22" x2="160" y2="112" gradientUnits="userSpaceOnUse"><stop stop-color="#C3CADF"/><stop offset=".505" stop-color="#377DFF"/><stop offset="1" stop-color="#C3CADF"/></linearGradient><linearGradient id="i" x1="160" y1="22" x2="160" y2="112" gradientUnits="userSpaceOnUse"><stop stop-color="#C3CADF"/><stop offset=".505" stop-color="#377DFF"/><stop offset="1" stop-color="#C3CADF"/></linearGradient><linearGradient id="j" x1="160" y1="22" x2="160" y2="112" gradientUnits="userSpaceOnUse"><stop stop-color="#C3CADF"/><stop offset=".505" stop-color="#377DFF"/><stop offset="1" stop-color="#C3CADF"/></linearGradient><linearGradient id="k" x1="160" y1="22" x2="160" y2="112" gradientUnits="userSpaceOnUse"><stop stop-color="#C3CADF"/><stop offset=".505" stop-color="#377DFF"/><stop offset="1" stop-color="#C3CADF"/></linearGradient><linearGradient id="l" x1="160" y1="22" x2="160" y2="112" gradientUnits="userSpaceOnUse"><stop stop-color="#C3CADF"/><stop offset=".505" stop-color="#377DFF"/><stop offset="1" stop-color="#C3CADF"/></linearGradient><linearGradient id="m" x1="160" y1="22" x2="160" y2="112" gradientUnits="userSpaceOnUse"><stop stop-color="#C3CADF"/><stop offset=".505" stop-color="#377DFF"/><stop offset="1" stop-color="#C3CADF"/></linearGradient><linearGradient id="n" x1="160" y1="22" x2="160" y2="112" gradientUnits="userSpaceOnUse"><stop stop-color="#C3CADF"/><stop offset=".505" stop-color="#377DFF"/><stop offset="1" stop-color="#C3CADF"/></linearGradient><linearGradient id="o" x1="160" y1="22" x2="160" y2="112" gradientUnits="userSpaceOnUse"><stop stop-color="#C3CADF"/><stop offset=".505" stop-color="#377DFF"/><stop offset="1" stop-color="#C3CADF"/></linearGradient><linearGradient id="p" x1="160" y1="22" x2="160" y2="112" gradientUnits="userSpaceOnUse"><stop stop-color="#C3CADF"/><stop offset=".505" stop-color="#377DFF"/><stop offset="1" stop-color="#C3CADF"/></linearGradient><linearGradient id="q" x1="160" y1="22" x2="160" y2="112" gradientUnits="userSpaceOnUse"><stop stop-color="#C3CADF"/><stop offset=".505" stop-color="#377DFF"/><stop offset="1" stop-color="#C3CADF"/></linearGradient><linearGradient id="r" x1="160" y1="22" x2="160" y2="112" gradientUnits="userSpaceOnUse"><stop stop-color="#C3CADF"/><stop offset=".505" stop-color="#377DFF"/><stop offset="1" stop-color="#C3CADF"/></linearGradient><linearGradient id="s" x1="160" y1="22" x2="160" y2="112" gradientUnits="userSpaceOnUse"><stop stop-color="#C3CADF"/><stop offset=".505" stop-color="#377DFF"/><stop offset="1" stop-color="#C3CADF"/></linearGradient><linearGradient id="t" x1="160" y1="22" x2="160" y2="112" gradientUnits="userSpaceOnUse"><stop stop-color="#C3CADF"/><stop offset=".505" stop-color="#377DFF"/><stop offset="1" stop-color="#C3CADF"/></linearGradient><linearGradient id="u" x1="160" y1="22" x2="160" y2="112" gradientUnits="userSpaceOnUse"><stop stop-color="#C3CADF"/><stop offset=".505" stop-color="#377DFF"/><stop offset="1" stop-color="#C3CADF"/></linearGradient><linearGradient id="v" x1="160" y1="22" x2="160" y2="112" gradientUnits="userSpaceOnUse"><stop stop-color="#C3CADF"/><stop offset=".505" stop-color="#377DFF"/><stop offset="1" stop-color="#C3CADF"/></linearGradient><linearGradient id="w" x1="160" y1="22" x2="160" y2="112" gradientUnits="userSpaceOnUse"><stop stop-color="#C3CADF"/><stop offset=".505" stop-color="#377DFF"/><stop offset="1" stop-color="#C3CADF"/></linearGradient><linearGradient id="x" x1="160" y1="22" x2="160" y2="112" gradientUnits="userSpaceOnUse"><stop stop-color="#C3CADF"/><stop offset=".505" stop-color="#377DFF"/><stop offset="1" stop-color="#C3CADF"/></linearGradient><linearGradient id="y" x1="160" y1="22" x2="160" y2="112" gradientUnits="userSpaceOnUse"><stop stop-color="#C3CADF"/><stop offset=".505" stop-color="#377DFF"/><stop offset="1" stop-color="#C3CADF"/></linearGradient><linearGradient id="z" x1="160" y1="22" x2="160" y2="112" gradientUnits="userSpaceOnUse"><stop stop-color="#C3CADF"/><stop offset=".505" stop-color="#377DFF"/><stop offset="1" stop-color="#C3CADF"/></linearGradient><linearGradient id="A" x1="160" y1="22" x2="160" y2="112" gradientUnits="userSpaceOnUse"><stop stop-color="#C3CADF"/><stop offset=".505" stop-color="#377DFF"/><stop offset="1" stop-color="#C3CADF"/></linearGradient><linearGradient id="B" x1="160" y1="22" x2="160" y2="112" gradientUnits="userSpaceOnUse"><stop stop-color="#C3CADF"/><stop offset=".505" stop-color="#377DFF"/><stop offset="1" stop-color="#C3CADF"/></linearGradient><linearGradient id="C" x1="160" y1="22" x2="160" y2="112" gradientUnits="userSpaceOnUse"><stop stop-color="#C3CADF"/><stop offset=".505" stop-color="#377DFF"/><stop offset="1" stop-color="#C3CADF"/></linearGradient><linearGradient id="D" x1="160" y1="22" x2="160" y2="112" gradientUnits="userSpaceOnUse"><stop stop-color="#C3CADF"/><stop offset=".505" stop-color="#377DFF"/><stop offset="1" stop-color="#C3CADF"/></linearGradient><linearGradient id="E" x1="160" y1="22" x2="160" y2="112" gradientUnits="userSpaceOnUse"><stop stop-color="#C3CADF"/><stop offset=".505" stop-color="#377DFF"/><stop offset="1" stop-color="#C3CADF"/></linearGradient><linearGradient id="F" x1="160" y1="22" x2="160" y2="112" gradientUnits="userSpaceOnUse"><stop stop-color="#C3CADF"/><stop offset=".505" stop-color="#377DFF"/><stop offset="1" stop-color="#C3CADF"/></linearGradient><linearGradient id="G" x1="160" y1="22" x2="160" y2="112" gradientUnits="userSpaceOnUse"><stop stop-color="#C3CADF"/><stop offset=".505" stop-color="#377DFF"/><stop offset="1" stop-color="#C3CADF"/></linearGradient><linearGradient id="H" x1="160" y1="22" x2="160" y2="112" gradientUnits="userSpaceOnUse"><stop stop-color="#C3CADF"/><stop offset=".505" stop-color="#377DFF"/><stop offset="1" stop-color="#C3CADF"/></linearGradient><linearGradient id="I" x1="160" y1="22" x2="160" y2="112" gradientUnits="userSpaceOnUse"><stop stop-color="#C3CADF"/><stop offset=".505" stop-color="#377DFF"/><stop offset="1" stop-color="#C3CADF"/></linearGradient><linearGradient id="J" x1="160" y1="22" x2="160" y2="112" gradientUnits="userSpaceOnUse"><stop stop-color="#C3CADF"/><stop offset=".505" stop-color="#377DFF"/><stop offset="1" stop-color="#C3CADF"/></linearGradient><linearGradient id="K" x1="160" y1="22" x2="160" y2="112" gradientUnits="userSpaceOnUse"><stop stop-color="#C3CADF"/><stop offset=".505" stop-color="#377DFF"/><stop offset="1" stop-color="#C3CADF"/></linearGradient><linearGradient id="L" x1="160" y1="22" x2="160" y2="112" gradientUnits="userSpaceOnUse"><stop stop-color="#C3CADF"/><stop offset=".505" stop-color="#377DFF"/><stop offset="1" stop-color="#C3CADF"/></linearGradient><linearGradient id="M" x1="160" y1="22" x2="160" y2="112" gradientUnits="userSpaceOnUse"><stop stop-color="#C3CADF"/><stop offset=".505" stop-color="#377DFF"/><stop offset="1" stop-color="#C3CADF"/></linearGradient><linearGradient id="N" x1="160" y1="22" x2="160" y2="112" gradientUnits="userSpaceOnUse"><stop stop-color="#C3CADF"/><stop offset=".505" stop-color="#377DFF"/><stop offset="1" stop-color="#C3CADF"/></linearGradient><linearGradient id="O" x1="160" y1="22" x2="160" y2="112" gradientUnits="userSpaceOnUse"><stop stop-color="#C3CADF"/><stop offset=".505" stop-color="#377DFF"/><stop offset="1" stop-color="#C3CADF"/></linearGradient></defs></svg>