<svg width="320" height="160" fill="none" xmlns="http://www.w3.org/2000/svg"><rect width="320" height="160" rx="10" fill="#ECECEC"/><path d="M288.5 67.24c-.025.38-.354.735-.987.355-.329-.177-1.336-.592-2.733-.835-1.746-.304-3.493.05-4.303.709-.81.658-.86 2.252 0 3.037.861.784 2.379 1.139 5.341 2.1 2.961.962 3.593 2.936 3.669 4.506.076 1.569-.734 3.189-2.024 4.175-1.291.988-3.215 1.443-4.961 1.494-1.746.05-3.746-.43-4.885-.886-1.139-.456-1.265-.936-1.265-1.266v-1.214c0-.583.405-.633.835-.43.43.202 2.708 1.164 5.214 1.113 2.505-.05 3.568-1.012 3.746-2.126.177-1.114-.228-1.797-1.165-2.354-.936-.557-3.29-1.113-5.163-1.771-1.873-.658-3.113-2.531-3.265-4.05-.152-1.519.456-3.34 1.899-4.404 1.442-1.063 3.34-1.417 4.732-1.392 1.392.026 3.012.33 4.1.785 1.089.455 1.215.962 1.215 1.367 0 .404.026.708 0 1.088zm-17.083-1.796c-.081.344-2.363 9.086-3.493 13.414-1.013-4.244-3.068-12.873-3.189-13.44-.152-.708-.506-.885-.962-.885h-1.974c-.456 0-.835.278-.987.962-.122.546-2.143 9.035-3.138 13.211-1.106-4.345-3.351-13.136-3.493-13.54-.177-.507-.481-.633-.886-.633h-2.05c-.456 0-.633.329-.43.91.202.583 4.631 15.237 4.834 15.946.202.708.582.886.987.886h1.999c.532 0 .861-.279.987-.886.102-.486 2.135-8.875 3.139-13.01.978 4.118 2.971 12.483 3.113 13.01.177.658.506.886.936.886h1.873c.608 0 .962-.254 1.139-.886.177-.633 4.783-14.907 4.986-15.819.202-.91 0-1.012-.506-1.012s-1.266.025-1.898 0c-.633-.025-.886.456-.987.886z" fill="#334151"/><path fill-rule="evenodd" clip-rule="evenodd" d="M245.474 72.404c-.7-.22-2.622-.658-4.707-.658-2.607 0-5.821 1.417-6.302 4.53-.481 3.113.962 6.05 4.809 6.404 3.077.283 5.618-1.688 6.504-2.709.219.49.759 1.57 1.164 1.975.507.506.861.38 1.494 0 .265-.16.468-.292.633-.4.228-.149.384-.25.531-.31.253-.1.354-.657 0-1.138-.354-.48-.835-1.29-.81-3.062a311.04 311.04 0 0 0 0-6.834c-.025-2.05-.709-4.176-2.556-5.188-1.848-1.013-5.214-1.316-7.644-.557-2.077.649-2.415.873-2.565.971a.607.607 0 0 1-.067.041c-.152.076-.38.38-.38.835v1.14c0 .379.178.708.785.53.125-.035.315-.11.558-.206.943-.369 2.678-1.048 4.428-1.008 2.202.05 3.417.607 3.923 2.05.405 1.154.304 2.877.202 3.594zm.076 2.177c.118.995.051 3.229-1.164 4.2-1.518 1.216-3.568 1.773-5.365.887-1.797-.886-1.418-4.379.354-5.087 1.772-.71 3.417-.481 4.252-.355.668.102 1.561.279 1.923.355z" fill="#334151"/><path d="M232.288 88.653c-.582-.582-.228-1.519.582-.962.742.43 2.764 1.55 4.91 2.582 2.683 1.29 5.087 2.202 12.174 3.999 7.086 1.796 13.971 1.518 19.969.835 5.998-.684 13.971-3.392 14.932-3.898.962-.506 1.519-.304 1.671 0 .152.304.152.962-.43 1.367l-.014.01c-.609.423-3.207 2.23-7.2 3.938-4.024 1.721-10.579 3.366-17.007 3.391-6.429.026-12.351-1.29-18.552-4.049-6.201-2.759-10.453-6.631-11.035-7.213z" fill="#FF9400"/><path d="M288.348 93.867c.658-1.924 1.164-3.847.633-4.48-.051-.101-.294-.344-.861-.506-.708-.203-3.391-.203-4.935 0-1.544.202-2.379.227-2.43 0-.05-.228.329-1.063 2.43-1.721 2.101-.658 3.594-.81 5.467-.709 1.873.101 2.885.48 3.113.835.228.355.354 1.114.076 2.632-.279 1.519-.987 3.847-2.303 5.67-1.316 1.822-2.101 2.075-2.303 1.746-.203-.329.455-1.544 1.113-3.467z" fill="#FF9400"/><path d="M36 25.843A8.844 8.844 0 0 1 44.843 17h145.919a8.843 8.843 0 0 1 8.843 8.843v112.313a8.843 8.843 0 0 1-8.843 8.844H44.844A8.843 8.843 0 0 1 36 138.156V25.843z" fill="#fff"/><path fill-rule="evenodd" clip-rule="evenodd" d="M190.762 18.326H44.844a7.517 7.517 0 0 0-7.517 7.517v112.313a7.517 7.517 0 0 0 7.517 7.517h145.918a7.517 7.517 0 0 0 7.517-7.517V25.843a7.517 7.517 0 0 0-7.517-7.517zM44.844 17A8.844 8.844 0 0 0 36 25.843v112.313A8.843 8.843 0 0 0 44.843 147h145.919a8.843 8.843 0 0 0 8.843-8.844V25.843A8.843 8.843 0 0 0 190.762 17H44.844z" fill="#C3CADF"/><path d="M150.966 124.607a1.93 1.93 0 0 1 1.932-1.927h35.932a1.93 1.93 0 0 1 1.932 1.927v9.247a1.929 1.929 0 0 1-1.932 1.926h-35.932a1.929 1.929 0 0 1-1.932-1.926v-9.247z" fill="#D5691E"/><path d="M161.398 129.23c0-1.064.865-1.926 1.932-1.926h16.227c1.067 0 1.932.862 1.932 1.926a1.93 1.93 0 0 1-1.932 1.927H163.33a1.93 1.93 0 0 1-1.932-1.927z" fill="#fff"/><path fill="#EDF3FF" d="M44.844 49.279h145.918v53.061H44.844z"/><path d="m58.55 68.071-.883 7.739h20.56l.664-5.085-20.34-2.654z" fill="url(#a)"/><path d="M68.957 66.082c-7.738-.885-10.169.655-10.391 1.99-.222 1.326 1.99 3.094 9.506 4.2 7.517 1.105 10.613-.221 10.834-1.548.22-1.326-2.183-3.755-9.95-4.642z" fill="#5D5D5D"/><path d="M123.109 81.337c-4.599-.354-5.749-3.832-5.749-5.527h-5.748c-.074 3.39 1.99 10.39 10.833 11.275 8.844.884 12.529-7.148 13.266-11.275h-5.527c-.443 1.99-2.477 5.88-7.075 5.527z" fill="url(#b)"/><path d="M145.218 64.313c-9.198-.53-12.676 7.443-13.266 11.497h5.749c.589-1.843 2.829-5.483 7.074-5.306 4.245.176 5.454 3.61 5.528 5.306h5.527c.295-3.612-2.432-11.025-10.612-11.497z" fill="url(#c)"/><path d="M155.842 84.874c.353-1.415 1.179-6.632 1.547-9.064h-19.898a746.372 746.372 0 0 0-.663 6.19c-.221 2.21 2.619 4.483 8.844 5.085 6.853.663 9.728-.442 10.17-2.21z" fill="url(#d)"/><path d="m177.275 87.306.885-11.496h-17.908l-.885 10.17 17.908 1.326zM112.496 65.86l-.884 9.95h18.129l.664-9.065-17.909-.885z" fill="#5D5D5D"/><path d="M76.901 79.79c1.327-1.106.958-3.244.442-3.98h-3.758s1.547 1.591.884 1.99c-.884.53-3.316-1.106-4.422-1.99H66.29c2.296 1.766 7.885 6.252 10.612 3.98z" fill="url(#e)"/><path d="M81.323 83.106c3.543-1.444 5.527-5.896 5.97-7.296h-2.654c-.59 1.695-1.99 5.107-6.19 5.527-3.538.353-8.844-3.538-11.055-5.527H64.52c4.318 4.318 10.834 9.727 16.803 7.296z" fill="url(#f)"/><path d="M60.099 82.884c2.122-1.415 5.895-5.306 7.517-7.074h-5.307c-.884.81-3.006 2.874-4.421 4.642-1.77 2.211-.443 4.201 2.21 2.432z" fill="url(#g)"/><path d="M106.748 68.956c2.653 2.122 3.022 5.453 2.874 6.853h-2.21c0-.884-.177-2.918-.885-3.98-.884-1.326-3.316-1.989-7.296-.662-3.183 1.06-6.435 3.537-7.663 4.642h-1.843c.294-.442 1.547-1.857 4.2-3.98 3.317-2.652 9.507-5.526 12.823-2.873z" fill="url(#h)"/><path d="M95.473 72.935c-2.476-.707-4.864.295-5.748.885l1.105.884c.442-.221 1.636-.575 2.874-.221 1.238.354 1.99 1.032 2.21 1.326h4.423c-.59-.663-2.388-2.166-4.864-2.874z" fill="url(#i)"/><path d="M84.583 68.952c2.138 1.371 5.94 5.143 7.573 6.858H86.81c-.89-.786-3.03-2.786-4.455-4.5-1.782-2.144-.445-4.072 2.228-2.358z" fill="url(#j)"/><path d="m166.221 61.439 7.296 14.37h-12.16l4.864-14.37zM88.398 88.854l4.2-13.044h11.939l5.527 10.833-21.666 2.21z" fill="#777"/><path d="m90.83 91.286-2.432-2.432 21.666-2.211v2.874L90.83 91.286z" fill="#303030"/><path fill="#ECECEC" d="M44.843 102.34h145.918v10.612H44.843z"/><path d="M53.687 101.014a2.21 2.21 0 0 1 2.21-2.211h13.266c1.221 0 2.211.99 2.211 2.211v13.265a2.21 2.21 0 0 1-2.21 2.211H55.897a2.211 2.211 0 0 1-2.211-2.211v-13.265z" fill="#fff"/><path fill-rule="evenodd" clip-rule="evenodd" d="M69.163 99.687H55.898c-.733 0-1.327.594-1.327 1.327v13.265c0 .733.594 1.327 1.327 1.327h13.265c.733 0 1.327-.594 1.327-1.327v-13.265c0-.733-.594-1.327-1.327-1.327zm-13.265-.884a2.21 2.21 0 0 0-2.211 2.211v13.265a2.21 2.21 0 0 0 2.21 2.211h13.266c1.221 0 2.211-.99 2.211-2.211v-13.265a2.21 2.21 0 0 0-2.21-2.211H55.897z" fill="#C3CADF"/><path fill-rule="evenodd" clip-rule="evenodd" d="M62.945 103.64a.663.663 0 0 1 .938 0l3.538 3.537a.663.663 0 0 1 0 .938l-3.538 3.538a.663.663 0 0 1-.938-.938l3.069-3.069-3.069-3.068a.663.663 0 0 1 0-.938z" fill="#298584"/><path fill-rule="evenodd" clip-rule="evenodd" d="M58.524 103.64a.663.663 0 0 1 .938 0l3.537 3.537a.663.663 0 0 1 0 .938l-3.537 3.538a.663.663 0 0 1-.938-.938l3.068-3.069-3.068-3.068a.663.663 0 0 1 0-.938z" fill="#298584"/><path d="M44.844 29.38a3.095 3.095 0 0 1 3.095-3.094h52.177a3.095 3.095 0 0 1 0 6.19H47.939a3.095 3.095 0 0 1-3.095-3.095z" fill="#C3CADF"/><path d="M44.844 39.551c0-1.221.99-2.21 2.21-2.21h91.089a2.211 2.211 0 1 1 0 4.42H47.054a2.21 2.21 0 0 1-2.21-2.21z" fill="#EFF3FF"/><path d="m182.36 41.32-2.21-16.803 5.748 11.054-3.538 5.749z" fill="#303030"/><path d="m182.361 41.32-2.211-16.803-6.633 13.707 8.844 3.096z" fill="#777"/><path fill-rule="evenodd" clip-rule="evenodd" d="M81.61 126.617c-.56.704-.767 1.552-.767 2.093v1.218h-.913v-1.218c0-.726.264-1.781.967-2.662.718-.901 1.876-1.599 3.598-1.599 1.723 0 2.881.698 3.6 1.599.702.881.966 1.936.966 2.662v1.218h-.913v-1.218c0-.541-.207-1.389-.768-2.093-.545-.684-1.441-1.255-2.885-1.255-1.443 0-2.339.571-2.884 1.255z" fill="#C3CADF"/><path d="M79.93 129.928h3.043v4.261h-1.826c-.406 0-1.217-.243-1.217-1.217v-3.044zm9.131 0h-3.044v4.261h1.827c.406 0 1.217-.243 1.217-1.217v-3.044z" fill="#C3CADF"/><path fill-rule="evenodd" clip-rule="evenodd" d="M68.545 133.276a3.957 3.957 0 1 0 .001-7.913 3.957 3.957 0 0 0 0 7.913zm0 .913a4.87 4.87 0 1 0 .001-9.74 4.87 4.87 0 0 0 0 9.74z" fill="#C3CADF"/><path fill-rule="evenodd" clip-rule="evenodd" d="M69.002 129.015v2.739h-.913v-2.739h.913zm0-2.131v.913h-.913v-.913h.913zm-15.182-.256a3.957 3.957 0 0 0-5.595-.103l-.633-.658a4.87 4.87 0 0 1 7.973 5.128l-.862-.304a3.957 3.957 0 0 0-.883-4.063z" fill="#C3CADF"/><path d="m55.121 131.602 1.872-2.104-3.546.018 1.674 2.086z" fill="#C3CADF"/><path fill-rule="evenodd" clip-rule="evenodd" d="M48.016 132.01a3.957 3.957 0 0 0 5.595.104l.634.657a4.87 4.87 0 0 1-7.973-5.127l.861.303a3.957 3.957 0 0 0 .883 4.063z" fill="#C3CADF"/><path d="m46.715 127.037-1.871 2.104 3.545-.018-1.674-2.086z" fill="#C3CADF"/><defs><linearGradient id="a" x1="78.007" y1="75.809" x2="57.667" y2="72.935" gradientUnits="userSpaceOnUse"><stop stop-color="#3B3B3B"/><stop offset="1" stop-color="#878787"/></linearGradient><linearGradient id="d" x1="156.532" y1="87.28" x2="136.593" y2="85.437" gradientUnits="userSpaceOnUse"><stop stop-color="#3B3B3B"/><stop offset="1" stop-color="#878787"/></linearGradient><linearGradient id="e" x1="77.333" y1="80.418" x2="66.252" y2="78.99" gradientUnits="userSpaceOnUse"><stop stop-color="#3B3B3B"/><stop offset="1" stop-color="#878787"/></linearGradient><linearGradient id="f" x1="86.343" y1="83.71" x2="64.565" y2="80.476" gradientUnits="userSpaceOnUse"><stop stop-color="#3B3B3B"/><stop offset="1" stop-color="#878787"/></linearGradient><linearGradient id="g" x1="67.177" y1="83.565" x2="56.931" y2="82.848" gradientUnits="userSpaceOnUse"><stop stop-color="#3B3B3B"/><stop offset="1" stop-color="#878787"/></linearGradient><linearGradient id="h" x1="108.82" y1="75.809" x2="89.666" y2="73.323" gradientUnits="userSpaceOnUse"><stop stop-color="#3B3B3B"/><stop offset="1" stop-color="#878787"/></linearGradient><linearGradient id="i" x1="99.894" y1="75.809" x2="89.831" y2="74.044" gradientUnits="userSpaceOnUse"><stop stop-color="#3B3B3B"/><stop offset="1" stop-color="#878787"/></linearGradient><linearGradient id="j" x1="91.714" y1="68.293" x2="81.395" y2="69.043" gradientUnits="userSpaceOnUse"><stop stop-color="#3B3B3B"/><stop offset="1" stop-color="#878787"/></linearGradient><radialGradient id="b" cx="0" cy="0" r="1" gradientUnits="userSpaceOnUse" gradientTransform="matrix(-.55357 11.3429 -12.602 -.61502 124.213 75.809)"><stop offset=".457" stop-color="#858585"/><stop offset="1" stop-color="#303030"/></radialGradient><radialGradient id="c" cx="0" cy="0" r="1" gradientUnits="userSpaceOnUse" gradientTransform="matrix(1.32653 -11.0544 11.8768 1.42522 143.891 75.81)"><stop offset=".411" stop-color="#858585"/><stop offset="1" stop-color="#303030"/></radialGradient></defs></svg>