<svg width="880" height="400" fill="none" xmlns="http://www.w3.org/2000/svg"><path fill="#F3F8FF" d="M0 0h880v400H0z"/><path d="M586.446 261.266a16.702 16.702 0 0 1-6.206 6.008 16.702 16.702 0 0 1-8.376 2.108c-9.722 0-16.864-7.153-16.864-16.382 0-8.667 7.096-15.912 16.864-15.912 6.649 0 11.876 3.118 14.674 7.796l-6.374 3.714A9.413 9.413 0 0 0 562.601 253a9.162 9.162 0 0 0 2.669 6.607 9.158 9.158 0 0 0 6.594 2.702 9.075 9.075 0 0 0 8.208-4.723l6.374 3.68zM612.905 263.971h-15.041l-2.064 4.861h-8.025l13.345-31.182h8.391l13.39 31.182h-8.025l-1.971-4.861zm-2.614-6.145-4.861-11.647-4.952 11.647h9.813zM654.038 249.664c0 6.145-3.898 12.106-11.877 12.106h-6.787v7.062h-7.555V237.65h14.388c7.979 0 11.831 5.961 11.831 12.014zm-18.664-5.044v10.226h5.961c3.027 0 5.091-1.789 5.091-5.182 0-3.393-2.064-4.998-5.091-5.044h-5.961zM687.696 244.62h-11.051v24.212h-7.612V244.62h-11.04v-6.97h29.703v6.97zM720.942 261.266a16.707 16.707 0 0 1-14.582 8.116c-9.767 0-16.875-7.153-16.875-16.37 0-8.667 7.108-15.913 16.875-15.913 6.649 0 11.877 3.119 14.674 7.796l-6.42 3.714A9.413 9.413 0 0 0 697.097 253a9.171 9.171 0 0 0 9.263 9.309 9.071 9.071 0 0 0 8.254-4.723l6.328 3.68zM754.738 268.832h-7.566v-12.106h-13.757v12.106h-7.52V237.65h7.52v12.106h13.757V237.65h7.566v31.182zM785.003 263.971h-15.041l-2.063 4.861h-8.025l13.344-31.182h8.392L795 268.832h-8.025l-1.972-4.861zm-2.614-6.145-4.86-11.647-4.953 11.647h9.813z" fill="#000"/><path d="M651.514 295.156h-16.371v7.154h13.666v6.878h-13.666v10.134h-7.52v-31.136h23.891v6.97zM685.264 303.777a16.047 16.047 0 0 1-9.971 14.763 16.054 16.054 0 0 1-21.827-11.757 16.054 16.054 0 0 1 6.841-16.449 16.053 16.053 0 0 1 8.907-2.698 16.151 16.151 0 0 1 16.05 16.141zm-25.313 0a9.168 9.168 0 0 0 5.662 8.473 9.168 9.168 0 0 0 9.994-1.988 9.168 9.168 0 0 0 1.988-9.995 9.168 9.168 0 0 0-8.473-5.661 9.171 9.171 0 0 0-9.171 9.171zM685.953 314.416l10.455-10.318-11.006-11.097 5.366-5.365 11.005 11.097 11.327-11.097 5.365 5.319-11.464 11.235 10.409 10.318-5.457 5.411-10.318-10.456-10.409 10.318-5.273-5.365z" fill="#F89A25"/><path d="M672.911 214.187c37.055 0 67.094-30.038 67.094-67.093 0-37.055-30.039-67.094-67.094-67.094-37.055 0-67.094 30.039-67.094 67.094 0 37.055 30.039 67.093 67.094 67.093z" fill="#F99B26"/><path fill-rule="evenodd" clip-rule="evenodd" d="m627.032 154.502 12.903 4.529 34.154 31.628 28.082-28.595 16.698-8.291-7.59-11.323 4.554-33.739-24.288 26.868h-36.506l-21.935-26.868 1.898 32.933-7.97 12.858z" fill="#fff"/><path d="M108 56a6 6 0 0 1 6-6h324a6 6 0 0 1 6 6v288a6 6 0 0 1-6 6H114a6 6 0 0 1-6-6V56z" fill="#fff"/><path d="M438 348.2v1.8H114v-1.8h324zm4.2-4.2V56a4.2 4.2 0 0 0-4.2-4.2H114a4.2 4.2 0 0 0-4.2 4.2v288a4.2 4.2 0 0 0 4.2 4.2v1.8l-.308-.008a6 6 0 0 1-5.684-5.684L108 344V56a6 6 0 0 1 5.692-5.992L114 50h324l.308.008A6 6 0 0 1 444 56v288l-.008.308a6 6 0 0 1-5.684 5.684L438 350v-1.8a4.2 4.2 0 0 0 4.2-4.2z" fill="#E0E0E0"/><path d="M139.2 90.8c7.953 0 14.4-6.447 14.4-14.4S147.153 62 139.2 62s-14.4 6.447-14.4 14.4 6.447 14.4 14.4 14.4z" fill="#FF9234"/><path fill-rule="evenodd" clip-rule="evenodd" d="m129.354 77.99 2.769.972 7.33 6.788 6.027-6.137 3.584-1.78-1.629-2.43.977-7.24-5.212 5.766h-7.836l-4.707-5.767.407 7.068-1.71 2.76z" fill="#fff"/><path fill="#E0E0E0" d="M109.2 100.4h333.6v1.8H109.2z"/><path d="m335.7 65 .092.005a.9.9 0 0 1 .808.895v20.4a.9.9 0 0 1-.9.9h-1.2a.901.901 0 0 1-.637-.264l-5.736-5.736H324.9c-.773 0-1.343-.342-1.69-.824a2.24 2.24 0 0 1-.41-1.276v-6c0-.773.342-1.343.824-1.69.435-.314.932-.41 1.276-.41h3.227l5.736-5.736.138-.113A.897.897 0 0 1 334.5 65h1.2zm-11.1 14.1a.452.452 0 0 0 .07.224.138.138 0 0 0 .049.044.397.397 0 0 0 .181.032h3.6a.9.9 0 0 1 .636.264l5.664 5.663V66.873l-5.664 5.663a.9.9 0 0 1-.636.264h-3.6a.433.433 0 0 0-.224.07.143.143 0 0 0-.045.05.409.409 0 0 0-.031.18v6zM341.401 76.1c0-1.89-1.206-3.382-1.907-3.974l-.134-.106-.07-.059a.901.901 0 0 1 1.075-1.432l.076.052.184.146c.969.81 2.576 2.764 2.576 5.373 0 2.783-1.827 4.82-2.76 5.52a.9.9 0 0 1-1.081-1.44c.668-.5 2.041-2.063 2.041-4.08z" fill="#C5C5C5"/><path d="M346.2 76.1c0-3.748-1.965-6.482-3.068-7.523l-.209-.186-.067-.062a.9.9 0 0 1 1.146-1.376l.074.056.267.237C345.745 68.561 348 71.748 348 76.1c0 4.642-2.565 7.959-3.924 9.091a.9.9 0 0 1-1.153-1.382c1.041-.868 3.277-3.711 3.277-7.709zM363 76.1c0-6.462 5.238-11.7 11.7-11.7 4.849 0 9.008 2.95 10.782 7.15a.9.9 0 1 1-1.658.7 9.903 9.903 0 0 0-9.124-6.05c-5.468 0-9.9 4.432-9.9 9.9s4.432 9.9 9.9 9.9c5.095 0 9.292-3.85 9.839-8.798l.015-.092a.9.9 0 0 1 1.775.288l-.073.545c-.885 5.587-5.721 9.857-11.556 9.857-6.462 0-11.7-5.238-11.7-11.7z" fill="#C5C5C5"/><path d="M384.601 67.4a.9.9 0 0 1 1.8 0v4.8a.9.9 0 0 1-.9.9h-4.8a.9.9 0 0 1 0-1.8h3.9v-3.9zM426.6 76.1c0-5.468-4.433-9.9-9.9-9.9-5.468 0-9.9 4.432-9.9 9.9s4.432 9.9 9.9 9.9c5.467 0 9.9-4.432 9.9-9.9zm1.8 0c0 6.462-5.239 11.7-11.7 11.7-6.462 0-11.7-5.238-11.7-11.7 0-6.462 5.238-11.7 11.7-11.7 6.461 0 11.7 5.238 11.7 11.7z" fill="#C5C5C5"/><path d="M411.863 71.264a.9.9 0 0 1 1.205-.062l.068.062 8.4 8.4.062.068a.9.9 0 0 1-1.267 1.267l-.068-.063-8.4-8.4-.062-.068a.901.901 0 0 1 .062-1.204z" fill="#C5C5C5"/><path d="M411.863 80.936a.901.901 0 0 1-.062-1.204l.062-.068 8.4-8.4.068-.062a.9.9 0 0 1 1.267 1.266l-.062.068-8.4 8.4-.068.063a.9.9 0 0 1-1.205-.063z" fill="#C5C5C5"/><path d="M160.944 141.2v-13.824h2.084l4.78 9.792 4.781-9.792h2.083V141.2h-2.16v-8.861l-4.243 8.861h-.921l-4.234-8.861v8.861h-2.17zM181.949 141.488c-1.037 0-1.943-.234-2.717-.701a4.81 4.81 0 0 1-1.805-1.929c-.422-.826-.634-1.773-.634-2.842 0-1.088.218-2.042.653-2.861a4.812 4.812 0 0 1 1.815-1.92c.774-.461 1.67-.691 2.688-.691 1.043 0 1.952.234 2.726.701a4.798 4.798 0 0 1 1.805 1.939c.429.819.643 1.763.643 2.832 0 1.075-.218 2.026-.653 2.851a4.812 4.812 0 0 1-1.805 1.93c-.774.461-1.68.691-2.716.691zm0-2.17c.921 0 1.606-.307 2.054-.921.448-.615.672-1.408.672-2.381 0-1.005-.227-1.805-.682-2.4-.454-.602-1.136-.902-2.044-.902-.621 0-1.133.14-1.536.422-.397.275-.692.662-.884 1.162-.192.492-.288 1.065-.288 1.718 0 1.005.228 1.808.682 2.41.461.595 1.136.892 2.026.892zM191.666 141.2l-3.763-10.368h2.314l2.611 7.517 2.601-7.517h2.324l-3.764 10.368h-2.323zM203.814 141.488c-1.049 0-1.971-.227-2.765-.682a4.85 4.85 0 0 1-1.862-1.891c-.442-.806-.662-1.734-.662-2.784 0-1.133.217-2.115.652-2.947.436-.838 1.04-1.488 1.815-1.949.774-.461 1.67-.691 2.688-.691 1.075 0 1.987.253 2.736.758.755.5 1.315 1.207 1.68 2.122.365.915.502 1.994.413 3.235h-2.295v-.845c-.006-1.126-.205-1.948-.595-2.467-.39-.518-1.005-.777-1.843-.777-.947 0-1.651.294-2.112.883-.461.582-.691 1.437-.691 2.563 0 1.05.23 1.862.691 2.438.461.576 1.133.864 2.016.864.569 0 1.059-.124 1.469-.374.416-.256.736-.624.96-1.104l2.284.691c-.396.935-1.011 1.661-1.843 2.179a5.035 5.035 0 0 1-2.736.778zm-3.571-4.829v-1.747h7.133v1.747h-7.133zM220.571 141.2a9.467 9.467 0 0 1-2.016.163c-.653-.013-1.238-.131-1.757-.355a2.429 2.429 0 0 1-1.18-1.085 3.09 3.09 0 0 1-.375-1.373 57.648 57.648 0 0 1-.019-1.584v-9.014h2.304v8.88c0 .416.003.781.01 1.094.012.314.08.57.201.768.231.384.599.599 1.104.644a7.459 7.459 0 0 0 1.728-.077v1.939zm-7.229-8.554v-1.814h7.229v1.814h-7.229zM229.972 141.2v-4.992c0-.326-.023-.688-.067-1.085a3.765 3.765 0 0 0-.317-1.142 2.165 2.165 0 0 0-.73-.912c-.32-.237-.755-.355-1.305-.355-.295 0-.586.048-.874.144-.288.096-.55.262-.787.499-.231.23-.416.55-.557.96-.141.403-.211.921-.211 1.555l-1.373-.586c0-.883.17-1.683.509-2.4a4.078 4.078 0 0 1 1.517-1.708c.665-.429 1.484-.644 2.457-.644.768 0 1.402.128 1.901.384.499.256.896.583 1.19.98.295.396.512.819.653 1.267.141.448.231.873.269 1.277.045.396.067.72.067.969v5.789h-2.342zm-7.191 0v-13.824h2.064v7.277h.279v6.547h-2.343zM239.533 141.488c-1.05 0-1.971-.227-2.765-.682a4.85 4.85 0 0 1-1.862-1.891c-.442-.806-.663-1.734-.663-2.784 0-1.133.218-2.115.653-2.947a4.769 4.769 0 0 1 1.815-1.949c.774-.461 1.67-.691 2.688-.691 1.075 0 1.987.253 2.736.758.755.5 1.315 1.207 1.68 2.122.364.915.502 1.994.412 3.235h-2.294v-.845c-.006-1.126-.205-1.948-.595-2.467-.391-.518-1.005-.777-1.843-.777-.948 0-1.652.294-2.112.883-.461.582-.692 1.437-.692 2.563 0 1.05.231 1.862.692 2.438.46.576 1.132.864 2.016.864.569 0 1.059-.124 1.468-.374.416-.256.736-.624.96-1.104l2.285.691c-.397.935-1.011 1.661-1.843 2.179a5.04 5.04 0 0 1-2.736.778zm-3.571-4.829v-1.747h7.133v1.747h-7.133zM251.115 141.2v-10.531c0-.263.01-.551.029-.864.019-.32.074-.637.163-.951.09-.313.253-.598.49-.854.294-.326.611-.55.95-.672a3.295 3.295 0 0 1 1.018-.211c.333-.019.624-.029.874-.029h1.296v1.882h-1.2c-.442 0-.772.112-.989.336-.211.217-.317.505-.317.864v11.03h-2.314zm-1.67-8.554v-1.814h6.49v1.814h-6.49zM261.674 141.488c-1.037 0-1.943-.234-2.717-.701a4.81 4.81 0 0 1-1.805-1.929c-.422-.826-.634-1.773-.634-2.842 0-1.088.218-2.042.653-2.861a4.812 4.812 0 0 1 1.815-1.92c.774-.461 1.67-.691 2.688-.691 1.043 0 1.952.234 2.726.701a4.798 4.798 0 0 1 1.805 1.939c.429.819.643 1.763.643 2.832 0 1.075-.218 2.026-.653 2.851a4.812 4.812 0 0 1-1.805 1.93c-.774.461-1.68.691-2.716.691zm0-2.17c.921 0 1.606-.307 2.054-.921.448-.615.672-1.408.672-2.381 0-1.005-.227-1.805-.682-2.4-.454-.602-1.136-.902-2.044-.902-.621 0-1.133.14-1.536.422-.397.275-.692.662-.884 1.162-.192.492-.288 1.065-.288 1.718 0 1.005.228 1.808.682 2.41.461.595 1.136.892 2.026.892zM267.474 141.2l3.792-5.242-3.716-5.126h2.727l2.333 3.312 2.294-3.312h2.726l-3.715 5.126 3.811 5.242H275l-2.39-3.427-2.41 3.427h-2.726zM289.177 141.2a9.456 9.456 0 0 1-2.016.163c-.652-.013-1.238-.131-1.756-.355a2.431 2.431 0 0 1-1.181-1.085 3.09 3.09 0 0 1-.375-1.373 61.93 61.93 0 0 1-.019-1.584v-9.014h2.304v8.88c0 .416.003.781.01 1.094.013.314.08.57.201.768.231.384.599.599 1.104.644a7.459 7.459 0 0 0 1.728-.077v1.939zm-7.228-8.554v-1.814h7.228v1.814h-7.228zM295.461 141.488c-1.037 0-1.942-.234-2.717-.701a4.817 4.817 0 0 1-1.805-1.929c-.422-.826-.633-1.773-.633-2.842 0-1.088.217-2.042.653-2.861a4.816 4.816 0 0 1 1.814-1.92c.774-.461 1.67-.691 2.688-.691 1.043 0 1.952.234 2.726.701a4.792 4.792 0 0 1 1.805 1.939c.429.819.643 1.763.643 2.832 0 1.075-.217 2.026-.652 2.851a4.82 4.82 0 0 1-1.805 1.93c-.775.461-1.68.691-2.717.691zm0-2.17c.922 0 1.606-.307 2.054-.921.448-.615.672-1.408.672-2.381 0-1.005-.227-1.805-.681-2.4-.455-.602-1.136-.902-2.045-.902-.621 0-1.133.14-1.536.422-.397.275-.691.662-.883 1.162-.192.492-.288 1.065-.288 1.718 0 1.005.227 1.808.681 2.41.461.595 1.136.892 2.026.892zM312.671 141.2a9.467 9.467 0 0 1-2.016.163c-.653-.013-1.238-.131-1.757-.355a2.429 2.429 0 0 1-1.18-1.085 3.09 3.09 0 0 1-.375-1.373 57.648 57.648 0 0 1-.019-1.584v-9.014h2.304v8.88c0 .416.003.781.01 1.094.012.314.08.57.201.768.231.384.599.599 1.104.644a7.459 7.459 0 0 0 1.728-.077v1.939zm-7.229-8.554v-1.814h7.229v1.814h-7.229zM322.072 141.2v-4.992c0-.326-.023-.688-.067-1.085a3.765 3.765 0 0 0-.317-1.142 2.165 2.165 0 0 0-.73-.912c-.32-.237-.755-.355-1.305-.355-.295 0-.586.048-.874.144-.288.096-.55.262-.787.499-.231.23-.416.55-.557.96-.141.403-.211.921-.211 1.555l-1.373-.586c0-.883.17-1.683.509-2.4a4.078 4.078 0 0 1 1.517-1.708c.665-.429 1.484-.644 2.457-.644.768 0 1.402.128 1.901.384.499.256.896.583 1.19.98.295.396.512.819.653 1.267.141.448.231.873.269 1.277.045.396.067.72.067.969v5.789h-2.342zm-7.191 0v-13.824h2.064v7.277h.279v6.547h-2.343zM331.633 141.488c-1.05 0-1.971-.227-2.765-.682a4.85 4.85 0 0 1-1.862-1.891c-.442-.806-.663-1.734-.663-2.784 0-1.133.218-2.115.653-2.947a4.769 4.769 0 0 1 1.815-1.949c.774-.461 1.67-.691 2.688-.691 1.075 0 1.987.253 2.736.758.755.5 1.315 1.207 1.68 2.122.364.915.502 1.994.412 3.235h-2.294v-.845c-.006-1.126-.205-1.948-.595-2.467-.391-.518-1.005-.777-1.843-.777-.948 0-1.652.294-2.112.883-.461.582-.692 1.437-.692 2.563 0 1.05.231 1.862.692 2.438.46.576 1.132.864 2.016.864.569 0 1.059-.124 1.468-.374.416-.256.736-.624.96-1.104l2.285.691c-.397.935-1.011 1.661-1.843 2.179a5.04 5.04 0 0 1-2.736.778zm-3.571-4.829v-1.747h7.133v1.747h-7.133zM342.313 141.2v-10.368h2.045v2.525l-.25-.327a3.7 3.7 0 0 1 .509-.94c.218-.288.477-.525.778-.711.256-.173.537-.307.845-.403.313-.102.633-.163.959-.182.327-.026.644-.013.951.038v2.16a2.962 2.962 0 0 0-1.066-.086 2.44 2.44 0 0 0-1.075.336c-.32.172-.582.393-.787.662a2.785 2.785 0 0 0-.442.922 4.039 4.039 0 0 0-.144 1.104v5.27h-2.323zM354.374 141.488c-1.037 0-1.943-.234-2.717-.701a4.81 4.81 0 0 1-1.805-1.929c-.422-.826-.634-1.773-.634-2.842 0-1.088.218-2.042.653-2.861a4.812 4.812 0 0 1 1.815-1.92c.774-.461 1.67-.691 2.688-.691 1.043 0 1.952.234 2.726.701a4.798 4.798 0 0 1 1.805 1.939c.429.819.643 1.763.643 2.832 0 1.075-.218 2.026-.653 2.851a4.812 4.812 0 0 1-1.805 1.93c-.774.461-1.68.691-2.716.691zm0-2.17c.921 0 1.606-.307 2.054-.921.448-.615.672-1.408.672-2.381 0-1.005-.227-1.805-.682-2.4-.454-.602-1.136-.902-2.044-.902-.621 0-1.133.14-1.536.422-.397.275-.692.662-.884 1.162-.192.492-.288 1.065-.288 1.718 0 1.005.228 1.808.682 2.41.461.595 1.136.892 2.026.892zM366.645 141.488c-1.011 0-1.859-.24-2.544-.72-.684-.48-1.199-1.133-1.545-1.958-.346-.832-.519-1.764-.519-2.794 0-1.043.173-1.978.519-2.803.346-.826.851-1.475 1.517-1.949.672-.48 1.501-.72 2.486-.72.979 0 1.827.24 2.544.72.723.474 1.283 1.123 1.68 1.949.397.819.595 1.753.595 2.803 0 1.037-.195 1.968-.585 2.794-.391.825-.941 1.478-1.652 1.958-.71.48-1.542.72-2.496.72zm-5.001-.288v-13.824h2.333v6.547h-.288v7.277h-2.045zm4.646-1.786c.602 0 1.098-.15 1.488-.451.391-.301.679-.707.864-1.219a4.94 4.94 0 0 0 .288-1.728c0-.627-.096-1.197-.288-1.709-.192-.518-.489-.928-.893-1.229-.403-.307-.915-.46-1.535-.46-.589 0-1.069.144-1.441.432-.371.281-.646.678-.825 1.19-.173.506-.259 1.098-.259 1.776 0 .672.086 1.264.259 1.776.179.512.458.912.835 1.2.384.282.886.422 1.507.422zM378.074 141.488c-1.037 0-1.943-.234-2.717-.701a4.81 4.81 0 0 1-1.805-1.929c-.422-.826-.634-1.773-.634-2.842 0-1.088.218-2.042.653-2.861a4.812 4.812 0 0 1 1.815-1.92c.774-.461 1.67-.691 2.688-.691 1.043 0 1.952.234 2.726.701a4.798 4.798 0 0 1 1.805 1.939c.429.819.643 1.763.643 2.832 0 1.075-.218 2.026-.653 2.851a4.812 4.812 0 0 1-1.805 1.93c-.774.461-1.68.691-2.716.691zm0-2.17c.921 0 1.606-.307 2.054-.921.448-.615.672-1.408.672-2.381 0-1.005-.227-1.805-.682-2.4-.454-.602-1.136-.902-2.044-.902-.621 0-1.133.14-1.536.422-.397.275-.692.662-.884 1.162-.192.492-.288 1.065-.288 1.718 0 1.005.228 1.808.682 2.41.461.595 1.136.892 2.026.892zM391.44 141.2a9.467 9.467 0 0 1-2.016.163c-.653-.013-1.239-.131-1.757-.355a2.435 2.435 0 0 1-1.181-1.085 3.09 3.09 0 0 1-.374-1.373 57.648 57.648 0 0 1-.019-1.584v-9.014h2.304v8.88c0 .416.003.781.009 1.094.013.314.08.57.202.768.23.384.598.599 1.104.644a7.463 7.463 0 0 0 1.728-.077v1.939zm-7.229-8.554v-1.814h7.229v1.814h-7.229z" fill="#000"/><rect x="130.8" y="276.8" width="296.4" height="52.8" rx="5" fill="#F8F8F8"/><path d="M124.801 279.2a6 6 0 0 1 6-6h48a6 6 0 0 1 6 6v48a6 6 0 0 1-6 6h-48a6 6 0 0 1-6-6v-48z" fill="#fff"/><path d="M178.801 331.4v1.8h-48v-1.8h48zm4.2-4.2v-48a4.2 4.2 0 0 0-4.2-4.2h-48a4.2 4.2 0 0 0-4.2 4.2v48a4.2 4.2 0 0 0 4.2 4.2v1.8l-.308-.008a6 6 0 0 1-5.684-5.684l-.008-.308v-48a6 6 0 0 1 5.692-5.992l.308-.008h48l.308.008a6.001 6.001 0 0 1 5.692 5.992v48l-.008.308a6 6 0 0 1-5.684 5.684l-.308.008v-1.8a4.2 4.2 0 0 0 4.2-4.2z" fill="#E0E0E0"/><path d="M163.2 302a1.2 1.2 0 1 1 0 2.4h-18a1.2 1.2 0 1 1 0-2.4h18z" fill="#000"/><path d="M153.952 293.952a1.199 1.199 0 0 1 1.606-.082l.091.082 8.4 8.4a1.198 1.198 0 0 1 0 1.696l-8.4 8.4a1.2 1.2 0 1 1-1.697-1.696l7.552-7.552-7.552-7.552-.082-.091a1.2 1.2 0 0 1 .082-1.605z" fill="#000"/><path d="M205.344 310.688c-.966 0-1.837-.16-2.611-.48a5.059 5.059 0 0 1-1.911-1.382c-.499-.596-.825-1.303-.979-2.122l1.44-.24c.231.896.717 1.6 1.459 2.112.743.506 1.629.758 2.66.758.678 0 1.286-.105 1.824-.316.537-.218.96-.525 1.267-.922.307-.397.461-.867.461-1.411 0-.359-.064-.663-.192-.912a1.852 1.852 0 0 0-.509-.634 3.17 3.17 0 0 0-.691-.413 5.437 5.437 0 0 0-.73-.278l-3.504-1.046a6.445 6.445 0 0 1-1.171-.461 4.1 4.1 0 0 1-.941-.682 2.92 2.92 0 0 1-.614-.941 3.194 3.194 0 0 1-.221-1.228c0-.781.205-1.456.614-2.026.41-.57.97-1.008 1.68-1.315.711-.307 1.52-.458 2.429-.451.922 0 1.744.163 2.467.489.73.327 1.331.794 1.805 1.402.474.601.787 1.315.941 2.141l-1.479.268a3.34 3.34 0 0 0-.662-1.564 3.381 3.381 0 0 0-1.325-1.018 4.272 4.272 0 0 0-1.757-.374c-.62 0-1.174.105-1.66.316-.48.205-.861.487-1.143.845a1.94 1.94 0 0 0-.422 1.229c0 .467.128.842.384 1.123.262.282.582.503.96.663.384.16.755.291 1.113.393l2.708.797c.281.077.611.189.988.336.384.141.756.346 1.114.614.365.263.666.608.902 1.037.237.429.356.973.356 1.632 0 .64-.128 1.213-.384 1.719-.25.505-.605.931-1.066 1.276a4.88 4.88 0 0 1-1.603.788 6.837 6.837 0 0 1-1.997.278zM212.567 310.4v-14.112h1.412V310.4h-1.412zM217.049 298.064v-1.584h1.411v1.584h-1.411zm0 12.336v-10.368h1.411V310.4h-1.411zM225.36 310.688c-.966 0-1.792-.24-2.477-.72-.684-.486-1.209-1.142-1.574-1.968-.365-.826-.547-1.757-.547-2.794 0-1.03.179-1.958.537-2.784.365-.825.887-1.478 1.565-1.958.679-.48 1.491-.72 2.439-.72.972 0 1.792.237 2.457.71.666.474 1.168 1.124 1.507 1.949.346.819.519 1.754.519 2.803 0 1.031-.17 1.962-.509 2.794-.339.826-.838 1.482-1.498 1.968-.659.48-1.465.72-2.419.72zm.144-1.315c.736 0 1.344-.179 1.824-.538.48-.358.839-.851 1.075-1.478.237-.634.356-1.351.356-2.151 0-.812-.119-1.529-.356-2.15-.236-.627-.595-1.117-1.075-1.469-.473-.352-1.072-.528-1.795-.528-.742 0-1.357.183-1.843.547-.487.365-.848.861-1.085 1.488-.23.628-.346 1.332-.346 2.112 0 .788.119 1.498.356 2.132.243.627.604 1.123 1.084 1.488.48.364 1.082.547 1.805.547zm3.255 1.027v-7.805h-.154v-6.019h1.421V310.4h-1.267zM237.106 310.688c-1.011 0-1.888-.224-2.63-.672-.736-.448-1.309-1.078-1.719-1.891-.409-.813-.614-1.767-.614-2.861 0-1.133.202-2.112.605-2.938.403-.825.969-1.462 1.699-1.91.736-.448 1.603-.672 2.602-.672 1.024 0 1.897.237 2.62.71.724.468 1.271 1.14 1.642 2.016.371.877.541 1.924.509 3.14h-1.44v-.5c-.026-1.344-.317-2.358-.874-3.043-.55-.685-1.357-1.027-2.419-1.027-1.114 0-1.968.362-2.563 1.085-.589.723-.883 1.753-.883 3.091 0 1.306.294 2.32.883 3.043.595.717 1.437 1.075 2.525 1.075.742 0 1.388-.169 1.939-.508.557-.346.995-.842 1.315-1.488l1.315.508c-.409.903-1.014 1.604-1.814 2.103-.794.493-1.693.739-2.698.739zm-3.965-5.078v-1.181h7.92v1.181h-7.92zM253.439 310.4a6.876 6.876 0 0 1-1.728.144 3.836 3.836 0 0 1-1.517-.365 2.185 2.185 0 0 1-1.008-1.017 2.983 2.983 0 0 1-.307-1.162 41.922 41.922 0 0 1-.019-1.354v-9.494h1.401v9.437c0 .435.003.8.01 1.094.013.288.08.544.201.768.231.429.596.685 1.095.768.505.083 1.129.064 1.872-.057v1.238zm-6.797-9.158v-1.21h6.797v1.21h-6.797zM259.436 310.688c-1.03 0-1.91-.234-2.64-.701-.729-.467-1.289-1.113-1.68-1.939-.39-.826-.585-1.773-.585-2.842 0-1.088.198-2.041.595-2.86.397-.82.96-1.456 1.689-1.911.736-.461 1.61-.691 2.621-.691 1.037 0 1.92.234 2.65.701.736.461 1.296 1.104 1.68 1.929.39.82.585 1.764.585 2.832 0 1.088-.195 2.045-.585 2.871a4.494 4.494 0 0 1-1.69 1.92c-.736.461-1.616.691-2.64.691zm0-1.354c1.152 0 2.01-.38 2.573-1.142.563-.768.845-1.763.845-2.986 0-1.254-.285-2.252-.855-2.995-.563-.742-1.417-1.113-2.563-1.113-.774 0-1.414.176-1.92.528-.499.345-.873.828-1.123 1.449-.243.615-.365 1.325-.365 2.131 0 1.248.288 2.25.864 3.005.576.749 1.424 1.123 2.544 1.123zM274.614 310.688c-1.044 0-1.927-.234-2.65-.701a4.462 4.462 0 0 1-1.651-1.929c-.371-.826-.563-1.773-.576-2.842.013-1.088.211-2.042.595-2.861.384-.825.938-1.465 1.661-1.92.723-.461 1.6-.691 2.63-.691 1.05 0 1.962.256 2.736.768a3.87 3.87 0 0 1 1.603 2.102l-1.382.442a2.914 2.914 0 0 0-1.162-1.44c-.524-.346-1.126-.518-1.804-.518-.762 0-1.392.176-1.892.528-.499.345-.87.828-1.113 1.449-.243.621-.368 1.335-.375 2.141.013 1.242.301 2.24.864 2.995.564.749 1.402 1.123 2.516 1.123.704 0 1.302-.16 1.795-.48.499-.326.877-.8 1.133-1.42l1.42.422c-.384.922-.947 1.626-1.689 2.112-.743.48-1.629.72-2.659.72zM284.992 310.688c-1.03 0-1.91-.234-2.64-.701-.729-.467-1.289-1.113-1.68-1.939-.39-.826-.585-1.773-.585-2.842 0-1.088.198-2.041.595-2.86.397-.82.96-1.456 1.69-1.911.736-.461 1.609-.691 2.62-.691 1.037 0 1.92.234 2.65.701.736.461 1.296 1.104 1.68 1.929.39.82.586 1.764.586 2.832 0 1.088-.196 2.045-.586 2.871a4.487 4.487 0 0 1-1.69 1.92c-.736.461-1.616.691-2.64.691zm0-1.354c1.152 0 2.01-.38 2.573-1.142.563-.768.845-1.763.845-2.986 0-1.254-.285-2.252-.854-2.995-.564-.742-1.418-1.113-2.564-1.113-.774 0-1.414.176-1.92.528-.499.345-.873.828-1.123 1.449-.243.615-.365 1.325-.365 2.131 0 1.248.288 2.25.864 3.005.576.749 1.424 1.123 2.544 1.123zM304.39 310.4l.01-6.806c0-.8-.224-1.428-.672-1.882-.442-.461-1.005-.691-1.69-.691-.39 0-.771.089-1.142.269-.371.179-.679.467-.922.864-.237.396-.355.915-.355 1.555l-.835-.24c-.019-.743.125-1.392.432-1.949a3.331 3.331 0 0 1 1.286-1.296c.551-.314 1.171-.47 1.863-.47 1.043 0 1.878.323 2.505.969.627.64.941 1.507.941 2.602l-.01 7.075h-1.411zm-12.374 0v-10.368h1.267v2.554h.154v7.814h-1.421zm6.201 0 .01-6.71c0-.826-.221-1.476-.662-1.949-.436-.48-1.012-.72-1.728-.72-.717 0-1.296.246-1.738.739-.442.486-.662 1.136-.662 1.949l-.845-.461c0-.666.157-1.261.47-1.786a3.355 3.355 0 0 1 1.287-1.248c.544-.307 1.161-.46 1.852-.46.66 0 1.245.14 1.757.422a3 3 0 0 1 1.219 1.229c.295.537.442 1.19.442 1.958l-.01 7.037h-1.392zM312.956 310.688c-.953 0-1.76-.24-2.419-.72-.659-.486-1.158-1.142-1.497-1.968-.34-.832-.509-1.763-.509-2.794 0-1.049.169-1.984.509-2.803.345-.825.851-1.475 1.516-1.949.666-.473 1.485-.71 2.458-.71.947 0 1.76.24 2.438.72.679.48 1.197 1.133 1.556 1.958.364.826.547 1.754.547 2.784 0 1.037-.183 1.968-.547 2.794-.365.826-.89 1.482-1.575 1.968-.685.48-1.51.72-2.477.72zm-4.665 4.32v-14.976h1.267v7.805h.154v7.171h-1.421zm4.521-5.635c.724 0 1.325-.183 1.805-.547.48-.365.839-.861 1.075-1.488.244-.634.365-1.344.365-2.132 0-.78-.118-1.484-.355-2.112-.237-.627-.598-1.123-1.085-1.488-.48-.364-1.091-.547-1.833-.547-.724 0-1.325.176-1.805.528-.474.352-.829.842-1.066 1.469-.237.621-.355 1.338-.355 2.15 0 .8.118 1.517.355 2.151.237.627.595 1.12 1.075 1.478.48.359 1.088.538 1.824.538zM319.855 310.4v-14.112h1.411V310.4h-1.411zM328.531 310.688c-1.011 0-1.888-.224-2.63-.672-.736-.448-1.309-1.078-1.719-1.891-.409-.813-.614-1.767-.614-2.861 0-1.133.202-2.112.605-2.938.403-.825.969-1.462 1.699-1.91.736-.448 1.603-.672 2.602-.672 1.024 0 1.897.237 2.62.71.724.468 1.271 1.14 1.642 2.016.371.877.541 1.924.509 3.14h-1.44v-.5c-.026-1.344-.317-2.358-.874-3.043-.55-.685-1.357-1.027-2.419-1.027-1.114 0-1.968.362-2.563 1.085-.589.723-.883 1.753-.883 3.091 0 1.306.294 2.32.883 3.043.595.717 1.437 1.075 2.525 1.075.742 0 1.388-.169 1.939-.508.557-.346.995-.842 1.315-1.488l1.315.508c-.409.903-1.014 1.604-1.814 2.103-.794.493-1.693.739-2.698.739zm-3.965-5.078v-1.181h7.92v1.181h-7.92zM341.02 310.4a6.868 6.868 0 0 1-1.728.144 3.836 3.836 0 0 1-1.517-.365 2.194 2.194 0 0 1-1.008-1.017 3 3 0 0 1-.307-1.162 41.922 41.922 0 0 1-.019-1.354v-9.494h1.402v9.437c0 .435.003.8.009 1.094.013.288.08.544.202.768.23.429.595.685 1.094.768.506.083 1.13.064 1.872-.057v1.238zm-6.797-9.158v-1.21h6.797v1.21h-6.797zM347.075 310.688c-1.011 0-1.888-.224-2.63-.672-.736-.448-1.309-1.078-1.719-1.891-.409-.813-.614-1.767-.614-2.861 0-1.133.201-2.112.605-2.938.403-.825.969-1.462 1.699-1.91.736-.448 1.603-.672 2.601-.672 1.024 0 1.898.237 2.621.71.723.468 1.271 1.14 1.642 2.016.371.877.541 1.924.509 3.14h-1.44v-.5c-.026-1.344-.317-2.358-.874-3.043-.55-.685-1.357-1.027-2.419-1.027-1.114 0-1.968.362-2.563 1.085-.589.723-.884 1.753-.884 3.091 0 1.306.295 2.32.884 3.043.595.717 1.436 1.075 2.524 1.075.743 0 1.389-.169 1.94-.508.556-.346.995-.842 1.315-1.488l1.315.508c-.41.903-1.014 1.604-1.814 2.103-.794.493-1.693.739-2.698.739zm-3.965-5.078v-1.181h7.92v1.181h-7.92z" fill="#333"/><path d="M76 173.143A7.143 7.143 0 0 1 83.143 166h385.714a7.143 7.143 0 0 1 7.143 7.143v65.714a7.143 7.143 0 0 1-7.143 7.143H83.143A7.143 7.143 0 0 1 76 238.857v-65.714z" fill="#EEFBF3"/><path d="M468.857 243.857V246H83.143v-2.143h385.714zm5-5v-65.714a5 5 0 0 0-5-5H83.143a5 5 0 0 0-5 5v65.714a5 5 0 0 0 5 5V246l-.367-.01a7.142 7.142 0 0 1-6.766-6.766l-.01-.367v-65.714a7.143 7.143 0 0 1 6.776-7.133l.367-.01h385.714l.367.01a7.143 7.143 0 0 1 6.776 7.133v65.714l-.01.367a7.142 7.142 0 0 1-6.766 6.766l-.367.01v-2.143a5 5 0 0 0 5-5z" fill="#26C267"/><path d="M431.714 226c11.046 0 20-8.954 20-20s-8.954-20-20-20c-11.045 0-20 8.954-20 20s8.955 20 20 20z" fill="#26C267"/><path fill-rule="evenodd" clip-rule="evenodd" d="m418.038 208.208 3.846 1.351 10.181 9.427 8.371-8.524 4.978-2.471-2.263-3.375 1.358-10.057-7.24 8.009h-10.882l-6.539-8.009.566 9.816-2.376 3.833z" fill="#fff"/><path d="M138.771 194.485a2.142 2.142 0 1 1 3.03 3.03l-20 20a2.143 2.143 0 0 1-2.867.148l-.163-.148-10-10-.148-.163a2.142 2.142 0 0 1 3.015-3.015l.163.148 8.485 8.485 18.485-18.485zM286.581 214.571v-6.297c0-.685-.065-1.314-.194-1.885a4.354 4.354 0 0 0-.629-1.509 2.883 2.883 0 0 0-1.108-1.006c-.45-.236-.999-.354-1.646-.354-.594 0-1.12.103-1.577.309-.45.205-.831.502-1.143.891-.305.381-.537.846-.697 1.394-.16.549-.24 1.174-.24 1.875l-1.189-.263c0-1.265.221-2.328.663-3.189.442-.861 1.051-1.512 1.829-1.954.777-.442 1.668-.663 2.674-.663.739 0 1.383.114 1.931.343a4.136 4.136 0 0 1 1.406.926c.389.388.701.834.937 1.337.236.495.408 1.025.514 1.588.107.557.16 1.113.16 1.669v6.788h-1.691zm-8.926 0v-12.342h1.52v3.04h.172v9.302h-1.692zM268.498 214.914c-.93 0-1.711-.167-2.343-.503-.625-.335-1.093-.781-1.406-1.337a3.652 3.652 0 0 1-.468-1.817c0-.67.133-1.242.4-1.714.274-.48.644-.873 1.108-1.177a5.565 5.565 0 0 1 1.635-.697 23.451 23.451 0 0 1 2.068-.4 52.058 52.058 0 0 1 2.229-.309 70.127 70.127 0 0 0 1.92-.263l-.595.366c.023-1.219-.213-2.122-.708-2.709-.495-.586-1.356-.88-2.583-.88-.846 0-1.562.191-2.149.572-.579.381-.986.983-1.222 1.805l-1.635-.48c.282-1.104.85-1.961 1.703-2.571.854-.61 1.962-.914 3.326-.914 1.128 0 2.084.213 2.868.64.793.419 1.353 1.028 1.68 1.828.153.358.252.758.298 1.2.045.442.068.892.068 1.349v7.668h-1.497v-3.097l.434.183c-.419 1.059-1.07 1.867-1.954 2.423-.884.556-1.943.834-3.177.834zm.194-1.451c.785 0 1.471-.141 2.057-.423a3.723 3.723 0 0 0 1.417-1.154 3.96 3.96 0 0 0 .698-1.669c.091-.396.141-.83.148-1.303.008-.48.012-.838.012-1.074l.64.331c-.572.077-1.193.153-1.863.229-.663.076-1.318.164-1.966.263-.64.099-1.219.217-1.737.354-.351.099-.69.24-1.017.423a2.342 2.342 0 0 0-.812.709c-.205.297-.308.666-.308 1.108 0 .358.087.705.263 1.04.182.335.472.613.868.834.404.221.937.332 1.6.332zM260.311 214.572l.011-8.103c0-.953-.266-1.699-.8-2.24-.525-.549-1.196-.823-2.011-.823-.465 0-.918.106-1.36.32-.442.213-.808.556-1.097 1.028-.282.473-.423 1.09-.423 1.852l-.994-.286c-.023-.884.148-1.657.514-2.32a3.977 3.977 0 0 1 1.531-1.543c.656-.373 1.395-.56 2.218-.56 1.241 0 2.236.385 2.982 1.155.747.761 1.12 1.794 1.12 3.097l-.011 8.423h-1.68zm-14.731 0v-12.343h1.508v3.04h.183v9.303h-1.691zm7.382 0 .012-7.989c0-.983-.263-1.756-.789-2.32-.518-.571-1.204-.857-2.057-.857s-1.543.293-2.068.88c-.526.579-.789 1.352-.789 2.32l-1.006-.549c0-.792.187-1.501.56-2.125a3.985 3.985 0 0 1 1.532-1.486c.647-.366 1.383-.549 2.205-.549.785 0 1.482.168 2.092.503a3.576 3.576 0 0 1 1.451 1.463c.351.64.526 1.417.526 2.331l-.011 8.378h-1.658zM236.74 214.88c-.739 0-1.387-.114-1.943-.343a4.287 4.287 0 0 1-1.406-.926 4.869 4.869 0 0 1-.926-1.325 6.712 6.712 0 0 1-.514-1.589 8.996 8.996 0 0 1-.16-1.68v-6.788h1.691v6.297c0 .678.065 1.306.195 1.885a4.6 4.6 0 0 0 .617 1.52c.289.427.659.758 1.108.995.458.236 1.01.354 1.658.354.594 0 1.116-.103 1.565-.309a3.03 3.03 0 0 0 1.143-.88 3.99 3.99 0 0 0 .709-1.405c.16-.557.24-1.181.24-1.875l1.188.263c0 1.265-.221 2.328-.663 3.189-.441.861-1.051 1.512-1.828 1.954-.777.442-1.669.663-2.674.663zm4.148-.309v-3.04h-.171v-9.302h1.68v12.342h-1.509zM227.362 214.571v-6.297c0-.685-.065-1.314-.194-1.885a4.346 4.346 0 0 0-.629-1.509 2.875 2.875 0 0 0-1.108-1.006c-.45-.236-.998-.354-1.646-.354-.594 0-1.12.103-1.577.309-.45.205-.831.502-1.143.891-.305.381-.537.846-.697 1.394-.16.549-.24 1.174-.24 1.875l-1.189-.263c0-1.265.221-2.328.663-3.189.442-.861 1.052-1.512 1.829-1.954.777-.442 1.668-.663 2.674-.663.739 0 1.383.114 1.932.343a4.131 4.131 0 0 1 1.405.926c.389.388.701.834.937 1.337.237.495.408 1.024.515 1.588a8.9 8.9 0 0 1 .16 1.669v6.788h-1.692zm-8.925 0v-16.457h1.52v9.292h.171v7.165h-1.691zM209.217 214.572l.012-8.103c0-.953-.267-1.699-.8-2.24-.526-.549-1.196-.823-2.012-.823a3.09 3.09 0 0 0-1.36.32c-.442.213-.807.556-1.097 1.028-.282.473-.423 1.09-.423 1.852l-.994-.286c-.023-.884.149-1.657.514-2.32a3.98 3.98 0 0 1 1.532-1.543c.655-.373 1.394-.56 2.217-.56 1.242 0 2.236.385 2.983 1.155.746.761 1.12 1.794 1.12 3.097l-.012 8.423h-1.68zm-14.731 0v-12.343h1.508v3.04h.183v9.303h-1.691zm7.383 0 .011-7.989c0-.983-.263-1.756-.788-2.32-.519-.571-1.204-.857-2.058-.857-.853 0-1.542.293-2.068.88-.526.579-.789 1.352-.789 2.32l-1.005-.549c0-.792.186-1.501.56-2.125a3.975 3.975 0 0 1 1.531-1.486c.648-.366 1.383-.549 2.206-.549.784 0 1.482.168 2.091.503a3.584 3.584 0 0 1 1.452 1.463c.35.64.525 1.417.525 2.331l-.011 8.378h-1.657zM185.328 214.914c-.93 0-1.71-.167-2.343-.503-.625-.335-1.093-.781-1.406-1.337a3.652 3.652 0 0 1-.468-1.817c0-.67.133-1.242.4-1.714.274-.48.644-.873 1.108-1.177a5.576 5.576 0 0 1 1.635-.697 23.451 23.451 0 0 1 2.068-.4 52.058 52.058 0 0 1 2.229-.309 70.127 70.127 0 0 0 1.92-.263l-.594.366c.022-1.219-.214-2.122-.709-2.709-.495-.586-1.356-.88-2.583-.88-.846 0-1.562.191-2.148.572-.579.381-.987.983-1.223 1.805l-1.635-.48c.282-1.104.85-1.961 1.703-2.571.854-.61 1.962-.914 3.326-.914 1.128 0 2.084.213 2.869.64.792.419 1.352 1.028 1.68 1.828.152.358.251.758.297 1.2.045.442.068.892.068 1.349v7.668h-1.497v-3.097l.434.183c-.419 1.059-1.07 1.867-1.954 2.423-.884.556-1.943.834-3.177.834zm.194-1.451c.785 0 1.471-.141 2.057-.423a3.734 3.734 0 0 0 1.418-1.154c.358-.496.59-1.052.697-1.669.091-.396.141-.83.148-1.303.008-.48.012-.838.012-1.074l.64.331c-.572.077-1.193.153-1.863.229-.663.076-1.318.164-1.966.263-.64.099-1.219.217-1.737.354-.35.099-.69.24-1.017.423a2.342 2.342 0 0 0-.812.709c-.205.297-.308.666-.308 1.108 0 .358.087.705.263 1.04.183.335.472.613.868.834.404.221.937.332 1.6.332zM172.114 214.571v-16.457h1.68v16.457h-1.68z" fill="#26C267"/></svg>