<svg width="320" height="160" fill="none" xmlns="http://www.w3.org/2000/svg"><rect width="320" height="160" rx="10" fill="#F3F8FF"/><rect x="20" y="20" width="173" height="120" rx="10" fill="url(#a)"/><mask id="c" style="mask-type:alpha" maskUnits="userSpaceOnUse" x="20" y="19" width="173" height="121"><rect x="20" y="20" width="173" height="120" rx="10" fill="url(#b)"/></mask><g mask="url(#c)" fill="#fff"><circle opacity=".1" cx="119.595" cy="58.119" r="16.525"/><circle opacity=".1" cx="107.476" cy="61.865" r="16.525"/><circle opacity=".1" cx="97.561" cy="67.153" r="16.525"/><circle opacity=".1" cx="74.422" cy="74.644" r="16.525"/><circle opacity=".1" cx="64.29" cy="78.611" r="16.525"/><circle opacity=".1" cx="121.138" cy="98.22" r="16.525"/><circle opacity=".1" cx="110.338" cy="103.288" r="16.525"/><circle opacity=".1" cx="100.205" cy="108.136" r="16.525"/><circle opacity=".1" cx="89.629" cy="112.983" r="16.525"/><circle opacity=".1" cx="77.289" cy="118.051" r="16.525"/><circle opacity=".1" cx="86.322" cy="70.237" r="16.525"/><circle opacity=".1" cx="86.322" cy="25.729" r="16.525"/><circle opacity=".1" cx="74.422" cy="109.017" r="16.525"/><circle opacity=".1" cx="34.765" cy="127.084" r="33.051"/><circle opacity=".1" cx="34.765" cy="127.084" r="33.051"/><circle opacity=".1" cx="36.747" cy="47.322" r="33.051"/><circle opacity=".1" cx="36.747" cy="47.322" r="33.051"/><circle opacity=".1" cx="34.1" cy="83.678" r="33.051"/><circle opacity=".1" cx="98.883" cy="132.814" r="33.051"/><circle opacity=".1" cx="62.306" cy="111.661" r="33.051"/><circle opacity=".1" cx="56.575" cy="88.085" r="33.051"/><circle opacity=".1" cx="40.934" cy="60.543" r="33.051"/><circle opacity=".1" cx="69.138" cy="127.525" r="33.051"/><circle opacity=".1" cx="85" cy="100.203" r="33.051"/><circle opacity=".1" cx="65.833" cy="66.933" r="33.051"/><circle opacity=".1" cx="29.255" cy="44.017" r="16.525"/><circle opacity=".1" cx="44.238" cy="39.61" r="16.525"/><circle opacity=".1" cx="59.884" cy="34.102" r="16.525"/></g><path d="M91.568 97.967c-1.994.48-7.876 1.918-10.568 2.577.23-3.408 1.031-11.22 2.406-15.207 1.718-4.983 3.694-1.718 4.983-1.117 1.288.602 4.467 1.46 5.327-4.64.859-6.1-4.468-4.295-7.819-3.006-3.35 1.288-4.21-.172-3.952-3.523.206-2.68 1.862-9.48 2.664-12.544 3.608.287 11.151.808 12.457.602 1.633-.258 1.976-1.976 1.46-5.757-.515-3.78 1.461-6.959 6.702-4.467 5.241 2.491 2.234 7.217 1.719 8.677-.516 1.46-.086 3.093 2.319 3.007 1.925-.068 9.852-1.002 13.575-1.46-.43 2.864-1.323 9.193-1.461 11.598-.171 3.007 4.898 1.203 8.076 1.633 3.179.43 5.413 3.35 3.437 7.474-1.976 4.124-7.389 2.836-10.052 2.406-2.663-.43-3.437.43-3.265 2.578.138 1.718 2.749 9.65 4.038 13.402-4.954-.63-15.276-1.907-16.925-1.976-2.062-.086-2.492.602-1.89 1.633.601 1.031 1.374 2.577 2.663 4.725 1.289 2.148 2.234 5.241-2.32 5.413-4.553.172-7.732-3.952-8.162-8.162-.43-4.21-2.92-4.468-5.412-3.866z" fill="#720A17"/><path d="M91.568 97.967c-1.994.48-7.876 1.918-10.568 2.577.23-3.408 1.031-11.22 2.406-15.207 1.718-4.983 3.694-1.718 4.983-1.117 1.288.602 4.467 1.46 5.327-4.64.859-6.1-4.468-4.295-7.819-3.006-3.35 1.288-4.21-.172-3.952-3.523.206-2.68 1.862-9.48 2.664-12.544 3.608.287 11.151.808 12.457.602 1.633-.258 1.976-1.976 1.46-5.757-.515-3.78 1.461-6.959 6.702-4.467 5.241 2.491 2.234 7.217 1.719 8.677-.516 1.46-.086 3.093 2.319 3.007 1.925-.068 9.852-1.002 13.575-1.46-.43 2.864-1.323 9.193-1.461 11.598-.171 3.007 4.898 1.203 8.076 1.633 3.179.43 5.413 3.35 3.437 7.474-1.976 4.124-7.389 2.836-10.052 2.406-2.663-.43-3.437.43-3.265 2.578.138 1.718 2.749 9.65 4.038 13.402-4.954-.63-15.276-1.907-16.925-1.976-2.062-.086-2.492.602-1.89 1.633.601 1.031 1.374 2.577 2.663 4.725 1.289 2.148 2.234 5.241-2.32 5.413-4.553.172-7.732-3.952-8.162-8.162-.43-4.21-2.92-4.468-5.412-3.866z" fill="#720A17"/><mask id="d" style="mask-type:alpha" maskUnits="userSpaceOnUse" x="81" y="50" width="53" height="60"><path d="M91.568 97.967c-1.994.48-7.876 1.918-10.568 2.577.23-3.408 1.031-11.22 2.406-15.207 1.718-4.983 3.694-1.718 4.983-1.117 1.288.602 4.467 1.46 5.327-4.64.859-6.1-4.468-4.295-7.819-3.006-3.35 1.288-4.21-.172-3.952-3.523.206-2.68 1.862-9.48 2.664-12.544 3.608.287 11.151.808 12.457.602 1.633-.258 1.976-1.976 1.46-5.757-.515-3.78 1.461-6.959 6.702-4.467 5.241 2.491 2.234 7.217 1.719 8.677-.516 1.46-.086 3.093 2.319 3.007 1.925-.068 9.852-1.002 13.575-1.46-.43 2.864-1.323 9.193-1.461 11.598-.171 3.007 4.898 1.203 8.076 1.633 3.179.43 5.413 3.35 3.437 7.474-1.976 4.124-7.389 2.836-10.052 2.406-2.663-.43-3.437.43-3.265 2.578.138 1.718 2.749 9.65 4.038 13.402-4.954-.63-15.276-1.907-16.925-1.976-2.062-.086-2.492.602-1.89 1.633.601 1.031 1.374 2.577 2.663 4.725 1.289 2.148 2.234 5.241-2.32 5.413-4.553.172-7.732-3.952-8.162-8.162-.43-4.21-2.92-4.468-5.412-3.866z" fill="#8A101B"/></mask><g mask="url(#d)"><path d="m93.802 76.058-11.77-7.819 1.89-8.076 11.77-9.536 5.842-.602h.859l1.89.258-10.481 25.775z" fill="#573E74"/><path d="M117.686 84.907c5.499-5.086 12.716-4.239 15.637-3.179l-8.849 19.073-11.255.602c-.802-3.38-1.031-11.41 4.467-16.496z" fill="url(#e)"/><path d="M107.118 85.509c13.678 1.237 19.217-7.847 20.276-12.544l-3.78-12.973-18.214-9.88c-1.862.343-6.53 2.32-10.31 7.474-4.725 6.444-5.069 26.376 12.028 27.923z" fill="url(#f)"/><path d="M93.2 97.623c-2.956 3.368-9.365 3.351-12.2 2.921V73.309l1.46-5.327c3.294.802 10.551 3.901 13.232 9.88 3.35 7.475 1.202 15.552-2.492 19.761z" fill="url(#g)"/><path d="M100.76 103.036c1.513 2.955 1.604 5.584 1.461 6.53-.888-.086-3.179-1.031-5.24-4.124-2.063-3.093-2.063-6.043-1.805-7.131 1.231.343 4.072 1.769 5.584 4.725z" fill="url(#h)"/></g><path d="M243.568 79.967c-1.994.48-7.876 1.918-10.568 2.577.229-3.408 1.031-11.22 2.406-15.207 1.718-4.983 3.694-1.718 4.983-1.117 1.288.602 4.467 1.46 5.327-4.64.859-6.1-4.468-4.295-7.819-3.006-3.351 1.288-4.21-.172-3.952-3.523.206-2.68 1.862-9.48 2.663-12.544 3.609.287 11.152.808 12.458.602 1.633-.258 1.976-1.976 1.461-5.757-.516-3.78 1.46-6.959 6.701-4.467 5.241 2.491 2.234 7.217 1.719 8.677-.516 1.46-.086 3.093 2.319 3.007 1.925-.068 9.852-1.002 13.575-1.46-.43 2.864-1.323 9.193-1.461 11.598-.171 3.007 4.898 1.203 8.076 1.633 3.179.43 5.413 3.35 3.437 7.474-1.976 4.124-7.389 2.836-10.052 2.406-2.663-.43-3.437.43-3.265 2.578.138 1.718 2.749 9.65 4.038 13.402-4.954-.63-15.276-1.907-16.925-1.976-2.062-.086-2.492.602-1.89 1.633.601 1.03 1.374 2.577 2.663 4.725 1.289 2.148 2.234 5.241-2.32 5.413-4.553.172-7.732-3.952-8.162-8.162-.429-4.21-2.921-4.468-5.412-3.866z" fill="#657998"/><mask id="i" style="mask-type:alpha" maskUnits="userSpaceOnUse" x="233" y="32" width="53" height="60"><path d="M243.568 79.967c-1.994.48-7.876 1.918-10.568 2.577.229-3.408 1.031-11.22 2.406-15.207 1.718-4.983 3.694-1.718 4.983-1.117 1.288.602 4.467 1.46 5.327-4.64.859-6.1-4.468-4.295-7.819-3.006-3.351 1.288-4.21-.172-3.952-3.523.206-2.68 1.862-9.48 2.663-12.544 3.609.287 11.152.808 12.458.602 1.633-.258 1.976-1.976 1.461-5.757-.516-3.78 1.46-6.959 6.701-4.467 5.241 2.491 2.234 7.217 1.719 8.677-.516 1.46-.086 3.093 2.319 3.007 1.925-.068 9.852-1.002 13.575-1.46-.43 2.864-1.323 9.193-1.461 11.598-.171 3.007 4.898 1.203 8.076 1.633 3.179.43 5.413 3.35 3.437 7.474-1.976 4.124-7.389 2.836-10.052 2.406-2.663-.43-3.437.43-3.265 2.578.138 1.718 2.749 9.65 4.038 13.402-4.954-.63-15.276-1.907-16.925-1.976-2.062-.086-2.492.602-1.89 1.633.601 1.03 1.374 2.577 2.663 4.725 1.289 2.148 2.234 5.241-2.32 5.413-4.553.172-7.732-3.952-8.162-8.162-.429-4.21-2.921-4.468-5.412-3.866z" fill="#657998"/></mask><g mask="url(#i)" fill="#fff"><circle opacity=".1" cx="271.595" cy="40.119" r="16.525"/><circle opacity=".1" cx="259.476" cy="43.865" r="16.525"/><circle opacity=".1" cx="249.561" cy="49.153" r="16.525"/><circle opacity=".1" cx="226.422" cy="56.645" r="16.525"/><circle opacity=".1" cx="273.138" cy="80.22" r="16.525"/><circle opacity=".1" cx="262.338" cy="85.288" r="16.525"/><circle opacity=".1" cx="252.205" cy="90.136" r="16.525"/><circle opacity=".1" cx="241.629" cy="94.983" r="16.525"/><circle opacity=".1" cx="229.289" cy="100.051" r="16.525"/><circle opacity=".1" cx="238.321" cy="52.237" r="16.525"/><circle opacity=".1" cx="226.422" cy="91.017" r="16.525"/><circle opacity=".1" cx="250.883" cy="114.814" r="33.051"/><circle opacity=".1" cx="214.306" cy="93.662" r="33.051"/><circle opacity=".1" cx="208.575" cy="70.085" r="33.051"/><circle opacity=".1" cx="221.138" cy="109.525" r="33.051"/><circle opacity=".1" cx="237" cy="82.204" r="33.051"/><circle opacity=".1" cx="217.833" cy="48.933" r="33.051"/></g><path d="m249.853 118.936.414-1.45c-.207-.276-2.072-2.486-3.936-2.486-1.658 0-4.558 1.243-4.558 9.53 0 8.287 3.107 8.701 4.558 8.701 2.071 0 3.66-2.21 3.936-2.486l-.414-1.45c-.277.207-1.409 1.036-2.072 1.036-.829 0-2.693-1.036-2.693-6.63 0-5.593 1.864-5.801 2.693-5.801.663 0 1.795.829 2.072 1.036zm24.239-3.522h-3.522l4.765 16.16-2.901 8.701h3.522L283 115.414h-3.108l-3.107 12.016-2.693-12.016z" fill="#0B9FD6"/><path d="M249.645 115.414h2.901v17.403h-2.901v-17.403zm10.763 3.522-.404-1.45c.202-.276 2.021-2.486 3.84-2.486 1.617 0 4.447 1.243 4.447 9.53 0 8.287-3.032 8.701-4.447 8.701-2.021 0-3.571-2.21-3.84-2.486l.404-1.45c.27.207 1.375 1.036 2.021 1.036.809 0 2.628-1.036 2.628-6.63 0-5.593-1.819-5.801-2.628-5.801-.646 0-1.751.829-2.021 1.036z" fill="#0B9FD6"/><path d="M260.418 115.414h-2.9v24.861h2.9v-24.861zm-21.753 3.108v-2.693c-.207-.277-.953-.829-2.279-.829-1.657 0-5.386 1.243-5.386 9.53 0 8.287 3.936 8.701 5.386 8.701 1.161 0 2.003-.552 2.279-.829v-2.693c-.276.207-.994.622-1.657.622-.829 0-2.693-1.036-2.693-6.63 0-5.593 1.864-5.801 2.693-5.801.663 0 1.381.415 1.657.622z" fill="#0B9FD6"/><defs><linearGradient id="a" x1="193" y1="38.103" x2="41.059" y2="124.055" gradientUnits="userSpaceOnUse"><stop stop-color="#354D73"/><stop offset="1" stop-color="#B0BDD2"/></linearGradient><linearGradient id="b" x1="193" y1="38.103" x2="41.059" y2="124.055" gradientUnits="userSpaceOnUse"><stop stop-color="#1C1C1C"/><stop offset="1" stop-color="#B5B5B5"/></linearGradient><linearGradient id="e" x1="123.057" y1="80.924" x2="123.057" y2="101.403" gradientUnits="userSpaceOnUse"><stop stop-color="#49C5E5"/><stop offset="1" stop-color="#1791C6"/></linearGradient><linearGradient id="f" x1="102.737" y1="84.65" x2="114.679" y2="55.524" gradientUnits="userSpaceOnUse"><stop stop-color="#49C5E5"/><stop offset="1" stop-color="#1791C6"/></linearGradient><linearGradient id="g" x1="97.41" y1="85.853" x2="80.914" y2="87.915" gradientUnits="userSpaceOnUse"><stop stop-color="#F34959"/><stop offset="1" stop-color="#E0293F"/></linearGradient><linearGradient id="h" x1="102.292" y1="104.45" x2="95.093" y2="105.604" gradientUnits="userSpaceOnUse"><stop stop-color="#F34959"/><stop offset="1" stop-color="#E0293F"/></linearGradient></defs></svg>