<svg width="320" height="160" fill="none" xmlns="http://www.w3.org/2000/svg"><rect width="320" height="160" rx="10" fill="#F3F8FF"/><circle cx="150" cy="127" r="7" fill="#F6892C"/><circle cx="168" cy="127" r="7" fill="#F79D51"/><circle cx="186" cy="127" r="7" fill="#FBCDA6"/><path d="M30 32.514A3.514 3.514 0 0 1 33.514 29h252.972A3.514 3.514 0 0 1 290 32.514v58.558a3.514 3.514 0 0 1-3.514 3.514H33.514A3.514 3.514 0 0 1 30 91.072V32.513z" fill="#fff"/><path d="M219.105 79.566v-5.71h2.205c.055 0 .117.003.186.009.071.002.143.01.214.023.299.045.551.15.757.313.209.162.366.365.472.611.108.246.163.518.163.817a2 2 0 0 1-.163.813c-.108.245-.267.45-.476.614a1.583 1.583 0 0 1-.753.31 2.935 2.935 0 0 1-.4.03h-1.622v2.17h-.583zm.583-2.724h1.606a2.025 2.025 0 0 0 .353-.036.973.973 0 0 0 .479-.242c.127-.119.221-.26.282-.424a1.413 1.413 0 0 0 0-1.023 1.093 1.093 0 0 0-.282-.428.973.973 0 0 0-.479-.242 1.08 1.08 0 0 0-.187-.023 2.025 2.025 0 0 0-.166-.009h-1.606v2.427zm4.203 2.724v-4.282h.523v1.03l-.103-.134a1.472 1.472 0 0 1 .436-.615c.111-.097.241-.171.389-.222.148-.053.297-.083.448-.09.15-.011.288 0 .412.03v.548a1.417 1.417 0 0 0-.512-.028.973.973 0 0 0-.511.222c-.143.111-.25.245-.321.4a1.722 1.722 0 0 0-.143.492 3.693 3.693 0 0 0-.036.512v2.136h-.582zm2.936-5.095v-.654h.583v.654h-.583zm0 5.094v-4.281h.583v4.281h-.583zm2.929.001-1.554-4.282h.591l1.265 3.52 1.256-3.52h.599l-1.554 4.281h-.603zm3.854.118c-.322 0-.593-.058-.813-.174a1.184 1.184 0 0 1-.487-.464 1.26 1.26 0 0 1-.163-.63c0-.233.046-.431.139-.595.095-.166.223-.302.385-.408.163-.106.352-.187.566-.242.217-.053.456-.1.718-.139.264-.042.522-.078.773-.107.254-.032.476-.062.666-.091l-.206.127c.008-.423-.074-.736-.246-.94-.172-.203-.47-.305-.896-.305a1.34 1.34 0 0 0-.745.198c-.201.132-.342.341-.424.627l-.567-.167c.098-.383.294-.68.59-.892.297-.211.681-.317 1.154-.317.391 0 .723.074.995.222.275.145.469.357.583.634.053.124.087.263.103.416.016.154.024.31.024.468v2.66h-.519v-1.074l.15.064a1.693 1.693 0 0 1-.678.84c-.306.193-.674.29-1.102.29zm.068-.503c.272 0 .51-.049.713-.147a1.287 1.287 0 0 0 .734-.979c.031-.137.049-.288.051-.452.003-.166.004-.29.004-.373l.222.115c-.198.027-.413.053-.646.08-.23.026-.457.056-.682.09a5.885 5.885 0 0 0-.603.124 1.624 1.624 0 0 0-.352.146.814.814 0 0 0-.282.246.662.662 0 0 0-.107.385c0 .124.03.244.091.36a.744.744 0 0 0 .302.29c.14.077.325.115.555.115zm4.889.503c-.431 0-.795-.096-1.094-.289a1.843 1.843 0 0 1-.682-.797 2.922 2.922 0 0 1-.238-1.173c.005-.45.087-.843.246-1.182.159-.34.387-.605.686-.793.299-.19.661-.285 1.086-.285.434 0 .81.106 1.13.317.323.212.543.5.662.868l-.571.183c-.1-.257-.26-.455-.479-.595a1.328 1.328 0 0 0-.746-.214c-.314 0-.575.072-.781.218a1.274 1.274 0 0 0-.46.599c-.1.256-.152.55-.154.884.005.512.124.925.356 1.237.233.309.579.463 1.039.463.291 0 .538-.066.742-.198.206-.135.362-.33.467-.587l.587.175a1.86 1.86 0 0 1-.698.872c-.306.198-.672.297-1.098.297zm3.07 1.785.829-2.248.012.666-1.876-4.603h.619l1.538 3.85h-.254l1.42-3.85h.594l-2.299 6.184h-.583zm5.079-4.151v-.5h2.379v.5h-2.379zm6.515 2.248v-5.15h-1.994v-.56h4.571v.56h-1.994v5.15h-.583zm4.389.118c-.417 0-.779-.092-1.086-.277a1.881 1.881 0 0 1-.709-.781c-.17-.336-.254-.73-.254-1.181 0-.468.083-.873.25-1.214.166-.34.4-.604.701-.789.304-.185.662-.277 1.075-.277.423 0 .783.098 1.082.293.299.193.525.47.678.833.153.362.223.794.21 1.296h-.595v-.206c-.01-.555-.13-.974-.36-1.257-.228-.282-.561-.424-.999-.424-.46 0-.813.15-1.059.448-.243.299-.365.724-.365 1.277 0 .539.122.958.365 1.256.246.297.593.445 1.043.445a1.5 1.5 0 0 0 .801-.21c.229-.143.411-.348.543-.615l.543.21a1.943 1.943 0 0 1-.749.868c-.328.204-.7.305-1.115.305zm-1.637-2.097V77.1h3.271v.487h-3.271zm4.464 1.979v-4.282h.523v1.03l-.103-.134a1.475 1.475 0 0 1 .436-.615c.111-.097.241-.171.389-.222.148-.053.297-.083.448-.09.15-.011.288 0 .412.03v.548a1.411 1.411 0 0 0-.511-.028.976.976 0 0 0-.512.222c-.142.111-.25.245-.321.4a1.722 1.722 0 0 0-.143.492 3.852 3.852 0 0 0-.035.512v2.136h-.583zm7.964 0 .004-2.811c0-.33-.093-.59-.278-.777a.924.924 0 0 0-.698-.286 1.07 1.07 0 0 0-.471.111.904.904 0 0 0-.381.357c-.098.164-.147.378-.147.642l-.345-.099a1.552 1.552 0 0 1 .179-.805c.129-.23.306-.408.531-.535a1.52 1.52 0 0 1 .769-.194c.431 0 .776.133 1.035.4.259.264.388.623.388 1.075l-.004 2.921h-.582zm-5.111 0v-4.282h.524v1.054h.063v3.228h-.587zm2.561 0 .004-2.772c0-.34-.091-.609-.273-.804-.18-.199-.418-.298-.714-.298a.916.916 0 0 0-.717.305c-.183.201-.274.47-.274.805l-.349-.19c0-.275.065-.52.194-.737.13-.22.307-.392.532-.516.224-.127.479-.19.765-.19.272 0 .514.058.725.174.214.117.382.286.504.508.121.222.182.491.182.808l-.004 2.906h-.575zm5.762.114c-.502 0-.916-.108-1.241-.325a1.355 1.355 0 0 1-.594-.904l.594-.099a.974.974 0 0 0 .432.583c.228.143.508.214.841.214.325 0 .581-.067.769-.202a.656.656 0 0 0 .281-.559c0-.132-.03-.24-.091-.321-.058-.085-.178-.163-.36-.234a8.572 8.572 0 0 0-.817-.254 5.49 5.49 0 0 1-.912-.317c-.219-.106-.375-.227-.468-.365a.912.912 0 0 1-.139-.511c0-.243.069-.456.207-.638a1.31 1.31 0 0 1 .57-.428c.244-.104.526-.155.849-.155.322 0 .61.053.864.158.257.104.463.249.619.437.156.187.248.405.277.654l-.595.107a.855.855 0 0 0-.376-.595c-.209-.148-.475-.225-.797-.23-.304-.008-.551.05-.741.175-.191.121-.286.284-.286.487a.44.44 0 0 0 .103.294c.069.079.193.154.373.226.182.07.441.149.777.234.394.1.703.206.928.317.224.11.384.242.479.392.095.15.143.337.143.56 0 .403-.151.722-.452.955-.299.23-.711.344-1.237.344z" fill="#464646"/><path d="M207.332 67.547h2.949v1.48h-4.646v-6.104h1.697v4.624zm4.699-1.555v-.02c0-1.752 1.414-3.177 3.297-3.177 1.883 0 3.275 1.403 3.275 3.155v.02c0 1.752-1.414 3.178-3.297 3.178-1.883 0-3.275-1.404-3.275-3.156zm4.853 0v-.02c0-.882-.631-1.643-1.567-1.643-.925 0-1.544.75-1.544 1.631v.021c0 .882.631 1.643 1.556 1.643.936 0 1.556-.751 1.556-1.632m3.802.359v-3.428h1.718v3.395c0 .881.445 1.294 1.113 1.294.668 0 1.113-.404 1.113-1.252v-3.438h1.718v3.383c0 1.969-1.113 2.83-2.861 2.83-1.73 0-2.817-.87-2.817-2.786m8.264-3.426h2.349c2.176 0 3.449 1.252 3.449 3.014v.02c0 1.763-1.284 3.061-3.481 3.061h-2.317v-6.103.008zm2.382 4.602c1.012 0 1.686-.555 1.686-1.544v-.02c0-.98-.674-1.545-1.686-1.545h-.685v3.101h.685v.008zm5.889-4.602h4.885v1.48h-3.198v1.045h2.893v1.404h-2.893v2.175h-1.686l-.001-6.104zm8.921 4.624h2.959v1.48h-4.647v-6.104h1.686l.002 4.624zm7.376-4.66h1.632l2.6 6.147h-1.809l-.445-1.088h-2.351l-.435 1.088h-1.774l2.589-6.147h-.007zm1.491 3.742-.675-1.73-.685 1.73h1.36zm4.924-3.699h2.883c.936 0 1.578.24 1.991.664.359.348.544.816.544 1.426v.02c0 .936-.501 1.557-1.252 1.879l1.458 2.133h-1.958l-1.229-1.85h-.746v1.85h-1.691V62.93zm2.807 2.927c.577 0 .903-.283.903-.718v-.02c0-.48-.348-.719-.914-.719h-1.11v1.458h1.113l.008-.001zm6.723 1.734h3.275v1.436h-4.95v-6.102h4.907v1.436h-3.232v.925h2.926v1.339h-2.926v.966zm-67.514-.882c-.239.533-.74.914-1.392.914-.926 0-1.556-.765-1.556-1.643v-.021c0-.881.62-1.632 1.544-1.632a1.51 1.51 0 0 1 1.447 1.012h1.784c-.283-1.458-1.567-2.535-3.221-2.535-1.882 0-3.297 1.427-3.297 3.177v.021c.003 1.752 1.395 3.155 3.278 3.155 1.61 0 2.872-1.044 3.198-2.437l-1.784-.011h-.001z" fill="#404041"/><path d="m265.205 50.168-19.094.13v9.694h24.565v-6.805l-4.66-2.677-.811-.342z" fill="#fff"/><path d="M262.174 59.093c.228-.783.141-1.5-.239-2.034-.348-.49-.936-.765-1.643-.805l-13.393-.174a.249.249 0 0 1-.207-.108.3.3 0 0 1-.032-.24.366.366 0 0 1 .315-.239l13.513-.174c1.6-.07 3.34-1.37 3.949-2.959l.766-2.013a.432.432 0 0 0 .021-.26 8.786 8.786 0 0 0-8.583-6.877 8.802 8.802 0 0 0-8.334 5.974 3.961 3.961 0 0 0-6.309 2.77 4.17 4.17 0 0 0 .097 1.381 5.618 5.618 0 0 0-5.462 5.625c.002.273.02.545.055.816.021.13.13.228.26.228h24.718a.332.332 0 0 0 .316-.24l.185-.663.007-.008z" fill="#F38020"/><path d="m266.439 50.487-.37.012c-.087 0-.164.065-.196.153l-.522 1.816c-.228.784-.141 1.502.239 2.035.348.49.936.765 1.643.805l2.851.174c.087 0 .163.044.206.108a.3.3 0 0 1 .033.24.366.366 0 0 1-.316.239l-2.97.174c-1.61.07-3.34 1.37-3.949 2.959l-.218.555c-.044.108.033.218.153.218h10.204a.26.26 0 0 0 .261-.197 7.447 7.447 0 0 0 .272-1.98 7.33 7.33 0 0 0-7.322-7.311" fill="#FAAE40"/><path fill-rule="evenodd" clip-rule="evenodd" d="M286.486 30.171H33.514a2.342 2.342 0 0 0-2.343 2.343v58.558a2.342 2.342 0 0 0 2.343 2.342h252.972a2.343 2.343 0 0 0 2.343-2.342V32.513a2.343 2.343 0 0 0-2.343-2.342zM33.514 29A3.514 3.514 0 0 0 30 32.514v58.558a3.514 3.514 0 0 0 3.514 3.514h252.972A3.514 3.514 0 0 0 290 91.072V32.513A3.514 3.514 0 0 0 286.486 29H33.514z" fill="#D3E3E7"/><path d="m96.723 67.58-3.744-10.87h1.154l3.314 9.61 3.337-9.61h1.155l-3.744 10.87h-1.472zm8.898.227c-.795 0-1.484-.176-2.068-.528a3.583 3.583 0 0 1-1.351-1.487c-.322-.64-.483-1.39-.483-2.25 0-.89.158-1.66.475-2.31.317-.649.763-1.15 1.336-1.502.579-.352 1.261-.528 2.046-.528.805 0 1.492.186 2.061.559.568.367.999.895 1.29 1.585.292.69.426 1.512.401 2.468h-1.133v-.392c-.02-1.057-.249-1.855-.687-2.393-.432-.539-1.066-.808-1.902-.808-.875 0-1.547.284-2.015.853-.463.569-.695 1.379-.695 2.43 0 1.027.232 1.825.695 2.393.468.564 1.13.846 1.985.846.584 0 1.092-.134 1.525-.4.438-.272.782-.662 1.034-1.17l1.034.4a3.7 3.7 0 0 1-1.427 1.653c-.624.387-1.331.581-2.121.581zm-3.117-3.993v-.928h6.227v.928h-6.227zm8.499 3.766v-8.152h.996v1.963l-.196-.257a2.78 2.78 0 0 1 .355-.664c.146-.206.304-.375.475-.506.212-.186.458-.327.74-.422.282-.101.566-.159.853-.174.287-.02.548 0 .785.06v1.042a2.695 2.695 0 0 0-.974-.053c-.352.04-.677.181-.974.423a2.033 2.033 0 0 0-.611.762 3.261 3.261 0 0 0-.272.936 7.139 7.139 0 0 0-.068.974v4.069h-1.109zm5.591-9.7v-1.245h1.109v1.246h-1.109zm0 9.7v-8.152h1.109v8.153h-1.109zm4.18 0v-8.755c0-.212.01-.42.03-.627.025-.206.073-.403.144-.589a1.55 1.55 0 0 1 .332-.528c.166-.181.347-.312.543-.393.197-.085.4-.14.612-.166a5.51 5.51 0 0 1 .634-.038h1.041v.936h-.966c-.422 0-.739.104-.951.31-.206.206-.309.53-.309.974v8.877h-1.11zm-1.411-7.2v-.952h4.747v.952h-4.747zm6.333-2.5v-1.245h1.109v1.246h-1.109zm0 9.7v-8.152h1.109v8.153h-1.109zm4.529 3.624 1.578-4.28.023 1.268-3.571-8.764h1.178l2.928 7.33h-.483l2.703-7.33h1.132l-4.378 11.776h-1.11zm6.95-13.324v-1.245h1.11v1.246h-1.11zm0 9.7v-8.152h1.11v8.153h-1.11zm9.26 0v-4.158c0-.453-.042-.869-.128-1.246a2.885 2.885 0 0 0-.415-.996 1.896 1.896 0 0 0-.732-.665c-.297-.156-.66-.234-1.087-.234-.393 0-.74.068-1.042.204a2.05 2.05 0 0 0-.755.589 2.63 2.63 0 0 0-.46.92 4.413 4.413 0 0 0-.159 1.239l-.785-.174c0-.835.146-1.537.438-2.106.292-.569.694-.999 1.208-1.29.513-.292 1.102-.438 1.766-.438.488 0 .913.075 1.276.226.367.151.677.355.928.611.257.257.463.552.619.884.156.327.269.676.34 1.049.07.367.105.735.105 1.102v4.484h-1.117zm-5.895 0v-8.152h1.004v2.008h.113v6.145h-1.117zm12.21 3.85c-.418 0-.831-.063-1.238-.188a3.397 3.397 0 0 1-1.118-.582 3.205 3.205 0 0 1-.86-1.026l1.004-.559c.226.453.543.778.951.974a2.85 2.85 0 0 0 1.261.302c.588 0 1.064-.11 1.426-.332a1.86 1.86 0 0 0 .8-.966c.166-.428.247-.962.242-1.6v-2.175h.128v-5.85h.989v8.04c0 .23-.008.452-.023.664a5.04 5.04 0 0 1-.068.634c-.095.609-.294 1.11-.596 1.502a2.655 2.655 0 0 1-1.177.876c-.484.19-1.057.286-1.721.286zm-.076-3.623c-.76 0-1.409-.189-1.947-.566a3.661 3.661 0 0 1-1.238-1.547c-.287-.65-.431-1.382-.431-2.197 0-.81.141-1.54.423-2.19.287-.648.697-1.162 1.23-1.539.534-.377 1.173-.566 1.918-.566.765 0 1.409.186 1.932.559.524.372.919.883 1.185 1.532.272.644.408 1.379.408 2.204 0 .81-.133 1.542-.4 2.197-.267.649-.659 1.165-1.178 1.547-.518.377-1.152.566-1.902.566zm.113-1.034c.579 0 1.057-.141 1.434-.423.378-.282.66-.67.846-1.162.186-.498.279-1.062.279-1.691 0-.64-.093-1.203-.279-1.69-.186-.494-.468-.879-.846-1.156-.372-.277-.842-.415-1.411-.415-.584 0-1.067.144-1.449.43a2.54 2.54 0 0 0-.853 1.17 4.793 4.793 0 0 0-.272 1.66c0 .62.093 1.178.279 1.677.191.493.476.883.853 1.17.378.286.851.43 1.419.43zm5.87.807v-1.29h1.291v1.29h-1.291zm3.833 0v-1.29h1.291v1.29h-1.291zm3.833 0v-1.29h1.291v1.29h-1.291z" fill="#464646"/><path d="M60.165 50.165a1.677 1.677 0 1 1-3.099 1.284 1.677 1.677 0 0 1 3.1-1.284zm9.629 23.246a1.677 1.677 0 1 1-3.1 1.284 1.677 1.677 0 0 1 3.1-1.284zm-18.629-7.716a1.677 1.677 0 1 1 1.284 3.099 1.677 1.677 0 0 1-1.284-3.1zm23.246-9.629a1.677 1.677 0 1 1 1.284 3.1 1.677 1.677 0 0 1-1.284-3.1zm-21.962 0a1.677 1.677 0 1 1-1.284 3.1 1.677 1.677 0 0 1 1.284-3.1zm23.246 9.629a1.677 1.677 0 1 1-1.284 3.1 1.677 1.677 0 0 1 1.284-3.1zm-18.629 7.716a1.677 1.677 0 1 1 3.1 1.284 1.677 1.677 0 0 1-3.1-1.284zm9.629-23.246a1.677 1.677 0 1 1 3.099 1.284 1.677 1.677 0 0 1-3.1-1.284z" fill="#01912C"/></svg>