<svg width="320" height="160" fill="none" xmlns="http://www.w3.org/2000/svg"><rect width="320" height="160" rx="10" fill="#F3F8FF"/><path d="M23 116.671h113.317v25.181a3.147 3.147 0 0 1-3.148 3.148H26.148A3.148 3.148 0 0 1 23 141.852v-25.181z" fill="#314760"/><path d="m112.552 124.54-6.295-5.351-12.12 21.562 15.425-3.62 2.99-12.591z" fill="#01B7EC"/><path d="m90.676 130.206-19.201-3.777v6.61c.734.052 3.4.063 8.184-.315 4.784-.378 9.338-1.836 11.017-2.518z" fill="#02B8E1"/><path d="m62.008 126.114-5.666-5.981-3.148 6.925c-1.626-.315-5.162-.252-6.295 2.518-1.133 2.77 1.312 5.876 2.675 7.083l5.824 3.147 2.046-3.147 4.564 1.101v-11.646z" fill="#01B7EA"/><path d="M23 41.126a3.148 3.148 0 0 1 3.148-3.148h107.021a3.148 3.148 0 0 1 3.148 3.148v75.545H23V41.126z" fill="url(#a)"/><path d="M52.903 18.148A3.148 3.148 0 0 1 56.051 15h50.363a3.148 3.148 0 0 1 0 6.295H56.051a3.148 3.148 0 0 1-3.148-3.147zM23 29.165a3.148 3.148 0 0 1 3.148-3.148h107.021a3.148 3.148 0 1 1 0 6.295H26.148A3.148 3.148 0 0 1 23 29.165zM271.135 68.6v3.026a7.8 7.8 0 0 1 12 6.574c0 2.973.467 4.202.959 4.74.415.451 1.056.639 2.392.658a.615.615 0 0 1 .425.178l1.2 1.2a.595.595 0 0 1-.425 1.016c-.963-.008-2.082-.025-2.364-.057-1.08-.12-2.157-.458-2.997-1.374-1.157-1.263-1.59-3.334-1.59-6.361a5.4 5.4 0 0 0-9.277-3.76.703.703 0 0 1-.323.19V85.4a.6.6 0 0 1-.6.6h-9.6a7.8 7.8 0 1 1 4.902-13.867c.257.208.267.59.039.83l-.823.873c-.228.241-.606.25-.87.05a5.4 5.4 0 1 0-3.248 9.715h7.8V68.599a.6.6 0 0 1 .6-.6h1.2a.6.6 0 0 1 .6.6zm-58.8 9.6a7.8 7.8 0 1 1 14.904 3.223.572.572 0 0 1-.515.33l-.9.018c-.54.01-.979-.77-.795-1.278.296-.816.506-1.769.506-2.293a5.4 5.4 0 1 0-5.4 5.4h16.8a5.4 5.4 0 1 0-5.4-5.4v2.946a.6.6 0 0 1-.6.6h-1.2a.6.6 0 0 1-.6-.6V78.2a7.8 7.8 0 1 1 7.8 7.8h-16.8a7.8 7.8 0 0 1-7.8-7.8zm82.2-7.8a7.8 7.8 0 1 0 0 15.6h6.6a.6.6 0 0 0 .6-.6v-1.2a.6.6 0 0 0-.6-.6h-6.6a5.4 5.4 0 1 1 5.4-5.4c0 .626-.411 1.796-.785 2.688-.175.419.134.901.587.892l1.387-.027a.572.572 0 0 0 .515-.33 7.8 7.8 0 0 0-7.104-11.023z" fill="#314760"/><path d="M203.335 70.4a7.8 7.8 0 1 0 0 15.6h10.2a.6.6 0 0 0 .48-.96l-.9-1.2a.602.602 0 0 0-.48-.24h-9.3a5.4 5.4 0 1 1 0-10.8c1.22 0 2.792.421 4.003 1.754.355.39.727.468.97.468h1.575c.445 0 .416-.428.242-.71-1.938-3.15-4.934-3.912-6.79-3.912zm42.6 7.8v-9a.6.6 0 0 1 .6-.6h1.2a.6.6 0 0 1 .6.6v2.4h1.8a.6.6 0 0 1 .6.6v1.2a.6.6 0 0 1-.6.6h-1.8v4.2a5.4 5.4 0 0 0 5.151 5.394.636.636 0 0 1 .424.182l1.2 1.2a.594.594 0 0 1-.424 1.017 55.455 55.455 0 0 1-1.664-.025 7.8 7.8 0 0 1-7.087-7.768zm-16.8 9.6a.6.6 0 0 1 .6-.6h1.2a.6.6 0 0 1 .6.6v3.6a.6.6 0 0 1-.6.6h-1.2a.6.6 0 0 1-.6-.6v-3.6zm15-1.8h2.4a.6.6 0 0 0 .48-.96l-.9-1.2a.602.602 0 0 0-.48-.24h-.6a.6.6 0 0 0-.48.24l-.9 1.2a.6.6 0 0 0 .48.96zM189.65 71.04a.97.97 0 0 0 .969-.969v-.721a.968.968 0 0 0-.629-.908l-.484-.182c-.634-.237-1.31-.254-1.31.423v1.388c0 .535.434.97.969.97h.485zm-.485 1.09a.97.97 0 0 0-.969.97v.848c0 .535.434.97.969.97h.485a.97.97 0 0 0 .969-.97V73.1a.97.97 0 0 0-.969-.97h-.485zm0 3.635a.97.97 0 0 0-.969.97v.727a.97.97 0 0 0 .969.969h.485a.97.97 0 0 0 .969-.97v-.726a.97.97 0 0 0-.969-.97h-.485zm1.454 3.998a.485.485 0 0 0-.484-.484h-1.454a.485.485 0 0 0-.485.484c0 .85.075 1.649.255 2.377.127.516.695.75 1.187.55l.442-.18c.502-.205.738-.786.646-1.32a8.445 8.445 0 0 1-.107-1.427zm-.779 4.129c-.227.178-.268.509-.064.713.49.49 1.071.846 1.724 1.095.525.2 1.062-.185 1.139-.741l.071-.515c.068-.491-.26-.933-.697-1.168a2.23 2.23 0 0 1-.524-.384.253.253 0 0 0-.333-.03l-1.316 1.03zm4.777-.131c-.519 0-.969.407-.969.926v.565c0 .506.39.93.896.932h1.19a.97.97 0 0 0 .768-1.56l-.373-.484a.968.968 0 0 0-.768-.379h-.744zm-29.239-11.756c.295-.505.079-1.16-.486-1.31a7.893 7.893 0 0 0-2.017-.26.244.244 0 0 0-.242.246v1.94c0 .132.11.237.242.237.359 0 .709.034 1.049.1.456.09.942-.079 1.177-.48l.277-.473zm.898.759c-.331.461-.19 1.103.234 1.482.146.131.286.27.417.416.359.398.951.545 1.405.262l.412-.256c.454-.282.598-.885.262-1.301a7.887 7.887 0 0 0-1.187-1.187c-.399-.322-.976-.206-1.275.21l-.268.374zm-5.878-1.932c.527-.174 1.051.204 1.127.753l.071.504c.07.502-.265.966-.736 1.153a5.607 5.607 0 0 0-.31.135c-.497.234-1.119.13-1.423-.327l-.263-.394c-.292-.437-.184-1.033.278-1.282a7.806 7.806 0 0 1 1.256-.542zm-3.951 5.113c-.536-.155-.835-.734-.58-1.231.212-.413.46-.805.739-1.171.321-.421.931-.432 1.316-.07l.348.327c.397.373.401.996.094 1.447a6.137 6.137 0 0 0-.185.291c-.255.432-.757.69-1.239.55l-.493-.143zm-1.396 3.265a7.874 7.874 0 0 1-.036-1.388c.031-.514.508-.861 1.018-.799l.458.056c.562.069.938.605.932 1.171v.06c0 .093.002.185.007.277.024.471-.22.935-.661 1.105l-.504.195c-.541.21-1.149-.1-1.214-.677zm3.146 4.207c-.366.38-.973.402-1.316 0a7.948 7.948 0 0 1-.798-1.119c-.247-.42-.08-.949.336-1.204l.368-.226c.517-.317 1.193-.08 1.525.427.073.111.15.22.231.325.332.434.363 1.06-.017 1.454l-.329.343zm1.113 1.916c-.471-.24-.591-.837-.304-1.28l.259-.402c.295-.458.909-.573 1.407-.353.198.088.402.164.612.228.528.16.92.658.836 1.203l-.072.467c-.079.518-.558.885-1.067.76a7.837 7.837 0 0 1-1.671-.623zm6.715-.118a.97.97 0 0 1-.969.97h-1.091a.97.97 0 0 1-.969-.97v-.484a.97.97 0 0 1 .969-.97h1.091a.97.97 0 0 1 .969.97v.484zm1.817.97a.97.97 0 0 1-.969-.97v-.484a.97.97 0 0 1 .969-.97h.97a.97.97 0 0 1 .969.97v.484a.97.97 0 0 1-.969.97h-.97zm5.695-.97a.97.97 0 0 1-.97.97h-.969a.97.97 0 0 1-.969-.97v-.484a.97.97 0 0 1 .969-.97h.969a.97.97 0 0 1 .97.97v.484zm1.817.97a.97.97 0 0 1-.969-.97v-.484a.97.97 0 0 1 .969-.97h.848a.97.97 0 0 1 .969.97v.484a.97.97 0 0 1-.969.97h-.848zm5.636-1.454c.136.47-.099.976-.568 1.118a7.869 7.869 0 0 1-2.282.336.12.12 0 0 1-.121-.121v-2.181a.12.12 0 0 1 .121-.121c.456 0 .899-.056 1.323-.162.585-.146 1.237.134 1.405.713l.122.418zm2.224-.399c-.435.367-1.078.192-1.34-.314l-.241-.467c-.224-.433-.085-.958.268-1.294a5.37 5.37 0 0 0 .255-.26c.4-.436 1.083-.562 1.541-.187l.342.28c.385.314.474.874.156 1.256a7.915 7.915 0 0 1-.981.986zm2.559-6.265c.134 0 .242.109.242.243 0 .772-.111 1.52-.318 2.225-.157.531-.764.747-1.259.5l-.453-.227c-.456-.228-.648-.769-.533-1.265.092-.396.14-.81.14-1.233 0-.134.109-.243.243-.243h1.938zm.242-2.059a.97.97 0 0 1-.969.969h-.484a.97.97 0 0 1-.97-.97v-1.09a.97.97 0 0 1 .97-.969h.484a.97.97 0 0 1 .969.97v1.09zm0-4.795c0-.705-.728-.447-1.37-.155l-.538.244a.877.877 0 0 0 .363 1.677h.576a.97.97 0 0 0 .969-.97v-.796zm5.573 1.738a.82.82 0 0 1 1.614-.207l.257.983a.95.95 0 1 1-1.871.24V72.95zM173.352 72a.97.97 0 0 1 .548.873v.47a.97.97 0 0 1-.969.968h-.485a.97.97 0 0 1-.969-.969V72.16c0-.513.485-.876.848-.634l1.027.475zm-1.875 5.462a.97.97 0 0 0 .969.969h.485a.97.97 0 0 0 .969-.97V76.13a.97.97 0 0 0-.969-.97h-.485a.97.97 0 0 0-.969.97v1.332zm2.423 1.865a.048.048 0 0 0-.048-.048h-2.327a.048.048 0 0 0-.048.048c0 .968.217 1.884.604 2.704.216.456.777.591 1.22.35l.385-.21c.514-.28.652-.952.451-1.502a3.886 3.886 0 0 1-.237-1.342zm13.162 6.858a.97.97 0 0 0 .794-1.525l-.34-.485a.968.968 0 0 0-.794-.413h-.258a.969.969 0 0 0-.739.341l-.412.485a.97.97 0 0 0 .739 1.597h1.01z" fill="#314760"/><path fill-rule="evenodd" clip-rule="evenodd" d="m50.867 82.99-1.731 3.148-5.509-3.148c-3.357 3.463-7.68 11.962 1.889 18.257 9.57 6.295 16.263-.629 18.414-4.879.997.525 3.494 1.763 5.509 2.518 2.014.756 3.462 1.05 3.934 1.102V93.22l19.201 3.935c2.204-1.102 7.334-3.998 10.23-6.767 2.896-2.77 4.669-5.457 5.194-6.453.157 1.154 1.259 3.336 4.407 2.833 3.147-.504 1.731-6.086.629-8.814 1.469-.105 4.47-1.039 4.722-3.935.252-2.895-3.987-3.62-6.138-3.62.052-2.255-.535-7.869-3.305-12.275-2.77-4.407-6.715-7.188-8.342-8.027l1.259-3.935-2.99 2.99a30.23 30.23 0 0 1-2.36-.944 74.427 74.427 0 0 0-2.204-.944v-5.666l-2.99 5.037c-.578-.158-2.361-.504-4.88-.63-2.518-.126-3.882-.053-4.249 0l-2.36-4.879-.473 5.036c-1.154.105-4.218.567-7.24 1.574-3.021 1.007-5.14 1.889-5.823 2.204l-3.305-3.148 1.26 4.25c-1.26.839-4.407 3.115-6.926 5.508-2.518 2.392-3.882 4.459-4.249 5.193l-5.509-1.416 4.093 4.092-.945 2.046 5.98 6.138v11.174l-5.193-.787zm49.891-18.414 6.296 5.351-2.991 12.591-15.424 3.62 12.119-21.562z" fill="url(#b)"/><path d="M66.763 81.731c2.14-3.903 1.521-8.551.944-10.387.263.734 2.96 2.707 7.87 4.092 4.91 1.385 7.397 0 8.498-.787.472 1.416.819 5.603-1.574 11.017-2.99 6.767-9.757 8.341-12.905 6.925-3.148-1.417-5.508-5.98-2.833-10.86z" fill="url(#c)"/><path d="M84.075 72.76c-5.164-2.336-5.545-7.363-5.072-9.748-.637 2.878-3.085 8.196-8.148 7.702-6.453-.63-7.24-7.869-7.24-9.915 0-2.046 1.384-10.14 8.657-9.758 5.98.315 7.344 6.348 7.397 9.129 1.101-2.729 4.658-7.775 10.072-6.139 6.768 2.047 5.509 9.444 5.037 11.018-.473 1.573-4.092 10.702-10.703 7.711z" fill="#00438F"/><path d="M69.596 74.964v-2.046c.734.42 2.739 1.448 4.879 2.203 2.14.756 4.144.944 4.879.944v1.732c0 1.101-.315 1.259-1.889.944-1.574-.315-5.508-1.102-6.767-1.731-1.26-.63-1.102-1.102-1.102-2.046z" fill="#fff"/><path d="M72.586 61.743c-3.4-.126-7.082-.682-8.498-.944.105-3.2 1.857-9.537 8.026-9.286 6.17.252 7.083 6.925 6.768 10.23-.682.053-2.896.126-6.296 0z" fill="url(#d)"/><path d="M70.54 70.085c-5.414-1.007-6.558-6.61-6.453-9.286 1.364.262 4.785.819 7.555.944 2.77.126 5.98.053 7.24 0-.525 3.2-2.928 9.349-8.342 8.342z" fill="#fff"/><path d="M87.823 64.52c-3.303-.812-6.797-2.104-8.13-2.648.751-3.112 3.752-8.962 9.743-7.464 5.99 1.498 5.53 8.218 4.551 11.39-.678-.087-2.86-.464-6.164-1.277z" fill="url(#e)"/><path d="M84.127 72.274c-5.097-2.085-5.08-7.803-4.435-10.402 1.283.534 4.52 1.772 7.206 2.457 2.687.686 5.846 1.265 7.09 1.469-1.163 3.027-4.764 8.56-9.86 6.476z" fill="#fff"/><path d="m76.836 61.743-6.296-.157c-.052 1.207.472 3.683 2.99 3.935 2.519.251 3.253-2.414 3.306-3.778zm5.823 5.509c-2.14-.756-2.046-3.567-1.731-4.88l5.823 1.89c-.472 1.311-1.952 3.745-4.092 2.99z" fill="#243B52"/><defs><linearGradient id="a" x1="23" y1="116.671" x2="136.317" y2="37.978" gradientUnits="userSpaceOnUse"><stop stop-color="#173856"/><stop offset="1" stop-color="#0091D4"/></linearGradient><linearGradient id="b" x1="78.725" y1="41.126" x2="78.725" y2="103.776" gradientUnits="userSpaceOnUse"><stop stop-color="#00B6FF"/><stop offset="1" stop-color="#02B8DC"/></linearGradient><linearGradient id="c" x1="75.008" y1="71.344" x2="75.008" y2="93.068" gradientUnits="userSpaceOnUse"><stop stop-color="#B721B2"/><stop offset="1" stop-color="#3E004D"/></linearGradient><linearGradient id="d" x1="71.512" y1="51.506" x2="71.512" y2="61.813" gradientUnits="userSpaceOnUse"><stop stop-color="#D9D9D9"/><stop offset="0" stop-color="#01FFFC"/><stop offset="1" stop-color="#034CAC"/></linearGradient><linearGradient id="e" x1="88.847" y1="54.279" x2="86.756" y2="64.371" gradientUnits="userSpaceOnUse"><stop stop-color="#D9D9D9"/><stop offset="0" stop-color="#01FFFC"/><stop offset="1" stop-color="#034CAC"/></linearGradient></defs></svg>