<svg width="320" height="160" viewBox="0 0 320 160" fill="none" xmlns="http://www.w3.org/2000/svg">
<rect width="320" height="160" rx="10" fill="#F3F8FF"/>
<path d="M279.514 102.871C283.816 98.0219 286 90.7606 286 81.2849V81.2147C286 71.739 283.816 64.4735 279.514 59.6284C275.124 54.6803 270.972 52 261.599 52H241.437C242.518 53.1051 245.027 55.674 245.863 56.5234C246.259 56.9234 246.579 57.2327 246.825 57.4677L246.858 57.5007C246.995 57.6327 247.108 57.7399 247.187 57.8264C247.274 57.9131 247.332 57.9749 247.37 58.0079C249.034 59.6614 250.973 60.3294 254.076 60.3294C254.193 60.3294 254.422 60.3294 254.738 60.3294C255.483 60.3253 256.972 60.3294 258.578 60.3294C259.597 60.3294 260.667 60.3294 261.624 60.3294C269.936 60.3294 272.42 65.1703 272.849 66.1765C273.265 66.7537 273.61 67.4053 273.876 68.1145C275.378 72.0813 276.148 76.6294 276.106 81.2601C276.148 85.8082 275.378 90.3482 273.876 94.3768C271.259 101.403 264.615 102.162 261.877 102.162H254.076C251.085 102.162 248.168 103.514 245.863 105.968C244.761 107.143 242.535 109.46 241.545 110.491H261.586C270.968 110.491 275.124 107.811 279.514 102.867V102.871Z" fill="#0B465E"/>
<path d="M254.838 81.2567C254.838 81.2567 254.838 81.2567 254.838 81.2524V81.2443C254.913 76.9352 254.077 73.1375 253.407 71.0552C252.583 68.4863 251.768 67.5173 251.51 67.1915C247.52 62.0866 242.902 64.2886 238.949 61.6207C235.001 58.9569 234.34 56.9364 232.933 55.5221C232.692 55.2788 232.159 54.7428 231.336 54.182C231.336 54.182 230.046 53.3037 228.253 52.7511C226.31 52.145 220.452 51.9883 216 52.0007V60.8537H229.276C230.866 60.8208 234.731 60.9692 238.138 63.6288C239.919 65.0184 240.859 66.5317 241.437 67.476C244.175 71.9706 244.258 77.4342 244.312 81.236V81.2567C244.258 85.0585 244.175 90.5221 241.437 95.0166C240.863 95.9608 239.919 97.4782 238.138 98.8639C234.726 101.523 230.866 101.672 229.276 101.639H216V110.492C220.452 110.508 226.31 110.348 228.253 109.746C230.046 109.189 231.336 108.315 231.336 108.315C232.159 107.754 232.692 107.218 232.933 106.975C234.34 105.56 235.001 103.544 238.949 100.876C242.898 98.2124 247.52 100.414 251.51 95.3053C251.768 94.9794 252.583 94.0104 253.407 91.4416C254.073 89.3591 254.913 85.5616 254.838 81.2524V81.2567Z" fill="#0B465E"/>
<path d="M41.5 13.5C41.5 11.2909 43.2909 9.5 45.5 9.5H172.01C174.219 9.5 176.01 11.2909 176.01 13.5V145.5C176.01 147.709 174.219 149.5 172.01 149.5H45.5C43.2909 149.5 41.5 147.709 41.5 145.5V13.5Z" fill="#96B1B9"/>
<path d="M42.8726 109.036H174.915V144.653C174.915 146.572 173.36 148.128 171.44 148.128H46.3474C44.4283 148.128 42.8726 146.572 42.8726 144.653V109.036Z" fill="#F2F9F5"/>
<path d="M54.1658 133.794C54.1658 129.716 57.4717 126.41 61.5497 126.41H156.238C160.316 126.41 163.622 129.716 163.622 133.794C163.622 137.872 160.316 141.178 156.238 141.178H61.5497C57.4717 141.178 54.1658 137.872 54.1658 133.794Z" fill="white"/>
<circle cx="132.775" cy="133.716" r="7.54902" fill="#528C8E"/>
<path fill-rule="evenodd" clip-rule="evenodd" d="M135.721 133.716L132.532 130.527L133.017 130.042L136.449 133.473C136.583 133.607 136.583 133.824 136.449 133.958L133.017 137.39L132.532 136.904L135.721 133.716Z" fill="white"/>
<path fill-rule="evenodd" clip-rule="evenodd" d="M128.657 133.373H136.206V134.059H128.657V133.373Z" fill="white"/>
<path d="M71.5398 117.723C71.5398 116.764 72.3177 115.986 73.2772 115.986H144.511C145.47 115.986 146.248 116.764 146.248 117.723C146.248 118.683 145.47 119.461 144.511 119.461H73.2772C72.3177 119.461 71.5398 118.683 71.5398 117.723Z" fill="#8A898C"/>
<rect x="42.8726" y="30.8523" width="132.043" height="78.1832" fill="white"/>
<path d="M42.8726 14.3474C42.8726 12.4283 44.4283 10.8726 46.3474 10.8726H171.44C173.36 10.8726 174.915 12.4283 174.915 14.3474V30.8527H42.8726V14.3474Z" fill="#F2F9F5"/>
<path fill-rule="evenodd" clip-rule="evenodd" d="M82.3334 14.9902H60.3726C57.151 14.9902 54.5393 17.6019 54.5393 20.8236C54.5393 24.0452 57.151 26.6569 60.3726 26.6569H82.3334C85.5551 26.6569 88.1668 24.0452 88.1668 20.8236C88.1668 17.6019 85.5551 14.9902 82.3334 14.9902ZM60.3726 14.304C56.772 14.304 53.853 17.2229 53.853 20.8236C53.853 24.4242 56.772 27.3432 60.3726 27.3432H82.3334C85.9341 27.3432 88.853 24.4242 88.853 20.8236C88.853 17.2229 85.9341 14.304 82.3334 14.304H60.3726Z" fill="#96B1B9"/>
<path fill-rule="evenodd" clip-rule="evenodd" d="M66.5491 14.9902H60.3726C57.151 14.9902 54.5393 17.6019 54.5393 20.8236C54.5393 24.0452 57.151 26.6569 60.3726 26.6569H66.5491C69.7708 26.6569 72.3824 24.0452 72.3824 20.8236C72.3824 17.6019 69.7708 14.9902 66.5491 14.9902ZM60.3726 14.304C56.772 14.304 53.853 17.2229 53.853 20.8236C53.853 24.4242 56.772 27.3432 60.3726 27.3432H66.5491C70.1498 27.3432 73.0687 24.4242 73.0687 20.8236C73.0687 17.2229 70.1498 14.304 66.5491 14.304H60.3726Z" fill="#0B465E"/>
<path d="M80.0978 17.996H80.3552V23.6586H80.0978L78.0387 21.8568H77.2665C77.0949 21.8568 76.7517 21.7539 76.7517 21.3421V20.3125C76.7517 20.1409 76.8547 19.7977 77.2665 19.7977H78.0387L80.0978 17.996Z" fill="#96B1B9"/>
<path fill-rule="evenodd" clip-rule="evenodd" d="M80.8972 18.9105C80.9608 18.7833 81.1154 18.7318 81.2425 18.7954C81.6476 18.9979 82.4144 19.6748 82.4144 20.8273C82.4144 21.9798 81.6476 22.6568 81.2425 22.8593C81.1154 22.9229 80.9608 22.8713 80.8972 22.7442C80.8336 22.617 80.8852 22.4624 81.0123 22.3988C81.2936 22.2582 81.8996 21.734 81.8996 20.8273C81.8996 19.9207 81.2936 19.3965 81.0123 19.2558C80.8852 19.1922 80.8336 19.0376 80.8972 18.9105Z" fill="#96B1B9"/>
<path fill-rule="evenodd" clip-rule="evenodd" d="M81.6694 18.1383C81.7329 18.0112 81.8875 17.9596 82.0147 18.0232C82.5913 18.3115 83.7013 19.2888 83.7013 20.956C83.7013 22.6233 82.5913 23.6005 82.0147 23.8888C81.8875 23.9524 81.7329 23.9009 81.6694 23.7737C81.6058 23.6466 81.6573 23.492 81.7845 23.4284C82.2374 23.202 83.1865 22.3774 83.1865 20.956C83.1865 19.5346 82.2374 18.7101 81.7845 18.4836C81.6573 18.4201 81.6058 18.2655 81.6694 18.1383Z" fill="#96B1B9"/>
<path d="M65.4153 19.4728C66.015 19.4728 66.5012 18.9866 66.5012 18.3869C66.5012 17.7872 66.015 17.301 65.4153 17.301C64.8156 17.301 64.3294 17.7872 64.3294 18.3869C64.3294 18.9866 64.8156 19.4728 65.4153 19.4728Z" fill="#0B465E"/>
<path d="M58.6829 23.8163L61.9405 20.5587L63.4607 22.0789L64.5466 20.993L66.9355 23.3819V24.2506H58.6829V23.8163Z" fill="#0B465E"/>
<rect x="53.853" y="39.696" width="109.804" height="61.0784" rx="5" fill="#DBF2FF"/>
<path d="M67.5784 56.8867V91.6505H102.173V80.1751H99.8108C97.8419 80.0625 93.9043 78.69 93.9043 74.0998C93.9043 69.5097 97.8419 68.2496 99.8108 68.1934H102.173V56.718H90.6979V54.0179C90.6417 52.2178 89.3816 48.6177 84.7915 48.6177C80.2013 48.6177 78.9413 52.2178 78.885 54.0179V56.8867H67.5784Z" fill="#A6DEFF"/>
<path d="M115.167 91.6503H149.931V56.7178H138.456V59.0804C138.343 61.0492 136.971 64.9868 132.381 64.9868C127.79 64.9868 126.53 61.0492 126.474 59.0804V56.7178H114.999V68.1932H112.299C110.499 68.2494 106.898 69.5095 106.898 74.0996C106.898 78.6898 110.499 79.9499 112.299 80.0061H115.167V91.6503Z" fill="white"/>
<path d="M159.563 18.1064C158.551 18.1064 157.662 18.6353 157.158 19.4334L156.623 19.096C157.238 18.1224 158.325 17.4746 159.563 17.4746C161.376 17.4746 162.864 18.8625 163.024 20.6335H163.67L162.722 21.8971L161.774 20.6335H162.389C162.232 19.212 161.027 18.1064 159.563 18.1064Z" fill="#96B1B9"/>
<path d="M155.457 21.2653H156.102C156.262 23.0364 157.751 24.4242 159.563 24.4242C160.801 24.4242 161.888 23.7765 162.503 22.8029L161.969 22.4655C161.465 23.2635 160.575 23.7924 159.563 23.7924C158.1 23.7924 156.895 22.6868 156.737 21.2653H157.352L156.404 20.0017L155.457 21.2653Z" fill="#96B1B9"/>
</svg>
