<svg width="320" height="160" fill="none" xmlns="http://www.w3.org/2000/svg"><rect width="320" height="160" rx="10" fill="#F3F8FF"/><path d="M20 25a5 5 0 0 1 5-5h90a5 5 0 0 1 5 5v110a5 5 0 0 1-5 5H25a5 5 0 0 1-5-5V25z" fill="#fff"/><path fill-rule="evenodd" clip-rule="evenodd" d="M115 21.5H25a3.5 3.5 0 0 0-3.5 3.5v110a3.5 3.5 0 0 0 3.5 3.5h90a3.5 3.5 0 0 0 3.5-3.5V25a3.5 3.5 0 0 0-3.5-3.5zM25 20a5 5 0 0 0-5 5v110a5 5 0 0 0 5 5h90a5 5 0 0 0 5-5V25a5 5 0 0 0-5-5H25z" fill="#94B5E9"/><path d="M25 70a5 5 0 0 1 5-5h80a5 5 0 0 1 5 5v8a5 5 0 0 1-5 5H30a5 5 0 0 1-5-5v-8z" fill="#F5F7FA"/><path fill-rule="evenodd" clip-rule="evenodd" d="M110 66.5H30a3.5 3.5 0 0 0-3.5 3.5v8a3.5 3.5 0 0 0 3.5 3.5h80a3.5 3.5 0 0 0 3.5-3.5v-8a3.5 3.5 0 0 0-3.5-3.5zM30 65a5 5 0 0 0-5 5v8a5 5 0 0 0 5 5h80a5 5 0 0 0 5-5v-8a5 5 0 0 0-5-5H30z" fill="#94B5E9"/><rect x="50" y="113" width="40" height="18" rx="5" fill="#2979FF"/><rect x="60" y="118" width="20" height="8" rx="4" fill="#fff"/><rect x="50" y="28" width="40" height="8" rx="4" fill="#48699B"/><path d="M40.71 90 34 93.097v6.193c0 3.097 4.129 6.71 6.71 6.71 2.58 0 6.71-3.613 6.71-6.71v-6.193L40.71 90z" fill="#48699B"/><path d="m36.58 98.258.775-.774 2.322 2.322 4.904-4.903.774.774-5.678 5.678-3.096-3.097z" fill="#fff"/><path d="M53.8 102v-7.2h.735v7.2H53.8zm5.78.15c-.406 0-.747-.073-1.024-.22a1.496 1.496 0 0 1-.615-.585 1.595 1.595 0 0 1-.205-.795c0-.293.058-.543.175-.75.12-.21.282-.382.485-.515a2.45 2.45 0 0 1 .715-.305c.273-.067.575-.125.905-.175.333-.053.658-.098.975-.135.32-.04.6-.078.84-.115l-.26.16c.01-.533-.093-.928-.31-1.185s-.593-.385-1.13-.385c-.37 0-.683.083-.94.25-.253.167-.432.43-.535.79l-.715-.21c.123-.483.372-.858.745-1.125s.858-.4 1.455-.4c.493 0 .912.093 1.255.28.347.183.592.45.735.8.067.157.11.332.13.525.02.193.03.39.03.59V102h-.655v-1.355l.19.08c-.183.463-.468.817-.855 1.06-.387.243-.85.365-1.39.365zm.086-.635c.343 0 .643-.062.9-.185a1.627 1.627 0 0 0 .925-1.235 2.73 2.73 0 0 0 .065-.57c.003-.21.005-.367.005-.47l.28.145c-.25.033-.522.067-.815.1-.29.033-.577.072-.86.115-.28.043-.533.095-.76.155a2.061 2.061 0 0 0-.445.185 1.03 1.03 0 0 0-.355.31.833.833 0 0 0-.135.485c0 .157.038.308.115.455.08.147.207.268.38.365.177.097.41.145.7.145zm10.367.485.005-3.545c0-.417-.117-.743-.35-.98-.23-.24-.524-.36-.88-.36-.204 0-.402.047-.595.14a1.147 1.147 0 0 0-.48.45c-.124.207-.185.477-.185.81l-.435-.125a1.96 1.96 0 0 1 .225-1.015c.163-.29.386-.515.67-.675.286-.163.61-.245.97-.245.543 0 .978.168 1.305.505.326.333.49.785.49 1.355L70.768 102h-.735zm-6.445 0v-5.4h.66v1.33h.08V102h-.74zm3.23 0 .005-3.495c0-.43-.115-.768-.345-1.015-.227-.25-.527-.375-.9-.375-.374 0-.675.128-.905.385-.23.253-.345.592-.345 1.015l-.44-.24a1.77 1.77 0 0 1 .915-1.58c.283-.16.605-.24.965-.24.343 0 .648.073.915.22.27.147.481.36.635.64.153.28.23.62.23 1.02L67.543 102h-.725zm11.153 0v-2.755c0-.3-.028-.575-.085-.825a1.903 1.903 0 0 0-.275-.66 1.257 1.257 0 0 0-.485-.44 1.533 1.533 0 0 0-.72-.155c-.26 0-.49.045-.69.135a1.36 1.36 0 0 0-.5.39c-.133.167-.235.37-.305.61s-.105.513-.105.82l-.52-.115c0-.553.097-1.018.29-1.395.193-.377.46-.662.8-.855.34-.193.73-.29 1.17-.29.323 0 .605.05.845.15.243.1.448.235.615.405.17.17.307.365.41.585.103.217.178.448.225.695.047.243.07.487.07.73V102h-.74zm-3.905 0v-7.2h.665v4.065h.075V102h-.74zm8.008.135c-.324 0-.607-.05-.85-.15-.24-.1-.445-.235-.615-.405a2.13 2.13 0 0 1-.405-.58 2.93 2.93 0 0 1-.225-.695 3.947 3.947 0 0 1-.07-.735V96.6h.74v2.755c0 .297.028.572.085.825.056.253.146.475.27.665.126.187.288.332.485.435.2.103.441.155.725.155.26 0 .488-.045.685-.135.2-.09.366-.218.5-.385.136-.17.24-.375.31-.615.07-.243.105-.517.105-.82l.52.115c0 .553-.097 1.018-.29 1.395a2.01 2.01 0 0 1-.8.855c-.34.193-.73.29-1.17.29zm1.815-.135v-1.33h-.075V96.6h.735v5.4h-.66zm8.497 0 .005-3.545c0-.417-.117-.743-.35-.98-.23-.24-.523-.36-.88-.36-.203 0-.402.047-.595.14a1.148 1.148 0 0 0-.48.45c-.123.207-.185.477-.185.81l-.435-.125a1.96 1.96 0 0 1 .225-1.015c.163-.29.387-.515.67-.675.287-.163.61-.245.97-.245.543 0 .978.168 1.305.505.327.333.49.785.49 1.355L93.121 102h-.735zm-6.445 0v-5.4h.66v1.33h.08V102h-.74zm3.23 0 .005-3.495c0-.43-.115-.768-.345-1.015-.227-.25-.527-.375-.9-.375s-.675.128-.905.385c-.23.253-.345.592-.345 1.015l-.44-.24c0-.347.082-.657.245-.93.163-.277.387-.493.67-.65.283-.16.605-.24.965-.24.343 0 .648.073.915.22.27.147.482.36.635.64.153.28.23.62.23 1.02L89.896 102h-.725zm6.797.15c-.407 0-.749-.073-1.025-.22a1.495 1.495 0 0 1-.615-.585 1.594 1.594 0 0 1-.205-.795c0-.293.058-.543.175-.75.12-.21.281-.382.485-.515.206-.133.445-.235.715-.305.273-.067.575-.125.905-.175.333-.053.658-.098.975-.135.32-.04.6-.078.84-.115l-.26.16c.01-.533-.094-.928-.31-1.185-.217-.257-.594-.385-1.13-.385-.37 0-.684.083-.94.25-.254.167-.432.43-.535.79l-.715-.21c.123-.483.371-.858.745-1.125.373-.267.858-.4 1.455-.4.493 0 .911.093 1.255.28.346.183.591.45.735.8.066.157.11.332.13.525.02.193.03.39.03.59V102h-.655v-1.355l.19.08c-.184.463-.469.817-.855 1.06-.387.243-.85.365-1.39.365zm.085-.635c.343 0 .643-.062.9-.185a1.628 1.628 0 0 0 .925-1.235c.04-.173.061-.363.065-.57.003-.21.005-.367.005-.47l.28.145c-.25.033-.522.067-.815.1-.29.033-.577.072-.86.115-.28.043-.534.095-.76.155a2.057 2.057 0 0 0-.445.185c-.144.077-.262.18-.355.31a.833.833 0 0 0-.135.485.97.97 0 0 0 .115.455c.08.147.206.268.38.365.176.097.41.145.7.145zm7.826.485v-2.755c0-.3-.028-.575-.085-.825a1.884 1.884 0 0 0-.275-.66 1.255 1.255 0 0 0-.485-.44 1.53 1.53 0 0 0-.72-.155c-.26 0-.49.045-.69.135-.196.09-.363.22-.5.39-.133.167-.235.37-.305.61s-.105.513-.105.82l-.52-.115c0-.553.097-1.018.29-1.395a2.01 2.01 0 0 1 .8-.855c.34-.193.73-.29 1.17-.29.324 0 .605.05.845.15.244.1.449.235.615.405.17.17.307.365.41.585.104.217.179.448.225.695.047.243.07.487.07.73V102h-.74zm-3.905 0v-5.4h.665v1.33h.075V102h-.74z" fill="#48699B"/><path d="M25 48a5 5 0 0 1 5-5h80a5 5 0 0 1 5 5v8a5 5 0 0 1-5 5H30a5 5 0 0 1-5-5v-8z" fill="#F5F7FA"/><path fill-rule="evenodd" clip-rule="evenodd" d="M110 44.5H30a3.5 3.5 0 0 0-3.5 3.5v8a3.5 3.5 0 0 0 3.5 3.5h80a3.5 3.5 0 0 0 3.5-3.5v-8a3.5 3.5 0 0 0-3.5-3.5zM30 43a5 5 0 0 0-5 5v8a5 5 0 0 0 5 5h80a5 5 0 0 0 5-5v-8a5 5 0 0 0-5-5H30z" fill="#94B5E9"/><path fill-rule="evenodd" clip-rule="evenodd" d="M163.47 70.027A13.748 13.748 0 0 0 153.748 66C146.16 66 140 72.16 140 79.748c0 7.588 6.16 13.749 13.748 13.749a13.75 13.75 0 0 0 9.722-4.027l-2.916-2.916a9.625 9.625 0 0 1-16.429-6.806c0-5.311 4.312-9.624 9.623-9.624a9.625 9.625 0 0 1 6.806 2.82l2.916-2.917z" fill="#FFAB00"/><path fill-rule="evenodd" clip-rule="evenodd" d="M144.027 89.47a13.748 13.748 0 0 0 19.443 0l-2.916-2.916a9.625 9.625 0 0 1-13.61 0l-2.917 2.916z" fill="#FFC400"/><path d="M149.624 81.81a2.062 2.062 0 1 0 0-4.123 2.062 2.062 0 0 0 0 4.124zm8.249 0a2.062 2.062 0 1 0 0-4.123 2.062 2.062 0 0 0 0 4.124z" fill="#FFAB00"/><path d="M171.72 85.515h2.087v-4.893h4.786v-1.749h-4.786v-3.127h5.293v-1.75h-7.38v11.52zm9.061.001h2.036v-5.08c0-1.096.827-1.872 1.946-1.872.343 0 .771.062.945.118v-1.873a4.886 4.886 0 0 0-.731-.056c-.99 0-1.817.562-2.132 1.563h-.09v-1.44h-1.974v8.64zm6.283 0h2.036v-8.64h-2.036v8.64zm1.023-9.866c.647 0 1.176-.495 1.176-1.102 0-.613-.529-1.108-1.176-1.108-.652 0-1.181.495-1.181 1.108 0 .608.529 1.102 1.181 1.102zm6.929 10.034c2.014 0 3.397-.984 3.757-2.486l-1.901-.214c-.275.732-.95 1.114-1.828 1.114-1.316 0-2.188-.866-2.205-2.345h6.019v-.625c0-3.031-1.823-4.364-3.949-4.364-2.475 0-4.089 1.817-4.089 4.482 0 2.711 1.592 4.438 4.196 4.438zm-2.171-5.304c.062-1.102.877-2.03 2.092-2.03 1.17 0 1.958.855 1.969 2.03h-4.061zm9.769.073c0-1.248.754-1.968 1.828-1.968 1.052 0 1.682.692 1.682 1.845v5.185h2.036v-5.5c.006-2.07-1.175-3.251-2.958-3.251-1.294 0-2.183.618-2.576 1.58h-.102v-1.468h-1.946v8.64h2.036v-5.063zm10.828 5.214c1.485 0 2.154-.883 2.474-1.513h.124v1.361h2.002V73.997h-2.041v4.308h-.085c-.309-.624-.944-1.541-2.469-1.541-1.996 0-3.566 1.563-3.566 4.443 0 2.846 1.525 4.46 3.561 4.46zm.568-1.67c-1.344 0-2.053-1.181-2.053-2.801 0-1.609.697-2.762 2.053-2.762 1.31 0 2.03 1.086 2.03 2.762s-.731 2.8-2.03 2.8zm8.245-10h-2.036v11.518h2.036V73.997zm3.358 14.758c1.586 0 2.503-.816 2.992-2.194l3.459-9.685h-2.165l-1.997 6.525h-.09l-1.991-6.525h-2.16l3.133 8.82-.174.466c-.377.984-.973 1.052-1.862.793l-.472 1.586c.275.113.77.214 1.327.214zm21.738-10.872c-.354-2.559-2.323-4.044-4.876-4.044-3.009 0-5.276 2.194-5.276 5.917 0 3.718 2.238 5.917 5.276 5.917 2.739 0 4.555-1.772 4.876-3.97l-2.104-.012c-.264 1.35-1.366 2.109-2.744 2.109-1.868 0-3.206-1.4-3.206-4.044 0-2.598 1.327-4.044 3.211-4.044 1.401 0 2.498.793 2.739 2.171h2.104zm4.314 7.807c1.355 0 2.165-.636 2.537-1.361h.067v1.186h1.957v-5.782c0-2.283-1.861-2.97-3.509-2.97-1.817 0-3.212.81-3.662 2.385l1.901.27c.203-.59.776-1.096 1.772-1.096.945 0 1.462.483 1.462 1.333v.034c0 .584-.613.613-2.137.776-1.676.18-3.279.68-3.279 2.626 0 1.699 1.243 2.599 2.891 2.599zm.529-1.496c-.85 0-1.457-.389-1.457-1.137 0-.781.681-1.108 1.592-1.237.534-.073 1.603-.208 1.867-.422v1.018c0 .962-.776 1.778-2.002 1.778zm6.085 4.561h2.036v-4.6h.084c.321.63.99 1.512 2.475 1.512 2.036 0 3.56-1.614 3.56-4.46 0-2.88-1.569-4.443-3.566-4.443-1.524 0-2.159.917-2.469 1.54h-.118v-1.428h-2.002v11.879zm1.997-7.56c0-1.675.72-2.76 2.03-2.76 1.355 0 2.053 1.152 2.053 2.76 0 1.62-.709 2.802-2.053 2.802-1.299 0-2.03-1.125-2.03-2.801zm12.21-4.319h-1.704v-2.07h-2.036v2.07h-1.226v1.575h1.226v4.803c-.011 1.626 1.17 2.424 2.699 2.38.58-.017.979-.13 1.198-.203l-.343-1.592a2.529 2.529 0 0 1-.596.08c-.512 0-.922-.18-.922-1.002v-4.466h1.704v-1.575zm5.382 8.808c2.171 0 3.555-1.288 3.701-3.121h-1.946c-.174.927-.844 1.462-1.738 1.462-1.271 0-2.092-1.063-2.092-2.83 0-1.743.838-2.789 2.092-2.789.979 0 1.581.63 1.738 1.462h1.946c-.141-1.872-1.603-3.104-3.712-3.104-2.531 0-4.128 1.828-4.128 4.466 0 2.615 1.558 4.454 4.139 4.454zm7.413-5.231c0-1.248.776-1.968 1.868-1.968 1.068 0 1.698.68 1.698 1.845v5.185h2.036v-5.5c0-2.087-1.181-3.251-2.975-3.251-1.328 0-2.171.602-2.571 1.58h-.101v-4.347h-1.991v11.518h2.036v-5.062zm10.158 5.237c1.355 0 2.165-.636 2.536-1.361h.068v1.186H300v-5.782c0-2.283-1.862-2.97-3.51-2.97-1.816 0-3.211.81-3.661 2.385l1.901.27c.203-.59.776-1.096 1.772-1.096.945 0 1.462.483 1.462 1.333v.034c0 .584-.613.613-2.137.776-1.676.18-3.279.68-3.279 2.626 0 1.699 1.243 2.599 2.891 2.599zm.528-1.496c-.849 0-1.456-.389-1.456-1.137 0-.781.68-1.108 1.591-1.237.535-.073 1.603-.208 1.868-.422v1.018c0 .962-.776 1.778-2.003 1.778z" fill="#212121"/></svg>