<svg width="320" height="160" fill="none" xmlns="http://www.w3.org/2000/svg"><rect width="320" height="160" rx="10" fill="#F3F8FF"/><path d="M253.076 133.516a.32.32 0 0 1 0 .228.482.482 0 0 1-.25 0c-.924.142-1.857.218-2.791.227l-.234.001a6.84 6.84 0 0 1-1.455-.137 3.439 3.439 0 0 1-1.137-.479 2.092 2.092 0 0 1-.796-1.003 4.358 4.358 0 0 1-.273-1.642v-5.45a4.373 4.373 0 0 1 .273-1.641 2.07 2.07 0 0 1 .796-1.004 3.457 3.457 0 0 1 1.137-.478 6.852 6.852 0 0 1 1.309-.138l.146.001a19.635 19.635 0 0 1 3.025.228.462.462 0 0 1 .25 0 .32.32 0 0 1 0 .228v1.026a.318.318 0 0 1-.318.319h-3.23a1.32 1.32 0 0 0-.978.296 1.577 1.577 0 0 0-.272 1.072v1.71h4.298c.176 0 .318.143.318.32v1.14a.318.318 0 0 1-.318.319h-4.298v2.052c-.078.423.02.86.272 1.209.274.226.626.333.978.296h3.23c.176 0 .318.143.318.319v.981zm9.294 0a.32.32 0 0 1 0 .228.486.486 0 0 1-.251 0c-.923.142-1.856.218-2.791.227l-.233.001a6.843 6.843 0 0 1-1.456-.137 3.5 3.5 0 0 1-1.137-.479 2.098 2.098 0 0 1-.796-1.003 4.378 4.378 0 0 1-.273-1.642v-5.45a4.373 4.373 0 0 1 .273-1.641c.154-.41.433-.761.796-1.004a3.475 3.475 0 0 1 1.137-.478 6.86 6.86 0 0 1 1.309-.138l.147.001a19.622 19.622 0 0 1 3.024.228.465.465 0 0 1 .251 0 .32.32 0 0 1 0 .228v1.026a.321.321 0 0 1-.319.319h-3.229a1.318 1.318 0 0 0-.978.296 1.583 1.583 0 0 0-.273 1.072v1.71h4.298a.32.32 0 0 1 .319.32v1.14a.32.32 0 0 1-.319.319h-4.298v2.052c-.041.379.056.759.273 1.072.273.226.625.333.978.296h3.229a.32.32 0 0 1 .319.319v1.118zm9.401-10.425h-3.093v10.284a.343.343 0 0 1 0 .228.252.252 0 0 1-.205 0h-.955a.252.252 0 0 1-.205 0 .343.343 0 0 1 0-.228v-10.284h-3.184a.382.382 0 0 1-.227 0 .208.208 0 0 1 0-.182v-.684a.252.252 0 0 1 0-.205.34.34 0 0 1 .227 0h7.642c.197 0 .295.091.295.273v.684c0 .076-.098.114-.295.114zm8.012 10.708a.185.185 0 0 1-.114 0h-3.115a3.98 3.98 0 0 1-2.525-.684 2.765 2.765 0 0 1-.841-2.281v-5.86a2.764 2.764 0 0 1 .841-2.28 3.974 3.974 0 0 1 2.525-.684h3.206a.185.185 0 0 1 .114 0 .265.265 0 0 1 0 .137v.84c-.002.104-.02.14-.182.14h-3.093a4.728 4.728 0 0 0-1.023 0 1.234 1.234 0 0 0-.592.297 1.01 1.01 0 0 0-.273.501 3.512 3.512 0 0 0-.136 1.049v2.28h4.867a.298.298 0 0 1 .227 0 .291.291 0 0 1 0 .228v.593a.291.291 0 0 1 0 .228.289.289 0 0 1-.227 0h-4.867v2.691a3.586 3.586 0 0 0 0 .775 1 1 0 0 0 .273.525c.166.151.371.253.591.296.34.037.683.037 1.024 0h3.106c.092.002.146.02.146.183v.82c.05.056.074.131.068.206zm8.937-3.011a3.846 3.846 0 0 1-.182 1.026c-.12.386-.331.738-.614 1.026-.343.33-.755.58-1.206.73a5.57 5.57 0 0 1-1.933.296c-.492.028-.986.028-1.478 0l-1.16-.159a.443.443 0 0 1-.25 0 .317.317 0 0 1 0-.183v-.707a.23.23 0 0 1 0-.182.298.298 0 0 1 .182 0h2.615c.399.009.797-.037 1.183-.137.269-.072.518-.204.728-.388.179-.159.312-.364.386-.592.04-.257.04-.519 0-.776a1.48 1.48 0 0 0 0-.547 1.542 1.542 0 0 0-.318-.479 4.065 4.065 0 0 0-.41-.479l-.909-.592-1.547-.935a6.372 6.372 0 0 1-1.637-1.346 2.508 2.508 0 0 1-.546-1.641 2.422 2.422 0 0 1 .955-2.03 4.93 4.93 0 0 1 2.82-.684h2.752c.182 0 .273.114.273.274v.684c0 .167-.091.251-.273.251h-2.729a3.739 3.739 0 0 0-1.797.319 1.255 1.255 0 0 0-.545 1.186 1.25 1.25 0 0 0 0 .524c.079.169.187.323.318.456.165.171.348.324.546.456l.773.502 1.456.866c.405.238.793.504 1.159.798.286.23.545.49.774.776.192.236.339.507.432.798.105.285.166.585.182.889zm9.218-7.697h-3.093v10.284a.343.343 0 0 1 0 .228.25.25 0 0 1-.204 0h-.955a.252.252 0 0 1-.205 0 .343.343 0 0 1 0-.228v-10.284h-3.161a.385.385 0 0 1-.228 0 .208.208 0 0 1 0-.182v-.684a.252.252 0 0 1 0-.205.343.343 0 0 1 .228 0h7.69c.17.002.247.022.247.273v.684c0 .046-.114.114-.319.114zm-59.14 1.396a2.271 2.271 0 0 1 1.774-.707 4.543 4.543 0 0 1 2.616.752.292.292 0 0 0 .386 0l.591-.82c0-.137.137-.297 0-.434a6.043 6.043 0 0 0-3.741-1.278l-.102.001a4.76 4.76 0 0 0-1.524.251c-.496.178-.958.44-1.364.776-.474.41-.835.936-1.046 1.527a6.29 6.29 0 0 0-.387 2.28v2.281a6.415 6.415 0 0 0 .273 1.961c.151.506.398.978.728 1.39a4.354 4.354 0 0 0 2.16 1.391 5.95 5.95 0 0 0 1.296.137 7.139 7.139 0 0 0 3.275-.661.524.524 0 0 0 .296-.479v-5.632a.3.3 0 0 0 0-.228.298.298 0 0 0-.227 0h-3.298a.318.318 0 0 0-.318.319v1.14c0 .177.142.32.318.32h1.319v3.009a3.893 3.893 0 0 1-1.319.206 2.274 2.274 0 0 1-1.706-.662 3.493 3.493 0 0 1-.614-2.28v-2.28a3.615 3.615 0 0 1 .614-2.28z" fill="#292F3A"/><path d="M227.88 126.941h-6.893a4.142 4.142 0 0 0-4.53-3.08 4.148 4.148 0 0 0-3.619 4.118c0 2.09 1.55 3.854 3.619 4.118a4.142 4.142 0 0 0 4.53-3.08h4.781a8.873 8.873 0 0 1-7.18 7.711 8.853 8.853 0 0 1-9.466-4.606 8.901 8.901 0 0 1 1.6-10.427 8.843 8.843 0 0 1 10.41-1.54 3.365 3.365 0 0 0 1.529 4.075 3.347 3.347 0 0 0 4.258-.856 3.368 3.368 0 0 0-.155-4.351 3.347 3.347 0 0 0-4.308-.549 10.949 10.949 0 0 0-13.242 1.748 11.019 11.019 0 0 0-1.744 13.277 10.957 10.957 0 0 0 12.34 5.125A10.994 10.994 0 0 0 227.942 128c0-.415-.021-.768-.062-1.059zm-10.909 3.113a2.073 2.073 0 0 1-2.07-2.075c0-1.146.927-2.075 2.07-2.075 1.143 0 2.07.929 2.07 2.075a2.073 2.073 0 0 1-2.07 2.075zm7.307-10.003a1.247 1.247 0 0 1 .878 2.126 1.239 1.239 0 0 1-1.353.27 1.245 1.245 0 0 1 .475-2.396z" fill="#347EFF"/><path fill-rule="evenodd" clip-rule="evenodd" d="M21 76.3V20.586C21 17.501 23.52 15 26.627 15h105.952c3.108 0 5.627 2.5 5.627 5.586v118.828c0 3.085-2.519 5.586-5.627 5.586H26.626C23.52 145 21 142.499 21 139.414V76.3zm1.345 6.778v56.336c0 2.348 1.917 4.251 4.282 4.251h105.952c2.365 0 4.282-1.903 4.282-4.251V20.586c0-2.348-1.917-4.251-4.282-4.251H26.626c-2.364 0-4.282 1.903-4.282 4.251v62.492z" fill="#BDD2F5"/><path d="M22.345 20.586c0-2.348 1.917-4.251 4.282-4.251h105.952c2.365 0 4.282 1.903 4.282 4.25v118.829c0 2.348-1.917 4.251-4.282 4.251H26.627c-2.365 0-4.282-1.903-4.282-4.251V20.586z" fill="#F3F8FF"/><path d="M34.65 115.75a2.6 2.6 0 0 1 2.6-2.6h84.5a2.6 2.6 0 0 1 2.6 2.6v13a2.6 2.6 0 0 1-2.6 2.6h-84.5a2.6 2.6 0 0 1-2.6-2.6v-13z" fill="#BDD2F5"/><path d="M34.65 72.85a2.6 2.6 0 0 1 2.6-2.6h84.5a2.6 2.6 0 0 1 2.6 2.6v13a2.6 2.6 0 0 1-2.6 2.6h-84.5a2.6 2.6 0 0 1-2.6-2.6v-13zm0-22.1a2.6 2.6 0 0 1 2.6-2.6h84.5a2.6 2.6 0 0 1 2.6 2.6v13a2.6 2.6 0 0 1-2.6 2.6h-84.5a2.6 2.6 0 0 1-2.6-2.6v-13z" fill="#fff"/><path d="M60 122.25a3.9 3.9 0 0 1 3.9-3.9h31.2a3.9 3.9 0 1 1 0 7.8H63.9a3.9 3.9 0 0 1-3.9-3.9z" fill="#94B5E9"/><path d="M34.65 94.3a2.6 2.6 0 0 1 2.6-2.6h84.5a2.6 2.6 0 0 1 2.6 2.6v13a2.6 2.6 0 0 1-2.6 2.6h-84.5a2.6 2.6 0 0 1-2.6-2.6v-13z" fill="#EEFFF5"/><path fill-rule="evenodd" clip-rule="evenodd" d="M121.75 92.675h-84.5c-.898 0-1.625.728-1.625 1.625v13c0 .898.727 1.625 1.625 1.625h84.5c.897 0 1.625-.727 1.625-1.625v-13c0-.897-.728-1.625-1.625-1.625zm-84.5-.975a2.6 2.6 0 0 0-2.6 2.6v13a2.6 2.6 0 0 0 2.6 2.6h84.5a2.6 2.6 0 0 0 2.6-2.6v-13a2.6 2.6 0 0 0-2.6-2.6h-84.5z" fill="#4CCD81"/><path d="M120.42 100.3h-3.267a1.962 1.962 0 1 0 0 .981h2.267a4.199 4.199 0 1 1-2.198-4.19 1.59 1.59 0 1 0 .628-.794 5.2 5.2 0 1 0 2.6 4.503c0-.196-.01-.363-.03-.5zm-5.17 1.471a.98.98 0 1 1 0-1.961.98.98 0 0 1 0 1.961zm3.463-4.728a.589.589 0 1 1 0 1.177.589.589 0 0 1 0-1.177zm-62.196 6.464c-.37 0-.703-.063-1.001-.189a1.924 1.924 0 0 1-.733-.547 1.84 1.84 0 0 1-.372-.847l.78-.118c.078.314.243.56.493.736.25.174.542.261.876.261.207 0 .398-.032.572-.096.174-.067.313-.161.418-.283a.656.656 0 0 0 .161-.443.58.58 0 0 0-.182-.433.729.729 0 0 0-.204-.139 1.524 1.524 0 0 0-.261-.104l-1.32-.389a3.26 3.26 0 0 1-.392-.147 1.545 1.545 0 0 1-.369-.24c-.11-.1-.199-.222-.268-.368a1.258 1.258 0 0 1-.104-.536c0-.317.082-.585.244-.804a1.49 1.49 0 0 1 .665-.5c.278-.115.59-.172.936-.172.348.004.66.066.933.185.277.12.505.291.687.515.183.222.31.491.379.808l-.801.136a1.052 1.052 0 0 0-.229-.497 1.146 1.146 0 0 0-.429-.322 1.367 1.367 0 0 0-.55-.118 1.348 1.348 0 0 0-.526.086.938.938 0 0 0-.38.261.587.587 0 0 0-.139.386c0 .143.042.259.126.347a.927.927 0 0 0 .307.211c.124.05.247.092.368.125l.951.268c.12.034.254.079.404.136.153.055.3.132.44.232.143.1.26.234.354.401.093.164.14.372.14.622 0 .26-.053.488-.158.686-.105.196-.25.36-.433.494-.18.131-.39.23-.629.296-.238.067-.49.1-.754.1zm4.19-.003c-.267 0-.49-.043-.672-.129a1.276 1.276 0 0 1-.443-.336 1.613 1.613 0 0 1-.258-.458c-.06-.164-.1-.325-.121-.482a3.125 3.125 0 0 1-.032-.415v-2.145h.758v1.898c0 .151.011.306.035.465.027.158.074.304.143.44a.88.88 0 0 0 .297.329.91.91 0 0 0 .5.125c.134 0 .26-.021.38-.064a.8.8 0 0 0 .31-.215.996.996 0 0 0 .211-.386c.053-.16.08-.354.08-.583l.464.175c0 .351-.066.661-.197.93-.13.267-.32.475-.565.626-.245.15-.542.225-.89.225zm1.276-.104v-1.115h-.089v-2.746h.754v3.861h-.665zm3.32.107c-.396 0-.732-.088-1.008-.264a1.725 1.725 0 0 1-.637-.726 2.455 2.455 0 0 1-.221-1.047 2.39 2.39 0 0 1 .228-1.055c.15-.307.365-.548.644-.722.279-.174.614-.261 1.005-.261.421 0 .781.105 1.08.314.3.21.497.497.593.862l-.744.215a.983.983 0 0 0-.94-.687c-.246 0-.447.059-.604.175a1.017 1.017 0 0 0-.35.472c-.077.2-.116.429-.119.687.003.398.093.719.272.965.181.245.448.368.8.368.241 0 .436-.055.583-.164a1.04 1.04 0 0 0 .344-.479l.758.178c-.127.377-.335.667-.626.869-.29.2-.644.3-1.058.3zm3.959 0c-.396 0-.732-.088-1.008-.264a1.724 1.724 0 0 1-.637-.726 2.453 2.453 0 0 1-.221-1.047 2.39 2.39 0 0 1 .228-1.055c.15-.307.365-.548.644-.722.279-.174.614-.261 1.004-.261.422 0 .782.105 1.08.314.3.21.498.497.594.862l-.744.215a.982.982 0 0 0-.94-.687c-.246 0-.447.059-.604.175a1.016 1.016 0 0 0-.35.472 1.97 1.97 0 0 0-.119.687c.003.398.093.719.272.965.181.245.448.368.8.368.242 0 .436-.055.584-.164.15-.112.264-.272.343-.479l.758.178c-.127.377-.335.667-.626.869-.29.2-.643.3-1.058.3zm4.02 0c-.384 0-.721-.083-1.012-.25a1.78 1.78 0 0 1-.676-.704 2.22 2.22 0 0 1-.24-1.051c0-.422.08-.788.237-1.098.16-.31.38-.549.665-.718.283-.17.613-.254.99-.254.393 0 .728.092 1.004.275.277.181.483.44.619.776.138.336.193.735.164 1.198h-.747v-.272c-.005-.448-.09-.779-.257-.994-.165-.214-.416-.322-.755-.322-.374 0-.655.118-.843.354-.188.236-.283.577-.283 1.023 0 .424.095.753.283.986.188.232.46.347.815.347.233 0 .435-.052.604-.157.172-.107.305-.26.4-.458l.733.233c-.15.345-.377.613-.683.804a1.904 1.904 0 0 1-1.018.282zm-1.377-1.826v-.583h2.757v.583h-2.757zm5.643 1.826c-.384 0-.721-.083-1.012-.25a1.78 1.78 0 0 1-.676-.704 2.222 2.222 0 0 1-.24-1.051c0-.422.08-.788.237-1.098.16-.31.381-.549.665-.718.283-.17.613-.254.99-.254.393 0 .728.092 1.005.275.276.181.482.44.618.776.138.336.193.735.165 1.198h-.748v-.272c-.004-.448-.09-.779-.257-.994-.164-.214-.416-.322-.754-.322-.374 0-.656.118-.844.354-.188.236-.282.577-.282 1.023 0 .424.094.753.282.986.188.232.46.347.815.347.234 0 .435-.052.604-.157.172-.107.305-.26.4-.458l.733.233c-.15.345-.377.613-.682.804a1.903 1.903 0 0 1-1.02.282zm-1.377-1.826v-.583h2.757v.583H76.17zm5.464 1.826c-.36 0-.67-.089-.933-.268a1.767 1.767 0 0 1-.604-.729 2.5 2.5 0 0 1-.21-1.044c0-.388.07-.735.214-1.04.143-.308.345-.55.607-.726a1.64 1.64 0 0 1 .94-.268c.365 0 .672.09.92.268.25.176.438.418.564.726.129.307.193.654.193 1.04s-.064.733-.193 1.04a1.682 1.682 0 0 1-.568.733c-.25.179-.56.268-.93.268zm.104-.675c.245 0 .446-.059.6-.175a.999.999 0 0 0 .34-.483c.072-.205.108-.441.108-.708a2.08 2.08 0 0 0-.111-.708.988.988 0 0 0-.336-.479.925.925 0 0 0-.576-.171c-.248 0-.452.06-.611.182-.16.121-.28.285-.358.49a1.954 1.954 0 0 0-.114.686c0 .255.038.486.114.694.079.205.196.368.35.489a.94.94 0 0 0 .594.183zm1.047.568v-2.778h-.085v-2.37h.75v5.148h-.664zm3.378.107c-.384 0-.72-.083-1.012-.25a1.779 1.779 0 0 1-.675-.704 2.22 2.22 0 0 1-.24-1.051c0-.422.079-.788.236-1.098.16-.31.382-.549.665-.718a1.89 1.89 0 0 1 .99-.254c.394 0 .728.092 1.005.275.276.181.483.44.618.776.139.336.194.735.165 1.198h-.747v-.272c-.005-.448-.09-.779-.258-.994-.164-.214-.416-.322-.754-.322-.374 0-.655.118-.844.354-.188.236-.282.577-.282 1.023 0 .424.094.753.282.986.189.232.46.347.815.347.234 0 .435-.052.605-.157.171-.107.305-.26.4-.458l.733.233c-.15.345-.378.613-.683.804a1.903 1.903 0 0 1-1.019.282zm-1.376-1.826v-.583h2.756v.583h-2.756zm5.464 1.826c-.36 0-.671-.089-.933-.268a1.767 1.767 0 0 1-.605-.729 2.5 2.5 0 0 1-.21-1.044c0-.388.071-.735.214-1.04a1.73 1.73 0 0 1 .608-.726 1.64 1.64 0 0 1 .94-.268c.365 0 .67.09.919.268.25.176.438.418.565.726.128.307.193.654.193 1.04s-.065.733-.193 1.04a1.682 1.682 0 0 1-.569.733c-.25.179-.56.268-.93.268zm.103-.675c.246 0 .446-.059.6-.175a.999.999 0 0 0 .34-.483c.072-.205.108-.441.108-.708a2.08 2.08 0 0 0-.111-.708.988.988 0 0 0-.336-.479.925.925 0 0 0-.576-.171c-.248 0-.451.06-.611.182-.16.121-.279.285-.358.49a1.954 1.954 0 0 0-.114.686c0 .255.038.486.115.694.078.205.195.368.35.489a.94.94 0 0 0 .593.183zm1.048.568v-2.778h-.086v-2.37h.75v5.148h-.664z" fill="#4CCD81"/><path fill-rule="evenodd" clip-rule="evenodd" d="M45.05 96.25a4.55 4.55 0 1 0 4.363 3.255l.623-.185a5.2 5.2 0 1 1-2.386-3.024l-.325.563a4.527 4.527 0 0 0-2.275-.609z" fill="#78DFA2"/><path fill-rule="evenodd" clip-rule="evenodd" d="m49.62 97.895-5.22 5.219-2.945-2.944.69-.69 2.255 2.255 4.53-4.53.69.69z" fill="#4CCD81"/><path d="M54 27.929A4.929 4.929 0 0 1 58.929 23H295.5a4.929 4.929 0 0 1 4.929 4.929V68.07A4.929 4.929 0 0 1 295.5 73H58.929A4.929 4.929 0 0 1 54 68.071V27.93z" fill="#F3F8FF"/><path fill-rule="evenodd" clip-rule="evenodd" d="M295.5 24.848H58.929a3.08 3.08 0 0 0-3.08 3.08v40.143a3.08 3.08 0 0 0 3.08 3.08H295.5a3.08 3.08 0 0 0 3.08-3.08V27.93a3.08 3.08 0 0 0-3.08-3.08zM58.929 23A4.929 4.929 0 0 0 54 27.929V68.07A4.929 4.929 0 0 0 58.929 73H295.5a4.929 4.929 0 0 0 4.929-4.929V27.93A4.929 4.929 0 0 0 295.5 23H58.929z" fill="#BDD2F5"/><path d="M289.634 46.625h-8.976a5.391 5.391 0 1 0 0 2.695h6.226a11.535 11.535 0 1 1-6.037-11.508 4.366 4.366 0 1 0 1.725-2.183 14.286 14.286 0 1 0 7.143 12.37c0-.538-.027-.997-.081-1.374zm-14.205 4.043a2.695 2.695 0 1 1 0-5.39 2.695 2.695 0 0 1 0 5.39zm9.515-12.991a1.617 1.617 0 1 1 0 3.234 1.617 1.617 0 0 1 0-3.234z" fill="#BDD2F5"/><path d="M113.506 54.044c-1.153 0-2.136-.25-2.947-.753-.812-.507-1.434-1.212-1.867-2.114-.427-.902-.64-1.949-.64-3.14 0-1.19.213-2.237.64-3.139.433-.902 1.055-1.605 1.867-2.106.811-.508 1.794-.761 2.947-.761 1.329 0 2.429.336 3.3 1.009.875.673 1.484 1.578 1.826 2.715l-1.698.456c-.225-.806-.625-1.438-1.202-1.898-.571-.459-1.313-.689-2.226-.689-.817 0-1.498.185-2.042.553-.545.369-.956.884-1.234 1.546-.272.662-.408 1.434-.408 2.315-.006.88.128 1.652.4 2.314.278.662.689 1.177 1.234 1.546.549.368 1.233.552 2.05.552.913 0 1.655-.23 2.226-.688.577-.465.977-1.098 1.202-1.898l1.698.456c-.342 1.137-.951 2.042-1.826 2.715-.871.673-1.971 1.01-3.3 1.01zm7.047-.24V42.03h1.674v11.773h-1.674zm4.239-10.067V42.11h1.674v1.626h-1.674zm0 10.067v-8.65h1.674v8.65h-1.674zm7.779.24c-.886 0-1.639-.197-2.258-.592a3.87 3.87 0 0 1-1.426-1.626c-.325-.69-.491-1.471-.496-2.347.005-.892.176-1.68.512-2.363a3.86 3.86 0 0 1 1.442-1.617c.625-.39 1.375-.585 2.25-.585.945 0 1.752.235 2.419.705.673.47 1.116 1.113 1.33 1.93l-1.666.48c-.166-.485-.438-.862-.817-1.129a2.135 2.135 0 0 0-1.29-.408c-.55 0-1.001.13-1.353.392a2.265 2.265 0 0 0-.785 1.057c-.171.449-.259.961-.264 1.538.005.892.208 1.613.608 2.163.406.55 1.004.824 1.794.824.54 0 .975-.122 1.306-.368.336-.251.592-.609.769-1.073l1.698.4c-.283.844-.751 1.493-1.402 1.946-.651.449-1.442.673-2.371.673zm5.396-.24.008-11.533h1.698v7.048l3.396-4.165h2.13l-3.588 4.325 3.957 4.325h-2.275l-3.62-4.165v4.165h-1.706zm16.564 0a7.152 7.152 0 0 1-1.601.136 3.623 3.623 0 0 1-1.402-.304 1.91 1.91 0 0 1-.929-.881 2.574 2.574 0 0 1-.304-1.09 43.567 43.567 0 0 1-.016-1.265v-7.648h1.681v7.568c0 .347.003.649.008.905.011.256.067.472.169.649.192.33.496.52.913.568.421.043.915.024 1.481-.056v1.418zm-5.91-7.304v-1.346h5.91V46.5h-5.91zm11.099 7.544c-.865 0-1.615-.195-2.25-.584a3.937 3.937 0 0 1-1.474-1.61c-.342-.69-.513-1.482-.513-2.379 0-.902.177-1.695.529-2.379a3.868 3.868 0 0 1 1.482-1.601c.635-.385 1.377-.577 2.226-.577.865 0 1.615.195 2.251.585a3.94 3.94 0 0 1 1.473 1.61c.347.683.521 1.47.521 2.362 0 .902-.176 1.698-.529 2.387a3.941 3.941 0 0 1-1.473 1.61c-.636.384-1.383.576-2.243.576zm0-1.578c.828 0 1.444-.277 1.85-.833.411-.56.617-1.281.617-2.162 0-.902-.208-1.623-.625-2.162-.411-.545-1.025-.817-1.842-.817-.561 0-1.022.128-1.385.384-.364.251-.633.6-.809 1.05-.177.442-.265.958-.265 1.545 0 .908.209 1.634.625 2.179.417.544 1.028.816 1.834.816zm11.55 1.338-3.139-8.65h1.689l2.299 6.551 2.299-6.55h1.69l-3.14 8.649h-1.698zm9.804.24c-.86 0-1.615-.187-2.267-.56a3.985 3.985 0 0 1-1.513-1.578c-.358-.678-.537-1.463-.537-2.355 0-.945.176-1.765.529-2.459a3.912 3.912 0 0 1 1.489-1.61c.636-.379 1.375-.568 2.219-.568.881 0 1.631.206 2.25.617.62.405 1.082.985 1.386 1.738.31.752.432 1.647.368 2.683h-1.674v-.61c-.01-1.003-.202-1.745-.576-2.226-.369-.48-.932-.72-1.69-.72-.838 0-1.468.264-1.89.792-.422.53-.633 1.293-.633 2.291 0 .95.211 1.687.633 2.21.422.518 1.03.777 1.826.777.523 0 .974-.117 1.353-.352a2.4 2.4 0 0 0 .897-1.025l1.642.52a3.889 3.889 0 0 1-1.53 1.802 4.256 4.256 0 0 1-2.282.633zm-3.084-4.092v-1.306h6.175v1.306h-6.175zm8.805 3.852v-8.65h1.49v2.099l-.208-.273a3.14 3.14 0 0 1 .416-.76 2.3 2.3 0 0 1 .593-.577c.219-.16.462-.283.729-.369.272-.09.549-.144.832-.16a3.18 3.18 0 0 1 .817.04v1.57a2.712 2.712 0 0 0-.945-.064 2.074 2.074 0 0 0-.945.328 2.12 2.12 0 0 0-.648.641c-.155.25-.267.531-.337.84a4.374 4.374 0 0 0-.104.97v4.365h-1.69zm6.355-10.067V42.11h1.674v1.626h-1.674zm0 10.067v-8.65h1.674v8.65h-1.674zm4.872 0V44.85c0-.219.008-.451.024-.697a3.15 3.15 0 0 1 .136-.737c.08-.245.211-.47.392-.672.219-.24.459-.412.721-.513.262-.102.521-.16.777-.176.261-.016.502-.024.721-.024h1.089v1.377h-1.009c-.395 0-.692.1-.889.297-.192.192-.289.467-.289.825v9.274h-1.673zm-1.434-7.304v-1.346h5.294V46.5h-5.294zm7.738 11.148L206 53.091l.024 1.346-3.772-9.283h1.746l2.819 7.168h-.512l2.691-7.168h1.698l-4.774 12.494h-1.594z" fill="#48699B"/><path d="M68.786 48.259c0-7.826 6.343-14.17 14.17-14.17 7.825 0 14.169 6.344 14.169 14.17s-6.344 14.17-14.17 14.17-14.17-6.344-14.17-14.17z" fill="#C6D5F8"/><path fill-rule="evenodd" clip-rule="evenodd" d="M70.018 48.259c0 7.145 5.792 12.937 12.937 12.937s12.938-5.792 12.938-12.937S90.1 35.32 82.955 35.32c-7.145 0-12.937 5.793-12.937 12.938zm12.937-14.17c-7.826 0-14.17 6.344-14.17 14.17s6.344 14.17 14.17 14.17 14.17-6.344 14.17-14.17-6.344-14.17-14.17-14.17z" fill="#3873FF"/><rect x="77.411" y="42.714" width="11.089" height="11.089" rx="5.545" fill="#3873FF"/></svg>