<svg width="320" height="160" fill="none" xmlns="http://www.w3.org/2000/svg"><rect width="320" height="160" rx="10" fill="#FFFAED"/><path d="M229.018 136.194v-11.736H225v15.331h8.67v-3.595h-4.652zm17.233 1.163-2.643-1.797s-.846 1.374-2.643 1.374c-2.117 0-2.643-1.586-2.643-3.383 0-1.375.634-2.961 2.537-2.961s2.221 1.586 2.221 2.009v1.692h3.7c.423-4.758-2.643-6.661-5.815-6.661-3.172 0-6.555 2.114-6.555 6.026s2.855 6.344 6.555 6.344c2.96 0 4.758-1.762 5.286-2.643z" fill="#363636"/><path d="M238.005 134.291h5.498v-1.798h-5.498v1.798zm15.013 5.392h-3.806v-7.507l-2.009-2.326 2.96-2.432 1.692 2.009c.388-.599 1.692-1.797 3.806-1.797 2.115 0 3.419 1.057 3.807 1.586.422-.529 1.797-1.586 3.912-1.586 2.643 0 4.546 1.903 4.546 4.229v7.824h-3.806v-7.084c0-.634-.635-1.586-1.798-1.586s-1.797.846-1.797 1.586v7.084h-3.806v-7.084c0-.634-.635-1.586-1.798-1.586s-1.903.74-1.903 1.586v7.084zm20.829-11.842h-3.912v11.842h3.912v-11.842zm-3.912-5.392v3.595h3.806v-3.595h-3.806zm6.978 9.727-1.903-2.432 2.749-2.114 1.797 2.114c.423-.704 1.819-2.114 4.018-2.114 2.749 0 4.757 1.692 4.757 4.546v7.613h-3.806v-7.084c0-.634-.634-1.797-1.903-1.797-1.269 0-1.797 1.268-1.797 1.797v7.084h-3.912v-7.613z" fill="#363636"/><path d="m278.604 119.595 1.374-3.595c1.515.529 4.864 1.713 6.132 2.22 1.586.635 3.172.317 4.335 0 .931-.253 4.687-1.586 6.45-2.22l1.374 3.595c-1.762.634-5.667 2.009-7.19 2.432-1.903.528-4.017.422-5.286 0-1.015-.339-5.216-1.763-7.189-2.432z" fill="#FFC700"/><path fill-rule="evenodd" clip-rule="evenodd" d="M149.03 15.985H25.924a3.94 3.94 0 0 0-3.94 3.94v120.151a3.94 3.94 0 0 0 3.94 3.939H149.03a3.94 3.94 0 0 0 3.94-3.939V19.924a3.94 3.94 0 0 0-3.94-3.94zM25.924 15A4.924 4.924 0 0 0 21 19.924v120.152A4.924 4.924 0 0 0 25.924 145H149.03a4.925 4.925 0 0 0 4.925-4.924V19.924A4.925 4.925 0 0 0 149.03 15H25.924z" fill="#000"/><path fill="#268059" d="M21.985 30.101H152.97v86.01H21.985z"/><path fill-rule="evenodd" clip-rule="evenodd" d="M71.169 50.294a.492.492 0 0 1 .547.425l5.416 41.692a.492.492 0 1 1-.976.127L70.802 51.33l-41.545 4.972 4.653 42.682 6.235-.76a.492.492 0 0 1 .12.977l-6.73.821a.49.49 0 0 1-.55-.436l-4.76-43.661a.492.492 0 0 1 .431-.543l42.513-5.088zm28.634-2.189a.492.492 0 0 1 .363-.11l43.334 4.432a.495.495 0 0 1 .438.55l-4.924 39.886a.492.492 0 1 1-.977-.12l4.862-39.388-42.336-4.33-.941 10.665a.492.492 0 0 1-.981-.087l.985-11.161a.492.492 0 0 1 .177-.337z" fill="#09A75B"/><path d="M133.929 117.096h-30.53c.11-1.094.525-4.301 1.313-8.371.788-4.071 1.642-7.387 1.97-8.536-5.307-2.133-16.972-7.419-21.174-11.49-5.253-5.088-5.91-11.654-6.074-17.234-.164-5.581-.82-26.263-.984-27.412-.165-1.149 0-1.97.82-1.97.657 0 .93.657.985.985-.11-.711-.131-2.166.657-2.298.788-.131 1.094.82 1.149 1.313.054-.547.262-1.674.656-1.805.493-.164.985.164 1.15.656.13.394.492 2.134.656 2.955.11-.547.492-1.642 1.149-1.642.82 0 1.149.821 1.149 1.314 0 .394.11 3.666.164 5.252.328-.875 1.215-2.56 2.134-2.298 1.149.328.82 3.94 0 6.894-.657 2.364-2.681 3.72-3.611 4.104.219 1.97.886 7.123 1.805 11.982 1.15 6.073.985 7.058 6.073 9.356 4.071 1.838 14.281 4.596 18.877 5.745l1.97-11.818c-1.642-.219-4.925-1.642-4.925-5.58 0-4.925 1.97-7.88 2.955-9.029.985-1.149 2.462-1.805 6.565-1.149 3.283.526 5.308 4.487 5.91 6.402 1.313.055 3.906.952 3.775 4.103-.132 3.152-3.009 3.611-4.432 3.447l-1.313 13.624c1.751-.219 5.909-.197 8.535 1.641 2.626 1.839 9.192 5.8 12.147 7.551l-1.313 2.626c.383.602 1.575 2.56 3.282 5.581 1.707 3.02 2.353 5.307 2.462 6.073l5.089.821v8.207h-11.162c-1.039-.383-3.512-1.477-5.088-2.79s-2.517-3.174-2.791-3.94v6.73z" fill="#FFD832"/><path d="m141.808 53.245-2.626-5.745c-.438.711-1.839 2.232-3.94 2.626-2.626.492-4.596-.164-7.058.328-2.462.493-4.103 2.462-3.775 4.596.328 2.134 1.97 2.462 3.447 2.298 1.477-.164 3.283-.328 6.073 1.313 2.233 1.313 4.432 1.095 5.253.821l.328-2.954c-.657 0-2.265-.132-3.447-.657s-2.462-1.313-2.955-1.641c.985.054 3.382.13 5.089 0 1.707-.132 3.119-.712 3.611-.985zm-29.053 6.073c0-.82-2.626-.985-2.626-.164 0 .82 2.626.82 2.626.164zm2.79.985c.821-.493 2.462 1.641 1.806 2.298-.657.656-2.626-1.806-1.806-2.298z" fill="#282516"/><path d="M113.411 57.348c.263.788 4.049.657 5.91.493-.493 2.462-.493 4.596.82 6.073 1.313 1.477 3.776.82 4.432.164.657-.657 2.462-4.596-2.626-7.222-5.089-2.626-8.864-.493-8.536.492z" fill="#282516"/><path fill-rule="evenodd" clip-rule="evenodd" d="M80.206 42.58a.328.328 0 0 1 .373.275l.821 5.416a.328.328 0 1 1-.649.099l-.82-5.417a.328.328 0 0 1 .275-.374zm1.812-.987a.328.328 0 0 1 .368.283l.82 6.238a.328.328 0 0 1-.65.085l-.821-6.237a.328.328 0 0 1 .283-.369zm2.505 1.803c.18 0 .328.147.328.328v4.104a.328.328 0 0 1-.657 0v-4.104c0-.18.147-.328.329-.328zm2.527 4.931a.328.328 0 0 1 .257.386l-.657 3.283a.328.328 0 0 1-.644-.129l.657-3.282a.328.328 0 0 1 .386-.258zm-3.512 9.185c0-.18.147-.328.328-.328h1.806a.328.328 0 0 1 0 .657h-1.806a.328.328 0 0 1-.328-.329zm25.053 37.113a.329.329 0 0 1 .208.415l-1.806 5.417a.328.328 0 1 1-.623-.208l1.806-5.416a.328.328 0 0 1 .415-.208zm14.619-10.367a.329.329 0 0 1-.104.452c-.909.568-3.37 1.72-6.067 1.855-2.739.137-4.586-1.195-5.193-1.923a.329.329 0 0 1 .505-.42c.487.584 2.142 1.813 4.655 1.687 2.556-.127 4.91-1.23 5.752-1.756a.328.328 0 0 1 .452.105zm4.209 13.779c.1-.15.304-.191.455-.09a.564.564 0 0 1 .118.11c.028.034.056.073.085.115.057.083.124.193.2.322.153.259.349.616.576 1.044a156.02 156.02 0 0 1 1.681 3.291 575.847 575.847 0 0 1 3.691 7.559.328.328 0 1 1-.592.284 575.18 575.18 0 0 0-3.687-7.55 156.61 156.61 0 0 0-1.673-3.276 27.369 27.369 0 0 0-.562-1.02 5.858 5.858 0 0 0-.176-.283 1.449 1.449 0 0 0-.049-.067l-.001-.002a.328.328 0 0 1-.066-.437z" fill="#282516"/><path fill-rule="evenodd" clip-rule="evenodd" d="M142.28 95.954a.33.33 0 0 1 .152.44c-.914 1.883-4.37 6.205-11.007 8.86a.328.328 0 0 1-.244-.609c6.495-2.598 9.822-6.81 10.66-8.538a.328.328 0 0 1 .439-.153zm6.024 11.748a.328.328 0 0 1-.056.46l-3.776 2.955a.328.328 0 1 1-.404-.517l3.775-2.955a.33.33 0 0 1 .461.057zM118.181 71.35a.328.328 0 0 1 .105.453c-.187.298-.617.655-1.296.92-.689.268-1.652.45-2.939.382a.329.329 0 0 1 .034-.655c1.208.063 2.077-.11 2.667-.34.598-.233.89-.516.977-.655a.328.328 0 0 1 .452-.105zm3.205-1.76a.33.33 0 0 1 .465 0c.283.285 1.242.973 2.617 1.223a.329.329 0 0 1-.118.646c-1.514-.275-2.591-1.031-2.964-1.404a.329.329 0 0 1 0-.464zm1.984-3.21c1.719-.286 2.786.596 3.123 1.135a.329.329 0 0 1-.557.348c-.21-.336-1.026-1.074-2.458-.835a.329.329 0 0 1-.108-.648zm-8.636-2.252a.328.328 0 0 1 .105.452c-.302.484-1.22 1.483-2.54 1.63a.329.329 0 0 1-.073-.653c1.044-.115 1.811-.932 2.056-1.325a.328.328 0 0 1 .452-.104zm-.631-2.002a.328.328 0 0 1 .44-.147c.189.095.476.275.752.52.275.244.562.57.719.965a.327.327 0 1 1-.609.244c-.105-.263-.311-.51-.545-.718a3.077 3.077 0 0 0-.61-.424.328.328 0 0 1-.147-.44zm-4.467-1.331c0-.181.147-.328.328-.328.84 0 1.432.231 1.66.383a.329.329 0 0 1-.364.547c-.101-.067-.559-.273-1.296-.273a.328.328 0 0 1-.328-.329zm3.694.441a.328.328 0 0 1-.031.463c-.427.374-.98.946-1.279 1.454-.154.261-.209.453-.201.57a.17.17 0 0 0 .039.104.39.39 0 0 0 .18.104.328.328 0 0 1-.208.623 1.035 1.035 0 0 1-.471-.3.822.822 0 0 1-.195-.482c-.023-.323.119-.66.29-.952.352-.597.965-1.223 1.413-1.615a.328.328 0 0 1 .463.03z" fill="#282516"/><path d="M54.485 57.513c.985-.821 4.596-3.283 8.863-.657 3.94 2.462-3.775 10.013-4.596 25.278-.82 15.265-15.1 14.28-18.876 14.608-3.775.329-11.161-1.148-11.818-10.34-.525-7.354 6.128-10.505 9.52-11.162-1.75-2.134-4.005-7.813.985-13.46 4.99-5.646 11.709-3.884 14.444-2.298.165-.383.69-1.313 1.478-1.97z" fill="#282516"/><path d="M37.907 102.816c-1.839 5.777-5.034 13.021-6.402 15.921h43.826c0-.492-.132-2.298-.657-5.58-.525-3.283-1.641-6.621-2.134-7.879 1.806 1.203 6.238 4.005 9.52 5.581 4.104 1.969 7.059 2.462 9.357 1.149 2.298-1.314 4.103-5.089 7.55-19.205 3.447-14.116 4.268-21.502 3.94-25.606-.329-4.104-1.478-6.566-2.298-8.535-.657-1.576-1.368-1.423-1.642-1.15l-.656-1.313c-.493-.984-.821-1.313-1.478-1.313-.525 0-.875.547-.985.821-.273-.492-.984-1.412-1.641-1.149-.82.328-.82 1.313-.657 1.97.132.525.602 1.532.821 1.97-.438.109-1.247 1.083-.985 4.103.263 3.02 1.86 8.918 2.627 11.49l-9.685 25.278c-2.298-2.189-7.977-7.387-12.31-10.67-4.334-3.282-7.277-4.213-8.207-4.267l-1.478-10.834c1.86-.219 5.384-1.936 4.596-7.058-.788-5.12-4.158-8.59-5.745-9.684-.273.219-1.017.755-1.805 1.149s-1.751.492-2.134.492c.055 1.532-.066 4.793-.985 5.581-1.149.985-2.462.328-3.447-.328-.985-.657-4.76-.657-4.924 3.611-.132 3.414 2.9 3.94 4.432 3.775l1.149 13.788c-1.478-.164-5.286-.066-8.7 1.641-4.268 2.134-6.566 9.028-8.864 16.251z" fill="#FFFAEC"/><path d="M51.813 67.109c.426-.355 1.569-.782 3.112-.22a.328.328 0 0 1-.224.617c-1.345-.49-2.238-.085-2.468.107a.328.328 0 1 1-.42-.504zM64.32 64.48a.328.328 0 0 0-.63.18c.158.555.898 1.366 2.478 1.222a.328.328 0 0 0-.059-.654c-1.308.12-1.728-.536-1.788-.748zm.11-3.753a.328.328 0 0 1 .464 0c.366.367.879.955 1.22 1.53.168.285.31.593.357.884.047.299-.002.634-.291.865a.328.328 0 0 1-.41-.512c.039-.032.078-.088.052-.25-.027-.17-.12-.394-.273-.652-.303-.51-.775-1.055-1.12-1.4a.328.328 0 0 1 0-.465zm-.59 1.995a.328.328 0 1 0-.326-.57c-.989.565-1.396 1.318-1.472 1.698a.328.328 0 0 0 .643.128c.034-.166.305-.77 1.155-1.256z" fill="#000"/><path fill-rule="evenodd" clip-rule="evenodd" d="m99.103 57.05-.499-.997c-.247-.495-.475-.873-.75-1.122-.296-.27-.625-.373-1.02-.373-.384 0-.682.2-.884.407-.04.041-.078.084-.113.128a3.363 3.363 0 0 0-.449-.49c-.315-.277-.792-.554-1.303-.35-.535.214-.797.649-.896 1.096-.097.435-.047.9.043 1.258.116.465.466 1.248.707 1.753-.245.194-.47.526-.632.988-.246.694-.382 1.743-.248 3.281.263 3.018 1.83 8.828 2.607 11.449l-9.468 24.714c-2.491-2.351-7.844-7.22-11.982-10.354-2.183-1.654-4.022-2.72-5.44-3.38-1.072-.5-1.915-.774-2.488-.89a.33.33 0 0 0-.211-.212l-1.375-10.082c.96-.183 2.2-.702 3.163-1.743 1.09-1.179 1.796-2.992 1.389-5.64a15.31 15.31 0 0 0-1.832-5.222c.209-.02.425-.02.633.014a.328.328 0 1 0 .108-.647 3.3 3.3 0 0 0-1.105.021c-1.272-2.034-2.763-3.434-3.687-4.071a.328.328 0 0 0-.392.014c-.26.209-.985.73-1.747 1.111-.727.364-1.634.458-1.987.458a.328.328 0 0 0-.328.34c.027.754.01 1.934-.125 3.017a8.47 8.47 0 0 1-.296 1.464c-.134.425-.291.703-.45.839-.485.416-.992.485-1.505.38-.53-.11-1.06-.409-1.546-.732-.313-.209-.798-.34-1.327-.368a4.067 4.067 0 0 0-1.75.297 3.522 3.522 0 0 0-1.602 1.316c-.432.65-.712 1.51-.755 2.626-.07 1.828.717 2.928 1.756 3.527.88.507 1.915.642 2.703.612l1.09 13.077c-1.725-.11-5.272.1-8.487 1.708-2.234 1.117-3.915 3.458-5.319 6.368-1.407 2.917-2.563 6.469-3.71 10.076-1.832 5.757-5.02 12.986-6.386 15.881a.328.328 0 0 0 .297.469h43.826a.328.328 0 0 0 .328-.329c0-.519-.135-2.346-.66-5.632-.43-2.682-1.248-5.396-1.809-7.008 2.115 1.371 5.854 3.678 8.728 5.058 4.115 1.974 7.21 2.539 9.661 1.138 1.246-.712 2.308-2.069 3.486-4.963 1.18-2.897 2.497-7.39 4.221-14.45 3.447-14.117 4.281-21.548 3.948-25.71-.309-3.852-1.334-6.286-2.135-8.188l-.187-.447c-.34-.815-.727-1.269-1.14-1.444a.938.938 0 0 0-.662-.038.252.252 0 0 0-.007-.004zm-4.148-1.954c-.274-.24-.48-.291-.626-.233-.286.114-.434.336-.5.628-.066.303-.035.659.04.957.12.479.564 1.437.788 1.887 1.203 1.879 2.162 4.661 2.492 5.817a.328.328 0 0 1-.631.18c-.31-1.082-1.175-3.592-2.252-5.382-.102.109-.228.298-.34.617-.204.576-.341 1.523-.213 3.005.26 2.982 1.847 8.849 2.614 11.425.02.07.018.144-.008.211l-9.609 25.08c.786.803 1.317 1.494 1.664 2.043.363.572.54 1.013.577 1.274a.328.328 0 0 1-.65.093c-.017-.122-.135-.469-.481-1.016-.34-.535-.883-1.24-1.72-2.078a204.106 204.106 0 0 0-5.353-4.89c-4.952 4.353-5.455 9.924-5.092 12.152l.002.014c2.02 1.248 4.508 2.705 6.546 3.683 4.093 1.964 6.907 2.385 9.05 1.16 1.053-.602 2.043-1.789 3.204-4.64 1.16-2.849 2.468-7.3 4.191-14.358 3.447-14.115 4.255-21.456 3.931-25.502-.299-3.746-1.29-6.097-2.086-7.99l-.188-.445c-.303-.729-.589-.996-.766-1.082.604 1.16 1.494 3.233 1.724 5.185a.329.329 0 0 1-.652.077c-.23-1.957-1.177-4.08-1.754-5.146a.328.328 0 0 1-.183-.163l-.657-1.313c-.245-.49-.428-.769-.604-.93-.156-.14-.319-.201-.58-.201-.141 0-.281.073-.413.208a1.27 1.27 0 0 0-.136.168c.497.72 1.18 1.83 1.804 3.093.696 1.41 1.329 3.034 1.533 4.53a.328.328 0 0 1-.65.088c-.19-1.394-.789-2.944-1.472-4.327a25.228 25.228 0 0 0-1.71-2.945.328.328 0 0 1-.228-.163 3.114 3.114 0 0 0-.606-.771zM74.94 106.434c-.23-2.646.566-7.947 5.309-12.156-2.119-1.857-4.421-3.794-6.43-5.317-2.151-1.629-3.95-2.67-5.32-3.308-1.326-.618-2.23-.851-2.658-.89-3.17 2.15-6.935 2.086-10.497.63a.327.327 0 0 1-.173-.167c-1.589-.119-5.1.055-8.255 1.633-2.033 1.017-3.635 3.19-5.022 6.066-.97 2.013-1.822 4.339-2.641 6.797 2.504.224 4.576 1.457 6.15 2.91a15.145 15.145 0 0 1 3.002 3.865l2.988-6.769a.328.328 0 1 1 .6.266l-8.042 18.219a.33.33 0 0 1-.296.196H74.99c-.04-.751-.2-2.45-.641-5.201-.52-3.253-1.629-6.567-2.115-7.811a.326.326 0 0 1-.003-.231c-1.492-3.593-2.484-7.47-2.803-9.014a.328.328 0 0 1 .642-.133c.32 1.549 1.339 5.52 2.864 9.127.522.345 1.213.791 2.006 1.288zm-19.147-21.57c3.347 1.316 6.779 1.311 9.658-.63l-1.404-10.298c-.767-.015-1.486-.307-2.076-.664a6.296 6.296 0 0 1-1.502-1.269.328.328 0 1 1 .504-.42c.253.302.734.762 1.338 1.127.604.366 1.298.618 1.989.562a5.207 5.207 0 0 0 3.082-1.587c.94-1.016 1.602-2.622 1.222-5.095-.308-2-1.02-3.744-1.861-5.184a3.03 3.03 0 0 0-.458.175.328.328 0 0 1-.294-.587 3.37 3.37 0 0 1 .399-.163c-1.105-1.718-2.357-2.938-3.2-3.566-.365.27-.998.7-1.666 1.034-.669.334-1.443.469-1.944.51.013.77-.015 1.818-.138 2.799a9.109 9.109 0 0 1-.32 1.58c-.145.456-.348.881-.65 1.14-.663.568-1.387.663-2.065.523-.66-.136-1.277-.495-1.777-.828-.18-.12-.535-.234-.997-.258a3.408 3.408 0 0 0-1.465.247c-.49.204-.954.544-1.307 1.074s-.606 1.27-.645 2.288c-.061 1.586.602 2.456 1.428 2.932.852.491 1.913.58 2.634.505l.012-.002c.624-.056 1.145-.376 1.552-.777.407-.401.68-.864.8-1.156a.328.328 0 1 1 .607.253 4.434 4.434 0 0 1-.947 1.371c-.413.407-.959.775-1.63.915l1.121 13.45zm-7.731 22.411c-.523-1.113-1.579-2.754-3.104-4.161-1.537-1.418-3.53-2.581-5.918-2.751-.275.84-.548 1.693-.822 2.552-1.752 5.508-4.73 12.334-6.198 15.494h11.626a.328.328 0 0 1-.295-.461l4.71-10.673z" fill="#000"/><circle cx="60.394" cy="66.869" r="1.313" fill="#FFD832"/><circle cx="55.47" cy="45.202" r="4.924" fill="#282516"/><path d="M103.399 49.522a8.864 8.864 0 0 0 12.527-12.527l-.697.697a7.88 7.88 0 0 1-11.133 11.133l-.697.697z" fill="#fff"/><path d="M114.764 47.896a7.195 7.195 0 0 0 1.881-4.542h-6.422l4.541 4.542zm1.881-5.198a7.194 7.194 0 0 0-1.881-4.541l-4.541 4.54h6.422zm-7.543 1.121-4.541 4.541a7.192 7.192 0 0 0 4.541 1.881V43.82zm.657 6.422v-6.422l4.541 4.541a7.197 7.197 0 0 1-4.541 1.881zM21.985 19.924a3.94 3.94 0 0 1 3.94-3.94H149.03a3.94 3.94 0 0 1 3.94 3.94v10.177H21.985V19.924zm0 96.187H152.97v23.965a3.94 3.94 0 0 1-3.94 3.939H25.924a3.94 3.94 0 0 1-3.94-3.939v-23.965z" fill="#fff"/><path d="M29.864 135.203a8.864 8.864 0 0 0 12.526-12.526l-.697.697a7.879 7.879 0 0 1-11.132 11.132l-.697.697z" fill="#268059"/><path d="M41.229 133.578a7.195 7.195 0 0 0 1.88-4.542h-6.422l4.542 4.542zm1.881-5.198a7.197 7.197 0 0 0-1.881-4.542l-4.541 4.542h6.422zm-7.543 1.12-4.542 4.542a7.195 7.195 0 0 0 4.542 1.881V129.5zm.656 6.423v-6.422l4.541 4.541a7.195 7.195 0 0 1-4.54 1.881zm76.368-8.979a3.282 3.282 0 0 1 3.283-3.282h24.949a3.282 3.282 0 0 1 3.283 3.282v6.566a3.283 3.283 0 0 1-3.283 3.283h-24.949a3.283 3.283 0 0 1-3.283-3.283v-6.566z" fill="#268059"/><path d="M76 37.235A3.235 3.235 0 0 1 79.235 34h215.471a3.235 3.235 0 0 1 3.235 3.235v37.53A3.235 3.235 0 0 1 294.706 78H79.236A3.235 3.235 0 0 1 76 74.765v-37.53z" fill="#F7F7F6"/><path fill-rule="evenodd" clip-rule="evenodd" d="M267.144 74.164a.23.23 0 0 0-.018.104v2.438h-1.044v-2.438c0-.448.198-.78.478-.98a1.3 1.3 0 0 1 .74-.238h6.964c.449 0 .78.198.981.478a1.3 1.3 0 0 1 .238.74v2.438h-1.045v-2.438a.272.272 0 0 0-.01-.063.213.213 0 0 0-.031-.067.076.076 0 0 0-.028-.026.23.23 0 0 0-.105-.018H267.3a.256.256 0 0 0-.13.041.088.088 0 0 0-.026.029zM262.6 55.988h16.365v7.103c0 4.707-3.64 8.566-8.183 8.566-4.543 0-8.182-3.86-8.182-8.566v-7.103zm1.044 1.045v6.058c0 4.178 3.22 7.521 7.138 7.521 3.919 0 7.138-3.343 7.138-7.52v-6.06h-14.276z" fill="#282516"/><path fill-rule="evenodd" clip-rule="evenodd" d="M264.689 56.51v-2.437h1.044v2.438h-1.044zm11.142 0v-2.437h1.045v2.438h-1.045zm-7.834 5.05h-1.045v-1.045h1.045v1.044zm1.915 2.61v-3.48h1.044v3.482h-1.044zm3.539.747c.219-.253.291-.561.291-.746h1.044c0 .395-.137.958-.544 1.43-.424.49-1.098.833-2.067.833V65.39c.702 0 1.073-.238 1.276-.473zm1.161-3.357h-1.044v-1.045h1.044v1.044zm-13.901-3.636c.819-.413 1.777-.543 2.411-.543v1.045c-.526 0-1.31.113-1.941.431-.614.31-1.019.77-1.019 1.484s.405 1.174 1.019 1.483c.631.318 1.415.432 1.941.432V63.3c-.634 0-1.592-.13-2.411-.543-.837-.422-1.593-1.18-1.593-2.416s.756-1.995 1.593-2.417z" fill="#282516"/><path fill-rule="evenodd" clip-rule="evenodd" d="M264.531 48.973c1.274-1.709 3.278-3.082 6.251-3.082 2.973 0 4.977 1.373 6.251 3.082 1.259 1.69 1.807 3.702 1.93 5.053l.051.57H262.55l.052-.57c.123-1.351.67-3.364 1.929-5.053zm-.814 4.578h14.131c-.195-1.163-.697-2.672-1.652-3.953-1.106-1.483-2.816-2.663-5.414-2.663s-4.308 1.18-5.413 2.663c-.955 1.28-1.457 2.79-1.652 3.953z" fill="#282516"/><path fill-rule="evenodd" clip-rule="evenodd" d="M268.268 49.359c-.496-.739-.726-1.608-.79-2.192l1.038-.115c.051.46.239 1.158.619 1.725.371.552.893.944 1.647.944s1.276-.392 1.647-.944c.38-.567.568-1.265.62-1.725l1.038.115c-.065.584-.295 1.453-.791 2.192-.505.753-1.318 1.406-2.514 1.406-1.196 0-2.008-.653-2.514-1.406zm12.586 8.565c-.82-.413-1.777-.543-2.412-.543v1.045c.527 0 1.31.113 1.942.431.614.31 1.018.77 1.018 1.484s-.404 1.174-1.018 1.483c-.632.318-1.415.432-1.942.432V63.3c.635 0 1.592-.13 2.412-.543.837-.422 1.593-1.18 1.593-2.416s-.756-1.995-1.593-2.417zm-10.072-18.997a.87.87 0 1 0 0 1.74.87.87 0 0 0 0-1.74zm-1.915.87a1.915 1.915 0 1 1 3.83.001 1.915 1.915 0 0 1-3.83 0z" fill="#282516"/><path fill-rule="evenodd" clip-rule="evenodd" d="M270.26 41.931v-.741h1.045v1.348l-1.907 1.09 1.907 1.09v1.695h-1.045v-1.09l-2.968-1.696 2.968-1.696z" fill="#282516"/><path fill-rule="evenodd" clip-rule="evenodd" d="M294.706 35.294H79.236c-1.073 0-1.942.87-1.942 1.941v37.53c0 1.072.87 1.94 1.941 1.94h215.471a1.94 1.94 0 0 0 1.941-1.94v-37.53a1.941 1.941 0 0 0-1.941-1.94zM79.236 34A3.235 3.235 0 0 0 76 37.235v37.53A3.235 3.235 0 0 0 79.235 78h215.471a3.235 3.235 0 0 0 3.235-3.235v-37.53A3.235 3.235 0 0 0 294.706 34H79.236z" fill="#CFCFCA"/><path d="M92.823 50.176c0-1.072.87-1.941 1.942-1.941h11.647c1.072 0 1.941.87 1.941 1.941v11.647a1.941 1.941 0 0 1-1.941 1.941H94.764a1.941 1.941 0 0 1-1.94-1.94V50.175z" fill="#268059"/><path fill-rule="evenodd" clip-rule="evenodd" d="m105.275 54.138-5.255 5.255-3.961-3.961 1.373-1.373 2.588 2.588 3.882-3.882 1.373 1.373z" fill="#fff"/><path d="M115.548 60.498v-8.69h1.455v3.657h4.116v-3.658h1.448v8.691h-1.448v-3.67h-4.116v3.67h-1.455zm11.675.182c-.66 0-1.24-.144-1.738-.43a3.046 3.046 0 0 1-1.171-1.188c-.278-.507-.417-1.09-.417-1.75 0-.713.137-1.33.411-1.853a2.991 2.991 0 0 1 1.14-1.226c.487-.29 1.05-.434 1.69-.434.676 0 1.249.159 1.72.477.475.314.827.758 1.056 1.334.23.575.316 1.253.26 2.033h-1.443v-.53c-.004-.709-.128-1.226-.374-1.552-.245-.326-.631-.489-1.158-.489-.596 0-1.039.185-1.328.556-.29.366-.435.903-.435 1.611 0 .66.145 1.17.435 1.533.289.362.712.543 1.267.543.358 0 .666-.078.924-.235.261-.161.462-.392.603-.694l1.436.434a2.908 2.908 0 0 1-1.158 1.37 3.171 3.171 0 0 1-1.72.49zm-2.245-3.037v-1.098h4.484v1.098h-4.484zm6.663 2.855v-8.872h1.455v8.872h-1.455zm3.383 0v-8.872h1.455v8.872h-1.455zm6.141.182c-.652 0-1.221-.148-1.708-.441a3.02 3.02 0 0 1-1.134-1.213c-.266-.52-.399-1.115-.399-1.787 0-.684.137-1.283.411-1.798a3.026 3.026 0 0 1 1.14-1.208c.487-.29 1.051-.434 1.69-.434.656 0 1.227.147 1.714.44.487.294.865.7 1.135 1.22.269.515.404 1.108.404 1.78 0 .676-.137 1.274-.41 1.793a3.03 3.03 0 0 1-1.135 1.213c-.487.29-1.056.434-1.708.434zm0-1.365c.58 0 1.01-.193 1.292-.58.281-.386.422-.884.422-1.496 0-.632-.143-1.134-.428-1.509-.286-.378-.714-.567-1.286-.567-.39 0-.712.089-.965.266-.25.172-.435.416-.556.73-.12.31-.181.67-.181 1.08 0 .632.143 1.137.429 1.515.29.374.714.561 1.273.561zm6.999 1.183v-8.69h1.455v3.657h4.116v-3.658h1.448v8.691h-1.448v-3.67h-4.116v3.67h-1.455zm11.156.187c-.483 0-.882-.08-1.195-.241a2.112 2.112 0 0 1-.749-.616 2.669 2.669 0 0 1-.41-.797 4.213 4.213 0 0 1-.175-.796 6.825 6.825 0 0 1-.036-.616V53.98h1.472v3.138c0 .201.014.429.042.682.029.25.093.491.194.725.104.229.257.418.458.567.205.149.481.223.827.223.185 0 .368-.03.549-.09.181-.06.344-.163.489-.308a1.56 1.56 0 0 0 .356-.61c.089-.257.133-.583.133-.977l.863.368c0 .555-.109 1.058-.326 1.508a2.56 2.56 0 0 1-.947 1.08c-.419.266-.934.4-1.545.4zm2.13-.187v-2.022h-.175V53.98h1.461v6.518h-1.286zm10.809 0V56.54c0-.447-.111-.795-.332-1.044-.221-.254-.521-.38-.899-.38-.234 0-.443.054-.628.163a1.115 1.115 0 0 0-.441.47 1.566 1.566 0 0 0-.163.737l-.645-.38a2.233 2.233 0 0 1 .301-1.19 2.21 2.21 0 0 1 .845-.808c.354-.193.749-.29 1.183-.29.72 0 1.272.217 1.654.652.386.43.579.998.579 1.702v4.327h-1.454zm-7.84 0V53.98h1.286v2.022h.181v4.496h-1.467zm3.929 0v-3.94c0-.456-.111-.81-.332-1.063-.221-.254-.523-.38-.905-.38-.37 0-.668.126-.893.38-.222.253-.332.583-.332.99l-.652-.435c0-.422.104-.802.314-1.14.209-.338.491-.604.845-.797a2.447 2.447 0 0 1 1.201-.296c.486 0 .893.105 1.219.314.33.205.575.487.736.845.165.354.247.754.247 1.2v4.322h-1.448zm8.762.182c-.471 0-.869-.09-1.195-.266a1.877 1.877 0 0 1-.742-.719 1.996 1.996 0 0 1-.248-.983c0-.314.053-.596.157-.845a1.67 1.67 0 0 1 .483-.652c.217-.185.499-.336.845-.453.261-.084.567-.16.917-.229.354-.068.737-.13 1.147-.187.414-.06.847-.125 1.298-.193l-.519.296c.004-.451-.097-.783-.302-.996-.205-.214-.551-.32-1.038-.32-.294 0-.578.068-.851.205-.274.137-.465.372-.574.706l-1.327-.416c.161-.551.466-.994.917-1.328.455-.334 1.066-.501 1.835-.501.579 0 1.088.095 1.527.284.442.189.77.499.983.93.117.228.187.464.212.705.024.238.036.497.036.779v4.001h-1.274v-1.412l.212.23c-.294.47-.638.816-1.032 1.037-.391.218-.88.326-1.467.326zm.29-1.16c.33 0 .611-.058.845-.175.233-.116.418-.26.555-.428.141-.17.235-.328.284-.477a1.82 1.82 0 0 0 .126-.634c.012-.241.018-.436.018-.585l.447.133c-.439.068-.815.129-1.129.18a18.31 18.31 0 0 0-.808.152 5.1 5.1 0 0 0-.598.15c-.169.06-.312.131-.428.212a.941.941 0 0 0-.272.277.727.727 0 0 0-.09.369c0 .16.04.303.12.428.081.12.197.217.35.29.157.072.35.108.58.108zm9.35.978V57.36c0-.205-.014-.433-.042-.682a2.34 2.34 0 0 0-.199-.718 1.366 1.366 0 0 0-.459-.574c-.201-.149-.475-.223-.821-.223-.185 0-.368.03-.549.09-.181.06-.346.166-.495.314a1.57 1.57 0 0 0-.35.604c-.088.253-.132.58-.132.977l-.863-.368c0-.555.106-1.058.319-1.508a2.57 2.57 0 0 1 .954-1.075c.418-.27.933-.404 1.545-.404.483 0 .881.08 1.195.241.314.161.563.367.748.616.185.25.322.515.411.797.088.281.145.549.169.802.028.25.042.453.042.61v3.64h-1.473zm-4.52 0V53.98h1.298v2.022h.175v4.496h-1.473zm8.171 0v-1.334h1.455v1.334h-1.455zm0-2.173v-6.518h1.455v6.518h-1.455z" fill="#000"/></svg>