<svg width="320" height="160" fill="none" xmlns="http://www.w3.org/2000/svg"><rect width="320" height="160" rx="10" fill="#F3F8FF"/><path d="M272.58 20 252 60h15.072l6.667-10.435L272.58 20z" fill="#404040"/><path d="m273.739 49.565.29 10.435h13.913l-5.797-24.348-8.406 13.913z" fill="#40CCFF"/><path d="m274.029 60-.29-10.435L267.073 60h6.956z" fill="#01B0B3"/><path d="M140 82.388A2.388 2.388 0 0 1 142.388 80h155.224A2.388 2.388 0 0 1 300 82.388v55.403a2.388 2.388 0 0 1-2.388 2.388H142.388a2.388 2.388 0 0 1-2.388-2.388V82.388z" fill="#393B48"/><path d="M142.388 120.597c0-.527.428-.955.955-.955h153.314c.527 0 .955.428.955.955v17.194a.955.955 0 0 1-.955.955H143.343a.955.955 0 0 1-.955-.955v-17.194z" fill="#4D5057"/><path fill-rule="evenodd" clip-rule="evenodd" d="M296.657 120.119H143.343a.478.478 0 0 0-.477.478v17.194c0 .264.214.478.477.478h153.314a.478.478 0 0 0 .477-.478v-17.194a.478.478 0 0 0-.477-.478zm-153.314-.477a.956.956 0 0 0-.955.955v17.194c0 .528.428.955.955.955h153.314a.955.955 0 0 0 .955-.955v-17.194a.956.956 0 0 0-.955-.955H143.343z" fill="#9C9C9C"/><path d="M142.388 116.776V93.373h5.97c3.105 0 6.448-3.104 6.448-6.209v-4.776h141.373c.478 0 1.433.287 1.433 1.433v32.955c0 .478-.287 1.433-1.433 1.433H143.821c-.478 0-1.433-.287-1.433-1.433z" fill="url(#a)"/><path d="m287.507 129.295-2.828-3.143-2.805 3.117 1.862.026c0 2.199 1.885 3.77 4.399 3.77-2.514-1.257-2.514-3.037-2.514-3.77h1.886zm.628-.629 2.828 3.142 2.805-3.116-1.862-.026c0-2.199-1.885-3.77-4.399-3.77 2.514 1.256 2.514 3.037 2.514 3.77h-1.886z" fill="#9C9C9C"/><path d="M147.483 83.343h.318v7.005h-.318l-2.548-2.229h-.955c-.212 0-.637-.127-.637-.636v-1.274c0-.212.128-.637.637-.637h.955l2.548-2.229z" fill="#E3E1E2"/><path fill-rule="evenodd" clip-rule="evenodd" d="M148.471 84.475a.32.32 0 0 1 .428-.143c.501.25 1.449 1.088 1.449 2.514 0 1.425-.948 2.263-1.449 2.513a.32.32 0 0 1-.285-.57c.348-.173 1.097-.822 1.097-1.943 0-1.122-.749-1.77-1.097-1.944a.32.32 0 0 1-.143-.427z" fill="#E3E1E2"/><path fill-rule="evenodd" clip-rule="evenodd" d="M149.427 83.52a.318.318 0 0 1 .427-.143c.713.357 2.086 1.566 2.086 3.628 0 2.063-1.373 3.271-2.086 3.628a.318.318 0 1 1-.285-.57c.56-.28 1.734-1.3 1.734-3.058 0-1.758-1.174-2.778-1.734-3.058a.318.318 0 0 1-.142-.428z" fill="#E3E1E2"/><path d="M147.164 129.194a2.388 2.388 0 0 1 2.388-2.388h78.806a2.388 2.388 0 1 1 0 4.776h-78.806a2.388 2.388 0 0 1-2.388-2.388zm130.388-9.075h.478v18.149h-.478z" fill="#9C9C9C"/><path fill-rule="evenodd" clip-rule="evenodd" d="M168.665 87.896c0 .53.636.76 1.323 1.009.808.291 1.686.609 1.686 1.47v14.336c0 2.213-1.151 2.744-2.036 2.921-.885.177-1.593 1.593-.177 1.593h9.028c3.894 0 6.832-1.668 6.991-5.487.177-4.248-1.681-5.664-3.894-6.46 1.947-.709 3.558-4.284 2.213-7.258-1.653-3.654-4.931-3.716-9.413-3.8l-.234-.005c-4.602-.089-5.487.885-5.487 1.681zm12.744 11.86c-1.841-1.133-5.723-1.18-7.434-1.063-.088 1.534-.283 4.921-.354 6.195-.088 1.593.354 2.301 1.239 2.39.885.088 4.602.265 6.549-.885 1.947-1.151 2.301-5.222 0-6.638zm-7.345-3.187c.059-.767.141-2.725 0-4.425l-.04-.456c-.166-1.892-.287-3.26 1.19-3.26.105 0 .221-.002.346-.004 1.777-.024 5.424-.072 5.672 3.897.266 4.248-2.301 4.425-3.717 4.425-1.133 0-2.773-.118-3.451-.177z" fill="#5E7433"/><path d="M187.516 88.693c.088 1.239 2.035 1.416 2.035 2.566-.029 3.186-.035 10.231.177 12.921.266 3.363-.088 4.071-.796 4.514-.708.442-.885 1.416-.089 1.858.797.443 2.655.797 3.806 1.062 1.15.266 1.416-.442.354-1.681-1.062-1.239-1.416-3.717-1.239-5.753.177-2.035.885-2.566 4.071-1.858 3.186.708 5.133.999 5.841 2.212.619 1.062.708 3.717.973 5.841.266 2.124-.619 1.947-1.15 2.213-.531.265-.797.708.177 1.15.973.443 3.805.797 4.336.708.531-.088 1.062-.531-.177-1.327-1.239-.797-1.77-1.593-1.947-4.16-.177-2.566-2.212-11.859-2.478-13.452-.265-1.593 1.947 0 1.947-.885s-1.239-2.035-2.655-2.92c-1.416-.885-2.389-1.15-2.389-.177 0 .973 1.504 1.593 1.77 2.566.265.974.973 5.841.885 7.257-.089 1.416-3.806-.088-5.664-.796-1.487-.567-2.98-.236-3.54 0-.059-2.36-.195-7.434-.266-8.85-.088-1.77 3.009-.443 2.921-1.15-.089-.709-.974-1.682-3.098-2.302-2.124-.62-3.894-.796-3.805.443zm20.886 8.407c-.885-1.327-.177-1.947.885-1.947 6.018 0 6.372.62 6.372 1.328 0 .708-.265 3.805-.973 6.283s-1.859 5.045-3.275 7.523c-1.416 2.478-.619 3.54 2.036 3.983 2.655.442 6.726.265 9.823-.266 3.098-.531 4.425-2.301 4.16-3.982-.266-1.682-2.478-2.39-3.894-1.859-1.416.531.885 2.832-1.328 4.071-2.212 1.239-6.814.885-8.407.531s.177-1.681 1.593-4.602c1.416-2.921 2.035-10.62 2.389-12.39.354-1.77.089-2.655-1.062-2.832-1.15-.177-6.637-.354-8.938-.443-2.302-.088-2.302 1.682-1.859 4.602.442 2.921 1.416 3.629 2.478 3.54 1.062-.088.885-2.212 0-3.54zm21.24-6.372c-2.124 1.593-3.186 3.275-2.478 3.983.236.147.938.318 1.859-.177 1.15-.62 1.416-.443 1.947.62.531 1.061 2.389 3.45 4.248 5.486 1.858 2.036 2.92 3.275 2.92 5.133 0 1.859-1.15 3.806-2.92 3.363-1.77-.442-1.859-2.212-1.859-3.628s-.531-1.505-1.858 0c-1.328 1.504-1.859 2.301-.531 4.071 1.327 1.77 4.779 2.655 7.168.885 2.39-1.77 2.832-5.576 1.151-7.611-1.682-2.036-5.664-7.257-6.638-8.496-.973-1.24-.088-1.77.708-2.655.797-.885 1.416-2.124 1.062-2.567-.354-.442-2.655 0-4.779 1.593z" fill="#5E7433"/><ellipse cx="209.97" cy="94.806" rx="14.09" ry="8.597" fill="#28291E"/><mask id="b" style="mask-type:alpha" maskUnits="userSpaceOnUse" x="195" y="86" width="30" height="18"><ellipse cx="209.97" cy="94.806" rx="14.09" ry="8.597" fill="#D9D9D9"/></mask><g mask="url(#b)" fill="#6FDEEF"><path d="M187.516 88.693c.088 1.239 2.035 1.416 2.035 2.566-.029 3.186-.035 10.231.177 12.921.266 3.363-.088 4.071-.796 4.514-.708.442-.885 1.416-.089 1.858.797.443 2.655.797 3.806 1.062 1.15.266 1.416-.442.354-1.681-1.062-1.239-1.416-3.717-1.239-5.753.177-2.035.885-2.566 4.071-1.858 3.186.708 5.133.999 5.841 2.212.619 1.062.708 3.717.973 5.841.266 2.124-.619 1.947-1.15 2.213-.531.265-.797.708.177 1.15.973.443 3.805.797 4.336.708.531-.088 1.062-.531-.177-1.327-1.239-.797-1.77-1.593-1.947-4.16-.177-2.566-2.212-11.859-2.478-13.452-.265-1.593 1.947 0 1.947-.885s-1.239-2.035-2.655-2.92c-1.416-.885-2.389-1.15-2.389-.177 0 .973 1.504 1.593 1.77 2.566.265.974.973 5.841.885 7.257-.089 1.416-3.806-.088-5.664-.796-1.487-.567-2.98-.236-3.54 0-.059-2.36-.195-7.434-.266-8.85-.088-1.77 3.009-.443 2.921-1.15-.089-.709-.974-1.682-3.098-2.302-2.124-.62-3.894-.796-3.805.443zm20.886 8.407c-.885-1.327-.177-1.947.885-1.947 6.018 0 6.372.62 6.372 1.328 0 .708-.265 3.805-.973 6.283s-1.859 5.045-3.275 7.523c-1.416 2.478-.619 3.54 2.036 3.983 2.655.442 6.726.265 9.823-.266 3.098-.531 4.425-2.301 4.16-3.982-.266-1.682-2.478-2.39-3.894-1.859-1.416.531.885 2.832-1.328 4.071-2.212 1.239-6.814.885-8.407.531s.177-1.681 1.593-4.602c1.416-2.921 2.035-10.62 2.389-12.39.354-1.77.089-2.655-1.062-2.832-1.15-.177-6.637-.354-8.938-.443-2.302-.088-2.302 1.682-1.859 4.602.442 2.921 1.416 3.629 2.478 3.54 1.062-.088.885-2.212 0-3.54z"/></g><path d="M20 22.985A2.985 2.985 0 0 1 22.985 20h194.03A2.985 2.985 0 0 1 220 22.985V92.24a2.985 2.985 0 0 1-2.985 2.985H22.985A2.985 2.985 0 0 1 20 92.239V22.985z" fill="#fff"/><path fill-rule="evenodd" clip-rule="evenodd" d="M215.821 70.15H24.179a.597.597 0 0 0-.597.596V92.24c0 .33.267.597.597.597h191.642c.33 0 .597-.267.597-.597V70.746a.597.597 0 0 0-.597-.597zm-191.642-.598c-.66 0-1.194.535-1.194 1.194V92.24c0 .66.535 1.194 1.194 1.194h191.642c.659 0 1.194-.535 1.194-1.194V70.746c0-.66-.535-1.194-1.194-1.194H24.179z" fill="#9C9C9C"/><path fill="#9C9C9C" d="M191.94 70.149h.597v22.687h-.597z"/><path d="M22.985 65.97V36.716h7.463c3.88 0 8.06-3.88 8.06-7.76v-5.97h176.716c.597 0 1.791.357 1.791 1.79V65.97c0 .597-.358 1.791-1.791 1.791H24.776c-.597 0-1.79-.358-1.79-1.79z" fill="url(#c)"/><path d="M62.09 36.717V34.03h22.388v2.687L67.463 56.418h17.015v2.687H61.194V55.82L77.91 36.717H62.09z" fill="url(#d)"/><path d="M92.239 36.12h-5.373l11.343 16.417v8.06h4.776v-8.06l11.343-16.418h-5.373l-8.656 11.94-8.06-11.94z" fill="url(#e)"/><path fill-rule="evenodd" clip-rule="evenodd" d="M119.702 57.015V32.239h14.925c5.373 0 8.955 4.477 8.955 8.955 0 4.776-3.582 7.164-5.373 7.761l5.373 8.06h-5.97l-5.075-7.164h-8.059v7.164h-4.776zm4.776-9.85V34.626h8.656c2.687 0 5.075 2.388 5.075 6.268 0 3.881-2.687 6.27-5.075 6.27h-8.656z" fill="url(#f)"/><path d="M153.134 37.015h-5.074v25.373h20.298v-2.985h-15.224V37.015z" fill="url(#g)"/><ellipse cx="114.627" cy="42.09" rx="18.806" ry="13.134" fill="#C2D3C9"/><mask id="h" style="mask-type:alpha" maskUnits="userSpaceOnUse" x="95" y="28" width="39" height="28"><ellipse cx="114.627" cy="42.09" rx="18.806" ry="13.134" fill="#C2D3C9"/></mask><g mask="url(#h)" fill="#503627"><path d="M92.239 36.12h-5.373l11.343 16.417v8.06h4.776v-8.06l11.343-16.418h-5.373l-8.656 11.94-8.06-11.94z"/><path fill-rule="evenodd" clip-rule="evenodd" d="M119.702 57.015V32.239h14.925c5.373 0 8.955 4.477 8.955 8.955 0 4.776-3.582 7.164-5.373 7.761l5.373 8.06h-5.97l-5.075-7.164h-8.059v7.164h-4.776zm4.776-9.85V34.626h8.656c2.687 0 5.075 2.388 5.075 6.268 0 3.881-2.687 6.27-5.075 6.27h-8.656z"/></g><path d="m203.786 81.618-3.535-3.927-3.505 3.895 2.327.032c0 2.75 2.357 4.714 5.499 4.714-3.142-1.572-3.142-3.797-3.142-4.714h2.356zm.786-.785 3.535 3.927 3.506-3.895-2.328-.032c0-2.75-2.356-4.714-5.499-4.714 3.143 1.572 3.143 3.797 3.143 4.714h-2.357zM29.353 24.18h.398v8.755h-.398L26.17 30.15h-1.194c-.265 0-.796-.159-.796-.796v-1.592c0-.265.16-.796.796-.796h1.194l3.184-2.786z" fill="#373737"/><path fill-rule="evenodd" clip-rule="evenodd" d="M30.59 25.593a.398.398 0 0 1 .533-.178c.627.313 1.812 1.36 1.812 3.142 0 1.782-1.185 2.83-1.812 3.142a.398.398 0 0 1-.356-.712c.435-.217 1.372-1.028 1.372-2.43 0-1.402-.937-2.212-1.372-2.43a.398.398 0 0 1-.178-.534z" fill="#373737"/><path fill-rule="evenodd" clip-rule="evenodd" d="M31.783 24.4a.398.398 0 0 1 .534-.179c.892.446 2.608 1.957 2.608 4.535 0 2.578-1.716 4.09-2.608 4.535a.398.398 0 0 1-.356-.712c.7-.35 2.168-1.625 2.168-3.823s-1.467-3.473-2.168-3.823a.398.398 0 0 1-.178-.534z" fill="#373737"/><path d="M28.955 81.493a2.985 2.985 0 0 1 2.985-2.986h98.508a2.985 2.985 0 0 1 0 5.97H31.94a2.985 2.985 0 0 1-2.985-2.984z" fill="#9C9C9C"/><defs><linearGradient id="a" x1="284.116" y1="84.947" x2="274.386" y2="136.374" gradientUnits="userSpaceOnUse"><stop stop-color="#DC7B78"/><stop offset="1" stop-color="#FFEFD7"/></linearGradient><linearGradient id="c" x1="200.145" y1="26.183" x2="187.982" y2="90.467" gradientUnits="userSpaceOnUse"><stop stop-color="#050C1C"/><stop offset="1" stop-color="#691B59"/></linearGradient><linearGradient id="d" x1="82.388" y1="35.821" x2="63.88" y2="56.717" gradientUnits="userSpaceOnUse"><stop stop-color="#6559A7"/><stop offset="1" stop-color="#BF48A4"/></linearGradient><linearGradient id="e" x1="111.864" y1="37.868" x2="94.507" y2="61.545" gradientUnits="userSpaceOnUse"><stop stop-color="#6559A7"/><stop offset="1" stop-color="#BF48A4"/></linearGradient><linearGradient id="f" x1="141.439" y1="34.008" x2="123.246" y2="55.329" gradientUnits="userSpaceOnUse"><stop stop-color="#6559A7"/><stop offset="1" stop-color="#BF48A4"/></linearGradient><linearGradient id="g" x1="166.537" y1="38.827" x2="147.678" y2="57.171" gradientUnits="userSpaceOnUse"><stop stop-color="#6559A7"/><stop offset="1" stop-color="#BF48A4"/></linearGradient></defs></svg>