<svg width="320" height="160" fill="none" xmlns="http://www.w3.org/2000/svg"><rect width="320" height="160" rx="10" fill="#F3F8FF"/><rect x="38" y="98" width="244" height="44" rx="7" fill="#DCE1EB"/><rect x="40" y="100" width="198" height="40" rx="5" fill="#fff"/><rect x="240" y="100" width="40" height="40" rx="5" fill="#30BCA1"/><path fill-rule="evenodd" clip-rule="evenodd" d="M269.676 113.263a1 1 0 0 1 .061 1.413l-11 12a1 1 0 0 1-1.444.031l-7-7a.999.999 0 1 1 1.414-1.414l6.262 6.261 10.294-11.23a1 1 0 0 1 1.413-.061z" fill="#fff"/><path d="m54.404 127-3.978-14.545h1.79l3.04 11.846h.142l3.096-11.846h1.99l3.096 11.846h.142l3.04-11.846h1.79L64.573 127h-1.818l-3.21-11.591h-.114L56.222 127h-1.819zm20.716-14.744a5.182 5.182 0 0 1 1.79.341c.597.222 1.142.591 1.634 1.108.493.511.888 1.209 1.186 2.095.298.885.448 1.995.448 3.331 0 1.292-.123 2.441-.37 3.444-.241.999-.592 1.842-1.05 2.529-.455.686-1.01 1.207-1.663 1.562-.648.355-1.382.533-2.201.533-.815 0-1.542-.161-2.18-.483a4.28 4.28 0 0 1-1.563-1.357c-.403-.582-.66-1.257-.774-2.024h1.733c.156.668.466 1.219.93 1.655.469.431 1.087.646 1.854.646 1.122 0 2.007-.49 2.656-1.47.653-.98.98-2.365.98-4.155h-.114c-.265.398-.58.741-.944 1.03-.365.289-.77.512-1.215.668a4.263 4.263 0 0 1-1.42.234 4.421 4.421 0 0 1-2.294-.618 4.685 4.685 0 0 1-1.662-1.711c-.412-.729-.618-1.563-.618-2.5 0-.89.199-1.705.596-2.444a4.613 4.613 0 0 1 1.69-1.775c.73-.44 1.587-.653 2.572-.639zm0 1.562c-.596 0-1.133.149-1.611.448-.474.293-.85.691-1.13 1.193a3.365 3.365 0 0 0-.412 1.655c0 .606.133 1.157.398 1.655.27.492.637.885 1.101 1.178a2.983 2.983 0 0 0 1.598.434c.45 0 .869-.088 1.257-.263.388-.18.727-.424 1.016-.732a3.54 3.54 0 0 0 .689-1.058c.165-.398.248-.812.248-1.243a3.25 3.25 0 0 0-.412-1.598 3.27 3.27 0 0 0-1.122-1.207 2.904 2.904 0 0 0-1.62-.462zM83.226 127v-14.545h1.762v6.477h7.755v-6.477h1.762V127h-1.762v-6.506h-7.755V127h-1.762zm17.021-19.233v23.921h-1.42v-23.921h1.42z" fill="#656C79"/><rect x="38" y="17" width="244" height="76" rx="7" fill="#DCE1EB"/><rect x="40" y="19" width="240" height="72" rx="5" fill="#fff"/><path d="m210.059 29.546-1.103-.192 2.119 36.51 9.347 2.28-.725-11.74 2.458-1.433 12.36 16.8 12.352 2.733-16.796-24.48L250 38.586l-15.086-3.51-15.877 10.487-.505-14.009-6.723-1.81.134 1.452 5.317 1.493.257 15.479 17.912-11.658 10.445 2.821-17.972 10.41 15.527 22.385-8.096-1.678-12.696-17.374-4.263 2.522.053 10.59-6.116-1.56-2.252-35.08z" fill="#8F0802"/><path d="m214.167 62.596-1.764-28.677 2.771.88.846 17.12 19.906-12.583L239 40.34l-14.136 8.497 14.149 19.983-3.074-1.006-12.917-17.99-6.799 4.098.181 9.509-2.237-.836zM180.375 42.55l29.862 1.48-.018 1.39-28.567-1.47.166 16.664c3.238.142 10.566.496 13.978.784 4.264.36 6.824 2.813 6.563 5.326-.262 2.512-3.68 4.51-8.665 3.94-3.989-.457-9.918-2.313-12.384-3.184l-.499 6.17c1.91.95 7.41 2.955 14.134 3.381 8.405.533 15.82-3.087 15.979-9.485.159-6.398-7.672-10.936-12.391-11.484a307.938 307.938 0 0 0-8.451-.862l-.235-5.338 19.423 1.193-.025-4.028 1.103.193.31 5.543-19.534-1.501.157 2.597c.622.053 2.977.302 7.421.876 5.556.718 14.076 5.016 13.398 13.21-.678 8.192-10.809 10.567-17.435 10.107-5.3-.369-12.364-2.768-15.233-3.922l.494-8.705c2.806 1.098 9.393 3.418 13.289 3.906 4.871.61 7.674-.942 7.926-2.76.252-1.818-2.62-3.7-5.589-4.05-2.374-.28-10.942-.726-14.929-.914l-.248-19.056z" fill="#8F0802"/><path d="m206.898 48.767.05-.94-23.039-1.548-.001 11.878c2.78.185 9.344.69 13.362 1.228 5.022.673 7.151 4.083 7.216 7.866.066 3.783-4.161 6.408-10.254 5.993-4.874-.333-9.481-1.696-11.175-2.336l-.165.98c2.201.733 7.898 2.278 13.077 2.596 6.475.398 13.109-2.72 12.758-8.018-.351-5.298-6.302-7.838-10.754-8.363-3.562-.42-8.261-.814-10.164-.958l-.527-9.389 19.616 1.011zm-65.756-16.621 6.971.34 2.55.266 2.085 12.65 13.532-.099L164.7 31.9l7.32-.127.276 2.21-6.364-.09 1.773 13.22-16.197-.125-1.929-12.936-6.975.007 4.939 33.568 7.274.465-1.796-14.366 15.775.388 2.2 15.494 7.812.163-4.996-38.046 1.525-.07 5.429 39.971-11.047-.535-2.278-15.352-12.953-.448 1.681 14.406-9.939-.69-5.088-36.86z" fill="#8F0802"/><path d="m144.861 36.387 2.973.002 2.273 12.816 20.461.486-1.538-13.648 3.313.23 4.167 31.415-3.732-.315-2.43-15.414-20.153-.708 1.984 14.53-2.968-.35-4.35-29.044zm-13.763 36.506c-4.19.997-6.46-1.44-7.623-2.881l-1.223.195c2.603 5.09 9.746 4.726 12.858 1.98 2.59-2.285 2.741-5.682 2.493-7.095-.987.613-4.867 3.225-9.079 3.508-3.281.22-10.598-.692-14.922-7.374-4.932-7.624-.831-14.818 4.342-17.426 5.173-2.609 9.911-2.99 14.772-1.685 4.862 1.305 9.605 6.239 11.175 14.214 1.569 7.976.675 15.449-2.688 19.157-3.363 3.708-11.099 6.517-17.546 4.034-5.158-1.986-6.83-5.348-7.795-7.318l4.925-.678-.331-.922-6.143.525c2.381 8.103 11.347 12.127 20.5 9.236 10.678-3.372 12.596-13.15 10.226-24.434-2.369-11.283-8.983-15.669-16.413-15.85-7.429-.18-15.024 3.503-17.494 8.86-2.471 5.358-.153 11.817 2.853 15.152 2.789 3.095 6.452 5.018 11.856 5.674 4.663.565 8.534-1.665 10.398-2.353.032 1.411-.95 4.483-5.141 5.48z" fill="#8F0802"/><path d="m119.69 73.867 2.527-.88c1.101 1.27 4.273 3.77 8.147 3.62 4.843-.186 8.39-3.266 9.399-7.654.808-3.51.062-7.748-.411-9.429l-2.508 2.373c.404-.794 1.262-2.746 1.464-4.2.252-1.818-.02-7.258-4.864-9.954-4.844-2.695-11.065-2.028-14.427 1.565-3.363 3.592-2.276 10.94 3.211 13.988 4.389 2.439 10.057 1.38 12.342.546-1.078.837-4.499 2.443-9.557 2.175-6.323-.336-11.089-6.056-11.215-11.087-.125-5.03 3.99-10.845 13.782-10.565 9.792.28 14.403 9.17 15.65 15.885 1.247 6.715-.883 15.183-10.513 17.153-7.704 1.576-11.895-1.7-13.027-3.536z" fill="#8F0802"/><path d="M128.744 48.688c4.981.918 7.224 4.288 7.22 7.518l-.946-.477c-.39-1.325-1.935-4.24-5.001-5.293-3.832-1.318-7.738.042-8.729 3.04-.992 2.997 1.329 6.225 5.015 7.133 2.948.726 6.5-.61 7.907-1.37l.799.068c-1.349 1.161-5.02 3.293-8.913 2.527-4.866-.958-6.875-4.756-6.531-7.759.343-3.002 4.198-6.305 9.179-5.387zM71.748 37 70 37.378l.074.205 18.598 40.113 8.355-.949-.714-19.356 7.248 17.773 8.043-1.417L110.618 29l-8.686 1.641.787 22.79-8.407-21.405-6.478 1.333.088 21.65-8.352-19.233-6.846 1.115.589.833 4.803-.75L89.742 62.1l-.896-27.941 4.215-.776L104.3 60.261l-1.228-28.864 5.871-1.006.655 42.21-4.933.794-10.043-23.14.62 25.153-5.392.725L71.748 37z" fill="#8F0802"/><path d="m74.987 39.563 2.043-.366 15.066 32.694-1.558-34.63 1.915-.32 14.256 32.86-1.502-37.302 1.822-.173.857 39.14-2.079.264-13.392-30.856 1.116 32.593-2.632.34-15.912-34.244z" fill="#8F0802"/></svg>