<svg width="320" height="160" fill="none" xmlns="http://www.w3.org/2000/svg"><rect width="320" height="160" rx="10" fill="#F3F8FF"/><path d="M195.808 112.448a7.163 7.163 0 0 1 7.163 7.164h2.448c0-5.309-4.303-9.612-9.611-9.612v2.448z" fill="#1D1D1B"/><path d="M192.599 115.658a7.164 7.164 0 0 1 7.162 7.163h2.449a9.61 9.61 0 0 0-9.611-9.611v2.448zM199.611 128.544a7.167 7.167 0 0 1-7.163-7.163H190a9.611 9.611 0 0 0 9.611 9.611v-2.448z" fill="#1D1D1B"/><path d="M202.819 125.336a7.165 7.165 0 0 1-7.163-7.164h-2.448c0 5.309 4.303 9.612 9.611 9.612v-2.448zM221.37 121.772c-.885.739-2.15 1.108-3.794 1.108h-3.151v5.44h-3.138v-15.127h6.496c1.498 0 2.691.39 3.581 1.17.89.78 1.336 1.987 1.336 3.623-.001 1.785-.444 3.047-1.33 3.786zm-2.414-5.449c-.4-.335-.961-.503-1.683-.504h-2.846v4.454h2.848c.722 0 1.282-.181 1.683-.544.4-.362.6-.937.6-1.724 0-.786-.201-1.347-.602-1.682zM230.237 116.871c.038.004.122.01.252.016v2.997a7.765 7.765 0 0 0-.842-.052c-1.176 0-1.967.383-2.37 1.15-.227.431-.34 1.094-.34 1.99v5.348h-2.944v-11.187h2.791v1.948c.453-.745.846-1.255 1.18-1.529.548-.458 1.259-.687 2.133-.687.058.002.103.003.14.006zM240.901 126.951c-.944 1.165-2.378 1.748-4.3 1.748-1.923 0-3.356-.583-4.3-1.748-.946-1.166-1.419-2.569-1.419-4.209 0-1.613.473-3.011 1.417-4.194.944-1.183 2.378-1.774 4.3-1.774 1.922 0 3.355.591 4.3 1.774.944 1.183 1.416 2.581 1.416 4.194.001 1.64-.47 3.043-1.414 4.209zm-2.34-1.615c.458-.608.687-1.473.688-2.593 0-1.121-.229-1.983-.688-2.588-.459-.604-1.115-.907-1.97-.907s-1.514.302-1.975.906c-.462.605-.693 1.468-.693 2.588s.231 1.984.693 2.594c.461.607 1.12.911 1.975.911.856 0 1.512-.304 1.97-.911zM246.048 124.748c.062.52.196.89.402 1.109.365.389 1.039.584 2.022.584.577 0 1.036-.085 1.376-.256.341-.171.511-.428.511-.77a.83.83 0 0 0-.411-.749c-.275-.171-1.295-.465-3.061-.882-1.271-.315-2.166-.708-2.686-1.181-.52-.465-.78-1.136-.78-2.012 0-1.034.406-1.922 1.219-2.663.812-.741 1.956-1.112 3.43-1.115 1.398 0 2.538.279 3.419.837.882.557 1.387 1.52 1.517 2.889h-2.925c-.041-.377-.147-.674-.319-.893-.323-.397-.872-.595-1.648-.596-.638 0-1.093.099-1.364.298-.271.198-.406.431-.406.698 0 .335.145.578.432.727.288.158 1.306.429 3.055.811 1.163.274 2.037.688 2.62 1.242.575.561.862 1.262.862 2.104 0 1.108-.413 2.013-1.239 2.715-.826.701-2.103 1.052-3.83 1.052-1.762 0-3.063-.372-3.902-1.115-.84-.744-1.26-1.69-1.261-2.838l2.967.004zM264.168 126.951c-.945 1.165-2.378 1.748-4.301 1.748-1.922 0-3.356-.583-4.3-1.748-.944-1.166-1.416-2.569-1.416-4.209 0-1.613.472-3.011 1.416-4.194.944-1.183 2.378-1.774 4.3-1.774 1.923 0 3.356.591 4.301 1.774.944 1.183 1.416 2.581 1.416 4.194 0 1.64-.472 3.043-1.416 4.209zm-2.341-1.615c.459-.608.688-1.473.688-2.593 0-1.121-.229-1.983-.688-2.588-.458-.604-1.115-.907-1.97-.907s-1.514.302-1.976.907c-.461.605-.692 1.468-.692 2.588s.231 1.984.692 2.593c.463.607 1.121.911 1.976.911s1.512-.304 1.97-.911zM276.153 118.334c.913.965 1.369 2.381 1.369 4.249 0 1.971-.446 3.473-1.338 4.505-.891 1.032-2.039 1.549-3.445 1.552-.895 0-1.638-.223-2.23-.668-.323-.246-.64-.605-.95-1.077v5.829h-2.897v-15.591h2.802v1.653c.317-.485.654-.868 1.013-1.15.653-.499 1.432-.748 2.334-.749 1.316 0 2.43.482 3.342 1.447zm-2.245 2.104c-.397-.663-1.042-.995-1.933-.996-1.072 0-1.808.503-2.208 1.509-.208.533-.312 1.211-.311 2.032 0 1.3.348 2.213 1.046 2.74.414.308.905.462 1.472.462.823 0 1.45-.315 1.883-.945.432-.629.648-1.467.648-2.514 0-.862-.199-1.624-.597-2.287v-.001zM288.583 126.951c-.943 1.165-2.377 1.748-4.3 1.748-1.922 0-3.356-.583-4.299-1.748-.945-1.166-1.417-2.569-1.417-4.209 0-1.613.472-3.011 1.417-4.194.944-1.183 2.377-1.774 4.299-1.774 1.923 0 3.357.591 4.3 1.774.944 1.183 1.416 2.581 1.417 4.194 0 1.64-.472 3.043-1.417 4.209zm-2.339-1.615c.458-.608.687-1.473.687-2.593 0-1.121-.229-1.983-.687-2.588-.459-.604-1.116-.907-1.971-.907s-1.514.302-1.975.907c-.462.605-.693 1.468-.693 2.588-.001 1.12.23 1.984.693 2.593.462.607 1.12.911 1.975.911s1.512-.304 1.971-.911z" fill="#1D1D1B"/><path fill="#D2DFF1" d="M37 140h85.714V20H37z"/><path fill="#fff" d="M38.224 138.775h83.265V38.367H38.225z"/><path d="M94.551 40.816h24.49v24.49h-24.49v-24.49zM67.612 40.816h24.49v24.49h-24.49v-24.49zM40.673 40.816h24.49v24.49h-24.49v-24.49zM94.551 67.755h24.49v24.49h-24.49v-24.49zM67.612 67.755h24.49v24.49h-24.49v-24.49zM40.673 67.755h24.49v24.49h-24.49v-24.49zM94.551 94.694h24.49v24.49h-24.49v-24.49zM67.612 94.694h24.49v24.49h-24.49v-24.49zM40.673 94.694h24.49v24.49h-24.49v-24.49z" fill="#D2DFF1"/><path fill="#3079D7" d="M38.224 21.225h83.265v17.143H38.224z"/><path d="M43.122 29.796a2.45 2.45 0 0 1 2.45-2.45h50.203a2.45 2.45 0 0 1 0 4.899H45.571a2.45 2.45 0 0 1-2.449-2.45z" fill="#fff"/><path d="M43.122 128.979a2.449 2.449 0 0 1 2.45-2.448h11.02a2.448 2.448 0 1 1 0 4.897h-11.02a2.449 2.449 0 0 1-2.45-2.449zM100.673 126.531a2.45 2.45 0 0 1 2.449-2.449h11.021a2.45 2.45 0 0 1 2.449 2.449v4.897a2.45 2.45 0 0 1-2.449 2.449h-11.021a2.45 2.45 0 0 1-2.449-2.449v-4.897z" fill="#3079D7"/><path d="M109 33.375c0-1.864 1.527-3.375 3.41-3.375h174.586c1.884 0 3.41 1.511 3.41 3.375v47.25c0 1.864-1.526 3.375-3.41 3.375H112.41c-1.883 0-3.41-1.511-3.41-3.375v-47.25z" fill="#303030"/><path d="M265.335 47.296c2.287 0 4.481.91 6.098 2.53a8.646 8.646 0 0 1 2.526 6.108h2.947c0-6.401-5.18-11.59-11.571-11.59v2.952z" fill="#fff"/><path d="M261.472 51.166a8.61 8.61 0 0 1 6.097 2.53 8.646 8.646 0 0 1 2.526 6.107h2.947c0-6.4-5.179-11.59-11.57-11.59v2.953zM269.914 66.704c-2.287 0-4.48-.91-6.097-2.53a8.645 8.645 0 0 1-2.526-6.107h-2.947c0 6.4 5.18 11.59 11.57 11.59v-2.953z" fill="#fff"/><path d="M273.776 62.836a8.611 8.611 0 0 1-6.097-2.53 8.647 8.647 0 0 1-2.526-6.108h-2.948c0 6.4 5.181 11.59 11.571 11.59v-2.952z" fill="#fff"/><path d="M123.344 48.563a2.531 2.531 0 0 1 2.531-2.532h16.875a2.531 2.531 0 0 1 2.531 2.532v16.874a2.531 2.531 0 0 1-2.531 2.532h-16.875a2.531 2.531 0 0 1-2.531-2.531V48.561z" fill="#3079D7"/><path d="M157.465 62.062V51.127h1.116v10.935h-1.116zM166.245 62.29c-.618 0-1.137-.111-1.557-.334a2.27 2.27 0 0 1-.934-.888 2.42 2.42 0 0 1-.311-1.208c0-.445.088-.825.265-1.139.183-.319.428-.58.737-.782a3.703 3.703 0 0 1 1.086-.463c.415-.101.873-.19 1.374-.266.507-.081 1-.15 1.481-.205.486-.06.911-.119 1.276-.175l-.395.243c.015-.81-.142-1.41-.471-1.8-.329-.39-.901-.584-1.716-.584-.562 0-1.038.127-1.428.38-.384.253-.655.653-.812 1.2l-1.086-.32c.187-.734.564-1.303 1.131-1.708.567-.405 1.304-.608 2.21-.608.75 0 1.385.142 1.906.426.527.278.899.683 1.117 1.215.101.238.167.503.197.797.03.294.046.592.046.896v5.095h-.995v-2.057l.288.121c-.278.704-.711 1.24-1.298 1.61-.587.37-1.291.554-2.111.554zm.129-.964c.521 0 .977-.094 1.367-.281.39-.187.703-.443.941-.767.238-.33.393-.699.464-1.109.06-.263.093-.552.098-.865.005-.32.008-.557.008-.714l.425.22c-.38.05-.792.101-1.238.152-.44.05-.875.109-1.306.174-.425.066-.81.145-1.154.236-.233.066-.458.16-.676.28a1.56 1.56 0 0 0-.539.472c-.137.197-.205.443-.205.736 0 .238.058.468.175.691.121.223.313.408.577.555.268.146.622.22 1.063.22zM182.118 62.062l.008-5.383c0-.633-.177-1.13-.532-1.489-.349-.364-.795-.547-1.336-.547-.309 0-.61.071-.904.213-.294.142-.537.37-.729.683-.187.314-.281.724-.281 1.23l-.661-.19c-.015-.587.099-1.1.342-1.54.248-.441.587-.783 1.018-1.026a2.92 2.92 0 0 1 1.473-.372c.825 0 1.486.256 1.982.767.496.506.744 1.192.744 2.058l-.008 5.596h-1.116zm-9.788 0v-8.2h1.002v2.02h.122v6.18h-1.124zm4.905 0 .008-5.308c0-.653-.175-1.166-.524-1.541-.344-.38-.8-.57-1.367-.57s-1.025.195-1.374.585c-.35.385-.524.899-.524 1.542l-.669-.365c0-.526.125-.997.373-1.412.248-.42.587-.75 1.017-.988.43-.242.919-.364 1.466-.364.521 0 .984.111 1.389.334.41.223.732.547.965.972.233.425.349.942.349 1.55l-.007 5.565h-1.102zM194.175 62.062v-4.184c0-.455-.043-.873-.129-1.253a2.896 2.896 0 0 0-.418-1.002 1.907 1.907 0 0 0-.737-.668c-.298-.157-.663-.236-1.093-.236a2.53 2.53 0 0 0-1.048.205 2.056 2.056 0 0 0-.759.593 2.659 2.659 0 0 0-.464.926c-.106.365-.159.78-.159 1.245l-.79-.174c0-.84.147-1.547.441-2.119.293-.572.698-1.005 1.215-1.298.516-.294 1.108-.44 1.777-.44.491 0 .918.075 1.283.227.37.152.681.357.934.615.258.258.466.554.623.889.157.329.271.68.341 1.055.071.37.107.74.107 1.109v4.51h-1.124zm-5.931 0V51.127h1.01v6.174h.114v4.761h-1.124zM200.405 62.267c-.491 0-.921-.076-1.29-.227a2.85 2.85 0 0 1-.934-.615 3.229 3.229 0 0 1-.616-.881 4.44 4.44 0 0 1-.341-1.056 5.986 5.986 0 0 1-.107-1.116v-4.51h1.124v4.183c0 .45.043.869.129 1.253.086.385.223.722.41 1.01.193.284.438.504.737.66.304.158.671.236 1.101.236.395 0 .742-.068 1.04-.205.304-.136.557-.331.76-.584.207-.259.364-.57.471-.934.106-.37.159-.785.159-1.246l.79.175c0 .84-.147 1.546-.441 2.119-.293.572-.698 1.004-1.215 1.298-.516.294-1.108.44-1.777.44zm2.757-.205v-2.02h-.114v-6.18h1.116v8.2h-1.002zM216.068 62.062l.007-5.383c0-.633-.177-1.13-.531-1.489-.35-.364-.795-.547-1.337-.547-.309 0-.61.071-.904.213a1.75 1.75 0 0 0-.729.683c-.187.314-.28.724-.28 1.23l-.661-.19c-.015-.587.099-1.1.342-1.54.248-.441.587-.783 1.017-1.026a2.925 2.925 0 0 1 1.473-.372c.826 0 1.486.256 1.982.767.496.506.744 1.192.744 2.058l-.007 5.596h-1.116zm-9.789 0v-8.2h1.003v2.02h.121v6.18h-1.124zm4.906 0 .007-5.308c0-.653-.174-1.166-.524-1.541-.344-.38-.799-.57-1.366-.57-.567 0-1.026.195-1.375.585-.349.385-.524.899-.524 1.542l-.668-.365a2.7 2.7 0 0 1 .372-1.412c.248-.42.587-.75 1.018-.988.43-.242.918-.364 1.465-.364.522 0 .985.111 1.39.334.41.223.731.547.964.972.233.425.35.942.35 1.55l-.008 5.565h-1.101zM221.507 62.29c-.618 0-1.136-.111-1.557-.334a2.27 2.27 0 0 1-.934-.888 2.43 2.43 0 0 1-.311-1.208c0-.445.089-.825.266-1.139.182-.319.428-.58.736-.782a3.703 3.703 0 0 1 1.086-.463 15.9 15.9 0 0 1 1.375-.266c.506-.081 1-.15 1.481-.205.486-.06.911-.119 1.275-.175l-.395.243c.016-.81-.141-1.41-.47-1.8-.329-.39-.902-.584-1.717-.584-.562 0-1.037.127-1.427.38-.385.253-.656.653-.813 1.2l-1.086-.32c.188-.734.565-1.303 1.132-1.708s1.303-.608 2.21-.608c.749 0 1.384.142 1.906.426.526.278.898.683 1.116 1.215.101.238.167.503.197.797.031.294.046.592.046.896v5.095h-.995v-2.057l.289.121c-.279.704-.712 1.24-1.299 1.61-.587.37-1.291.554-2.111.554zm.129-.964c.522 0 .977-.094 1.367-.281.39-.187.704-.443.942-.767.238-.33.392-.699.463-1.109.061-.263.094-.552.099-.865.005-.32.007-.557.007-.714l.425.22c-.379.05-.792.101-1.237.152-.441.05-.876.109-1.306.174-.426.066-.81.145-1.155.236-.233.066-.458.16-.676.28a1.568 1.568 0 0 0-.539.472c-.136.197-.205.443-.205.736 0 .238.059.468.175.691.121.223.314.408.577.555.268.146.623.22 1.063.22zM233.523 62.062v-4.184c0-.455-.043-.873-.129-1.253a2.877 2.877 0 0 0-.418-1.002 1.91 1.91 0 0 0-.736-.668c-.299-.157-.664-.236-1.094-.236a2.53 2.53 0 0 0-1.048.205 2.056 2.056 0 0 0-.759.593 2.64 2.64 0 0 0-.463.926c-.107.365-.16.78-.16 1.245l-.79-.174c0-.84.147-1.547.441-2.119.293-.572.698-1.005 1.215-1.298.516-.294 1.108-.44 1.777-.44.491 0 .919.075 1.283.227.37.152.681.357.934.615.258.258.466.554.623.889.157.329.271.68.341 1.055.071.37.107.74.107 1.109v4.51h-1.124zm-5.931 0v-8.2h1.01v2.02h.114v6.18h-1.124z" fill="#fff"/><path fill-rule="evenodd" clip-rule="evenodd" d="m143.594 52.113-11.631 11.471-6.932-6.86 1.883-1.863 5.049 4.997 9.748-9.608 1.883 1.863z" fill="#fff"/></svg>