<svg width="320" height="160" fill="none" xmlns="http://www.w3.org/2000/svg"><rect width="320" height="160" rx="10" fill="#F3F8FF"/><path d="M88.129 33.037a.736.736 0 0 0 0 1.472h5.89a.736.736 0 1 0 0-1.472h-5.89z" fill="#EE3F3F"/><path fill-rule="evenodd" clip-rule="evenodd" d="M84.448 31.417A4.417 4.417 0 0 1 88.865 27h4.417a4.417 4.417 0 0 1 4.417 4.417v10.749c0 .813-.659 1.472-1.472 1.472v1.62h.883a5.89 5.89 0 0 1 5.89 5.89V61.6c0 .813-.659 1.473-1.472 1.473H80.472c-.813 0-1.472-.66-1.472-1.473V51.147a5.89 5.89 0 0 1 5.89-5.89h1.03v-1.619c-.813 0-1.472-.66-1.472-1.472V31.417zm1.472 2.356c0-1.22.99-2.209 2.209-2.209h5.89a2.209 2.209 0 1 1 0 4.418h-5.89a2.209 2.209 0 0 1-2.209-2.209z" fill="#EE3F3F"/><path d="M40 60.9c0 .7.42 2.1 2.1 2.1h19.8c1.68 0 2.1-1.4 2.1-2.1v-9c0-2.1-.3-3.9-2.7-5.1-2.4-1.2-5.7-1.5-5.7-1.5-.6 0-.15.5 0 .9-.45.3-1.8.9-3.6.9s-3.15-.6-3.6-.9c.25-.4.84-.9 0-.9 0 0-3.3.3-5.7 1.5-2.41 1.205-2.7 3.3-2.7 5.4v8.7z" fill="#68A51B"/><path fill-rule="evenodd" clip-rule="evenodd" d="M47.5 31.2v7.5a4.5 4.5 0 1 0 9 0v-7.5h1.2v7.5a5.7 5.7 0 0 1-11.4 0v-7.5h1.2z" fill="#68A51B"/><path fill-rule="evenodd" clip-rule="evenodd" d="M54.901 42.308a.6.6 0 0 1 .69.493l.6 3.6a.6.6 0 0 1-1.183.198l-.6-3.6a.6.6 0 0 1 .493-.69zm-5.802 0a.6.6 0 0 0-.69.493l-.6 3.6a.6.6 0 0 0 1.183.198l.6-3.6a.6.6 0 0 0-.493-.69z" fill="#68A51B"/><path d="M45.4 38.1c0 .3.18.9.9.9l1.2-3.3s2.1-.113 4.2-.9 3.3-2.1 3.3-2.1 1.5.9 1.5 2.7c0 2.16.8 3.3 1.2 3.6.3 0 .9-.18.9-.9v-2.4c.2 0 .6-.12.6-.6v-2.4c0-1.8-1.5-5.7-7.2-5.7s-7.2 3.9-7.2 5.7v2.4c0 .48.4.6.6.6v2.4zM118 60.9c0 .7.42 2.1 2.1 2.1h19.8c1.68 0 2.1-1.4 2.1-2.1v-9c0-2.1-.3-3.9-2.7-5.1-2.4-1.2-5.7-1.5-5.7-1.5-.6 0-.15.5 0 .9-.45.3-1.8.9-3.6.9s-3.15-.6-3.6-.9c.25-.4.84-.9 0-.9 0 0-3.3.3-5.7 1.5-2.41 1.205-2.7 3.3-2.7 5.4v8.7z" fill="#68A51B"/><path fill-rule="evenodd" clip-rule="evenodd" d="M125.5 31.2v7.5a4.5 4.5 0 0 0 9 0v-7.5h1.2v7.5a5.7 5.7 0 0 1-11.4 0v-7.5h1.2z" fill="#68A51B"/><path fill-rule="evenodd" clip-rule="evenodd" d="M132.901 42.308a.6.6 0 0 1 .691.493l.6 3.6a.6.6 0 0 1-1.184.198l-.6-3.6a.6.6 0 0 1 .493-.69zm-5.802 0a.6.6 0 0 0-.691.493l-.6 3.6a.6.6 0 0 0 1.184.198l.6-3.6a.6.6 0 0 0-.493-.69z" fill="#68A51B"/><path d="M123.4 38.1c0 .3.18.9.9.9l1.2-3.3s2.1-.113 4.2-.9 3.3-2.1 3.3-2.1 1.5.9 1.5 2.7c0 2.16.8 3.3 1.2 3.6.3 0 .9-.18.9-.9v-2.4c.2 0 .6-.12.6-.6v-2.4c0-1.8-1.5-5.7-7.2-5.7s-7.2 3.9-7.2 5.7v2.4c0 .48.4.6.6.6v2.4zM157 60.9c0 .7.42 2.1 2.1 2.1h19.8c1.68 0 2.1-1.4 2.1-2.1v-9c0-2.1-.3-3.9-2.7-5.1-2.4-1.2-5.7-1.5-5.7-1.5-.6 0-.15.5 0 .9-.45.3-1.8.9-3.6.9s-3.15-.6-3.6-.9c.25-.4.84-.9 0-.9 0 0-3.3.3-5.7 1.5-2.41 1.205-2.7 3.3-2.7 5.4v8.7z" fill="#68A51B"/><path fill-rule="evenodd" clip-rule="evenodd" d="M164.5 31.2v7.5a4.5 4.5 0 0 0 9 0v-7.5h1.2v7.5a5.7 5.7 0 0 1-11.4 0v-7.5h1.2z" fill="#68A51B"/><path fill-rule="evenodd" clip-rule="evenodd" d="M171.901 42.308a.6.6 0 0 1 .691.493l.6 3.6a.6.6 0 0 1-1.184.198l-.6-3.6a.6.6 0 0 1 .493-.69zm-5.802 0a.6.6 0 0 0-.691.493l-.6 3.6a.6.6 0 0 0 1.184.198l.6-3.6a.6.6 0 0 0-.493-.69z" fill="#68A51B"/><path d="M162.4 38.1c0 .3.18.9.9.9l1.2-3.3s2.1-.113 4.2-.9 3.3-2.1 3.3-2.1 1.5.9 1.5 2.7c0 2.16.8 3.3 1.2 3.6.3 0 .9-.18.9-.9v-2.4c.2 0 .6-.12.6-.6v-2.4c0-1.8-1.5-5.7-7.2-5.7s-7.2 3.9-7.2 5.7v2.4c0 .48.4.6.6.6v2.4z" fill="#68A51B"/><path d="M127.129 94.037a.736.736 0 1 0 0 1.472h5.889a.737.737 0 1 0 0-1.472h-5.889z" fill="#EE3F3F"/><path fill-rule="evenodd" clip-rule="evenodd" d="M123.448 92.417A4.417 4.417 0 0 1 127.865 88h4.417a4.417 4.417 0 0 1 4.417 4.417v10.749c0 .813-.659 1.472-1.472 1.472v1.62h.883a5.89 5.89 0 0 1 5.89 5.889v10.454c0 .813-.659 1.473-1.472 1.473h-21.056c-.813 0-1.472-.66-1.472-1.473v-10.454a5.89 5.89 0 0 1 5.89-5.889h1.03v-1.62a1.472 1.472 0 0 1-1.472-1.472V92.417zm1.472 2.356c0-1.22.989-2.209 2.209-2.209h5.889a2.209 2.209 0 1 1 0 4.418h-5.889a2.209 2.209 0 0 1-2.209-2.209z" fill="#EE3F3F"/><path d="M49.129 94.037a.736.736 0 0 0 0 1.472h5.89a.736.736 0 1 0 0-1.472h-5.89z" fill="#EE3F3F"/><path fill-rule="evenodd" clip-rule="evenodd" d="M45.448 92.417A4.417 4.417 0 0 1 49.865 88h4.417a4.417 4.417 0 0 1 4.417 4.417v10.749c0 .813-.659 1.472-1.472 1.472v1.62h.883a5.89 5.89 0 0 1 5.89 5.889v10.454c0 .813-.66 1.473-1.472 1.473H41.472c-.813 0-1.472-.66-1.472-1.473v-10.454a5.89 5.89 0 0 1 5.89-5.889h1.03v-1.62a1.472 1.472 0 0 1-1.472-1.472V92.417zm1.472 2.356c0-1.22.99-2.209 2.209-2.209h5.89a2.209 2.209 0 1 1 0 4.418h-5.89a2.209 2.209 0 0 1-2.209-2.209z" fill="#EE3F3F"/><path d="M79 121.9c0 .7.42 2.1 2.1 2.1h19.8c1.68 0 2.1-1.4 2.1-2.1v-9c0-2.1-.3-3.9-2.7-5.1-2.4-1.2-5.7-1.5-5.7-1.5-.6 0-.15.5 0 .9-.45.3-1.8.9-3.6.9s-3.15-.6-3.6-.9c.25-.4.84-.9 0-.9 0 0-3.3.3-5.7 1.5-2.41 1.205-2.7 3.3-2.7 5.4v8.7z" fill="#68A51B"/><path fill-rule="evenodd" clip-rule="evenodd" d="M86.5 92.2v7.5a4.5 4.5 0 0 0 9 0v-7.5h1.2v7.5a5.7 5.7 0 0 1-11.4 0v-7.5h1.2z" fill="#68A51B"/><path fill-rule="evenodd" clip-rule="evenodd" d="M93.901 103.308a.6.6 0 0 1 .69.493l.6 3.6a.6.6 0 0 1-1.183.198l-.6-3.6a.6.6 0 0 1 .493-.691zm-5.802 0a.6.6 0 0 0-.69.493l-.6 3.6a.6.6 0 0 0 1.183.198l.6-3.6a.6.6 0 0 0-.493-.691z" fill="#68A51B"/><path d="M84.4 99.1c0 .3.18.9.9.9l1.2-3.3s2.1-.112 4.2-.9c2.1-.787 3.3-2.1 3.3-2.1s1.5.9 1.5 2.7c0 2.16.8 3.3 1.2 3.6.3 0 .9-.18.9-.9v-2.4c.2 0 .6-.12.6-.6v-2.4c0-1.8-1.5-5.7-7.2-5.7s-7.2 3.9-7.2 5.7v2.4c0 .48.4.6.6.6v2.4zm72.6 22.8c0 .7.42 2.1 2.1 2.1h19.8c1.68 0 2.1-1.4 2.1-2.1v-9c0-2.1-.3-3.9-2.7-5.1-2.4-1.2-5.7-1.5-5.7-1.5-.6 0-.15.5 0 .9-.45.3-1.8.9-3.6.9s-3.15-.6-3.6-.9c.25-.4.84-.9 0-.9 0 0-3.3.3-5.7 1.5-2.41 1.205-2.7 3.3-2.7 5.4v8.7z" fill="#68A51B"/><path fill-rule="evenodd" clip-rule="evenodd" d="M164.5 92.2v7.5a4.5 4.5 0 0 0 9 0v-7.5h1.2v7.5a5.7 5.7 0 0 1-11.4 0v-7.5h1.2z" fill="#68A51B"/><path fill-rule="evenodd" clip-rule="evenodd" d="M171.901 103.308a.6.6 0 0 1 .691.493l.6 3.6a.6.6 0 0 1-1.184.198l-.6-3.6a.602.602 0 0 1 .493-.691zm-5.802 0a.6.6 0 0 0-.691.493l-.6 3.6a.6.6 0 0 0 1.184.198l.6-3.6a.602.602 0 0 0-.493-.691z" fill="#68A51B"/><path d="M162.4 99.1c0 .3.18.9.9.9l1.2-3.3s2.1-.112 4.2-.9c2.1-.787 3.3-2.1 3.3-2.1s1.5.9 1.5 2.7c0 2.16.8 3.3 1.2 3.6.3 0 .9-.18.9-.9v-2.4c.2 0 .6-.12.6-.6v-2.4c0-1.8-1.5-5.7-7.2-5.7s-7.2 3.9-7.2 5.7v2.4c0 .48.4.6.6.6v2.4z" fill="#68A51B"/><path fill-rule="evenodd" clip-rule="evenodd" d="M96.59 111.32a1.09 1.09 0 0 1 0 1.542l-5.819 5.818a1.09 1.09 0 0 1-1.542 0l-2.91-2.909a1.09 1.09 0 1 1 1.543-1.542L90 116.366l5.047-5.046a1.09 1.09 0 0 1 1.543 0zm78 0a1.09 1.09 0 0 1 0 1.542l-5.819 5.818a1.088 1.088 0 0 1-1.542 0l-2.909-2.909a1.09 1.09 0 1 1 1.542-1.542l2.138 2.137 5.047-5.046a1.09 1.09 0 0 1 1.543 0zm-87.27-61a1.091 1.091 0 0 1 1.542 0l5.819 5.818a1.091 1.091 0 0 1-1.543 1.543l-5.819-5.819a1.091 1.091 0 0 1 0-1.543z" fill="#fff"/><path fill-rule="evenodd" clip-rule="evenodd" d="M94.68 50.32a1.091 1.091 0 0 0-1.542 0l-5.819 5.818a1.091 1.091 0 0 0 1.543 1.543l5.819-5.819a1.091 1.091 0 0 0 0-1.543zm31.64 61a1.088 1.088 0 0 1 1.542 0l5.818 5.818a1.088 1.088 0 0 1 0 1.542 1.088 1.088 0 0 1-1.542 0l-5.818-5.818a1.088 1.088 0 0 1 0-1.542z" fill="#fff"/><path fill-rule="evenodd" clip-rule="evenodd" d="M133.68 111.32a1.088 1.088 0 0 0-1.542 0l-5.818 5.818a1.088 1.088 0 0 0 0 1.542 1.088 1.088 0 0 0 1.542 0l5.818-5.818a1.088 1.088 0 0 0 0-1.542zm-85.36 0a1.09 1.09 0 0 1 1.542 0l5.819 5.818a1.09 1.09 0 1 1-1.543 1.542l-5.819-5.818a1.09 1.09 0 0 1 0-1.542z" fill="#fff"/><path fill-rule="evenodd" clip-rule="evenodd" d="M55.68 111.32a1.09 1.09 0 0 0-1.542 0l-5.819 5.818a1.09 1.09 0 1 0 1.543 1.542l5.819-5.818a1.09 1.09 0 0 0 0-1.542zm1.91-61a1.091 1.091 0 0 1 0 1.542l-5.819 5.819a1.091 1.091 0 0 1-1.542 0l-2.91-2.91a1.091 1.091 0 0 1 1.543-1.542L51 55.366l5.047-5.047a1.091 1.091 0 0 1 1.543 0zm78 0a1.091 1.091 0 0 1 0 1.542l-5.819 5.819a1.09 1.09 0 0 1-1.542 0l-2.909-2.91a1.09 1.09 0 1 1 1.542-1.543L129 55.367l5.047-5.047a1.091 1.091 0 0 1 1.543 0zm39 0a1.091 1.091 0 0 1 0 1.542l-5.819 5.819a1.09 1.09 0 0 1-1.542 0l-2.909-2.91a1.09 1.09 0 1 1 1.542-1.543L168 55.367l5.047-5.047a1.091 1.091 0 0 1 1.543 0z" fill="#fff"/><path d="M47.874 73.138c-.585 0-1.087-.148-1.506-.443-.417-.299-.738-.728-.962-1.29-.223-.563-.334-1.241-.334-2.034.002-.793.115-1.468.337-2.024.225-.56.546-.985.962-1.279.42-.293.92-.44 1.503-.44.582 0 1.083.147 1.502.44.419.294.74.72.962 1.279.225.558.337 1.233.337 2.024 0 .795-.112 1.475-.337 2.038-.223.561-.543.99-.962 1.286-.417.296-.918.444-1.502.444zm0-1.111c.454 0 .813-.224 1.076-.671.265-.45.397-1.112.397-1.985 0-.578-.06-1.063-.18-1.456-.122-.393-.292-.69-.512-.888a1.12 1.12 0 0 0-.781-.302c-.453 0-.81.225-1.073.675-.263.447-.395 1.104-.398 1.97-.002.58.056 1.068.174 1.464.121.395.292.694.512.895.22.199.482.298.785.298zm4.504 1.051a.762.762 0 0 1-.554-.227.736.736 0 0 1-.227-.554.728.728 0 0 1 .227-.547.762.762 0 0 1 .554-.227.75.75 0 0 1 .544.227.746.746 0 0 1 .124.941.816.816 0 0 1-.284.284.739.739 0 0 1-.384.103zM54.504 73l3.093-6.122v-.05h-3.59v-1.1h4.954v1.125L55.871 73h-1.367zM164.6 134.138c-.585 0-1.087-.147-1.506-.443-.416-.299-.737-.728-.962-1.289-.222-.564-.334-1.242-.334-2.035.003-.793.115-1.468.338-2.024.225-.559.545-.985.962-1.279.419-.293.92-.44 1.502-.44.583 0 1.083.147 1.502.44.419.294.74.72.963 1.279.225.558.337 1.233.337 2.024 0 .795-.112 1.475-.337 2.038-.223.561-.544.99-.963 1.286-.416.296-.917.443-1.502.443zm0-1.111c.455 0 .813-.224 1.076-.671.265-.45.398-1.112.398-1.985 0-.578-.061-1.063-.181-1.456-.121-.393-.291-.689-.512-.888a1.12 1.12 0 0 0-.781-.302c-.452 0-.81.225-1.072.675-.263.447-.396 1.104-.398 1.971-.002.58.056 1.067.174 1.463.121.395.291.693.511.895.221.199.482.298.785.298zm4.505 1.051a.763.763 0 0 1-.554-.227.734.734 0 0 1-.227-.554.726.726 0 0 1 .227-.547.759.759 0 0 1 .554-.227c.208 0 .389.075.543.227a.748.748 0 0 1 .124.941.813.813 0 0 1-.284.284.736.736 0 0 1-.383.103zm4.406.021c-.528 0-.997-.088-1.406-.266a2.33 2.33 0 0 1-.959-.728 1.704 1.704 0 0 1-.341-1.055 1.734 1.734 0 0 1 .199-.841c.135-.256.317-.469.547-.639a1.77 1.77 0 0 1 .774-.331v-.049a1.54 1.54 0 0 1-.909-.572 1.646 1.646 0 0 1-.341-1.041 1.656 1.656 0 0 1 .312-1.001c.211-.294.5-.524.867-.692a2.944 2.944 0 0 1 1.257-.256 2.9 2.9 0 0 1 1.246.256c.367.168.656.398.867.692.213.294.319.627.319 1.001 0 .393-.117.74-.351 1.041a1.538 1.538 0 0 1-.899.572v.049c.284.048.54.158.767.331.23.17.412.383.547.639.138.255.206.536.206.841 0 .393-.116.745-.348 1.055a2.33 2.33 0 0 1-.959.728c-.404.178-.87.266-1.395.266zm0-1.015c.272 0 .509-.046.71-.139.201-.094.358-.227.469-.397.111-.171.168-.367.17-.59a1.092 1.092 0 0 0-.181-.614 1.194 1.194 0 0 0-.479-.423 1.503 1.503 0 0 0-.689-.153 1.53 1.53 0 0 0-.696.153 1.213 1.213 0 0 0-.483.423 1.078 1.078 0 0 0-.171.614c-.002.223.052.419.164.59.111.168.267.299.469.394.203.094.442.142.717.142zm0-3.313c.222 0 .419-.045.589-.135.173-.09.309-.216.409-.377.099-.161.15-.347.152-.557a1.033 1.033 0 0 0-.149-.547.958.958 0 0 0-.405-.366 1.292 1.292 0 0 0-.596-.131c-.23 0-.432.043-.607.131a.958.958 0 0 0-.405.366 1.01 1.01 0 0 0-.139.547c-.002.21.045.396.142.557.1.159.236.284.409.377.175.09.375.135.6.135z" fill="#68A51B"/><path d="M86.585 73.138c-.584 0-1.086-.148-1.505-.443-.417-.299-.738-.728-.962-1.29-.223-.563-.334-1.241-.334-2.034.002-.793.114-1.468.337-2.024.225-.56.546-.985.962-1.279.42-.293.92-.44 1.502-.44.583 0 1.084.147 1.503.44.419.294.74.72.962 1.279.225.558.337 1.233.337 2.024 0 .795-.112 1.475-.337 2.038-.223.561-.543.99-.962 1.286-.417.296-.918.444-1.502.444zm0-1.111c.455 0 .814-.224 1.077-.671.265-.45.397-1.112.397-1.985 0-.578-.06-1.063-.18-1.456-.122-.393-.292-.69-.512-.888a1.12 1.12 0 0 0-.782-.302c-.452 0-.81.225-1.072.675-.263.447-.395 1.104-.398 1.97-.002.58.056 1.068.174 1.464.121.395.291.694.512.895.22.199.481.298.784.298zm4.505 1.051a.762.762 0 0 1-.554-.227.736.736 0 0 1-.227-.554.728.728 0 0 1 .227-.547.762.762 0 0 1 .554-.227.75.75 0 0 1 .543.227.747.747 0 0 1 .125.941.816.816 0 0 1-.284.284.739.739 0 0 1-.384.103zM93.184 73v-.952l2.525-2.475c.242-.244.443-.46.604-.65.16-.19.282-.373.362-.55.08-.178.12-.367.12-.568 0-.23-.051-.426-.155-.59a1.038 1.038 0 0 0-.43-.383 1.386 1.386 0 0 0-.621-.135c-.24 0-.45.05-.629.149a1.03 1.03 0 0 0-.42.415 1.35 1.35 0 0 0-.145.643h-1.253c0-.462.105-.863.316-1.204.21-.34.5-.605.87-.792.371-.187.798-.28 1.278-.28.488 0 .916.091 1.286.273.37.183.656.432.86.75.205.317.308.679.308 1.086 0 .273-.052.54-.156.803-.104.263-.288.554-.55.873-.261.32-.627.707-1.098 1.162l-1.253 1.274v.05h3.167V73h-4.986zm-44.446 61.138c-.585 0-1.087-.147-1.506-.443-.416-.299-.737-.728-.962-1.289-.223-.564-.334-1.242-.334-2.035.002-.793.115-1.468.337-2.024.225-.559.546-.985.963-1.279.419-.293.92-.44 1.502-.44s1.083.147 1.502.44c.419.294.74.72.962 1.279.225.558.338 1.233.338 2.024 0 .795-.113 1.475-.338 2.038-.222.561-.543.99-.962 1.286-.417.296-.917.443-1.502.443zm0-1.111c.454 0 .813-.224 1.076-.671.265-.45.398-1.112.398-1.985 0-.578-.06-1.063-.181-1.456s-.292-.689-.512-.888a1.12 1.12 0 0 0-.781-.302c-.452 0-.81.225-1.073.675-.262.447-.395 1.104-.397 1.971-.003.58.055 1.067.174 1.463.12.395.29.693.511.895.22.199.482.298.785.298zm4.505 1.051a.763.763 0 0 1-.555-.227.736.736 0 0 1-.227-.554.729.729 0 0 1 .227-.547.76.76 0 0 1 .554-.227c.209 0 .39.075.544.227a.748.748 0 0 1 .124.941.82.82 0 0 1-.284.284.736.736 0 0 1-.383.103zm4.153-7.351V134H56.08v-5.991h-.043l-1.7 1.087v-1.208l1.807-1.161h1.253zm68.16 7.411c-.585 0-1.086-.147-1.505-.443-.417-.299-.738-.728-.963-1.289-.222-.564-.334-1.242-.334-2.035.003-.793.115-1.468.338-2.024.225-.559.545-.985.962-1.279.419-.293.92-.44 1.502-.44.583 0 1.083.147 1.502.44.419.294.74.72.963 1.279.225.558.337 1.233.337 2.024 0 .795-.112 1.475-.337 2.038-.223.561-.544.99-.963 1.286-.416.296-.917.443-1.502.443zm0-1.111c.455 0 .813-.224 1.076-.671.265-.45.398-1.112.398-1.985 0-.578-.06-1.063-.181-1.456s-.291-.689-.512-.888a1.12 1.12 0 0 0-.781-.302c-.452 0-.809.225-1.072.675-.263.447-.396 1.104-.398 1.971-.002.58.056 1.067.174 1.463.121.395.291.693.511.895.221.199.482.298.785.298zm4.505 1.051a.763.763 0 0 1-.554-.227.734.734 0 0 1-.227-.554.726.726 0 0 1 .227-.547.759.759 0 0 1 .554-.227c.208 0 .389.075.543.227a.748.748 0 0 1 .124.941.813.813 0 0 1-.284.284.736.736 0 0 1-.383.103zm4.46.021a3.36 3.36 0 0 1-1.364-.262 2.287 2.287 0 0 1-.937-.732 1.89 1.89 0 0 1-.366-1.083h1.335a.881.881 0 0 0 .196.515c.118.144.275.257.472.337.196.081.417.121.66.121.261 0 .492-.045.693-.135.201-.092.359-.22.472-.383a.941.941 0 0 0 .167-.565.975.975 0 0 0-.17-.582 1.135 1.135 0 0 0-.505-.395 1.978 1.978 0 0 0-.788-.142h-.643v-1.015h.643c.253 0 .475-.044.664-.132.192-.087.342-.21.451-.369a.954.954 0 0 0 .16-.558.97.97 0 0 0-.139-.536.926.926 0 0 0-.394-.358 1.283 1.283 0 0 0-.593-.128c-.222 0-.428.04-.618.12a1.133 1.133 0 0 0-.458.345.873.873 0 0 0-.184.526h-1.268c.009-.408.126-.765.351-1.073.228-.31.531-.552.909-.724a2.991 2.991 0 0 1 1.275-.263c.486 0 .907.091 1.265.273.359.18.638.423.834.728.197.306.295.643.295 1.012.002.41-.119.753-.362 1.03a1.702 1.702 0 0 1-.952.543v.057c.511.071.903.261 1.175.568.275.306.411.686.409 1.14 0 .408-.116.772-.348 1.094-.23.32-.547.571-.952.753-.402.182-.864.273-1.385.273z" fill="#EE3F3F"/><path d="M126.759 65.727V73h-1.318v-5.99h-.042l-1.701 1.086v-1.208l1.807-1.16h1.254zm2.252 7.351a.762.762 0 0 1-.554-.227.733.733 0 0 1-.227-.554.725.725 0 0 1 .227-.547.762.762 0 0 1 .554-.227.75.75 0 0 1 .543.227.743.743 0 0 1 .125.941.819.819 0 0 1-.284.284.74.74 0 0 1-.384.103zm4.499.06c-.584 0-1.086-.148-1.505-.443-.417-.299-.738-.728-.963-1.29-.222-.563-.334-1.241-.334-2.034.003-.793.115-1.468.338-2.024.225-.56.546-.985.962-1.279.419-.293.92-.44 1.502-.44.583 0 1.083.147 1.502.44.419.294.74.72.963 1.279.225.558.337 1.233.337 2.024 0 .795-.112 1.475-.337 2.038-.223.561-.544.99-.963 1.286-.416.296-.917.444-1.502.444zm0-1.111c.455 0 .814-.224 1.076-.671.265-.45.398-1.112.398-1.985 0-.578-.06-1.063-.181-1.456s-.291-.69-.511-.888a1.122 1.122 0 0 0-.782-.302c-.452 0-.809.225-1.072.675-.263.447-.396 1.104-.398 1.97-.002.58.056 1.068.174 1.464.121.395.291.694.511.895.221.199.482.298.785.298zm-45.751 54.7V134H86.44v-5.991h-.04l-1.701 1.087v-1.208l1.807-1.161h1.254zm2.252 7.351a.763.763 0 0 1-.554-.227.736.736 0 0 1-.227-.554.729.729 0 0 1 .227-.547.76.76 0 0 1 .554-.227c.208 0 .39.075.543.227a.748.748 0 0 1 .125.941.818.818 0 0 1-.285.284.736.736 0 0 1-.383.103zm4.5.06c-.585 0-1.087-.147-1.506-.443-.417-.299-.738-.728-.963-1.289-.222-.564-.334-1.242-.334-2.035.003-.793.115-1.468.338-2.024.225-.559.545-.985.962-1.279.42-.293.92-.44 1.502-.44.583 0 1.083.147 1.502.44.42.294.74.72.963 1.279.225.558.337 1.233.337 2.024 0 .795-.112 1.475-.337 2.038-.223.561-.543.99-.963 1.286-.416.296-.917.443-1.502.443zm0-1.111c.454 0 .813-.224 1.075-.671.265-.45.398-1.112.398-1.985 0-.578-.06-1.063-.181-1.456-.12-.393-.291-.689-.511-.888a1.12 1.12 0 0 0-.782-.302c-.452 0-.81.225-1.072.675-.263.447-.395 1.104-.398 1.971-.002.58.056 1.067.174 1.463.12.395.291.693.511.895.22.199.482.298.785.298zm69.991-59.889c-.584 0-1.086-.148-1.505-.443-.417-.299-.738-.728-.963-1.29-.222-.563-.333-1.241-.333-2.034.002-.793.114-1.468.337-2.024.225-.56.546-.985.962-1.279.419-.293.92-.44 1.502-.44.583 0 1.084.147 1.503.44.419.294.739.72.962 1.279.225.558.337 1.233.337 2.024 0 .795-.112 1.475-.337 2.038-.223.561-.543.99-.962 1.286-.417.296-.918.444-1.503.444zm0-1.111c.455 0 .814-.224 1.076-.671.266-.45.398-1.112.398-1.985 0-.578-.06-1.063-.181-1.456s-.291-.69-.511-.888a1.12 1.12 0 0 0-.782-.302c-.452 0-.809.225-1.072.675-.263.447-.395 1.104-.398 1.97-.002.58.056 1.068.174 1.464.121.395.292.694.512.895.22.199.481.298.784.298zm4.505 1.051a.762.762 0 0 1-.554-.227.733.733 0 0 1-.227-.554.725.725 0 0 1 .227-.547.762.762 0 0 1 .554-.227.75.75 0 0 1 .543.227.743.743 0 0 1 .125.941.819.819 0 0 1-.284.284.74.74 0 0 1-.384.103zm4.512-7.45a2.99 2.99 0 0 1 1.015.184c.332.119.63.313.895.583.265.267.476.626.632 1.076.157.45.235 1.006.235 1.669a6.274 6.274 0 0 1-.199 1.676c-.133.49-.323.904-.572 1.243a2.52 2.52 0 0 1-.898.774 2.582 2.582 0 0 1-1.183.266c-.459 0-.866-.09-1.221-.27a2.295 2.295 0 0 1-1.257-1.81h1.296c.066.288.201.518.405.688.206.169.465.253.777.253.505 0 .893-.22 1.165-.657.272-.438.408-1.047.408-1.826h-.049a1.878 1.878 0 0 1-.451.54 2.05 2.05 0 0 1-.629.345c-.232.08-.478.12-.738.12a2.2 2.2 0 0 1-1.151-.305 2.227 2.227 0 0 1-.806-.838 2.491 2.491 0 0 1-.298-1.218c0-.474.108-.899.326-1.275a2.37 2.37 0 0 1 .92-.895c.393-.22.852-.328 1.378-.323zm.003 1.065a1.33 1.33 0 0 0-1.175.692 1.44 1.44 0 0 0-.174.707c.002.258.06.493.174.704.116.21.273.377.472.5.201.123.431.185.689.185a1.332 1.332 0 0 0 .97-.416 1.46 1.46 0 0 0 .291-.45c.071-.169.105-.346.103-.533 0-.249-.059-.478-.178-.69a1.375 1.375 0 0 0-.479-.507 1.264 1.264 0 0 0-.693-.192z" fill="#68A51B"/><path d="M248.159 71.98h-17.155l.049 17.02 4.47-4.316c4.471 5.14 11.013 7.992 17.933 7.177 6.92-.815 11.955-5.544 13.607-7.807l-7.29-7.323c-.923 1.616-3.878 4.888-8.31 5.043-4.432.155-7.548-2.974-8.553-4.558l5.249-5.237z" fill="#BFBFC1"/><path d="M233.871 52h17.107v17.07l-5.2-5.237c-.729.5-2.43 1.93-3.402 3.637s-1.182 3.701-1.166 4.51h-10.206c-.048-1.423.282-5.121 1.993-8.73 1.71-3.607 4.309-5.996 5.394-6.74l-4.52-4.51z" fill="#4F8EF5"/><path d="M271 54.865v17.07h-17.106l5.248-5.189c-.502-.727-1.934-2.424-3.645-3.394-1.71-.97-3.709-1.18-4.519-1.164V52.004c1.425-.048 5.132.282 8.747 1.989 3.616 1.706 6.01 4.3 6.755 5.382l4.52-4.51zm-24.861 57.091L243 102h1.715l2.627 8.338 2.662-8.338h1.714l-3.139 9.956h-2.44zm9.466.186a3.472 3.472 0 0 1-2.565-1.113 3.19 3.19 0 0 1-.698-1.258l1.611-.436c.115.397.325.703.629.92.309.212.648.316 1.016.311.328 0 .62-.076.879-.228a1.66 1.66 0 0 0 .608-.615 1.77 1.77 0 0 0 .221-.878c0-.494-.159-.906-.477-1.238-.318-.332-.728-.498-1.231-.498-.152 0-.301.021-.449.062-.143.042-.281.1-.415.173l-.76-1.313 3.346-2.863.145.401h-4.736V102h6.105v1.576l-2.689 2.586-.014-.491c.604.042 1.118.21 1.542.505.428.295.755.675.981 1.141.231.465.346.974.346 1.528a3.13 3.13 0 0 1-.463 1.686 3.336 3.336 0 0 1-1.231 1.183 3.433 3.433 0 0 1-1.701.428z" fill="#3862C8"/></svg>