<svg width="320" height="160" fill="none" xmlns="http://www.w3.org/2000/svg"><rect width="320" height="160" rx="10" fill="#F3F8FF"/><path d="M115 15h90v130h-90V15z" fill="#fff"/><path fill-rule="evenodd" clip-rule="evenodd" d="M204.438 15.565h-88.876v128.87h88.876V15.565zM115 15v130h90V15h-90z" fill="#D1D8E4"/><path fill="#4D8FE3" d="M178.281 132.283h25.313v11.304h-25.313zm-61.875-115.87h87.188v25.435h-87.188z"/><path fill="#AEB4B2" d="M175.469 102.609h28.125v28.261h-28.125z"/><path d="M175.469 114.471v16.399h28.125v-20.411a1.225 1.225 0 0 1-1.042-.349c-.463-.465-.636-1.919-2.43-1.861-1.794.058-1.563 3.78-2.315 3.896-.753.117-.637-2.326-3.067-2.209-2.431.116-2.084 5.931-3.01 5.931-.926 0-2.314.116-4.282.174-1.968.058-1.157-5.698-3.183-5.64-2.025.058-1.042 5.466-1.62 5.466-.579 0-.637-1.105-1.273-1.105-.637 0-1.042 1.512-1.389 1.57-.348.058-.521-.93-.811-.93-.289 0-.578.116-.752.872-.173.756-.81.581-1.273-.582-.463-1.163-.637.059-.752.931-.116.872-.29 0-.405-1.047-.093-.837-.386-1.085-.521-1.105z" fill="#363928"/><path d="M189.01 116.739c-6.851.605-11.882 1.26-13.541 1.512v12.619h28.125v-15.294c-2.006.136-7.732.558-14.584 1.163z" fill="#6E6254"/><path d="M189.01 117.438c-6.851.575-11.882 1.197-13.541 1.437v11.995h28.125v-14.538c-2.006.129-7.732.531-14.584 1.106z" fill="#635344"/><path d="M189.473 122.961c-7.696 0-14.004.232-14.004.232v7.677h28.125v-7.677s-7.259-.232-14.121-.232z" fill="#706A5E"/><path d="M189.763 124.322c-7.694-.216-14.294 0-14.294 0v6.547h28.125v-5.849s-6.366-.489-13.831-.698z" fill="#544B42"/><path d="M189.763 124.68c-7.694-.204-14.294 0-14.294 0v6.19h28.125v-5.53s-6.366-.462-13.831-.66z" fill="#605752"/><path d="M189.763 128.66c-7.813-.698-14.294-1-14.294-1v3.21h28.125v-.542s-6.395-1.004-13.831-1.668z" fill="#716E60"/><path fill="#BCC0C3" d="M145.937 102.609h28.125v28.261h-28.125z"/><path d="m158.716 121.533 15.346 3.406v-5.578c-.231.196-.761.587-1.038.587-.346 0-.635-.763-2.019-.822-1.385-.058-1.847.822-2.654 1.292-.808.47-2.539 0-3.52-.47-.98-.469-2.25.47-2.942.94-.692.469-.981-.47-2.25-.47-1.015 0-1.038.744-.923 1.115z" fill="#565044"/><path d="m158.727 121.507 15.335 3.431v5.932h-28.124v-9.363h12.789z" fill="#8C837E"/><path d="m145.938 129.067 10.416-7.559v-.756a73.863 73.863 0 0 1-2.025-.291c-.695-.116-.695.116-1.794.291-1.1.174-1.679-.291-2.431-.582s-1.736.582-2.488.698c-.602.093-1.37-.233-1.678-.407v8.606z" fill="#574D42"/><path fill="#A3B3CA" d="M116.406 102.609h28.125v28.261h-28.125z"/><path d="M127.344 119.53h17.187v-7.734l-15.914.117-1.273 1.686v5.931z" fill="#56584D"/><path d="m144.531 120.81-28.125.988v-2.268l28.125-.756v2.036z" fill="#A59587"/><path d="m144.531 120.81-28.125.988v9.072h28.125v-10.06z" fill="#85765F"/><path d="m132.552 128.951 1.968-.175-1.736-1.628-1.563.116 1.331 1.687zm-4.63.232 2.026-.116-.579-1.744-1.852.058.405 1.802zm-4.629.175h2.025v-1.803h-1.852l-.173 1.803zm-4.456.058h2.025l.232-1.686h-1.621l-.636 1.686zm-1.215-1.745h-1.216v1.629l1.216-1.629z" fill="#AAA498"/><path d="M139.439 124.88c1.857-.12 4.166-.349 5.092-.407v6.397h-5.15c-.135-.097-.972-.721-3.241-2.443-2.836-2.151-.289-3.314 3.299-3.547z" fill="#AD957B"/><path d="M137.529 128.66c.231.233 1.91 1.57 2.72 2.21h4.282v-3.954c-1.62.252-5.092.79-6.018.93-1.158.174-1.273.523-.984.814z" fill="#92843E"/><path d="M118.837 120.461c-1.25.372-2.141.31-2.431.232v-6.687c.714-.019 2.361.128 3.241.872.88.745 1.1 2.249 1.1 2.908.27-.213.972-.663 1.62-.756a6.45 6.45 0 0 1 1.62 0c.077-.407.533-1.175 1.736-.989 1.204.186 1.081 1.551.868 2.21.367-.116 1.193-.233 1.563.233.37.465.386 1.085.347 1.337h-6.597c-.81 0-1.505.175-3.067.64z" fill="#625F38"/><path fill="#828689" d="M145.937 43.261h28.125v28.261h-28.125z"/><path d="M164.514 56.868 145.938 70.01v1.512h28.124V52.565h-3.414l-4.745 3.256h-5.672v1.047h4.283z" fill="#676A72"/><path d="M160.231 43.26v13.9l-14.294 7.21V43.261h14.294z" fill="#999288"/><path d="M164.109 55.472h-3.878V43.261h9.028v9.304l-5.15 2.907z" fill="#87827C"/><path d="M169.259 51.925v-8.664h4.803v8.664h-4.803z" fill="#9F9890"/><path d="M169.086 69.254h3.588l.231-4.129h-2.488l-1.331 4.129zm-7.292 0h3.588l2.315-4.129h-2.72l-3.183 4.129zm-6.482 0h3.125l3.82-4.129h-2.489l-4.456 4.129zm-6.134 0h2.893l5.209-4.129h-2.373l-5.729 4.129z" fill="#D9D9D9"/><path fill="#BFC9CA" d="M175.469 43.261h28.125v28.261h-28.125z"/><path d="M175.469 71.522v-7.153l4.572-9.594h4.745l18.808 2.267v14.48h-28.125z" fill="#856953"/><path d="M203.594 49.25v7.792l-18.75-2.268c0-.484.15-1.5.752-1.686.752-.233.984.523 1.678.465.695-.058.695-.756 2.026-.93 1.331-.175 1.447.465 2.43.465.984 0 .695-.64 2.199-.872 1.505-.233 2.026 1.105 2.952 1.105.926 0 1.041-.93 2.025-1.105.984-.175 1.563.64 2.084.407.52-.233.347-1.28.81-2.268.37-.79 1.35-1.066 1.794-1.105z" fill="#977F55"/><path d="M178.999 54.775h1.042l-4.572 9.594v-8.373l3.53-1.221z" fill="#B59D85"/><path d="M175.469 52.449v3.547l3.53-1.221h5.845l.694.058c-.077-.252-.289-.791-.521-.93-.289-.175-.52-.117-1.041.116-.521.232-.868-.524-1.505-.698-.637-.175-.637.349-1.099.349-.463 0-.984-.524-1.621-.756-.636-.233-.818.06-1.331.232-.347.117-1.042 0-1.562-.465-.417-.372-1.1-.31-1.389-.232z" fill="#6E5D3A"/><path fill="#888B90" d="M116.406 43.261h28.125v28.261h-28.125z"/><path d="m116.406 47.913 28.125 4.943v-8.2l-4.34 1.454-16.667-2.85h-7.118v4.653z" fill="#BDBEB8"/><path d="m131.51 50.937 13.021 2.268v1.046l-15.625-2.907 2.604-.407zm-5.208.813 18.229 3.083v1.337l-21.412-3.896 3.183-.523zm-6.366 1.164 24.595 4.303v1.337l-27.778-5.117 3.183-.523zm-3.53 1.628 27.257 5.35-2.604 1.105-24.653-4.827v-1.628zm0 3.256 21.354 4.362-3.414 1.395-17.94-3.78v-1.977z" fill="#EDF1F4"/><path d="m140.191 46.11-16.666-2.85h21.006v1.397l-4.34 1.453z" fill="#A29F91"/><path d="M123.119 66.114c-1.666-2.047-5.17-2.908-6.713-3.257v8.665h6.192c.868-.95 2.188-3.361.521-5.408z" fill="#C3B9B3"/><path fill="#B9BDC0" d="M175.469 72.935h28.125v28.261h-28.125z"/><path d="M176.858 85.437c-.973.279-1.331 1.318-1.389 1.802v13.956h28.125v-19.48c-.174-.058-.672-.163-1.273-.116-.753.058-1.274.872-1.968.872s-1.331-1.337-2.951-.116c-1.621 1.22-.637 3.14-1.331 2.79-.695-.348-2.373-.29-3.82.175-1.447.466-.463-2.384-2.199-2.965-1.736-.582-1.968 1.337-2.373 1.395-.405.058-.694-.523-2.199-.232-1.504.29-1.157 1.512-1.852 1.686-.694.175-.925-.988-2.662-.93-1.736.058-1.446 2.442-1.736 2.558-.289.117-1.157-1.744-2.372-1.395z" fill="#455646"/><path d="M189.994 86.716c-8.055.465-13.04 1.086-14.525 1.338v13.141h28.125V86.018c-1.177.04-5.544.233-13.6.698z" fill="#5D695E"/><path d="M189.994 87.065c-8.055.465-13.04 1.085-14.525 1.337v12.793h28.125V86.367c-1.177.039-5.544.233-13.6.698z" fill="#484D46"/><path d="M189.994 88.577c-8.055.465-13.04 1.085-14.525 1.337v11.281h28.125V87.879c-1.177.039-5.544.233-13.6.698z" fill="#A5A6A1"/><path d="M189.647 94.857a349.994 349.994 0 0 0-14.178 2.151v4.187h28.125v-7.85s-6.424.523-13.947 1.512z" fill="#3D423B"/><path d="M197.286 99.567a374.672 374.672 0 0 0-8.854 1.628h15.162v-2.558c-.618.058-2.743.325-6.308.93z" fill="#938A7F"/><path d="M201.395 94.043a83.867 83.867 0 0 1 2.199-.233v1.28c-.212.02-1.042.081-1.968.174-.926.093-1.871.233-2.257.29l-.463-1.22 2.489-.291zm-8.276.989c2.685-.326 4.475-.485 5.035-.524v1.163c-1.1.175-2.489.372-4.803.698-2.315.326-4.476.64-5.151.756l-.463-1.396a282.48 282.48 0 0 1 5.382-.697zm-6.25 2.326v-1.454c-.482.039-2.268.244-5.555.756-3.287.511-5.267.91-5.845 1.047v.755l.405.698c.366-.038 1.921-.267 5.208-.872s5.228-.872 5.787-.93z" fill="#A5A6A1"/><path fill="#A8B0BB" d="M145.938 72.935h28.125v28.261h-28.125z"/><path d="m174.063 86.89-28.125 2.617v11.689h28.125V86.891z" fill="#83919A"/><path d="m174.063 92.473-28.125 2.617v6.106h28.125v-8.723z" fill="#B49C80"/><path d="m174.063 96.427-28.125 2.617v2.152h28.125v-4.769z" fill="#977E63"/><path d="m174.063 98.171-28.125 2.617v.407h28.125v-3.023z" fill="#896E59"/><path fill="#CACECF" d="M116.406 72.935h28.125v28.261h-28.125z"/><path d="m127.229 92.356 17.303.35v8.489h-17.303v-8.839z" fill="#73716B"/><path d="M120.399 95.73h6.829v5.465h-10.822v-5.059l3.993.524v-.93z" fill="#59574A"/><path d="m185.014 139.631-1.084-3.256h.416l.943 2.828.951-2.828h.417l-1.085 3.256h-.558zm1.981 0v-3.256h2.048v.382h-1.647v1.02h1.377v.382h-1.377v1.09h1.647v.382h-2.048zm2.589 0v-3.256h1.28a1.691 1.691 0 0 1 .238.018.926.926 0 0 1 .441.181c.12.093.21.212.27.355.06.142.09.299.09.472 0 .252-.065.471-.195.656a.865.865 0 0 1-.574.346l-.153.025h-.997v1.203h-.4zm1.928 0-.639-1.325.396-.122.702 1.447h-.459zm-1.528-1.585h.866a1.19 1.19 0 0 0 .203-.021.516.516 0 0 0 .252-.131.583.583 0 0 0 .144-.226.814.814 0 0 0 0-.531.569.569 0 0 0-.144-.228.502.502 0 0 0-.252-.132 1.19 1.19 0 0 0-.203-.02h-.866v1.289zm2.527 1.585v-3.256h.401v3.256h-.401zm1.076 0v-3.256h1.89v.402h-1.49v1.025h1.22v.402h-1.22v1.427h-.4zm3.07 0v-1.355l-1.091-1.901h.466l.828 1.44.825-1.44h.466l-1.089 1.901v1.355h-.405zM122.055 37.384a1.14 1.14 0 0 1-.624-.163 1.046 1.046 0 0 1-.391-.453 1.591 1.591 0 0 1-.134-.672c0-.254.045-.478.134-.671.09-.194.22-.345.391-.454.171-.108.379-.163.624-.163.285 0 .519.073.702.218.185.146.312.341.381.587l-.309.083a.833.833 0 0 0-.268-.436.77.77 0 0 0-.506-.16.791.791 0 0 0-.458.125.76.76 0 0 0-.275.35 1.364 1.364 0 0 0-.094.521c-.001.197.029.37.09.52a.775.775 0 0 0 .277.35.8.8 0 0 0 .46.126.77.77 0 0 0 .506-.16.843.843 0 0 0 .268-.436l.309.083a1.11 1.11 0 0 1-.381.587c-.183.145-.417.218-.702.218zm1.492-.052v-2.524h.304v2.524h-.304zm.851-2.182v-.316h.305v.316h-.305zm0 2.182v-1.854h.305v1.854h-.305zm1.595.052a.87.87 0 0 1-.477-.125.81.81 0 0 1-.297-.349 1.21 1.21 0 0 1-.106-.505c.002-.193.038-.363.107-.51a.814.814 0 0 1 .303-.345.871.871 0 0 1 .473-.124c.195 0 .363.048.503.145a.695.695 0 0 1 .283.395l-.3.09a.497.497 0 0 0-.19-.25.516.516 0 0 0-.299-.09.519.519 0 0 0-.313.09.518.518 0 0 0-.183.244.998.998 0 0 0-.061.355c.002.206.049.373.142.5.093.126.231.189.415.189a.52.52 0 0 0 .301-.083.519.519 0 0 0 .181-.242l.307.08a.787.787 0 0 1-.299.398.854.854 0 0 1-.49.137zm1.136-.052.002-2.472h.308v1.51l.774-.892h.395l-.816.927.911.927h-.425l-.839-.892v.892h-.31zm2.928 0-.67-1.854h.307l.518 1.465.516-1.465h.31l-.67 1.854h-.311zm2.023.052a.836.836 0 0 1-.79-.458 1.094 1.094 0 0 1-.113-.509c0-.203.037-.378.111-.525a.824.824 0 0 1 .31-.344.88.88 0 0 1 .468-.122c.186 0 .344.043.473.13a.777.777 0 0 1 .294.367c.066.159.095.348.086.568h-.308v-.11c-.003-.228-.049-.398-.138-.51-.089-.113-.221-.17-.397-.17-.188 0-.331.06-.429.182-.098.121-.147.295-.147.522 0 .219.049.388.147.508a.51.51 0 0 0 .419.18.589.589 0 0 0 .318-.083.57.57 0 0 0 .212-.242l.292.1a.831.831 0 0 1-.325.382.893.893 0 0 1-.483.134zm-.682-.893v-.246h1.364v.246h-1.364zm1.901.841v-1.854h.272v.448l-.044-.058a.675.675 0 0 1 .083-.158.548.548 0 0 1 .118-.119.52.52 0 0 1 .163-.09.678.678 0 0 1 .36-.023v.287a.576.576 0 0 0-.21-.014.427.427 0 0 0-.212.084.46.46 0 0 0-.138.155.684.684 0 0 0-.067.197 1.17 1.17 0 0 0-.019.215v.93h-.306zm1.309-2.182v-.316h.305v.316h-.305zm0 2.182v-1.854h.305v1.854h-.305zm.993 0v-1.956c0-.047.003-.096.007-.145a.65.65 0 0 1 .031-.146.361.361 0 0 1 .079-.133.363.363 0 0 1 .138-.1.521.521 0 0 1 .152-.037c.053-.005.102-.007.149-.007h.234v.254h-.217c-.09 0-.157.023-.202.067-.044.044-.066.11-.066.2v2.003h-.305zm-.312-1.602v-.252h1.102v.252h-1.102zm1.631 2.427.357-.976.005.289-.806-1.992h.319l.633 1.602h-.11l.593-1.602h.31l-1.005 2.679h-.296zm3.053-.773a.877.877 0 0 1-.475-.125.832.832 0 0 1-.306-.347 1.146 1.146 0 0 1-.107-.509c0-.194.036-.365.109-.511a.818.818 0 0 1 .309-.342.878.878 0 0 1 .47-.124c.185 0 .344.042.477.126a.808.808 0 0 1 .306.345c.072.146.108.315.108.506 0 .194-.036.364-.108.512a.825.825 0 0 1-.308.345.883.883 0 0 1-.475.124zm0-.29c.192 0 .334-.064.427-.193a.821.821 0 0 0 .141-.498c0-.21-.048-.376-.142-.5-.095-.124-.237-.186-.426-.186a.54.54 0 0 0-.318.087.525.525 0 0 0-.186.242.962.962 0 0 0-.061.357c0 .209.047.376.143.502.096.126.236.189.422.189zm2.581.238v-.929c0-.088-.008-.172-.024-.254a.658.658 0 0 0-.08-.218.42.42 0 0 0-.397-.211.528.528 0 0 0-.208.04.402.402 0 0 0-.159.116.558.558 0 0 0-.104.2.968.968 0 0 0-.036.28l-.2-.063c0-.18.032-.333.095-.461a.703.703 0 0 1 .272-.297.793.793 0 0 1 .414-.105c.119 0 .221.019.306.056a.613.613 0 0 1 .21.152.71.71 0 0 1 .131.209 1.291 1.291 0 0 1 .088.46v1.025h-.308zm-1.316 0v-1.854h.273v.496h.035v1.358h-.308zm2.829.052a.87.87 0 0 1-.477-.125.81.81 0 0 1-.297-.349 1.21 1.21 0 0 1-.106-.505c.002-.193.038-.363.107-.51a.814.814 0 0 1 .303-.345.871.871 0 0 1 .473-.124.87.87 0 0 1 .503.145.695.695 0 0 1 .283.395l-.301.09a.496.496 0 0 0-.488-.34.519.519 0 0 0-.313.09.518.518 0 0 0-.183.244.998.998 0 0 0-.061.355.847.847 0 0 0 .141.5c.094.126.232.189.416.189.12 0 .221-.028.3-.083a.514.514 0 0 0 .182-.242l.307.08a.792.792 0 0 1-.299.398.854.854 0 0 1-.49.137zm1.888 0a.836.836 0 0 1-.79-.458 1.094 1.094 0 0 1-.113-.509c0-.203.037-.378.111-.525a.824.824 0 0 1 .31-.344.88.88 0 0 1 .468-.122c.186 0 .344.043.473.13a.777.777 0 0 1 .294.367c.066.159.095.348.086.568h-.308v-.11c-.003-.228-.049-.398-.138-.51-.089-.113-.221-.17-.397-.17-.188 0-.331.06-.429.182-.098.121-.147.295-.147.522 0 .219.049.388.147.508a.51.51 0 0 0 .419.18.589.589 0 0 0 .318-.083.57.57 0 0 0 .212-.242l.292.1a.831.831 0 0 1-.325.382.893.893 0 0 1-.483.134zm-.682-.893v-.246h1.364v.246h-1.364zm3.616.841a1.38 1.38 0 0 1-.325.026.713.713 0 0 1-.283-.063.404.404 0 0 1-.19-.186.552.552 0 0 1-.06-.221 9.77 9.77 0 0 1-.003-.256v-1.67h.304v1.656c0 .076 0 .14.002.194.002.054.014.1.035.14a.252.252 0 0 0 .195.128c.09.013.199.01.325-.01v.262zm-1.236-1.602v-.252h1.236v.252h-1.236zm2.925 1.602v-.929c0-.088-.008-.172-.024-.254a.658.658 0 0 0-.08-.218.42.42 0 0 0-.397-.211.528.528 0 0 0-.208.04.402.402 0 0 0-.159.116.575.575 0 0 0-.105.2 1.006 1.006 0 0 0-.035.28l-.2-.063c0-.18.032-.333.095-.461a.703.703 0 0 1 .272-.297.793.793 0 0 1 .414-.105c.119 0 .221.019.306.056a.613.613 0 0 1 .21.152.71.71 0 0 1 .131.209 1.286 1.286 0 0 1 .087.46v1.025h-.307zm-1.316 0V34.86h.273v1.365h.035v1.107h-.308zm2.868.052a.918.918 0 0 1-.476-.12.84.84 0 0 1-.314-.339 1.094 1.094 0 0 1-.113-.508c0-.203.037-.378.111-.525a.81.81 0 0 1 .31-.344.88.88 0 0 1 .468-.122.83.83 0 0 1 .473.13.777.777 0 0 1 .294.367c.066.159.095.348.086.568h-.308v-.11c-.003-.228-.05-.398-.138-.51-.089-.113-.221-.17-.397-.17-.188 0-.331.06-.429.182-.098.121-.147.295-.147.522 0 .219.049.388.147.508a.51.51 0 0 0 .419.18.589.589 0 0 0 .318-.083.577.577 0 0 0 .212-.242l.292.1a.831.831 0 0 1-.325.382.895.895 0 0 1-.483.134zm-.682-.893v-.246h1.363v.246h-1.363zm1.901.841v-1.854h.272v.448l-.045-.058a.718.718 0 0 1 .084-.158.526.526 0 0 1 .118-.119.527.527 0 0 1 .162-.09.693.693 0 0 1 .361-.023v.287a.576.576 0 0 0-.21-.014.424.424 0 0 0-.212.084.462.462 0 0 0-.139.155.682.682 0 0 0-.066.197 1.17 1.17 0 0 0-.019.215v.93h-.306zm2.042.052a.918.918 0 0 1-.476-.12.84.84 0 0 1-.314-.339 1.094 1.094 0 0 1-.113-.508c0-.203.037-.378.111-.525a.81.81 0 0 1 .31-.344.88.88 0 0 1 .468-.122.83.83 0 0 1 .473.13.777.777 0 0 1 .294.367c.066.159.095.348.086.568h-.308v-.11c-.003-.228-.05-.398-.138-.51-.089-.113-.221-.17-.397-.17-.188 0-.331.06-.429.182-.098.121-.147.295-.147.522 0 .219.049.388.147.508a.51.51 0 0 0 .419.18.589.589 0 0 0 .318-.083.577.577 0 0 0 .212-.242l.292.1a.831.831 0 0 1-.325.382.895.895 0 0 1-.483.134zm-.682-.893v-.246h1.363v.246h-1.363zm3.11.893a.723.723 0 0 1-.347-.076.539.539 0 0 1-.21-.202.55.55 0 0 1-.07-.275.55.55 0 0 1 .054-.252.49.49 0 0 1 .158-.179.789.789 0 0 1 .241-.113c.087-.024.185-.045.294-.062.109-.019.219-.035.331-.05l.313-.043-.11.064c.004-.165-.029-.287-.099-.366-.068-.08-.186-.119-.355-.119a.55.55 0 0 0-.294.078.411.411 0 0 0-.176.247l-.289-.088a.684.684 0 0 1 .258-.383.845.845 0 0 1 .504-.139.94.94 0 0 1 .431.091.53.53 0 0 1 .26.272.6.6 0 0 1 .049.187c.007.066.011.136.011.21v1.146h-.27v-.444l.063.04a.765.765 0 0 1-.292.34.852.852 0 0 1-.455.116zm.046-.256c.109 0 .204-.02.284-.058a.514.514 0 0 0 .29-.37.703.703 0 0 0 .028-.19l.003-.163.106.046-.292.04a6.685 6.685 0 0 0-.272.04 2.548 2.548 0 0 0-.231.05.737.737 0 0 0-.141.062.313.313 0 0 0-.106.098.25.25 0 0 0-.04.146c0 .05.013.099.038.145a.291.291 0 0 0 .119.111.461.461 0 0 0 .214.043zm1.352.204v-1.854h.272v.448l-.045-.058a.718.718 0 0 1 .084-.158.526.526 0 0 1 .118-.119.527.527 0 0 1 .162-.09.693.693 0 0 1 .361-.023v.287a.576.576 0 0 0-.21-.014.424.424 0 0 0-.212.084.452.452 0 0 0-.139.155.654.654 0 0 0-.066.197 1.17 1.17 0 0 0-.019.215v.93h-.306zm2.041.052a.917.917 0 0 1-.475-.12.84.84 0 0 1-.314-.339 1.094 1.094 0 0 1-.113-.508c0-.203.037-.378.111-.525a.815.815 0 0 1 .309-.344.886.886 0 0 1 .469-.122.84.84 0 0 1 .473.13.777.777 0 0 1 .294.367c.066.159.094.348.085.568h-.307v-.11c-.004-.228-.05-.398-.139-.51-.089-.113-.221-.17-.396-.17-.188 0-.331.06-.429.182-.098.121-.147.295-.147.522 0 .219.049.388.147.508a.51.51 0 0 0 .419.18.585.585 0 0 0 .317-.083.57.57 0 0 0 .212-.242l.293.1a.831.831 0 0 1-.325.382.899.899 0 0 1-.484.134zm-.682-.893v-.246h1.364v.246h-1.364zm3.9.841v-.929c0-.088-.008-.172-.024-.254a.617.617 0 0 0-.08-.218.42.42 0 0 0-.396-.211.533.533 0 0 0-.209.04.417.417 0 0 0-.159.116.574.574 0 0 0-.104.2.968.968 0 0 0-.036.28l-.2-.063c0-.18.032-.333.096-.461a.7.7 0 0 1 .271-.297.798.798 0 0 1 .414-.105c.12 0 .222.019.306.056a.613.613 0 0 1 .21.152c.056.061.1.131.132.209a1.291 1.291 0 0 1 .087.46v1.025h-.308zm-1.316 0v-1.854h.274v.496h.034v1.358h-.308zm2.838.052a.88.88 0 0 1-.476-.125.823.823 0 0 1-.305-.347 1.146 1.146 0 0 1-.108-.509c0-.194.036-.365.109-.511a.814.814 0 0 1 .31-.342.875.875 0 0 1 .47-.124c.184 0 .343.042.476.126a.795.795 0 0 1 .306.345c.072.146.108.315.108.506 0 .194-.036.364-.108.512a.83.83 0 0 1-.307.345.888.888 0 0 1-.475.124zm0-.29c.191 0 .333-.064.427-.193a.828.828 0 0 0 .14-.498c0-.21-.047-.376-.142-.5-.094-.124-.236-.186-.425-.186a.54.54 0 0 0-.318.087.527.527 0 0 0-.187.242.962.962 0 0 0-.061.357c0 .209.048.376.143.502.096.126.237.189.423.189zm2.58.238v-.929c0-.088-.008-.172-.024-.254a.617.617 0 0 0-.08-.218.42.42 0 0 0-.396-.211.533.533 0 0 0-.209.04.417.417 0 0 0-.159.116.574.574 0 0 0-.104.2.968.968 0 0 0-.036.28l-.2-.063c0-.18.032-.333.096-.461a.696.696 0 0 1 .272-.297.792.792 0 0 1 .413-.105c.12 0 .222.019.306.056a.613.613 0 0 1 .21.152c.056.061.1.131.132.209a1.291 1.291 0 0 1 .087.46v1.025h-.308zm-1.316 0v-1.854h.274v.496h.034v1.358h-.308zm2.851.052a.917.917 0 0 1-.475-.12.84.84 0 0 1-.314-.339 1.094 1.094 0 0 1-.113-.508c0-.203.037-.378.111-.525a.815.815 0 0 1 .309-.344.886.886 0 0 1 .469-.122.84.84 0 0 1 .473.13.777.777 0 0 1 .294.367c.066.159.095.348.085.568h-.307v-.11c-.004-.228-.05-.398-.139-.51-.088-.113-.221-.17-.396-.17-.188 0-.331.06-.429.182-.098.121-.147.295-.147.522 0 .219.049.388.147.508a.51.51 0 0 0 .419.18.589.589 0 0 0 .318-.083.568.568 0 0 0 .211-.242l.293.1a.831.831 0 0 1-.325.382.899.899 0 0 1-.484.134zm-.682-.893v-.246h1.364v.246h-1.364zm2.62.841v-2.524h.304v2.524h-.304zm1.617.052a.917.917 0 0 1-.475-.12.85.85 0 0 1-.315-.339 1.094 1.094 0 0 1-.112-.508c0-.203.037-.378.111-.525a.815.815 0 0 1 .309-.344.88.88 0 0 1 .468-.122c.186 0 .344.043.474.13a.777.777 0 0 1 .294.367c.066.159.094.348.085.568h-.308v-.11c-.003-.228-.049-.398-.138-.51-.089-.113-.221-.17-.396-.17-.188 0-.331.06-.429.182-.098.121-.147.295-.147.522 0 .219.049.388.147.508.098.12.237.18.418.18a.589.589 0 0 0 .318-.083.57.57 0 0 0 .212-.242l.292.1a.829.829 0 0 1-.324.382.899.899 0 0 1-.484.134zm-.682-.893v-.246h1.364v.246h-1.364zm2.078.841v-1.956c0-.047.002-.096.006-.145a.65.65 0 0 1 .031-.146.361.361 0 0 1 .079-.133.363.363 0 0 1 .138-.1.521.521 0 0 1 .152-.037c.053-.005.102-.007.149-.007h.234v.254h-.217c-.09 0-.157.023-.202.067-.044.044-.066.11-.066.2v2.003h-.304zm-.313-1.602v-.252h1.102v.252h-1.102zm2.405 1.602c-.109.022-.217.03-.324.026a.718.718 0 0 1-.284-.063.413.413 0 0 1-.19-.186.569.569 0 0 1-.06-.221 9.77 9.77 0 0 1-.003-.256v-1.67h.304v1.656l.002.194c.002.054.014.1.036.14a.25.25 0 0 0 .195.128c.09.013.198.01.324-.01v.262zm-1.235-1.602v-.252h1.235v.252h-1.235zm-53.036-4.305c-.38 0-.705-.084-.974-.254a1.684 1.684 0 0 1-.618-.7 2.33 2.33 0 0 1-.216-1.003 2.29 2.29 0 0 1 .222-1.01c.149-.295.358-.527.629-.694.271-.17.594-.254.968-.254.419 0 .773.107 1.063.32.291.21.481.499.57.865l-.82.223a.9.9 0 0 0-.318-.463.816.816 0 0 0-.506-.169.864.864 0 0 0-.529.155.879.879 0 0 0-.308.419 1.746 1.746 0 0 0-.099.608c0 .352.078.637.236.855.157.217.39.326.7.326.219 0 .391-.05.516-.151a.895.895 0 0 0 .287-.436l.841.189c-.114.377-.313.668-.598.872-.285.202-.633.302-1.046.302zm2.329-.103v-3.709h.728v.903l-.089-.116c.046-.124.106-.236.181-.337.078-.103.17-.188.277-.254a1.352 1.352 0 0 1 .643-.21c.116-.009.229-.004.338.014v.773a1.048 1.048 0 0 0-.379-.031.867.867 0 0 0-.383.12.86.86 0 0 0-.437.567 1.42 1.42 0 0 0-.052.395v1.885h-.827zm4.294.103c-.369 0-.692-.083-.967-.25a1.72 1.72 0 0 1-.643-.69 2.215 2.215 0 0 1-.225-1.017c0-.39.077-.73.232-1.024.155-.293.37-.522.646-.687a1.83 1.83 0 0 1 .957-.247c.371 0 .695.084.971.25.275.168.49.4.642.695.153.293.229.63.229 1.013 0 .384-.077.724-.232 1.02a1.72 1.72 0 0 1-.643.69 1.846 1.846 0 0 1-.967.247zm0-.776c.328 0 .572-.11.731-.33.16-.22.24-.503.24-.851 0-.36-.081-.646-.243-.859-.162-.215-.404-.323-.728-.323a.932.932 0 0 0-.547.151.868.868 0 0 0-.314.416 1.68 1.68 0 0 0-.103.615c0 .36.081.646.243.862.164.213.404.32.721.32zm3.934.776c-.456 0-.826-.103-1.111-.309a1.284 1.284 0 0 1-.52-.869l.841-.13a.717.717 0 0 0 .287.432.943.943 0 0 0 .561.159c.198 0 .351-.04.458-.117a.384.384 0 0 0 .164-.326.311.311 0 0 0-.062-.203c-.038-.053-.125-.103-.259-.151a8.337 8.337 0 0 0-.619-.182 3.757 3.757 0 0 1-.738-.265.97.97 0 0 1-.393-.34.89.89 0 0 1-.12-.474c0-.23.06-.432.181-.604s.29-.303.506-.395c.217-.094.472-.14.766-.14.287 0 .541.044.762.133.223.09.403.216.54.381s.221.359.253.58l-.841.152a.534.534 0 0 0-.215-.375.87.87 0 0 0-.486-.154c-.193-.012-.349.018-.468.09-.118.068-.178.165-.178.291 0 .071.024.132.072.182.048.05.144.1.287.151.146.05.363.113.65.186.294.075.528.162.704.26a.938.938 0 0 1 .382.348c.08.135.12.298.12.49 0 .374-.135.667-.407.88-.268.213-.641.32-1.117.32zm3.698 0c-.456 0-.826-.103-1.111-.309a1.28 1.28 0 0 1-.519-.869l.84-.13a.714.714 0 0 0 .288.432.942.942 0 0 0 .56.159c.198 0 .351-.04.458-.117a.384.384 0 0 0 .164-.326.311.311 0 0 0-.061-.203c-.039-.053-.126-.103-.26-.151a8.337 8.337 0 0 0-.619-.182 3.757 3.757 0 0 1-.738-.265.983.983 0 0 1-.393-.34.89.89 0 0 1-.12-.474c0-.23.061-.432.181-.604.121-.172.29-.303.506-.395.217-.094.472-.14.766-.14.287 0 .541.044.762.133.223.09.403.216.54.381s.221.359.253.58l-.841.152a.53.53 0 0 0-.215-.375.87.87 0 0 0-.485-.154c-.194-.012-.35.018-.469.09-.118.068-.177.165-.177.291 0 .071.024.132.071.182.048.05.144.1.287.151.146.05.363.113.65.186.294.075.528.162.704.26a.941.941 0 0 1 .383.348.957.957 0 0 1 .119.49c0 .374-.135.667-.406.88-.269.213-.642.32-1.118.32zm2.926-.103-1.128-3.716.806.007.721 2.38.732-2.38h.694l.728 2.38.724-2.38h.807l-1.128 3.71h-.643l-.837-2.553-.834 2.552h-.642zm5.526.103c-.267 0-.492-.05-.677-.15a1.07 1.07 0 0 1-.42-.41 1.134 1.134 0 0 1-.14-.56c0-.178.029-.338.089-.48a.945.945 0 0 1 .273-.371c.123-.105.283-.191.478-.258a4.58 4.58 0 0 1 .52-.13c.201-.039.417-.075.649-.107.235-.034.48-.07.735-.11l-.294.169c.003-.257-.054-.445-.171-.567-.116-.121-.312-.182-.587-.182a1.06 1.06 0 0 0-.482.117.646.646 0 0 0-.325.402l-.752-.237c.091-.314.264-.566.519-.756.258-.19.604-.285 1.04-.285.328 0 .616.054.864.162.251.107.437.284.557.528.066.13.106.265.12.402.014.135.02.283.02.443v2.277h-.721v-.803l.12.13a1.655 1.655 0 0 1-.585.59c-.221.124-.497.186-.83.186zm.164-.66c.187 0 .346-.032.479-.099a.94.94 0 0 0 .314-.244.855.855 0 0 0 .161-.27 1.03 1.03 0 0 0 .071-.361c.007-.138.011-.249.011-.334l.253.076c-.249.039-.462.073-.64.103-.177.03-.33.058-.458.086-.127.025-.24.054-.338.086a1.042 1.042 0 0 0-.243.12.524.524 0 0 0-.153.158.406.406 0 0 0-.052.21c0 .091.023.172.069.243a.47.47 0 0 0 .198.165.777.777 0 0 0 .328.062zm2.811.557v-5.048h.823v5.048h-.823zm1.84 0 .007-4.945h.834v3.022l1.35-1.786h1.029l-1.432 1.855 1.555 1.854h-1.09l-1.412-1.786v1.786h-.841zm5.044.103c-.456 0-.826-.103-1.111-.309a1.28 1.28 0 0 1-.519-.869l.84-.13a.717.717 0 0 0 .287.432.946.946 0 0 0 .561.159c.198 0 .351-.04.458-.117a.384.384 0 0 0 .164-.326.311.311 0 0 0-.062-.203c-.038-.053-.125-.103-.259-.151a8.337 8.337 0 0 0-.619-.182 3.757 3.757 0 0 1-.738-.265.983.983 0 0 1-.393-.34.89.89 0 0 1-.12-.474c0-.23.061-.432.181-.604.121-.172.29-.303.506-.395.217-.094.472-.14.766-.14.287 0 .541.044.762.133.223.09.403.216.54.381s.221.359.253.58l-.841.152a.53.53 0 0 0-.215-.375.87.87 0 0 0-.486-.154c-.193-.012-.349.018-.468.09-.118.068-.178.165-.178.291 0 .071.024.132.072.182.048.05.144.1.287.151.146.05.363.113.65.186.294.075.528.162.704.26a.941.941 0 0 1 .383.348.957.957 0 0 1 .119.49c0 .374-.135.667-.407.88-.268.213-.641.32-1.117.32zm-33.535-7.349c-.174 0-.331-.03-.471-.09a.911.911 0 0 1-.346-.254.861.861 0 0 1-.176-.393l.315-.05c.04.156.122.278.248.366.126.087.275.13.446.13.11 0 .21-.017.299-.05a.5.5 0 0 0 .213-.152.356.356 0 0 0 .079-.232.318.318 0 0 0-.029-.14.28.28 0 0 0-.077-.102.453.453 0 0 0-.109-.072.83.83 0 0 0-.128-.048l-.628-.187a1.365 1.365 0 0 1-.198-.078.72.72 0 0 1-.171-.118.531.531 0 0 1-.164-.41.62.62 0 0 1 .113-.375.72.72 0 0 1 .309-.239c.13-.055.277-.081.439-.08.166 0 .313.03.443.089a.838.838 0 0 1 .499.634l-.323.056a.544.544 0 0 0-.114-.259.576.576 0 0 0-.219-.168.709.709 0 0 0-.289-.062.692.692 0 0 0-.272.048.471.471 0 0 0-.193.14.31.31 0 0 0-.072.202c0 .075.022.137.065.184a.497.497 0 0 0 .159.11c.064.026.126.047.187.065l.468.135c.053.015.115.036.184.062a.847.847 0 0 1 .205.112.552.552 0 0 1 .229.484.664.664 0 0 1-.268.551.918.918 0 0 1-.294.141c-.111.033-.231.05-.359.05zm2.08 0a.837.837 0 0 1-.79-.459 1.094 1.094 0 0 1-.113-.508c0-.203.037-.378.111-.526a.824.824 0 0 1 .31-.343.88.88 0 0 1 .468-.122c.186 0 .344.043.473.129a.776.776 0 0 1 .294.367c.066.16.095.349.086.569h-.308v-.11c-.003-.228-.049-.398-.138-.51-.089-.113-.221-.17-.397-.17-.188 0-.331.06-.429.182-.098.121-.147.295-.147.522 0 .219.049.388.147.508a.51.51 0 0 0 .419.18.589.589 0 0 0 .318-.084.57.57 0 0 0 .212-.242l.292.102a.83.83 0 0 1-.325.38.893.893 0 0 1-.483.135zm-.682-.893v-.246h1.364v.246h-1.364zm1.935.841V21.5h.305v2.524h-.305zm1.617.052a.918.918 0 0 1-.475-.12.841.841 0 0 1-.314-.339 1.082 1.082 0 0 1-.113-.508c0-.203.037-.378.111-.526a.815.815 0 0 1 .777-.465.84.84 0 0 1 .474.129.776.776 0 0 1 .294.367c.066.16.094.349.085.569h-.307v-.11c-.004-.228-.05-.398-.139-.51-.089-.113-.221-.17-.396-.17-.188 0-.331.06-.429.182-.098.121-.147.295-.147.522 0 .219.049.388.147.508.098.12.237.18.418.18a.589.589 0 0 0 .318-.084.57.57 0 0 0 .212-.242l.292.102a.828.828 0 0 1-.324.38.899.899 0 0 1-.484.135zm-.682-.893v-.246h1.364v.246h-1.364zm2.679.893a.87.87 0 0 1-.477-.126.817.817 0 0 1-.297-.348 1.225 1.225 0 0 1-.106-.505 1.2 1.2 0 0 1 .108-.51.805.805 0 0 1 .302-.345.872.872 0 0 1 .474-.124c.195 0 .362.048.502.144a.696.696 0 0 1 .284.395l-.301.091a.497.497 0 0 0-.19-.25.513.513 0 0 0-.299-.09c-.126 0-.23.03-.312.09a.518.518 0 0 0-.183.243.998.998 0 0 0-.062.356c.002.206.05.373.142.5.093.126.232.189.415.189a.518.518 0 0 0 .301-.083.512.512 0 0 0 .181-.242l.308.08a.798.798 0 0 1-.299.397.857.857 0 0 1-.491.138zm2.169-.052a1.38 1.38 0 0 1-.325.026.713.713 0 0 1-.283-.064.409.409 0 0 1-.19-.185.568.568 0 0 1-.06-.221 9.76 9.76 0 0 1-.003-.256v-1.67h.304v1.656l.002.194a.3.3 0 0 0 .036.139.25.25 0 0 0 .194.129c.09.012.199.009.325-.01v.262zm-1.235-1.602v-.252h1.235v.252h-1.235zm2.819 1.654a.722.722 0 0 1-.347-.076.526.526 0 0 1-.281-.477c0-.098.019-.182.055-.253a.499.499 0 0 1 .157-.178.812.812 0 0 1 .241-.113c.088-.024.186-.045.294-.062.11-.019.22-.035.332-.05l.313-.043-.11.063c.004-.164-.029-.286-.099-.365-.068-.08-.187-.119-.355-.119a.551.551 0 0 0-.294.078.408.408 0 0 0-.176.247l-.289-.088a.674.674 0 0 1 .258-.383c.127-.093.296-.139.504-.139.167 0 .311.03.431.091a.58.58 0 0 1 .309.459c.007.066.01.136.01.21v1.146h-.27v-.445l.063.042a.752.752 0 0 1-.292.34.846.846 0 0 1-.454.115zm.046-.256a.65.65 0 0 0 .283-.058.517.517 0 0 0 .291-.37.703.703 0 0 0 .027-.19c.003-.071.004-.126.004-.163l.106.046-.293.04a6.459 6.459 0 0 0-.271.04 2.137 2.137 0 0 0-.231.05.768.768 0 0 0-.142.062.333.333 0 0 0-.106.098.257.257 0 0 0-.039.146c0 .05.012.099.038.144a.291.291 0 0 0 .119.112.463.463 0 0 0 .214.043zm1.386.204V21.5h.304v2.524h-.304zm.851 0V21.5h.304v2.524h-.304zm1.535-2.182v-.316h.304v.316h-.304zm0 2.182V22.17h.304v1.854h-.304zm3.023 0 .002-1.186a.452.452 0 0 0-.111-.325.37.37 0 0 0-.285-.118.414.414 0 0 0-.195.048.36.36 0 0 0-.151.147.51.51 0 0 0-.058.256l-.16-.065a.655.655 0 0 1 .08-.345.604.604 0 0 1 .232-.232.668.668 0 0 1 .332-.082c.192 0 .344.059.455.177.11.116.165.274.165.472l-.001 1.253h-.305zm-2.208 0V22.17h.272v.496h.034v1.358h-.306zm1.106 0 .002-1.174a.477.477 0 0 0-.11-.333.368.368 0 0 0-.29-.122.373.373 0 0 0-.291.123.472.472 0 0 0-.111.328l-.16-.096a.608.608 0 0 1 .318-.546.67.67 0 0 1 .333-.082c.124 0 .232.026.325.079a.532.532 0 0 1 .213.226c.05.098.075.214.075.349l-.001 1.248h-.303zm2.378.052a.725.725 0 0 1-.347-.076.539.539 0 0 1-.21-.202.55.55 0 0 1-.07-.275.49.49 0 0 1 .212-.431.789.789 0 0 1 .241-.113c.087-.024.185-.045.294-.062.109-.019.22-.035.331-.05l.313-.043-.109.063c.003-.164-.03-.286-.1-.365-.068-.08-.186-.119-.355-.119a.551.551 0 0 0-.294.078.412.412 0 0 0-.176.247l-.289-.088a.684.684 0 0 1 .258-.383c.128-.093.296-.139.504-.139a.94.94 0 0 1 .431.091.572.572 0 0 1 .309.459c.007.066.011.136.011.21v1.146h-.27v-.445l.063.042a.764.764 0 0 1-.292.34.852.852 0 0 1-.455.115zm.046-.256a.64.64 0 0 0 .284-.058.502.502 0 0 0 .29-.37.702.702 0 0 0 .028-.19l.003-.163.106.046-.292.04a6.514 6.514 0 0 0-.272.04 2.248 2.248 0 0 0-.231.05.731.731 0 0 0-.141.062.313.313 0 0 0-.106.098.25.25 0 0 0-.04.146c0 .05.013.099.038.144a.288.288 0 0 0 .12.112.455.455 0 0 0 .213.043zm2.099 1.08a.92.92 0 0 1-.284-.045.828.828 0 0 1-.255-.135.743.743 0 0 1-.191-.227l.279-.148c.045.09.11.157.193.198a.583.583 0 0 0 .259.062.594.594 0 0 0 .293-.066.387.387 0 0 0 .171-.19.775.775 0 0 0 .054-.316v-.507h.036V22.17h.27v1.866c0 .05-.002.1-.005.146a.924.924 0 0 1-.017.14.632.632 0 0 1-.415.515 1.093 1.093 0 0 1-.388.063zm-.022-.824a.756.756 0 0 1-.443-.129.852.852 0 0 1-.285-.352 1.197 1.197 0 0 1-.1-.5 1.2 1.2 0 0 1 .1-.5.827.827 0 0 1 .285-.348.75.75 0 0 1 .441-.129.74.74 0 0 1 .439.127.773.773 0 0 1 .268.349c.062.147.093.315.093.501 0 .185-.031.351-.093.5a.795.795 0 0 1-.268.352.724.724 0 0 1-.437.129zm.037-.28a.5.5 0 0 0 .306-.09.527.527 0 0 0 .176-.248 1.05 1.05 0 0 0 .058-.363 1.03 1.03 0 0 0-.058-.362.516.516 0 0 0-.174-.246.484.484 0 0 0-.299-.089.5.5 0 0 0-.311.093.546.546 0 0 0-.181.25 1.013 1.013 0 0 0-.059.354c0 .132.02.251.06.357.04.106.1.19.18.251a.481.481 0 0 0 .302.093zm2.087.28a.918.918 0 0 1-.475-.12.841.841 0 0 1-.314-.339 1.082 1.082 0 0 1-.113-.508c0-.203.037-.378.111-.526a.815.815 0 0 1 .777-.465.84.84 0 0 1 .474.129.776.776 0 0 1 .294.367c.066.16.094.349.085.569h-.307v-.11c-.004-.228-.05-.398-.139-.51-.089-.113-.221-.17-.396-.17-.188 0-.331.06-.429.182-.098.121-.147.295-.147.522 0 .219.049.388.147.508.098.12.237.18.418.18a.589.589 0 0 0 .318-.084.57.57 0 0 0 .212-.242l.292.102a.828.828 0 0 1-.324.38.899.899 0 0 1-.484.135zm-.682-.893v-.246h1.364v.246h-1.364zm2.599.891a.943.943 0 0 1-.542-.144.61.61 0 0 1-.258-.407l.311-.05c.025.1.083.18.173.24.09.059.201.088.335.088a.494.494 0 0 0 .297-.079.252.252 0 0 0 .108-.215.207.207 0 0 0-.036-.127c-.024-.033-.074-.064-.149-.092a3.474 3.474 0 0 0-.337-.103 2.086 2.086 0 0 1-.384-.136.497.497 0 0 1-.2-.163.406.406 0 0 1-.06-.225c0-.109.03-.204.089-.285a.566.566 0 0 1 .248-.19.96.96 0 0 1 .372-.068.99.99 0 0 1 .376.067c.111.045.2.108.267.19a.525.525 0 0 1 .121.286l-.311.056a.337.337 0 0 0-.143-.235.547.547 0 0 0-.31-.09.506.506 0 0 0-.292.063.216.216 0 0 0-.111.19c0 .045.014.083.041.115.029.032.08.063.156.091.076.029.186.062.331.098.163.041.291.087.385.136a.48.48 0 0 1 .201.172c.04.065.06.146.06.242 0 .178-.065.32-.196.422-.131.102-.312.153-.542.153zm2.192-.05-.564-1.856.303.002.412 1.356.415-1.356h.268l.414 1.356.413-1.356h.301l-.564 1.854h-.253l-.446-1.41-.446 1.41h-.253zm2.305-2.182v-.316h.304v.316h-.304zm0 2.182V22.17h.304v1.854h-.304zm1.847 0c-.109.022-.217.03-.324.026a.718.718 0 0 1-.284-.064.414.414 0 0 1-.19-.185.55.55 0 0 1-.059-.221 6.583 6.583 0 0 1-.004-.256v-1.67h.304v1.656l.002.194a.3.3 0 0 0 .036.139.25.25 0 0 0 .195.129c.09.012.198.009.324-.01v.262zm-1.235-1.602v-.252h1.235v.252h-1.235zm2.924 1.602v-.929a1.31 1.31 0 0 0-.024-.254.617.617 0 0 0-.08-.218.42.42 0 0 0-.396-.211.535.535 0 0 0-.209.04.416.416 0 0 0-.159.116.572.572 0 0 0-.104.2.968.968 0 0 0-.036.28l-.2-.063c0-.18.032-.333.096-.462a.697.697 0 0 1 .272-.297.79.79 0 0 1 .413-.104.74.74 0 0 1 .306.056.613.613 0 0 1 .21.151c.056.062.1.132.132.21a1.291 1.291 0 0 1 .087.46v1.025h-.308zm-1.316 0v-2.473h.274v1.366h.034v1.107h-.308z" fill="#fff"/><path fill-rule="evenodd" clip-rule="evenodd" d="M133.954 136.053a2.488 2.488 0 0 0-.532 1.458v.848h-.633v-.848c0-.506.183-1.24.67-1.854.498-.628 1.301-1.114 2.494-1.114 1.194 0 1.997.486 2.494 1.114.487.614.67 1.348.67 1.854v.848h-.633v-.848c0-.377-.143-.968-.532-1.458-.378-.476-.999-.874-1.999-.874s-1.621.398-1.999.874z" fill="#787878"/><path d="M132.789 138.359h2.109v2.967h-1.265c-.281 0-.844-.169-.844-.848v-2.119zm6.328 0h-2.109v2.967h1.265c.282 0 .844-.169.844-.848v-2.119z" fill="#787878"/><path fill-rule="evenodd" clip-rule="evenodd" d="M148.82 140.69a2.748 2.748 0 0 0 2.742-2.755 2.749 2.749 0 0 0-2.742-2.756 2.75 2.75 0 0 0-2.742 2.756 2.748 2.748 0 0 0 2.742 2.755zm0 .636a3.383 3.383 0 0 0 3.375-3.391 3.384 3.384 0 0 0-3.375-3.392 3.384 3.384 0 0 0-3.375 3.392 3.383 3.383 0 0 0 3.375 3.391z" fill="#787878"/><path fill-rule="evenodd" clip-rule="evenodd" d="M149.137 137.723v1.907h-.633v-1.907h.633zm0-1.484v.636h-.633v-.636h.633zm-26.262-1.06a2.75 2.75 0 0 0-2.742 2.756 2.748 2.748 0 0 0 2.742 2.755 2.74 2.74 0 0 0 2.452-1.52l.566.285a3.375 3.375 0 0 1-3.018 1.871 3.383 3.383 0 0 1-3.375-3.391 3.384 3.384 0 0 1 3.375-3.392c1.32 0 2.463.762 3.018 1.871l-.566.286a2.74 2.74 0 0 0-2.452-1.521z" fill="#787878"/><path d="M126.145 137.087v-2.438l-2.321 2.438h2.321z" fill="#787878"/><path d="M30 52c0-2.21 1.81-4 4.041-4H285.96c2.232 0 4.041 1.79 4.041 4v56c0 2.209-1.809 4-4.041 4H34.041C31.81 112 30 110.209 30 108V52z" fill="#fff"/><path fill-rule="evenodd" clip-rule="evenodd" d="M285.959 49.333H34.041c-1.488 0-2.694 1.194-2.694 2.667v56c0 1.473 1.206 2.667 2.694 2.667H285.96c1.488 0 2.694-1.194 2.694-2.667V52c0-1.473-1.206-2.667-2.694-2.667zM34.041 48C31.81 48 30 49.79 30 52v56c0 2.209 1.81 4 4.041 4H285.96c2.232 0 4.041-1.791 4.041-4V52c0-2.21-1.809-4-4.041-4H34.041z" fill="#D1D8E4"/><path d="M246.175 72.015h-11.407v11.387l3.022-2.96c1.116 1.587 4.758 4.787 10.4 4.89 5.641.103 9.565-3.496 10.822-5.308l-4.973-4.857c-.585 1.03-2.372 3.378-5.849 3.41-2.782.026-4.843-2.048-5.525-3.088l3.51-3.474z" fill="#A2A8B4"/><path d="M236.068 66.161c-1.092 2.033-1.322 4.75-1.3 5.854h6.825c-.011-.472.136-1.737.812-3.023.676-1.287 1.798-2.123 2.275-2.38l3.51 3.409V58.666h-11.472l2.99 2.992c-.759.654-2.548 2.47-3.64 4.503z" fill="#3C7EEF"/><path d="M254.138 59.986c-2.054-1.08-4.799-1.308-5.915-1.286v6.754c.477-.01 1.755.136 3.055.805 1.3.669 2.145 1.78 2.405 2.251l-3.445 3.474h11.472V60.63l-3.022 2.959c-.661-.75-2.496-2.522-4.55-3.603z" fill="#19349F"/><path d="M218.908 101.333v-5.76h.857v1.392l-.14-.181c.068-.178.156-.342.264-.49.111-.15.235-.273.372-.369.151-.12.321-.213.512-.277.19-.064.384-.102.582-.112.197-.014.382-.002.555.037v.89a1.84 1.84 0 0 0-.663-.042 1.35 1.35 0 0 0-.668.261 1.428 1.428 0 0 0-.437.48c-.1.189-.17.393-.21.614a3.76 3.76 0 0 0-.059.666v2.891h-.965zm6.437.16c-.571 0-1.07-.124-1.498-.373a2.628 2.628 0 0 1-.991-1.051c-.237-.451-.356-.978-.356-1.579 0-.629.117-1.173.35-1.631a2.55 2.55 0 0 1 .976-1.067c.42-.253.912-.379 1.476-.379.586 0 1.083.133 1.493.4.413.267.722.647.927 1.141.208.495.298 1.083.269 1.766h-.97v-.341c-.011-.708-.156-1.236-.436-1.585-.281-.352-.697-.528-1.251-.528-.592 0-1.043.189-1.352.566-.309.377-.464.917-.464 1.621 0 .68.155 1.206.464 1.579.309.373.749.56 1.32.56.385 0 .719-.087 1.002-.262.284-.174.507-.424.669-.751l.921.314a2.589 2.589 0 0 1-1.024 1.184 2.862 2.862 0 0 1-1.525.416zm-2.15-2.773v-.763h4.3v.763h-4.3zm9.186 2.773c-.773 0-1.428-.169-1.967-.507a3.264 3.264 0 0 1-1.234-1.407c-.28-.601-.42-1.296-.42-2.086 0-.79.14-1.484.42-2.085A3.268 3.268 0 0 1 230.414 94c.539-.338 1.194-.507 1.967-.507.898 0 1.636.226 2.215.678.581.451.982 1.06 1.201 1.823l-.975.257c-.158-.573-.44-1.025-.846-1.355-.406-.33-.938-.496-1.595-.496-.579 0-1.06.13-1.444.39a2.368 2.368 0 0 0-.868 1.087c-.194.462-.293 1.001-.296 1.616-.004.612.091 1.15.285 1.616a2.4 2.4 0 0 0 .873 1.088c.388.26.871.389 1.45.389.657 0 1.189-.165 1.595-.496.406-.334.688-.785.846-1.354l.975.256c-.219.76-.62 1.369-1.201 1.824-.579.451-1.317.677-2.215.677zm3.849-.16 2.597-7.68h1.336l2.598 7.68h-.997l-2.431-7.125h.302l-2.409 7.125h-.996zm1.25-1.797v-.89h4.03v.89h-4.03zm6.245 1.797v-7.68h3.066c.076 0 .166.004.27.01.104.004.205.015.302.033.42.064.772.206 1.056.427.287.22.503.5.646.837.144.334.216.706.216 1.115 0 .405-.074.776-.221 1.114a2.092 2.092 0 0 1-.647.838c-.283.22-.634.362-1.05.426a3.943 3.943 0 0 1-.572.043h-2.107v2.837h-.959zm.959-3.739h2.075c.068 0 .146-.003.232-.01.09-.007.174-.02.253-.038.248-.056.449-.16.604-.309a1.36 1.36 0 0 0 .344-.533c.072-.206.108-.416.108-.63 0-.213-.036-.42-.108-.623a1.354 1.354 0 0 0-.344-.54 1.194 1.194 0 0 0-.604-.308 1.138 1.138 0 0 0-.253-.038 2.862 2.862 0 0 0-.232-.01h-2.075v3.04zm7.671 3.739v-6.778h-2.646v-.902h6.251v.901h-2.646v6.779h-.959zm7.653.16c-.772 0-1.428-.169-1.967-.507a3.264 3.264 0 0 1-1.234-1.407c-.28-.601-.42-1.296-.42-2.086 0-.79.14-1.484.42-2.085A3.268 3.268 0 0 1 258.041 94c.539-.338 1.195-.507 1.967-.507.898 0 1.636.226 2.215.678.582.451.982 1.06 1.201 1.823l-.975.257c-.158-.573-.44-1.025-.846-1.355-.406-.33-.938-.496-1.595-.496-.578 0-1.06.13-1.444.39a2.368 2.368 0 0 0-.868 1.087c-.194.462-.293 1.001-.296 1.616-.004.612.091 1.15.285 1.616a2.4 2.4 0 0 0 .873 1.088c.388.26.872.389 1.45.389.657 0 1.189-.165 1.595-.496.406-.334.688-.785.846-1.354l.975.256c-.219.76-.619 1.369-1.201 1.824-.579.451-1.317.677-2.215.677zm4.598-.16v-7.68h.959v3.387h4.085v-3.387h.959v7.68h-.959v-3.392h-4.085v3.392h-.959zm6.976 0 2.597-7.68h1.336l2.598 7.68h-.997l-2.43-7.125h.301l-2.408 7.125h-.997zm1.25-1.797v-.89h4.031v.89h-4.031z" fill="#A2A8B4"/><path d="M80.814 85.333v-8.64h1.08v8.64h-1.08zm2.959-5.94.067-.498c.17.012.297-.02.382-.096a.533.533 0 0 0 .163-.312c.025-.132.029-.278.012-.438h-.624v-1.356h1.188v1.536c0 .42-.105.736-.315.948-.206.212-.497.284-.873.216zm10.702 5.94.006-4.146c0-.484-.131-.862-.394-1.134-.258-.276-.596-.414-1.012-.414a1.49 1.49 0 0 0-.691.168c-.219.108-.396.28-.534.516-.137.232-.206.53-.206.894l-.57-.228c-.008-.46.087-.862.285-1.206.202-.348.477-.618.825-.81a2.39 2.39 0 0 1 1.176-.288c.683 0 1.22.206 1.612.618.392.408.588.958.588 1.65l-.006 4.38h-1.079zm-7.832 0v-6.48h.964v1.734h.12v4.746h-1.084zm3.922 0 .006-4.104c0-.496-.13-.884-.388-1.164-.259-.284-.602-.426-1.03-.426-.425 0-.768.144-1.031.432-.263.288-.394.67-.394 1.146l-.57-.336a2.126 2.126 0 0 1 1.128-1.908 2.404 2.404 0 0 1 1.182-.288c.44 0 .824.092 1.151.276.328.184.58.448.758.792.178.34.267.746.267 1.218l-.006 4.362h-1.073zm13.663 0v-3.246c0-.308-.028-.604-.085-.888a2.19 2.19 0 0 0-.285-.762 1.463 1.463 0 0 0-.545-.54c-.226-.132-.513-.198-.861-.198a1.92 1.92 0 0 0-.74.138 1.44 1.44 0 0 0-.563.408 1.97 1.97 0 0 0-.37.696 3.34 3.34 0 0 0-.127.978l-.71-.216c0-.628.113-1.166.34-1.614.23-.452.551-.798.964-1.038.416-.244.905-.366 1.467-.366.424 0 .786.066 1.085.198.299.132.547.308.746.528.198.216.353.46.466.732.113.268.192.542.237.822.048.276.072.538.072.786v3.582h-1.091zm-4.668 0v-6.48h.97v1.734h.122v4.746H99.56zm10.065.18c-.651 0-1.212-.146-1.685-.438a2.907 2.907 0 0 1-1.085-1.212c-.255-.516-.382-1.108-.382-1.776 0-.68.129-1.276.388-1.788.258-.512.624-.91 1.097-1.194.473-.288 1.028-.432 1.667-.432.655 0 1.218.146 1.691.438.473.288.835.69 1.085 1.206.255.512.382 1.102.382 1.77 0 .676-.127 1.272-.382 1.788a2.902 2.902 0 0 1-1.091 1.206c-.473.288-1.034.432-1.685.432zm0-1.014c.679 0 1.184-.224 1.515-.672.332-.448.498-1.028.498-1.74 0-.732-.168-1.314-.504-1.746-.335-.436-.838-.654-1.509-.654-.457 0-.833.102-1.128.306a1.83 1.83 0 0 0-.66.846c-.146.36-.219.776-.219 1.248 0 .728.17 1.312.51 1.752.339.44.838.66 1.497.66zm8.149.834a4.902 4.902 0 0 1-1.152.09 2.58 2.58 0 0 1-1.007-.222 1.436 1.436 0 0 1-.672-.648 1.891 1.891 0 0 1-.213-.774 29.804 29.804 0 0 1-.012-.894v-5.832h1.079v5.784c0 .264.002.49.006.678.008.188.051.35.128.486.145.256.376.406.691.45.319.044.703.032 1.152-.036v.918zm-4.383-5.598v-.882h4.383v.882h-4.383zm10 5.778c-.489 0-.899-.088-1.231-.264a1.894 1.894 0 0 1-.745-.708 1.909 1.909 0 0 1-.249-.96c0-.34.065-.634.194-.882.134-.252.32-.46.558-.624.238-.168.523-.3.855-.396a9.89 9.89 0 0 1 1.042-.216c.388-.064.78-.122 1.177-.174.396-.052.765-.102 1.109-.15l-.388.222c.012-.576-.105-1.002-.352-1.278-.242-.276-.662-.414-1.261-.414-.396 0-.743.09-1.042.27-.295.176-.503.464-.625.864l-1.024-.306a2.368 2.368 0 0 1 .915-1.338c.453-.324 1.049-.486 1.789-.486.594 0 1.103.106 1.527.318.429.208.736.524.922.948.093.2.151.418.175.654.025.232.037.476.037.732v4.008h-.958V83.78l.224.144c-.246.524-.592.92-1.036 1.188-.441.268-.978.402-1.613.402zm.164-.894c.388 0 .723-.068 1.006-.204.287-.14.517-.322.691-.546.174-.228.287-.476.34-.744.06-.2.093-.422.097-.666.008-.248.012-.438.012-.57l.376.162c-.352.048-.697.094-1.037.138a23.92 23.92 0 0 0-.964.144 7.216 7.216 0 0 0-.818.174 2.657 2.657 0 0 0-.503.216 1.135 1.135 0 0 0-.376.342.883.883 0 0 0-.14.51c0 .176.045.344.134.504.093.16.234.29.424.39.194.1.447.15.758.15zm7.222.714v-6.48h.964v1.566l-.158-.204c.077-.2.176-.384.298-.552a1.84 1.84 0 0 1 .418-.414c.17-.136.362-.24.576-.312.214-.072.432-.114.654-.126.223-.016.431-.002.625.042v1.002a2.067 2.067 0 0 0-.746-.048 1.526 1.526 0 0 0-.752.294c-.21.148-.373.328-.491.54a2.318 2.318 0 0 0-.236.69 4.218 4.218 0 0 0-.067.75v3.252h-1.085zm7.193.18c-.65 0-1.212-.146-1.685-.438a2.914 2.914 0 0 1-1.085-1.212c-.255-.516-.382-1.108-.382-1.776 0-.68.129-1.276.388-1.788s.624-.91 1.097-1.194c.473-.288 1.029-.432 1.667-.432.655 0 1.219.146 1.692.438.473.288.834.69 1.085 1.206.254.512.382 1.102.382 1.77 0 .676-.128 1.272-.382 1.788a2.915 2.915 0 0 1-1.091 1.206c-.473.288-1.035.432-1.686.432zm0-1.014c.679 0 1.185-.224 1.516-.672.331-.448.497-1.028.497-1.74 0-.732-.168-1.314-.503-1.746-.336-.436-.839-.654-1.51-.654-.456 0-.832.102-1.127.306a1.84 1.84 0 0 0-.661.846c-.145.36-.218.776-.218 1.248 0 .728.17 1.312.509 1.752.339.44.839.66 1.497.66zm7.5 1.014c-.614 0-1.131-.15-1.552-.45a2.849 2.849 0 0 1-.957-1.23c-.215-.52-.322-1.102-.322-1.746 0-.652.107-1.236.322-1.752.218-.516.537-.922.957-1.218.425-.296.944-.444 1.558-.444.607 0 1.128.15 1.564.45.441.296.778.702 1.013 1.218.234.516.351 1.098.351 1.746 0 .648-.117 1.23-.351 1.746a2.935 2.935 0 0 1-1.013 1.23c-.436.3-.959.45-1.57.45zm-3.013-.18v-8.64h1.086v3.87h-.122v4.77h-.964zm2.88-.798c.432 0 .79-.108 1.073-.324a1.95 1.95 0 0 0 .636-.876c.142-.372.213-.788.213-1.248a3.41 3.41 0 0 0-.213-1.236 1.876 1.876 0 0 0-.642-.876c-.287-.216-.653-.324-1.097-.324-.425 0-.776.104-1.055.312-.279.204-.487.49-.625.858a3.583 3.583 0 0 0-.206 1.266c0 .472.067.894.2 1.266.138.368.348.658.631.87.283.208.644.312 1.085.312zm7.185.978c-.651 0-1.212-.146-1.685-.438a2.907 2.907 0 0 1-1.085-1.212c-.255-.516-.382-1.108-.382-1.776 0-.68.129-1.276.388-1.788.258-.512.624-.91 1.097-1.194.473-.288 1.028-.432 1.667-.432.655 0 1.218.146 1.691.438.473.288.835.69 1.085 1.206.255.512.382 1.102.382 1.77 0 .676-.127 1.272-.382 1.788a2.902 2.902 0 0 1-1.091 1.206c-.473.288-1.034.432-1.685.432zm0-1.014c.679 0 1.184-.224 1.515-.672.332-.448.498-1.028.498-1.74 0-.732-.168-1.314-.504-1.746-.335-.436-.838-.654-1.509-.654-.457 0-.833.102-1.128.306a1.83 1.83 0 0 0-.66.846c-.146.36-.219.776-.219 1.248 0 .728.17 1.312.51 1.752.339.44.838.66 1.497.66zm8.149.834a4.902 4.902 0 0 1-1.152.09 2.58 2.58 0 0 1-1.007-.222 1.436 1.436 0 0 1-.672-.648 1.891 1.891 0 0 1-.213-.774 29.804 29.804 0 0 1-.012-.894v-5.832h1.079v5.784c0 .264.002.49.006.678.008.188.051.35.128.486.145.256.376.406.691.45.319.044.703.032 1.152-.036v.918zm-4.383-5.598v-.882h4.383v.882h-4.383z" fill="#000"/><path fill-rule="evenodd" clip-rule="evenodd" d="m70.693 72.276-15.771 15.61-7.015-6.944 1.905-1.885 5.11 5.057L68.788 70.39l1.905 1.886z" fill="#178D5D"/></svg>