<svg width="320" height="160" fill="none" xmlns="http://www.w3.org/2000/svg"><rect width="320" height="160" rx="10" fill="#F3F8FF"/><rect x="74" y="99" width="56" height="36" rx="3" fill="#fff"/><rect x="74" y="99" width="56" height="36" rx="3" fill="#fff"/><rect x="74" y="99" width="56" height="36" rx="3" fill="#fff"/><rect x="74" y="99" width="56" height="36" rx="3" fill="#fff"/><rect x="197" y="102" width="55" height="35" rx="3" fill="#fff"/><rect x="197" y="102" width="55" height="35" rx="3" fill="#fff"/><rect x="197" y="102" width="55" height="35" rx="3" fill="#fff"/><rect x="197" y="102" width="55" height="35" rx="3" fill="#fff"/><rect x="153" y="101" width="19" height="38.5" rx="3" fill="#fff"/><rect x="153" y="101" width="19" height="38.5" rx="3" fill="#fff"/><rect x="153" y="101" width="19" height="38.5" rx="3" fill="#fff"/><rect x="153" y="101" width="19" height="38.5" rx="3" fill="#fff"/><path fill-rule="evenodd" clip-rule="evenodd" d="m187.05 40.508-.04-1.104c-.36-9.89-8.492-17.797-18.47-17.797-6.519 0-12.251 3.374-15.543 8.478l-.768 1.19-1.278-.612a10.397 10.397 0 0 0-4.509-1.02c-5.769 0-10.446 4.677-10.446 10.446 0 .663.061 1.31.178 1.935l.265 1.415-1.377.418c-5.275 1.604-9.111 6.508-9.111 12.304 0 7.1 5.756 12.857 12.857 12.857h44.598c7.989 0 14.465-6.476 14.465-14.464 0-6.345-4.087-11.74-9.776-13.688l-1.045-.358zm12.428 14.046c0 8.875-7.196 16.071-16.072 16.071h-44.598c-7.988 0-14.464-6.476-14.464-14.464 0-6.523 4.317-12.037 10.25-13.841a12.14 12.14 0 0 1-.206-2.23c0-6.658 5.397-12.054 12.054-12.054 1.864 0 3.629.423 5.204 1.178C155.222 23.67 161.453 20 168.54 20c10.846 0 19.685 8.595 20.076 19.345 6.319 2.165 10.862 8.156 10.862 15.209z" fill="#4285F3"/><path fill-rule="evenodd" clip-rule="evenodd" d="m172.203 38.957 1.033-1.028 1.032 4.982-5.083-1.028 1.033-.949s-1.351-1.66-3.971-2.61c-2.542-.948-5.401-1.106-8.101-.078-2.621.948-3.892 2.45-3.892 2.45l-2.064-1.739s1.906-1.897 4.288-2.925c2.383-1.028 5.639-1.582 9.054-.791 3.494.79 5.956 3.005 6.274 3.242.238.237.397.474.397.474z" fill="#4285F3"/><path fill-rule="evenodd" clip-rule="evenodd" d="m155.128 38.008-.953 4.903-.953-1.028s-1.271 1.344-1.986 3.637c-.635 2.293-.715 4.903.159 7.037.874 2.215 2.065 3.717 2.383 4.033l.397.395-2.065 1.898s-1.827-1.898-2.78-4.033c-.953-2.134-1.509-4.586-1.191-7.511.318-2.926 1.668-5.456 2.224-6.247.555-.79.873-1.107.873-1.107l-1.032-1.107 4.924-.87z" fill="#679CF6"/><path fill-rule="evenodd" clip-rule="evenodd" d="m173.394 50.344 2.78.474s-.079 2.293-1.668 5.14c-1.588 2.846-4.129 4.665-6.035 5.614-1.907 1.028-6.036 1.976-9.769 1.028-3.812-1.028-5.48-2.768-5.48-2.768l-1.112 1.028-.873-4.981 4.924.948-.874.95s1.906 1.739 4.765 2.213c2.78.396 5.957 0 8.498-1.74 2.462-1.739 3.812-3.953 4.289-5.534.476-1.66.555-2.372.555-2.372z" fill="#ADCBFB"/><path fill-rule="evenodd" clip-rule="evenodd" d="M162.196 57.381s1.509.158 3.256-1.265c1.747-1.423 2.939-3.4 3.415-5.14.397-1.74.397-2.61.397-3.084v-4.507l-7.068-2.925v3.005l4.289 1.818v3.48c0 .79-.398 1.976-1.033 3.162a6.65 6.65 0 0 1-2.065 2.293c-.635.395-1.191.395-1.191.395v2.768z" fill="#B0CCFC"/><path fill-rule="evenodd" clip-rule="evenodd" d="M162.196 57.381s-1.588.158-3.256-1.265c-1.747-1.423-3.018-3.4-3.415-5.14-.477-1.74-.477-2.61-.477-3.084v-4.507l7.148-2.925v3.005l-4.289 1.818v3.48c0 .79.397 1.976 1.033 3.162.635 1.107 1.429 1.898 2.065 2.293a2.277 2.277 0 0 0 1.191.395v2.768z" fill="#649DF7"/><path fill-rule="evenodd" clip-rule="evenodd" d="M158.463 48.762s1.43 1.423 2.224 2.135c.715.79 1.588.316 1.985-.079l6.036-5.93-1.032-1.107-6.036 6.01-2.144-2.057-1.033 1.028z" fill="#4285F3"/><path fill-rule="evenodd" clip-rule="evenodd" d="M169.625 101.281h-14.063a1.969 1.969 0 0 0-1.968 1.969V137c0 1.087.881 1.969 1.968 1.969h14.063a1.97 1.97 0 0 0 1.969-1.969v-33.75a1.97 1.97 0 0 0-1.969-1.969zm-14.063-.843a2.812 2.812 0 0 0-2.812 2.812V137a2.812 2.812 0 0 0 2.812 2.812h14.063a2.813 2.813 0 0 0 2.813-2.812v-33.75a2.813 2.813 0 0 0-2.813-2.812h-14.063z" fill="#679CF6"/><path d="M154.719 103.25a.844.844 0 1 1 1.688 0 .844.844 0 0 1-1.688 0z" fill="#679CF6"/><path fill-rule="evenodd" clip-rule="evenodd" d="M196.344 104.656a2.812 2.812 0 0 1 2.812-2.812h50.625a2.812 2.812 0 0 1 2.813 2.812v29.532a2.813 2.813 0 0 1-1.585 2.531h2.147a.844.844 0 1 1 0 1.687h-57.375a.843.843 0 0 1 0-1.687h2.148a2.813 2.813 0 0 1-1.585-2.531v-29.532zm2.812-1.968h50.625c1.088 0 1.969.881 1.969 1.968v29.532a1.968 1.968 0 0 1-1.969 1.968h-50.625a1.968 1.968 0 0 1-1.968-1.968v-29.532c0-1.087.881-1.968 1.968-1.968z" fill="#679CF6"/><path d="M225.312 104.656a.843.843 0 1 1-1.687.001.843.843 0 0 1 1.687-.001z" fill="#679CF6"/><path fill-rule="evenodd" clip-rule="evenodd" d="M74 101.844a2.812 2.812 0 0 1 2.813-2.813h50.625a2.812 2.812 0 0 1 2.812 2.813v34.031a.844.844 0 0 1-.844.844h-20.25v2.531h1.969a.844.844 0 0 1 0 1.688h-18a.844.844 0 0 1 0-1.688h1.969v-2.531h-20.25a.844.844 0 0 1-.844-.844v-34.031zm2.813-1.969h50.625c1.087 0 1.968.881 1.968 1.969v29.531a1.969 1.969 0 0 1-1.968 1.969H76.812a1.97 1.97 0 0 1-1.968-1.969v-29.531c0-1.088.881-1.969 1.969-1.969z" fill="#679CF6"/><path fill-rule="evenodd" clip-rule="evenodd" d="M139.25 76.25a.56.56 0 0 1 .562.557v5.804c0 1.575-.674 2.613-1.552 3.238-.848.606-1.85.802-2.526.802h-21.093c-1.223 0-1.933.492-2.356 1.074-.444.61-.597 1.36-.597 1.851v5.804a.56.56 0 0 1-.563.558.56.56 0 0 1-.563-.558v-5.804c0-.67.199-1.661.81-2.502.631-.869 1.679-1.537 3.269-1.537h21.093c.496 0 1.253-.152 1.869-.592.588-.419 1.085-1.122 1.085-2.334v-5.804a.56.56 0 0 1 .562-.557zm46.125 0a.56.56 0 0 0-.563.557v5.804c0 1.575.675 2.613 1.553 3.238.848.606 1.85.802 2.526.802h21.093c1.223 0 1.933.492 2.356 1.074.444.61.598 1.36.598 1.851v5.804a.56.56 0 0 0 .562.558.56.56 0 0 0 .562-.558v-5.804c0-.67-.198-1.661-.809-2.502-.631-.869-1.679-1.537-3.269-1.537h-21.093c-.496 0-1.253-.152-1.869-.592-.588-.419-1.084-1.122-1.084-2.334v-5.804a.56.56 0 0 0-.563-.557z" fill="#ADCBFB"/><path d="M162.031 76.813a.563.563 0 0 1 1.125 0v18.843a.563.563 0 1 1-1.125 0V76.812z" fill="#ADCBFB"/><path fill-rule="evenodd" clip-rule="evenodd" d="M107.59 113.32a1.09 1.09 0 0 1 0 1.542l-5.819 5.818a1.088 1.088 0 0 1-1.542 0l-2.91-2.909a1.09 1.09 0 1 1 1.543-1.542l2.138 2.137 5.047-5.046a1.09 1.09 0 0 1 1.543 0zm60 3a1.09 1.09 0 0 1 0 1.542l-5.819 5.818a1.088 1.088 0 0 1-1.542 0l-2.909-2.909a1.09 1.09 0 1 1 1.542-1.542l2.138 2.137 5.047-5.046a1.09 1.09 0 0 1 1.543 0zm62 0a1.09 1.09 0 0 1 0 1.542l-5.819 5.818a1.088 1.088 0 0 1-1.542 0l-2.909-2.909a1.09 1.09 0 1 1 1.542-1.542l2.138 2.137 5.047-5.046a1.09 1.09 0 0 1 1.543 0z" fill="#68A51B"/></svg>