<svg width="310" height="200" fill="none" xmlns="http://www.w3.org/2000/svg"><rect width="310" height="200" rx="10" fill="#F3F8FF"/><rect x="32" y="20" width="160" height="160" rx="8" fill="#E8F2FF"/><rect x="33.27" y="21.27" width="157.46" height="157.46" rx="7" fill="#DBEBFF"/><rect x="34.539" y="22.54" width="154.921" height="154.921" rx="6" fill="#CBE2FF"/><rect x="35.809" y="23.81" width="152.381" height="152.381" rx="5" fill="#fff"/><path d="M42.158 53.016a6.35 6.35 0 0 1 6.35-6.35h126.984a6.35 6.35 0 0 1 6.349 6.35v83.809a6.35 6.35 0 0 1-6.349 6.35H48.507a6.35 6.35 0 0 1-6.349-6.35V53.016z" fill="#91F0FA"/><path d="M61.847 68.558c9.355 6.096 18.751 12.22 34.28 15.57 25.904 5.587 43.809 17.565 49.523 22.856l36.191-24.255v54.097a6.35 6.35 0 0 1-6.349 6.349H48.507a6.35 6.35 0 0 1-6.349-6.349V57.544c7.636 3.159 13.654 7.08 19.69 11.014z" fill="url(#a)"/><path d="M154.068 83.126c-9.929 4.44-23.019 13.034-43.973 13.7-25.445.808-47.62 1.27-67.937 11.358v28.642a6.35 6.35 0 0 0 6.35 6.349h126.984a6.35 6.35 0 0 0 6.349-6.349V74.145c-12.853 2.308-20.487 5.723-27.773 8.98z" fill="url(#b)"/><path d="M154.068 95.824c-9.929 4.44-19.209 8.59-40.164 9.255-25.445.808-53.914 16.925-71.746 29.771v1.975a6.35 6.35 0 0 0 6.35 6.35h126.984a6.35 6.35 0 0 0 6.349-6.35V86.843c-12.853 2.308-20.487 5.723-27.773 8.98z" fill="url(#c)"/><path d="M154.377 130.621c-14.654 3.676-29.03 7.284-48.092 6.205-20.445-1.158-40.963 2.739-54.101 6.349H175.49a6.349 6.349 0 0 0 6.349-6.349v-11.865c-9.947 1.265-18.754 3.475-27.463 5.66z" fill="#48B2EE"/><rect x="42.158" y="154.603" width="139.683" height="10.159" rx="5" fill="#BDD2F5"/><rect x="59.935" y="149.524" width="38.095" height="20.317" rx="10.159" fill="#347EFF"/><path d="M71.365 155.873a1.27 1.27 0 0 1 2.54 0v7.619a1.27 1.27 0 0 1-2.54 0v-7.619zm6.349 0a1.27 1.27 0 0 1 2.54 0v7.619a1.27 1.27 0 0 1-2.54 0v-7.619zm6.35 0a1.27 1.27 0 0 1 2.54 0v7.619a1.27 1.27 0 0 1-2.54 0v-7.619z" fill="#fff"/><path d="M42.158 35.238a5.08 5.08 0 0 1 5.08-5.08h82.539a5.08 5.08 0 1 1 0 10.16h-82.54a5.08 5.08 0 0 1-5.079-5.08z" fill="#94B5E9"/><path d="M95.492 121.643V93.651H67.501v8.613c-1.675 0-5.024 1.005-5.024 5.024s3.349 5.024 5.024 5.024v9.331h9.33c0 1.674 1.005 5.024 5.024 5.024 4.02 0 5.025-3.35 5.025-5.024h8.612z" fill="#57CCEB"/><path d="M80.254 101.27c-8.127 2.54-14.815 3.175-17.143 3.175-.211-.212-.634.127-.634 3.174 0 3.048 3.386 4.656 5.079 5.08v8.888h8.889c0 1.694 1.016 5.08 5.08 5.08 4.063 0 5.078-3.386 5.078-5.08h8.89V95.556c-1.694.846-7.112 3.174-15.239 5.714z" fill="url(#d)"/><path fill-rule="evenodd" clip-rule="evenodd" d="M66.231 93.65c0-.7.569-1.27 1.27-1.27h27.992c.701 0 1.27.57 1.27 1.27v27.992a1.27 1.27 0 0 1-1.27 1.27h-7.474a6.731 6.731 0 0 1-1.113 2.612c-.99 1.374-2.627 2.412-5.05 2.412-2.424 0-4.061-1.038-5.05-2.412a6.731 6.731 0 0 1-1.114-2.612h-8.191a1.27 1.27 0 0 1-1.27-1.27v-8.191a6.735 6.735 0 0 1-2.612-1.113c-1.374-.99-2.412-2.627-2.412-5.05 0-2.424 1.038-4.061 2.412-5.05a6.753 6.753 0 0 1 2.612-1.114v-7.473zm2.54 1.27v7.344a1.27 1.27 0 0 1-1.27 1.269c-.634 0-1.614.201-2.398.766-.72.518-1.356 1.393-1.356 2.989 0 1.595.636 2.47 1.356 2.988.784.565 1.764.766 2.398.766.701 0 1.27.569 1.27 1.27v8.061h8.06c.702 0 1.27.568 1.27 1.269 0 .635.201 1.614.766 2.399.518.719 1.393 1.356 2.989 1.356 1.596 0 2.47-.637 2.989-1.356.564-.785.765-1.764.765-2.399a1.27 1.27 0 0 1 1.27-1.269h7.343V94.92H68.77z" fill="#fff"/><path opacity=".5" d="M155.174 121.643V93.651h-27.992v8.613c-1.674 0-5.024 1.005-5.024 5.024s3.35 5.024 5.024 5.024v9.331h9.331c0 1.674 1.005 5.024 5.024 5.024s5.024-3.35 5.024-5.024h8.613z" fill="#3D5784"/><path fill-rule="evenodd" clip-rule="evenodd" d="M125.913 93.65c0-.7.568-1.27 1.27-1.27h27.991c.702 0 1.27.57 1.27 1.27v27.992a1.27 1.27 0 0 1-1.27 1.27h-7.473a6.744 6.744 0 0 1-1.114 2.612c-.989 1.374-2.626 2.412-5.05 2.412-2.423 0-4.06-1.038-5.049-2.412a6.728 6.728 0 0 1-1.114-2.612h-8.191a1.27 1.27 0 0 1-1.27-1.27v-8.191a6.726 6.726 0 0 1-2.612-1.113c-1.374-.99-2.412-2.627-2.412-5.05 0-2.424 1.038-4.061 2.412-5.05a6.744 6.744 0 0 1 2.612-1.114v-7.473zm2.54 1.27v7.344a1.27 1.27 0 0 1-1.27 1.269c-.634 0-1.614.201-2.398.766-.72.518-1.357 1.393-1.357 2.989 0 1.595.637 2.47 1.357 2.988.784.565 1.764.766 2.398.766.701 0 1.27.569 1.27 1.27v8.061h8.06c.702 0 1.27.568 1.27 1.269 0 .635.201 1.614.766 2.399.518.719 1.393 1.356 2.988 1.356 1.596 0 2.471-.637 2.989-1.356.565-.785.766-1.764.766-2.399 0-.701.568-1.269 1.27-1.269h7.343V94.92h-25.452z" fill="#fff"/><path d="M232.612 96.6c.314-7.674 6.636-13.8 14.388-13.8 6.248 0 11.567 3.98 13.56 9.542 1.348-.124 3.037-.16 5.02.002C263.429 84.09 255.926 78 247 78c-10.404 0-18.874 8.274-19.191 18.6h4.803z" fill="#006EFF"/><path fill-rule="evenodd" clip-rule="evenodd" d="M230.8 99.6c2.26 0 4.321.831 5.903 2.206.61.532 2.454 2.282 4.871 4.608l3.328-3.459c-2.37-2.28-4.324-4.14-5.049-4.77A13.758 13.758 0 0 0 230.8 94.8c-7.622 0-13.801 6.179-13.801 13.8 0 7.622 6.179 13.801 13.801 13.801h5.4v-4.8h-5.4a9.001 9.001 0 0 1 0-18z" fill="#00C8DC"/><path fill-rule="evenodd" clip-rule="evenodd" d="M263.201 99.6a8.962 8.962 0 0 0-5.904 2.206c-1.136.989-6.246 5.921-11.165 10.697-1.87 1.817-3.696 3.595-5.237 5.098h22.306a9 9 0 0 0 0-18zM235 120.001l-1.678-1.716.793-.775 2.109-2.059c1.756-1.713 4.122-4.019 6.564-6.391 4.842-4.703 10.093-9.774 11.359-10.875a13.759 13.759 0 0 1 9.054-3.385c7.621 0 13.8 6.179 13.8 13.8 0 7.622-6.179 13.801-13.8 13.801h-28.2l-.001-2.4zm0 0 .001 2.4h-5.888l4.209-4.116 1.678 1.716z" fill="#00A3FF"/><defs><linearGradient id="a" x1="86.603" y1="65.715" x2="71.999" y2="116.508" gradientUnits="userSpaceOnUse"><stop stop-color="#7DECF8"/><stop offset="1" stop-color="#5DD0DC"/></linearGradient><linearGradient id="b" x1="105.65" y1="94.936" x2="109.518" y2="110.751" gradientUnits="userSpaceOnUse"><stop stop-color="#48B2EE"/><stop offset="1" stop-color="#60DCE9"/></linearGradient><linearGradient id="c" x1="105.65" y1="103.81" x2="111.999" y2="143.175" gradientUnits="userSpaceOnUse"><stop stop-color="#48B2EE"/><stop offset="1" stop-color="#60DCE9"/></linearGradient><linearGradient id="d" x1="78.984" y1="95.556" x2="78.984" y2="126.667" gradientUnits="userSpaceOnUse"><stop stop-color="#48B3EE"/><stop offset="1" stop-color="#59D0EA"/></linearGradient></defs></svg>