<svg width="320" height="160" fill="none" xmlns="http://www.w3.org/2000/svg"><rect width="320" height="160" rx="10" fill="#F3F8FF"/><path d="M271.687 65.766c-.418-6.709-4.595-10.063-9.817-10.482-7.31-.42-23.1-.336-28.614 0-6.892.42-10.234 4.402-10.861 9.853-.626 5.45-.417 18.867 0 27.881.418 9.015 5.64 11.321 10.861 11.74 5.222.419 22.766.21 27.57 0 4.804-.21 10.443-3.564 10.861-10.482.417-6.918.417-21.802 0-28.51z" fill="#07F"/><path d="M243.907 84.633c-3.55 0-7.728-6.708-7.728-14.255h-5.639c0 4.403.835 11.11 5.013 15.513 4.177 4.402 8.354 5.031 10.443 5.031h3.133v-7.337c.974.07 3.425.63 5.43 2.306 2.005 1.677 3.063 4.053 3.342 5.031h5.848c-.139-.908-.877-3.312-2.715-5.66-1.838-2.348-4.526-4.192-5.639-4.821 0 0 2.548-1.3 4.386-3.983 1.838-2.684 2.576-5.171 2.715-6.08h-5.431c-.139.839-.877 3.019-2.715 5.031-1.838 2.013-4.247 2.935-5.221 3.145v-8.176h-5.222v14.255zM48 25.015C48 19.485 52.484 15 58.015 15h106.831c5.532 0 10.016 4.484 10.016 10.015v109.97c0 5.531-4.484 10.015-10.016 10.015H58.016C52.483 145 48 140.516 48 134.985V25.015z" fill="#fff"/><path d="M84.389 124.969c0-.922.747-1.669 1.669-1.669h8.68c.922 0 1.67.747 1.67 1.669v8.68c0 .922-.748 1.669-1.67 1.669h-8.68c-.922 0-1.67-.747-1.67-1.669v-8.68z" fill="#fff"/><path d="M164.846 143.998V145H58.016v-1.002h106.83zm9.014-9.013V25.015a9.014 9.014 0 0 0-9.014-9.014H58.016a9.014 9.014 0 0 0-9.014 9.014v109.97a9.013 9.013 0 0 0 9.013 9.013V145l-.258-.003C52.345 144.86 48 140.43 48 134.985V25.015c0-5.445 4.345-9.875 9.757-10.012l.258-.003h106.831c5.532 0 10.016 4.484 10.016 10.015v109.97c0 5.531-4.484 10.015-10.016 10.015v-1.002a9.013 9.013 0 0 0 9.014-9.013z" fill="#9CB2CF"/><path d="M81.717 95.924a4.006 4.006 0 0 1 4.007-4.006h52.08a4.006 4.006 0 0 1 0 8.012h-52.08a4.006 4.006 0 0 1-4.007-4.006zM71.368 109.945a4.006 4.006 0 0 1 4.006-4.006h72.111a4.006 4.006 0 1 1 0 8.013h-72.11a4.007 4.007 0 0 1-4.007-4.007zM101.748 129.309a3.34 3.34 0 0 1 3.339-3.339h33.384a3.34 3.34 0 0 1 0 6.677h-33.384a3.339 3.339 0 0 1-3.339-3.338zM94.737 134.316v1.002h-8.68v-1.002h8.68zm.668-.667v-8.68a.668.668 0 0 0-.668-.668h-8.68a.668.668 0 0 0-.667.668v8.68c0 .368.299.667.667.667v1.002a1.67 1.67 0 0 1-1.666-1.584l-.003-.085v-8.68c0-.922.747-1.67 1.67-1.67h8.68l.085.003a1.668 1.668 0 0 1 1.584 1.667v8.68l-.003.085a1.67 1.67 0 0 1-1.58 1.582l-.087.002v-1.002a.668.668 0 0 0 .668-.667z" fill="#546884"/><path d="M111.763 25.149a4.006 4.006 0 0 1 1.67 7.648v1.032h.667c.922 0 1.669.747 1.669 1.67v.667h5.676c8.175 0 14.825 6.53 15.018 14.66a6.68 6.68 0 0 1 4.679 6.372v4.674a6.68 6.68 0 0 1-4.817 6.414c-1.011 7.316-7.287 12.95-14.88 12.95h-19.363c-7.594 0-13.87-5.635-14.88-12.95a6.68 6.68 0 0 1-4.817-6.414v-4.674a6.68 6.68 0 0 1 4.678-6.373c.193-8.129 6.843-14.66 15.019-14.66h5.675v-.667c0-.922.747-1.669 1.669-1.669h.668v-1.032a4.005 4.005 0 0 1 1.669-7.648z" fill="#2485F4"/><path d="M91.734 55.529c0-6.453 5.231-11.685 11.685-11.685h16.692c6.453 0 11.685 5.232 11.685 11.685v8.012c0 6.454-5.232 11.685-11.685 11.685h-16.692c-6.454 0-11.685-5.231-11.685-11.685V55.53zM110.173 26.896a.834.834 0 1 1 1.18 1.18l-.334.334a.834.834 0 1 1-1.18-1.18l.334-.334z" fill="#fff"/><path d="M99.413 57.7a2.504 2.504 0 1 1 5.008 0 2.504 2.504 0 0 1-5.008 0zM115.758 64.477a1.001 1.001 0 1 1 1.363 1.468c-.749.695-2.756 1.937-5.356 1.937-2.599 0-4.607-1.243-5.355-1.937a1.001 1.001 0 1 1 1.363-1.468c.45.418 1.99 1.402 3.992 1.402 2.003 0 3.543-.984 3.993-1.402zM124.284 58.733A1.003 1.003 0 0 0 125.287 57c-.538-.31-1.851-.802-3.506-.802-1.552 0-2.803.432-3.396.742l-.11.06-.044.027a1.001 1.001 0 0 0 1.001 1.732l.045-.025.052-.028c.304-.155 1.23-.505 2.452-.505 1.303 0 2.27.399 2.503.533z" fill="#5050C8"/></svg>